M48
;DRILL file {KiCad 4.0.7} date Sat Jan 20 00:24:19 2018
;FORMAT={-:-/ absolute / inch / decimal}
FMAT,2
INCH,TZ
T1C0.016
T2C0.028
T3C0.039
T4C0.040
T5C0.047
T6C0.085
T7C0.123
%
G90
G05
M72
T1
X0.8047Y-3.2657
X0.8106Y-1.5386
X1.0154Y-1.8299
X1.098Y-2.9008
X1.1413Y-0.3654
X1.1413Y-2.7236
X1.1999Y-1.7803
X1.236Y-2.0074
X1.2437Y-0.389
X1.2659Y-2.0721
X1.2706Y-0.364
X1.2969Y-0.3841
X1.3086Y-2.001
X1.3094Y-1.9283
X1.3106Y-1.7354
X1.3447Y-1.3881
X1.3458Y-2.0753
X1.3835Y-2.0378
X1.428Y-1.7393
X1.4811Y-1.6343
X1.4823Y-1.5909
X1.4937Y-1.6823
X1.5176Y-1.7619
X1.5311Y-1.2591
X1.5469Y-1.9323
X1.5508Y-2.8969
X1.6217Y-1.5307
X1.6217Y-1.5937
X1.626Y-3.1626
X1.658Y-1.6171
X1.6666Y-1.5603
X1.6804Y-1.7041
X1.7004Y-0.7079
X1.7063Y-3.2301
X1.7126Y-1.6417
X1.7201Y-1.1882
X1.7467Y-1.7817
X1.7594Y-2.8063
X1.7634Y-1.5465
X1.7753Y-1.3076
X1.7756Y-1.7205
X1.7944Y-1.6541
X1.8055Y-3.2825
X1.8106Y-2.5976
X1.8185Y-3.074
X1.8331Y-3.1953
X1.8573Y-1.2792
X1.8697Y-0.7787
X1.8731Y-1.822
X1.9016Y-1.7717
X1.913Y-2.6528
X1.9248Y-1.6921
X1.9248Y-3.263
X1.928Y-2.7819
X1.9366Y-1.5898
X1.9642Y-1.4126
X1.9799Y-2.3811
X2.0411Y-1.9239
X2.0416Y-1.894
X2.0461Y-2.8103
X2.1132Y-0.3579
X2.1404Y-0.3871
X2.1604Y-2.6565
X2.1608Y-0.828
X2.2752Y-2.7709
X2.3461Y-2.5976
X2.3854Y-0.4323
X2.4484Y-2.6528
X2.5469Y-1.889
X2.602Y-1.8299
X2.6492Y-1.7197
X2.6768Y-2.4323
X2.7429Y-3.2995
X2.7476Y-1.5898
X2.7476Y-2.3693
X2.7545Y-1.8643
X2.7988Y-1.4047
X2.7988Y-1.4953
X2.8106Y-2.3102
X2.8264Y-1.2827
X2.8461Y-2.0319
X2.8933Y-2.5661
X2.9406Y-2.0429
X2.9639Y-1.6927
X2.9642Y-2.4323
X2.9642Y-2.6528
X3.089Y-1.3109
X3.1018Y-1.9191
X3.1098Y-2.574
X3.1174Y-2.7652
X3.1232Y-3.1799
X3.139Y-1.9232
X3.1401Y-2.6341
X3.1401Y-1.4085
X3.152Y-1.7906
X3.1546Y-2.5562
X3.1597Y-1.841
X3.165Y-1.7118
X3.1973Y-2.522
X3.2529Y-1.788
X3.2559Y-1.7002
X3.2566Y-2.1614
X3.2586Y-1.1586
X3.2589Y-1.1936
X3.2743Y-2.0016
X3.2825Y-2.1952
X3.2829Y-1.9189
X3.297Y-1.4533
X3.3031Y-2.0146
X3.3053Y-1.7982
X3.3075Y-1.6395
X3.3132Y-2.0448
X3.3154Y-1.7301
X3.3248Y-1.6921
X3.3382Y-0.8654
X3.3402Y-1.5208
X3.3443Y-1.8341
X3.3474Y-1.6671
X3.3484Y-1.7776
X3.3524Y-2.1796
X3.3595Y-1.9955
X3.3697Y-1.3063
X3.3736Y-2.0449
X3.3838Y-2.1551
X3.3998Y-1.8225
X3.4209Y-3.1724
X3.435Y-2.374
X3.4366Y-2.5228
X3.4394Y-2.452
X3.4447Y-1.0352
X3.4663Y-0.9567
X3.4721Y-1.0661
X3.4957Y-2.5976
X3.5012Y-2.801
X3.5025Y-1.6064
X3.5153Y-1.5441
X3.5183Y-2.0063
X3.5315Y-1.8858
X3.532Y-0.8776
X3.5507Y-1.5009
X3.5542Y-1.5782
X3.5597Y-1.9656
T2
X0.8591Y-3.0634
X0.8591Y-3.1618
X0.8984Y-2.9846
X0.8984Y-3.2406
X0.9378Y-3.0634
X0.9378Y-3.1618
X0.9772Y-2.9846
X0.9772Y-3.2406
X1.0165Y-3.0634
X1.0165Y-3.1618
X1.0559Y-2.9846
X1.0559Y-3.2406
X1.0953Y-3.0634
X1.0953Y-3.1618
X1.1346Y-2.9846
X1.1346Y-3.2406
X1.174Y-3.0634
X1.174Y-3.1618
X1.2134Y-2.9846
X1.2134Y-3.2406
X1.2528Y-3.0634
X1.2528Y-3.1618
X1.3709Y-2.9846
X1.3709Y-3.2406
X1.4102Y-3.0634
X1.4102Y-3.1618
X1.4496Y-2.9846
X1.4496Y-3.2406
X1.489Y-3.0634
X1.489Y-3.1618
X1.5283Y-2.9846
X1.5283Y-3.2406
X1.5677Y-3.0634
X1.5677Y-3.1618
X1.6071Y-2.9846
X1.6071Y-3.2406
X1.9843Y-3.0634
X1.9843Y-3.1618
X2.0236Y-2.9846
X2.0236Y-3.2406
X2.063Y-3.0634
X2.063Y-3.1618
X2.1024Y-2.9846
X2.1024Y-3.2406
X2.1417Y-3.0634
X2.1417Y-3.1618
X2.1811Y-2.9846
X2.1811Y-3.2406
X2.2205Y-3.0634
X2.2205Y-3.1618
X2.2598Y-2.9846
X2.2598Y-3.2406
X2.2992Y-3.0634
X2.2992Y-3.1618
X2.3386Y-2.9846
X2.3386Y-3.2406
X2.378Y-3.0634
X2.378Y-3.1618
X2.4961Y-2.9846
X2.4961Y-3.2406
X2.5354Y-3.0634
X2.5354Y-3.1618
X2.5748Y-2.9846
X2.5748Y-3.2406
X2.6142Y-3.0634
X2.6142Y-3.1618
X2.6535Y-2.9846
X2.6535Y-3.2406
X2.6929Y-3.0634
X2.6929Y-3.1618
X2.7323Y-2.9846
X2.7323Y-3.2406
T3
X0.5512Y-1.4232
X0.5512Y-1.5232
X0.5512Y-1.6232
X0.5512Y-1.7232
X0.5512Y-1.8232
X0.5512Y-1.9232
T4
X1.0913Y-0.1272
X1.0913Y-0.2272
X1.1913Y-0.1272
X1.1913Y-0.2272
X1.2913Y-0.1272
X1.2913Y-0.2272
X1.3913Y-0.1272
X1.3913Y-0.2272
X1.4913Y-0.1272
X1.4913Y-0.2272
X1.5913Y-0.1272
X1.5913Y-0.2272
X1.9913Y-0.1272
X1.9913Y-0.2272
X2.0913Y-0.1272
X2.0913Y-0.2272
X2.1913Y-0.1272
X2.1913Y-0.2272
X2.2913Y-0.1272
X2.2913Y-0.2272
X2.3913Y-0.1272
X2.3913Y-0.2272
X2.4913Y-0.1272
X2.4913Y-0.2272
T5
X3.2499Y-1.062
X3.2499Y-2.3802
T6
X1.3177Y-3.1126
X1.678Y-3.1126
X2.4429Y-3.1126
X2.8031Y-3.1126
T7
X0.1386Y-0.4929
X0.1386Y-2.6961
X3.4441Y-0.4929
X3.4441Y-2.6961
T0
M30
