%FSLAX46Y46*%
%MOMM*%
%AMPS33*
4,1,4,
0.450000,-0.649996,
-0.450000,-0.649996,
-0.450000,0.000004,
0.450000,0.000004,
0.450000,-0.649996,
0
*
1,1,0.900000,0.000000,0.000004*
1,1,0.900000,0.000000,-0.649996*
4,1,4,
0.500000,0.450004,
0.500000,-0.449996,
0.000000,-0.449996,
0.000000,0.450004,
0.500000,0.450004,
0
*
1,1,0.900000,0.000000,0.000004*
1,1,0.900000,0.500000,0.000004*
%
%ADD33PS33*%
%AMPS16*
4,1,4,
0.500000,0.450004,
0.500000,-0.449996,
0.000000,-0.449996,
0.000000,0.450004,
0.500000,0.450004,
0
*
1,1,0.900000,0.000000,0.000004*
1,1,0.900000,0.500000,0.000004*
4,1,4,
0.450000,-0.649996,
-0.450000,-0.649996,
-0.450000,0.000004,
0.450000,0.000004,
0.450000,-0.649996,
0
*
1,1,0.900000,0.000000,0.000004*
1,1,0.900000,0.000000,-0.649996*
%
%ADD16PS16*%
%AMPS40*
1,1,1.066800,0.000000,0.000000*
%
%ADD40PS40*%
%AMPS38*
1,1,1.066800,0.000000,0.000000*
%
%ADD38PS38*%
%AMPS36*
1,1,1.700000,0.000000,0.000000*
%
%ADD36PS36*%
%AMPS11*
1,1,0.600000,0.000000,0.000000*
%
%ADD11PS11*%
%AMPS15*
1,1,0.600000,0.000000,0.000000*
%
%ADD15PS15*%
%AMPS12*
1,1,0.600000,0.000000,0.000000*
%
%ADD12PS12*%
%AMPS35*
1,1,1.700000,0.000000,0.000000*
%
%ADD35PS35*%
%AMPS39*
1,1,1.066800,0.000000,0.000000*
%
%ADD39PS39*%
%AMPS21*
1,1,0.900000,0.000000,0.000000*
%
%ADD21PS21*%
%AMPS23*
1,1,0.900000,0.000000,0.000000*
%
%ADD23PS23*%
%AMPS25*
1,1,0.900000,0.000000,0.000000*
%
%ADD25PS25*%
%AMPS22*
1,1,0.900000,0.000000,0.000000*
%
%ADD22PS22*%
%AMPS32*
1,1,0.600000,0.000000,0.000000*
%
%ADD32PS32*%
%AMPS37*
1,1,1.700000,0.000000,0.000000*
%
%ADD37PS37*%
%AMPS19*
1,1,0.900000,0.000000,0.000000*
%
%ADD19PS19*%
%AMPS20*
1,1,0.900000,0.000000,0.000000*
%
%ADD20PS20*%
%AMPS42*
1,1,1.066800,0.000000,0.000000*
%
%ADD42PS42*%
%AMPS27*
1,1,0.900000,0.000000,0.000000*
%
%ADD27PS27*%
%AMPS28*
1,1,0.900000,0.000000,0.000000*
%
%ADD28PS28*%
%AMPS17*
1,1,0.600000,0.000000,0.000000*
%
%ADD17PS17*%
%AMPS43*
1,1,0.900000,0.000000,0.000000*
%
%ADD43PS43*%
%AMPS29*
1,1,0.900000,0.000000,0.000000*
%
%ADD29PS29*%
%AMPS24*
1,1,0.900000,0.000000,0.000000*
%
%ADD24PS24*%
%AMPS26*
1,1,0.900000,0.000000,0.000000*
%
%ADD26PS26*%
%AMPS13*
1,1,0.600000,0.000000,0.000000*
%
%ADD13PS13*%
%AMPS41*
1,1,1.066800,0.000000,0.000000*
%
%ADD41PS41*%
%AMPS49*
1,1,0.450000,0.000000,0.000000*
%
%ADD49PS49*%
%AMPS47*
1,1,0.450000,0.000000,0.000000*
%
%ADD47PS47*%
%AMPS45*
1,1,0.450000,0.000000,0.000000*
%
%ADD45PS45*%
%AMPS44*
1,1,0.450000,0.000000,0.000000*
%
%ADD44PS44*%
%AMPS48*
1,1,0.450000,0.000000,0.000000*
%
%ADD48PS48*%
%AMPS46*
1,1,0.450000,0.000000,0.000000*
%
%ADD46PS46*%
%AMPS18*
21,1,0.500000,0.900000,0.000000,0.000000,180.000000*
1,1,0.900000,-0.250000,0.000000*
1,1,0.900000,0.250000,0.000000*
%
%ADD18PS18*%
%AMPS34*
21,1,0.500000,0.900000,0.000000,0.000000,180.000000*
1,1,0.900000,-0.250000,0.000000*
1,1,0.900000,0.250000,0.000000*
%
%ADD34PS34*%
%AMPS30*
21,1,0.500000,0.900000,0.000000,0.000000,180.000000*
1,1,0.900000,-0.250000,0.000000*
1,1,0.900000,0.250000,0.000000*
%
%ADD30PS30*%
%AMPS10*
21,1,0.500000,0.900000,0.000000,0.000000,180.000000*
1,1,0.900000,-0.250000,0.000000*
1,1,0.900000,0.250000,0.000000*
%
%ADD10PS10*%
%AMPS14*
4,1,4,
0.500000,0.450000,
0.500000,-0.450000,
0.000000,-0.450000,
0.000000,0.450000,
0.500000,0.450000,
0
*
1,1,0.900000,0.000000,0.000000*
1,1,0.900000,0.500000,0.000000*
4,1,4,
0.450000,0.000000,
-0.450000,0.000000,
-0.450000,0.650000,
0.450000,0.650000,
0.450000,0.000000,
0
*
1,1,0.900000,0.000000,0.650000*
1,1,0.900000,0.000000,0.000000*
%
%ADD14PS14*%
%AMPS31*
4,1,4,
0.500000,0.450000,
0.500000,-0.450000,
0.000000,-0.450000,
0.000000,0.450000,
0.500000,0.450000,
0
*
1,1,0.900000,0.000000,0.000000*
1,1,0.900000,0.500000,0.000000*
4,1,4,
0.450000,0.000000,
-0.450000,0.000000,
-0.450000,0.650000,
0.450000,0.650000,
0.450000,0.000000,
0
*
1,1,0.900000,0.000000,0.650000*
1,1,0.900000,0.000000,0.000000*
%
%ADD31PS31*%
G01*
G01*
%LPD*%
G75*
D10*
X43650000Y-21570000D03*
D11*
X38300000Y-26300000D03*
D12*
X39000000Y-26700000D03*
D13*
X39000000Y-28300000D03*
D14*
X38650000Y-30230000D03*
D15*
X39000000Y-25100000D03*
D15*
X38300000Y-25500000D03*
D16*
X38650000Y-21570000D03*
D13*
X38300000Y-27100000D03*
D15*
X39000000Y-23500000D03*
D11*
X38300000Y-24700000D03*
D15*
X39000000Y-27500000D03*
D13*
X39000000Y-24300000D03*
D17*
X38300000Y-23100000D03*
D11*
X38300000Y-28700000D03*
D18*
X43650000Y-30230000D03*
D19*
X-9500000Y27500000D03*
D20*
X-5500000Y25000000D03*
D21*
X-16500000Y29500000D03*
D22*
X-10500000Y23000000D03*
D20*
X-22500000Y23000000D03*
D22*
X-18500000Y23000000D03*
D23*
X-19500000Y25000000D03*
D22*
X-17500000Y25000000D03*
D22*
X-6500000Y23000000D03*
D20*
X-7500000Y25000000D03*
D24*
X-20500000Y29500000D03*
D25*
X-3500000Y27500000D03*
D19*
X-7500000Y27500000D03*
D26*
X-13500000Y25000000D03*
D26*
X-3500000Y25000000D03*
D27*
X-4500000Y29500000D03*
D24*
X-18500000Y29500000D03*
D20*
X-16500000Y23000000D03*
D24*
X-6500000Y29500000D03*
D27*
X-10500000Y29500000D03*
D19*
X-22500000Y29500000D03*
D19*
X-13500000Y27500000D03*
D20*
X-20500000Y23000000D03*
D19*
X-12500000Y29500000D03*
D21*
X-11500000Y27500000D03*
D19*
X-17500000Y27500000D03*
D19*
X-19500000Y27500000D03*
D28*
X-21500000Y25000000D03*
D25*
X-21500000Y27500000D03*
D19*
X-5500000Y27500000D03*
D29*
X-12500000Y23000000D03*
D26*
X-4500000Y23000000D03*
D25*
X-8500000Y29500000D03*
D28*
X-8500000Y23000000D03*
D20*
X-11500000Y25000000D03*
D26*
X-9500000Y25000000D03*
D30*
X43650000Y30430000D03*
D12*
X38300000Y25700000D03*
D17*
X39000000Y25300000D03*
D12*
X39000000Y23700000D03*
D31*
X38650000Y21770000D03*
D11*
X39000000Y26900000D03*
D32*
X38300000Y26500000D03*
D33*
X38650000Y30430000D03*
D12*
X38300000Y24900000D03*
D13*
X39000000Y28500000D03*
D15*
X38300000Y27300000D03*
D32*
X39000000Y24500000D03*
D11*
X39000000Y27700000D03*
D11*
X38300000Y28900000D03*
D15*
X38300000Y23300000D03*
D34*
X43650000Y21770000D03*
D35*
X-57750000Y-7810000D03*
D36*
X-57750000Y-190000D03*
D37*
X-57750000Y-2730000D03*
D35*
X-57750000Y-5270000D03*
D35*
X-57840000Y-20260000D03*
D35*
X-57840000Y-12640000D03*
D35*
X-57840000Y-15180000D03*
D36*
X-57840000Y-17720000D03*
D38*
X-56835000Y13860000D03*
D39*
X-56835000Y12590000D03*
D40*
X-56835000Y8780000D03*
D41*
X-58105000Y13860000D03*
D42*
X-58105000Y11320000D03*
D42*
X-58105000Y10050000D03*
D42*
X-56835000Y10050000D03*
D42*
X-56835000Y11320000D03*
D38*
X-58105000Y8780000D03*
D42*
X-58105000Y12590000D03*
D19*
X19500000Y27500000D03*
D26*
X23500000Y25000000D03*
D43*
X12500000Y29500000D03*
D22*
X18500000Y23000000D03*
D26*
X6500000Y23000000D03*
D29*
X10500000Y23000000D03*
D23*
X9500000Y25000000D03*
D22*
X11500000Y25000000D03*
D20*
X22500000Y23000000D03*
D22*
X21500000Y25000000D03*
D19*
X8500000Y29500000D03*
D19*
X25500000Y27500000D03*
D19*
X21500000Y27500000D03*
D20*
X15500000Y25000000D03*
D22*
X25500000Y25000000D03*
D21*
X24500000Y29500000D03*
D24*
X10500000Y29500000D03*
D26*
X12500000Y23000000D03*
D24*
X22500000Y29500000D03*
D19*
X18500000Y29500000D03*
D19*
X6500000Y29500000D03*
D24*
X15500000Y27500000D03*
D26*
X8500000Y23000000D03*
D27*
X16500000Y29500000D03*
D27*
X17500000Y27500000D03*
D43*
X11500000Y27500000D03*
D19*
X9500000Y27500000D03*
D29*
X7500000Y25000000D03*
D21*
X7500000Y27500000D03*
D27*
X23500000Y27500000D03*
D28*
X16500000Y23000000D03*
D22*
X24500000Y23000000D03*
D25*
X20500000Y29500000D03*
D28*
X20500000Y23000000D03*
D28*
X17500000Y25000000D03*
D20*
X19500000Y25000000D03*
D44*
X10240000Y610000D03*
D45*
X11040000Y2210000D03*
D45*
X10240000Y3010000D03*
D45*
X4640000Y-8990000D03*
D45*
X1440000Y-6590000D03*
D45*
X11840000Y2210000D03*
D45*
X1440000Y-4190000D03*
D46*
X-18800000Y96800000D03*
D45*
X2240000Y3810000D03*
D45*
X3040000Y-990000D03*
D47*
X11040000Y-3390000D03*
D44*
X3040000Y2210000D03*
D44*
X2240000Y1410000D03*
D44*
X5440000Y-7390000D03*
D45*
X2240000Y2210000D03*
D44*
X12640000Y3810000D03*
D44*
X7040000Y-7390000D03*
D45*
X2240000Y-8190000D03*
D48*
X10240000Y-5790000D03*
D46*
X13440000Y3810000D03*
D47*
X11040000Y-990000D03*
D44*
X5440000Y3810000D03*
D46*
X11040000Y610000D03*
D47*
X9440000Y-7390000D03*
D47*
X13440000Y1410000D03*
D45*
X7840000Y-7390000D03*
D45*
X2240000Y-5790000D03*
D44*
X8640000Y2210000D03*
D45*
X3840000Y2210000D03*
D46*
X3040000Y-190000D03*
D49*
X2240000Y-990000D03*
D45*
X12640000Y-190000D03*
D46*
X2240000Y-6590000D03*
D44*
X12640000Y-4990000D03*
D45*
X4640000Y-4990000D03*
D44*
X1440000Y610000D03*
D45*
X6240000Y3010000D03*
D47*
X7040000Y-990000D03*
D46*
X11840000Y3010000D03*
D45*
X14240000Y610000D03*
D45*
X2240000Y-190000D03*
D44*
X1440000Y-7390000D03*
D45*
X11040000Y-1790000D03*
D44*
X13440000Y-8190000D03*
D44*
X4640000Y-1790000D03*
D45*
X13440000Y-990000D03*
D49*
X3040000Y-3390000D03*
D44*
X9440000Y-8990000D03*
D47*
X11040000Y3810000D03*
D45*
X8640000Y-990000D03*
D45*
X5440000Y610000D03*
D45*
X1440000Y-990000D03*
D45*
X6240000Y2210000D03*
D44*
X10240000Y2210000D03*
D46*
X14240000Y-1790000D03*
D45*
X12640000Y610000D03*
D47*
X13440000Y3010000D03*
D45*
X15040000Y-8990000D03*
D44*
X13440000Y610000D03*
D45*
X14240000Y2210000D03*
D49*
X14240000Y-4990000D03*
D44*
X1440000Y-190000D03*
D45*
X7040000Y-4190000D03*
D44*
X11040000Y-8190000D03*
D47*
X7040000Y-1790000D03*
D47*
X14240000Y-4190000D03*
D45*
X4640000Y-4190000D03*
D49*
X2240000Y610000D03*
D45*
X8640000Y-4190000D03*
D44*
X1440000Y-8190000D03*
D48*
X14240000Y3010000D03*
D47*
X8640000Y-4990000D03*
D46*
X1440000Y2210000D03*
D45*
X9440000Y2210000D03*
D44*
X13440000Y-4990000D03*
D44*
X4640000Y3810000D03*
D46*
X13440000Y-6590000D03*
D44*
X4640000Y-3390000D03*
D44*
X3040000Y3010000D03*
D44*
X14240000Y-7390000D03*
D44*
X14240000Y-990000D03*
D45*
X-18000000Y96800000D03*
D49*
X3040000Y3810000D03*
D45*
X14240000Y-190000D03*
D45*
X4640000Y3010000D03*
D48*
X11040000Y3010000D03*
D44*
X14240000Y-8190000D03*
D45*
X9440000Y3010000D03*
D45*
X12640000Y-990000D03*
D44*
X2240000Y-4190000D03*
D44*
X13440000Y-5790000D03*
D45*
X13440000Y-8990000D03*
D45*
X10240000Y-2590000D03*
D45*
X7040000Y-4990000D03*
D47*
X11040000Y-190000D03*
D47*
X14240000Y-3390000D03*
D45*
X12640000Y2210000D03*
D47*
X13440000Y-7390000D03*
D45*
X6240000Y-2590000D03*
D44*
X8640000Y-190000D03*
D46*
X4640000Y-7390000D03*
D45*
X11040000Y-7390000D03*
D44*
X8640000Y-1790000D03*
D45*
X11040000Y-4190000D03*
D45*
X2240000Y-1790000D03*
D45*
X2240000Y-3390000D03*
D48*
X10240000Y-990000D03*
D48*
X8640000Y-7390000D03*
D48*
X8640000Y-3390000D03*
D44*
X3040000Y-1790000D03*
D45*
X3040000Y610000D03*
D45*
X12640000Y3010000D03*
D47*
X6240000Y-8190000D03*
D48*
X10240000Y3810000D03*
D47*
X3040000Y-7390000D03*
D46*
X2240000Y-4990000D03*
D45*
X13440000Y-3390000D03*
D45*
X3040000Y-8990000D03*
D45*
X6240000Y-7390000D03*
D46*
X4640000Y-5790000D03*
D48*
X3840000Y3810000D03*
D45*
X3040000Y-8190000D03*
D48*
X6240000Y-990000D03*
D49*
X11840000Y-7390000D03*
D47*
X3040000Y-4990000D03*
D46*
X7840000Y-8990000D03*
D47*
X9440000Y-8190000D03*
D47*
X3040000Y-5790000D03*
D49*
X4640000Y-190000D03*
D45*
X10240000Y-6590000D03*
D44*
X7040000Y610000D03*
D44*
X4640000Y2210000D03*
D44*
X2240000Y-7390000D03*
D48*
X8640000Y610000D03*
D46*
X3840000Y3010000D03*
D44*
X13440000Y-4190000D03*
D45*
X6240000Y-5790000D03*
D45*
X7840000Y-8190000D03*
D47*
X12640000Y1410000D03*
D44*
X7040000Y2210000D03*
D45*
X11840000Y3810000D03*
D46*
X11040000Y-5790000D03*
D48*
X10240000Y-4190000D03*
D45*
X12640000Y-4190000D03*
D44*
X12640000Y-5790000D03*
D45*
X3040000Y1410000D03*
D45*
X4640000Y610000D03*
D47*
X4640000Y-990000D03*
D48*
X7040000Y-3390000D03*
D45*
X5440000Y-8190000D03*
D48*
X6240000Y3810000D03*
D45*
X5440000Y2210000D03*
D47*
X2240000Y3010000D03*
D45*
X12640000Y-6590000D03*
D47*
X3040000Y-6590000D03*
D45*
X14240000Y-6590000D03*
D46*
X9440000Y3810000D03*
D45*
X1440000Y-3390000D03*
D45*
X10240000Y-7390000D03*
D45*
X7040000Y-190000D03*
D47*
X7040000Y3810000D03*
D45*
X1440000Y1410000D03*
D45*
X14240000Y1410000D03*
D45*
X6240000Y-4190000D03*
D46*
X8640000Y3010000D03*
D47*
X11040000Y-4990000D03*
D47*
X14240000Y-5790000D03*
D45*
X11840000Y-8990000D03*
D46*
X1440000Y-5790000D03*
D46*
X7040000Y3010000D03*
D45*
X13440000Y-190000D03*
D45*
X1440000Y3010000D03*
D45*
X5440000Y3010000D03*
D45*
X1440000Y-4990000D03*
D44*
X13440000Y2210000D03*
M02*
