%FSLAX46Y46*%
%MOMM*%
%ADD10C,0.127000*%
%AMPS71*
4,1,4,
0.500000,0.450004,
0.500000,-0.449996,
0.000000,-0.449996,
0.000000,0.450004,
0.500000,0.450004,
0
*
1,1,0.900000,0.000000,0.000004*
1,1,0.900000,0.500000,0.000004*
4,1,4,
0.450000,-0.649996,
-0.450000,-0.649996,
-0.450000,0.000004,
0.450000,0.000004,
0.450000,-0.649996,
0
*
1,1,0.900000,0.000000,0.000004*
1,1,0.900000,0.000000,-0.649996*
%
%ADD71PS71*%
%AMPS47*
4,1,4,
0.500000,0.450004,
0.500000,-0.449996,
0.000000,-0.449996,
0.000000,0.450004,
0.500000,0.450004,
0
*
1,1,0.900000,0.000000,0.000004*
1,1,0.900000,0.500000,0.000004*
4,1,4,
0.450000,-0.649996,
-0.450000,-0.649996,
-0.450000,0.000004,
0.450000,0.000004,
0.450000,-0.649996,
0
*
1,1,0.900000,0.000000,0.000004*
1,1,0.900000,0.000000,-0.649996*
%
%ADD47PS47*%
%AMPS23*
1,1,0.250000,0.000000,0.000000*
%
%ADD23PS23*%
%AMPS76*
1,1,0.400000,0.000000,0.000000*
%
%ADD76PS76*%
%AMPS31*
1,1,0.350000,0.000000,0.000000*
%
%ADD31PS31*%
%AMPS85*
1,1,1.066800,0.000000,0.000000*
%
%ADD85PS85*%
%AMPS83*
1,1,1.066800,0.000000,0.000000*
%
%ADD83PS83*%
%AMPS74*
1,1,1.700000,0.000000,0.000000*
%
%ADD74PS74*%
%AMPS42*
1,1,0.600000,0.000000,0.000000*
%
%ADD42PS42*%
%AMPS46*
1,1,0.600000,0.000000,0.000000*
%
%ADD46PS46*%
%AMPS43*
1,1,0.600000,0.000000,0.000000*
%
%ADD43PS43*%
%AMPS73*
1,1,1.700000,0.000000,0.000000*
%
%ADD73PS73*%
%AMPS84*
1,1,1.066800,0.000000,0.000000*
%
%ADD84PS84*%
%AMPS59*
1,1,0.900000,0.000000,0.000000*
%
%ADD59PS59*%
%AMPS61*
1,1,0.900000,0.000000,0.000000*
%
%ADD61PS61*%
%AMPS63*
1,1,0.900000,0.000000,0.000000*
%
%ADD63PS63*%
%AMPS60*
1,1,0.900000,0.000000,0.000000*
%
%ADD60PS60*%
%AMPS70*
1,1,0.600000,0.000000,0.000000*
%
%ADD70PS70*%
%AMPS75*
1,1,1.700000,0.000000,0.000000*
%
%ADD75PS75*%
%AMPS57*
1,1,0.900000,0.000000,0.000000*
%
%ADD57PS57*%
%AMPS58*
1,1,0.900000,0.000000,0.000000*
%
%ADD58PS58*%
%AMPS87*
1,1,1.066800,0.000000,0.000000*
%
%ADD87PS87*%
%AMPS65*
1,1,0.900000,0.000000,0.000000*
%
%ADD65PS65*%
%AMPS66*
1,1,0.900000,0.000000,0.000000*
%
%ADD66PS66*%
%AMPS48*
1,1,0.600000,0.000000,0.000000*
%
%ADD48PS48*%
%AMPS88*
1,1,0.900000,0.000000,0.000000*
%
%ADD88PS88*%
%AMPS67*
1,1,0.900000,0.000000,0.000000*
%
%ADD67PS67*%
%AMPS62*
1,1,0.900000,0.000000,0.000000*
%
%ADD62PS62*%
%AMPS64*
1,1,0.900000,0.000000,0.000000*
%
%ADD64PS64*%
%AMPS44*
1,1,0.600000,0.000000,0.000000*
%
%ADD44PS44*%
%AMPS86*
1,1,1.066800,0.000000,0.000000*
%
%ADD86PS86*%
%AMPS56*
21,1,0.890000,1.650000,0.000000,0.000000,90.000000*
%
%ADD56PS56*%
%AMPS55*
21,1,0.890000,1.650000,0.000000,0.000000,270.000000*
%
%ADD55PS55*%
%AMPS80*
21,1,0.450000,1.050000,0.000000,0.000000,0.000000*
%
%ADD80PS80*%
%AMPS81*
21,1,0.450000,1.050000,0.000000,0.000000,180.000000*
%
%ADD81PS81*%
%AMPS82*
21,1,0.600000,0.500000,0.000000,0.000000,0.000000*
%
%ADD82PS82*%
%AMPS54*
21,1,0.600000,0.500000,0.000000,0.000000,180.000000*
%
%ADD54PS54*%
%AMPS11*
21,1,0.650000,1.450000,0.000000,0.000000,90.000000*
%
%ADD11PS11*%
%AMPS12*
21,1,0.650000,1.450000,0.000000,0.000000,270.000000*
%
%ADD12PS12*%
%AMPS13*
21,1,0.690000,0.320000,0.000000,0.000000,0.000000*
%
%ADD13PS13*%
%AMPS39*
21,1,0.690000,0.320000,0.000000,0.000000,180.000000*
%
%ADD39PS39*%
%AMPS51*
21,1,0.890000,1.600000,0.000000,0.000000,90.000000*
%
%ADD51PS51*%
%AMPS50*
21,1,0.890000,1.600000,0.000000,0.000000,270.000000*
%
%ADD50PS50*%
%AMPS53*
21,1,0.220000,0.700000,0.000000,0.000000,0.000000*
%
%ADD53PS53*%
%AMPS78*
21,1,0.600000,1.500000,0.000000,0.000000,90.000000*
%
%ADD78PS78*%
%AMPS77*
21,1,0.600000,1.500000,0.000000,0.000000,270.000000*
%
%ADD77PS77*%
%AMPS52*
21,1,0.220000,0.450000,0.000000,0.000000,270.000000*
%
%ADD52PS52*%
%AMPS25*
21,1,0.700000,0.220000,0.000000,0.000000,180.000000*
%
%ADD25PS25*%
%AMPS24*
21,1,0.700000,0.220000,0.000000,0.000000,270.000000*
%
%ADD24PS24*%
%AMPS14*
21,1,0.690000,0.220000,0.000000,0.000000,0.000000*
%
%ADD14PS14*%
%AMPS16*
21,1,0.690000,0.220000,0.000000,0.000000,90.000000*
%
%ADD16PS16*%
%AMPS17*
21,1,0.690000,0.220000,0.000000,0.000000,180.000000*
%
%ADD17PS17*%
%AMPS15*
21,1,0.690000,0.220000,0.000000,0.000000,270.000000*
%
%ADD15PS15*%
%AMPS40*
21,1,0.320000,0.700000,0.000000,0.000000,90.000000*
%
%ADD40PS40*%
%AMPS94*
1,1,0.450000,0.000000,0.000000*
%
%ADD94PS94*%
%AMPS92*
1,1,0.450000,0.000000,0.000000*
%
%ADD92PS92*%
%AMPS90*
1,1,0.450000,0.000000,0.000000*
%
%ADD90PS90*%
%AMPS89*
1,1,0.450000,0.000000,0.000000*
%
%ADD89PS89*%
%AMPS93*
1,1,0.450000,0.000000,0.000000*
%
%ADD93PS93*%
%AMPS91*
1,1,0.450000,0.000000,0.000000*
%
%ADD91PS91*%
%AMPS49*
21,1,0.500000,0.900000,0.000000,0.000000,180.000000*
1,1,0.900000,-0.250000,0.000000*
1,1,0.900000,0.250000,0.000000*
%
%ADD49PS49*%
%AMPS72*
21,1,0.500000,0.900000,0.000000,0.000000,180.000000*
1,1,0.900000,-0.250000,0.000000*
1,1,0.900000,0.250000,0.000000*
%
%ADD72PS72*%
%AMPS68*
21,1,0.500000,0.900000,0.000000,0.000000,180.000000*
1,1,0.900000,-0.250000,0.000000*
1,1,0.900000,0.250000,0.000000*
%
%ADD68PS68*%
%AMPS41*
21,1,0.500000,0.900000,0.000000,0.000000,180.000000*
1,1,0.900000,-0.250000,0.000000*
1,1,0.900000,0.250000,0.000000*
%
%ADD41PS41*%
%AMPS32*
21,1,1.200000,0.900000,0.000000,0.000000,270.000000*
%
%ADD32PS32*%
%AMPS28*
4,1,5,
-2.800000,-2.800000,
-2.800000,2.430000,
-2.430000,2.800000,
2.800000,2.800000,
2.800000,-2.800000,
-2.800000,-2.800000,
0
*
%
%ADD28PS28*%
%AMPS33*
1,1,0.100000,0.200000,-0.050000*
1,1,0.100000,-0.200000,0.050000*
1,1,0.100000,0.200000,0.050000*
21,1,0.500000,0.100000,0.000000,0.000000,0.000000*
21,1,0.400000,0.200000,0.000000,0.000000,0.000000*
1,1,0.100000,-0.200000,-0.050000*
%
%ADD33PS33*%
%AMPS34*
1,1,0.100000,-0.200000,0.050000*
1,1,0.100000,0.200000,-0.050000*
1,1,0.100000,-0.200000,-0.050000*
21,1,0.500000,0.100000,0.000000,0.000000,180.000000*
21,1,0.400000,0.200000,0.000000,0.000000,180.000000*
1,1,0.100000,0.200000,0.050000*
%
%ADD34PS34*%
%AMPS38*
1,1,0.200000,-0.900000,-1.150000*
1,1,0.200000,0.900000,1.150000*
1,1,0.200000,0.900000,-1.150000*
21,1,2.500000,1.800000,0.000000,0.000000,270.000000*
21,1,2.300000,2.000000,0.000000,0.000000,270.000000*
1,1,0.200000,-0.900000,1.150000*
%
%ADD38PS38*%
%AMPS22*
1,1,0.100000,1.300000,-1.300000*
1,1,0.100000,-1.300000,1.300000*
1,1,0.100000,1.300000,1.300000*
21,1,2.700000,2.600000,0.000000,0.000000,0.000000*
21,1,2.600000,2.700000,0.000000,0.000000,0.000000*
1,1,0.100000,-1.300000,-1.300000*
%
%ADD22PS22*%
%AMPS29*
1,1,0.100000,-0.232500,0.050000*
1,1,0.100000,0.232500,-0.050000*
1,1,0.100000,-0.232500,-0.050000*
21,1,0.565000,0.100000,0.000000,0.000000,180.000000*
21,1,0.465000,0.200000,0.000000,0.000000,180.000000*
1,1,0.100000,0.232500,0.050000*
%
%ADD29PS29*%
%AMPS35*
1,1,0.100000,-0.400000,0.700000*
1,1,0.100000,0.400000,-0.700000*
1,1,0.100000,-0.400000,-0.700000*
21,1,0.900000,1.400000,0.000000,0.000000,180.000000*
21,1,0.800000,1.500000,0.000000,0.000000,180.000000*
1,1,0.100000,0.400000,0.700000*
%
%ADD35PS35*%
%AMPS79*
1,1,0.200000,0.400000,-0.275000*
1,1,0.200000,-0.400000,0.275000*
1,1,0.200000,0.400000,0.275000*
21,1,1.000000,0.550000,0.000000,0.000000,0.000000*
21,1,0.800000,0.750000,0.000000,0.000000,0.000000*
1,1,0.200000,-0.400000,-0.275000*
%
%ADD79PS79*%
%AMPS30*
1,1,0.100000,-0.232500,0.150000*
1,1,0.100000,0.232500,-0.150000*
1,1,0.100000,-0.232500,-0.150000*
21,1,0.565000,0.300000,0.000000,0.000000,180.000000*
21,1,0.465000,0.400000,0.000000,0.000000,180.000000*
1,1,0.100000,0.232500,0.150000*
%
%ADD30PS30*%
%AMPS36*
1,1,0.200000,1.150000,0.075000*
1,1,0.200000,-1.150000,-0.075000*
1,1,0.200000,-1.150000,0.075000*
21,1,0.350000,2.300000,0.000000,0.000000,90.000000*
21,1,0.150000,2.500000,0.000000,0.000000,90.000000*
1,1,0.200000,1.150000,-0.075000*
%
%ADD36PS36*%
%AMPS37*
1,1,0.200000,-1.150000,-0.075000*
1,1,0.200000,1.150000,0.075000*
1,1,0.200000,1.150000,-0.075000*
21,1,0.350000,2.300000,0.000000,0.000000,270.000000*
21,1,0.150000,2.500000,0.000000,0.000000,270.000000*
1,1,0.200000,-1.150000,0.075000*
%
%ADD37PS37*%
%AMPS20*
1,1,0.350000,0.000000,-0.225000*
1,1,0.350000,0.000000,0.225000*
1,1,0.350000,0.000000,0.225000*
21,1,0.350000,0.450000,0.000000,0.000000,0.000000*
21,1,0.000000,0.800000,0.000000,0.000000,0.000000*
1,1,0.350000,0.000000,-0.225000*
%
%ADD20PS20*%
%AMPS18*
1,1,0.350000,0.225000,0.000000*
1,1,0.350000,-0.225000,0.000000*
1,1,0.350000,-0.225000,0.000000*
21,1,0.350000,0.450000,0.000000,0.000000,90.000000*
21,1,0.000000,0.800000,0.000000,0.000000,90.000000*
1,1,0.350000,0.225000,0.000000*
%
%ADD18PS18*%
%AMPS21*
1,1,0.350000,0.000000,0.225000*
1,1,0.350000,0.000000,-0.225000*
1,1,0.350000,0.000000,-0.225000*
21,1,0.350000,0.450000,0.000000,0.000000,180.000000*
21,1,0.000000,0.800000,0.000000,0.000000,180.000000*
1,1,0.350000,0.000000,0.225000*
%
%ADD21PS21*%
%AMPS19*
1,1,0.350000,-0.225000,0.000000*
1,1,0.350000,0.225000,0.000000*
1,1,0.350000,0.225000,0.000000*
21,1,0.350000,0.450000,0.000000,0.000000,270.000000*
21,1,0.000000,0.800000,0.000000,0.000000,270.000000*
1,1,0.350000,-0.225000,0.000000*
%
%ADD19PS19*%
%AMPS45*
4,1,4,
0.500000,0.450000,
0.500000,-0.450000,
0.000000,-0.450000,
0.000000,0.450000,
0.500000,0.450000,
0
*
1,1,0.900000,0.000000,0.000000*
1,1,0.900000,0.500000,0.000000*
4,1,4,
0.450000,0.000000,
-0.450000,0.000000,
-0.450000,0.650000,
0.450000,0.650000,
0.450000,0.000000,
0
*
1,1,0.900000,0.000000,0.650000*
1,1,0.900000,0.000000,0.000000*
%
%ADD45PS45*%
%AMPS69*
4,1,4,
0.500000,0.450000,
0.500000,-0.450000,
0.000000,-0.450000,
0.000000,0.450000,
0.500000,0.450000,
0
*
1,1,0.900000,0.000000,0.000000*
1,1,0.900000,0.500000,0.000000*
4,1,4,
0.450000,0.000000,
-0.450000,0.000000,
-0.450000,0.650000,
0.450000,0.650000,
0.450000,0.000000,
0
*
1,1,0.900000,0.000000,0.650000*
1,1,0.900000,0.000000,0.000000*
%
%ADD69PS69*%
%AMPS27*
4,1,8,
0.000000,0.000000,
0.700000,0.000000,
0.700000,0.220000,
0.310000,0.220000,
0.310000,0.400000,
0.700000,0.400000,
0.700000,0.620000,
0.000000,0.620000,
0.000000,0.000000,
0
*
%
%ADD27PS27*%
%AMPS26*
4,1,12,
0.000000,0.000000,
-0.700000,0.000000,
-0.700000,-0.220000,
-0.310000,-0.220000,
-0.310000,-0.400000,
-0.700000,-0.400000,
-0.700000,-0.620000,
-0.310000,-0.620000,
-0.310000,-0.800000,
-0.700000,-0.800000,
-0.700000,-1.020000,
0.000000,-1.020000,
0.000000,0.000000,
0
*
%
%ADD26PS26*%
G01*
G01*
%LPD*%
D10*
X4240000Y4210000D02*
X3849490Y4600510D01*
D10*
X14990000Y3512264D02*
X15297226Y3819490D01*
D10*
X3040000Y-8990000D02*
X3440000Y-8590000D01*
D10*
X8640000Y610000D02*
X9040000Y1010000D01*
D10*
X8640000Y-1790000D02*
X9040000Y-2190000D01*
D10*
X15030510Y-999490D02*
X20705510Y-999490D01*
D10*
X4640000Y-3390000D02*
X4240000Y-2990000D01*
D10*
X5840000Y-2190000D02*
X6240000Y-2590000D01*
D10*
X1040000Y3410000D02*
X792264Y3410000D01*
D10*
X13040000Y2610000D02*
X13440000Y3010000D01*
D10*
X9840000Y2610000D02*
X10240000Y3010000D01*
D10*
X12240000Y1010000D02*
X12640000Y1410000D01*
D10*
X5840000Y2610000D02*
X5440000Y3010000D01*
D10*
X13040000Y210000D02*
X13440000Y610000D01*
D10*
X3440000Y-4590000D02*
X3040000Y-4990000D01*
D10*
X12240000Y-5390000D02*
X12640000Y-5790000D01*
D10*
X12240000Y1810000D02*
X12640000Y2210000D01*
D10*
X9040000Y2610000D02*
X9440000Y3010000D01*
D10*
X680510Y-9390000D02*
X630510Y-9440000D01*
D10*
X4640000Y-990000D02*
X4240000Y-1390000D01*
D10*
X10640000Y4210000D02*
X11030510Y4600510D01*
D10*
X240000Y-4590000D02*
X-3385000Y-4590000D01*
D10*
X1040000Y-6990000D02*
X649490Y-7380510D01*
D10*
X12240000Y-7790000D02*
X11840000Y-7390000D01*
D10*
X11040000Y-4990000D02*
X10640000Y-4590000D01*
D10*
X630510Y-4999490D02*
X-3334734Y-4999490D01*
D10*
X13840000Y-3790000D02*
X14240000Y-4190000D01*
D10*
X-1785000Y3810000D02*
X-1930990Y3664010D01*
D10*
X23524224Y-7790000D02*
X23774224Y-7540000D01*
D10*
X5040000Y-9390000D02*
X4640000Y-8990000D01*
D10*
X7440000Y-2990000D02*
X7040000Y-3390000D01*
D10*
X10640000Y-9390000D02*
X10094010Y-9935990D01*
D10*
X649490Y3000510D02*
X-2200510Y3000510D01*
D10*
X240000Y1810000D02*
X-2860000Y1810000D01*
D10*
X8640000Y-1790000D02*
X8240000Y-2190000D01*
D10*
X5040000Y1010000D02*
X5440000Y610000D01*
D10*
X9840000Y-7790000D02*
X9440000Y-8190000D01*
D10*
X10240000Y610000D02*
X10640000Y210000D01*
D10*
X14640000Y1810000D02*
X15049490Y2219490D01*
D10*
X15297226Y3819490D02*
X17424490Y3819490D01*
D10*
X1040000Y2610000D02*
X649490Y3000510D01*
D10*
X4240000Y5010000D02*
X4240000Y8160000D01*
D10*
X6240000Y-990000D02*
X5840000Y-1390000D01*
D10*
X1430510Y-9551754D02*
X1182774Y-9799490D01*
D10*
X5840000Y-7790000D02*
X6240000Y-8190000D01*
D10*
X8240000Y-4590000D02*
X8640000Y-4190000D01*
D10*
X13040000Y-5390000D02*
X13440000Y-5790000D01*
D10*
X12240000Y-590000D02*
X12640000Y-190000D01*
D10*
X-60320000Y26030000D02*
X-59650000Y26700000D01*
D10*
X13040000Y4210000D02*
X13430510Y4600510D01*
D10*
X15030510Y-199490D02*
X20330510Y-199490D01*
D10*
X11440000Y-1390000D02*
X11040000Y-990000D01*
D10*
X240000Y4210000D02*
X-2310000Y4210000D01*
D10*
X12240000Y210000D02*
X12640000Y610000D01*
D10*
X4240000Y-590000D02*
X4640000Y-990000D01*
D10*
X7840000Y-8990000D02*
X8240000Y-8590000D01*
D10*
X8640000Y-3390000D02*
X9040000Y-3790000D01*
D10*
X649490Y-8980510D02*
X-4419490Y-8980510D01*
D10*
X8240000Y4210000D02*
X8630510Y4600510D01*
D10*
X13040000Y-1390000D02*
X13440000Y-990000D01*
D10*
X9040000Y4210000D02*
X9430510Y4600510D01*
D10*
X12240000Y-1390000D02*
X12640000Y-990000D01*
D10*
X9040000Y-6990000D02*
X9440000Y-7390000D01*
D10*
X9440000Y-8190000D02*
X9840000Y-8590000D01*
D10*
X5440000Y610000D02*
X5840000Y210000D01*
D10*
X15440000Y-1390000D02*
X19865000Y-1390000D01*
D10*
X6640000Y-1390000D02*
X7040000Y-1790000D01*
D10*
X10230510Y4600510D02*
X10230510Y6800510D01*
D10*
X240000Y2610000D02*
X-2294224Y2610000D01*
D10*
X14640000Y1285000D02*
X14774490Y1419490D01*
D10*
X1040000Y-7790000D02*
X649490Y-8180510D01*
D10*
X7040000Y-3390000D02*
X6640000Y-3790000D01*
D10*
X1840000Y-9765000D02*
X1712736Y-9765000D01*
D10*
X15049490Y3019490D02*
X18824490Y3019490D01*
D10*
X4240000Y-5390000D02*
X4640000Y-5790000D01*
D10*
X3440000Y-2190000D02*
X3040000Y-1790000D01*
D10*
X2640000Y-590000D02*
X2240000Y-190000D01*
D10*
X14774490Y4619490D02*
X14849490Y4619490D01*
D10*
X792264Y1010000D02*
X392264Y1410000D01*
D10*
X9440000Y-8190000D02*
X9040000Y-8590000D01*
D10*
X8240000Y210000D02*
X8640000Y-190000D01*
D10*
X15030510Y-7380510D02*
X23574490Y-7380510D01*
D10*
X10640000Y-3790000D02*
X11040000Y-4190000D01*
D10*
X11440000Y-2190000D02*
X11040000Y-1790000D01*
D10*
X5040000Y-6990000D02*
X5440000Y-7390000D01*
D10*
X240000Y-2990000D02*
X-3335000Y-2990000D01*
D10*
X1840000Y-10190000D02*
X1840000Y-12615000D01*
D10*
X5040000Y-5390000D02*
X4640000Y-4990000D01*
D10*
X1449490Y4600510D02*
X1449490Y8225510D01*
D10*
X-60320000Y25555000D02*
X-60320000Y26030000D01*
D10*
X4240000Y1010000D02*
X4640000Y610000D01*
D10*
X11440000Y-5390000D02*
X11040000Y-5790000D01*
D10*
X3440000Y1010000D02*
X3040000Y1410000D01*
D10*
X1430510Y-9247226D02*
X1430510Y-9551754D01*
D10*
X2894010Y-12895214D02*
X1924224Y-13865000D01*
D10*
X9840000Y-6990000D02*
X10240000Y-7390000D01*
D10*
X8240000Y-2990000D02*
X8640000Y-3390000D01*
D10*
X630510Y-9440000D02*
X630510Y-9551754D01*
D10*
X1040000Y210000D02*
X765000Y210000D01*
D10*
X3440000Y-6990000D02*
X3040000Y-7390000D01*
D10*
X14801754Y3819490D02*
X15049490Y4067226D01*
D10*
X1840000Y-2990000D02*
X1440000Y-3390000D01*
D10*
X15040000Y-8990000D02*
X15440000Y-8590000D01*
D10*
X11040000Y-4990000D02*
X11440000Y-4590000D01*
D10*
X11040000Y-1790000D02*
X10640000Y-2190000D01*
D10*
X1430510Y-2599490D02*
X-3700510Y-2599490D01*
D10*
X1840000Y4210000D02*
X1449490Y4600510D01*
D10*
X8240000Y1810000D02*
X8640000Y2210000D01*
D10*
X12240000Y5010000D02*
X12240000Y5285000D01*
D10*
X6640000Y-7790000D02*
X6240000Y-8190000D01*
D10*
X7040000Y-1790000D02*
X7440000Y-2190000D01*
D10*
X9840000Y-5390000D02*
X10240000Y-5790000D01*
D10*
X240000Y-1390000D02*
X-3110000Y-1390000D01*
D10*
X10240000Y-2590000D02*
X9840000Y-2990000D01*
D10*
X1182774Y-9799490D02*
X878246Y-9799490D01*
D10*
X10240000Y-4190000D02*
X9840000Y-3790000D01*
D10*
X2640000Y-2990000D02*
X2240000Y-3390000D01*
D10*
X9430510Y4600510D02*
X9430510Y6500510D01*
D10*
X3440000Y-1390000D02*
X3040000Y-990000D01*
D10*
X7040000Y-190000D02*
X7440000Y210000D01*
D10*
X240000Y-590000D02*
X-2885000Y-590000D01*
D10*
X13840000Y3410000D02*
X14249490Y3819490D01*
D10*
X3440000Y4210000D02*
X3049490Y4600510D01*
D10*
X6230510Y-9780510D02*
X6230510Y-13424490D01*
D10*
X10094010Y-9973466D02*
X10090000Y-13490000D01*
D10*
X13840000Y-7790000D02*
X14240000Y-8190000D01*
D10*
X1449490Y3800510D02*
X1008714Y3800510D01*
D10*
X15440000Y3410000D02*
X18315000Y3410000D01*
D10*
X1840000Y-2190000D02*
X1430510Y-2599490D01*
D10*
X630510Y-9551754D02*
X401754Y-9780510D01*
D10*
X13840000Y1810000D02*
X14240000Y2210000D01*
D10*
X15440000Y2610000D02*
X18565000Y2610000D01*
D10*
X14249490Y3819490D02*
X14801754Y3819490D01*
D10*
X1040000Y5285000D02*
X1040000Y7560000D01*
D10*
X240000Y-2190000D02*
X-3510000Y-2190000D01*
D10*
X5840000Y-590000D02*
X6240000Y-990000D01*
D10*
X14640000Y1010000D02*
X14640000Y1285000D01*
D10*
X15030510Y-4180510D02*
X20899490Y-4180510D01*
D10*
X15049490Y4460266D02*
X15590000Y5000776D01*
D10*
X-2419224Y1010000D02*
X-3044224Y1635000D01*
D10*
X-29200000Y113200000D02*
X-29200000Y110400000D01*
D10*
X3440000Y2610000D02*
X3040000Y3010000D01*
D10*
X6640000Y-6990000D02*
X7040000Y-7390000D01*
D10*
X10094010Y-9935990D02*
X10094010Y-9973466D01*
D10*
X649490Y-5780510D02*
X-4344490Y-5780510D01*
D10*
X6240000Y-8190000D02*
X6640000Y-8590000D01*
D10*
X1040000Y-6190000D02*
X649490Y-6580510D01*
D10*
X-4269224Y-6990000D02*
X-4610000Y-6649224D01*
D10*
X13840000Y-6990000D02*
X14240000Y-7390000D01*
D10*
X12240000Y-8590000D02*
X11840000Y-8990000D01*
D10*
X10640000Y1810000D02*
X11040000Y2210000D01*
D10*
X9840000Y4210000D02*
X10230510Y4600510D01*
D10*
X15030510Y-5780510D02*
X23574490Y-5780510D01*
D10*
X7040000Y-990000D02*
X7440000Y-590000D01*
D10*
X2640000Y-1390000D02*
X2240000Y-990000D01*
D10*
X4240000Y-3790000D02*
X4640000Y-3390000D01*
D10*
X7440000Y-7790000D02*
X7840000Y-8190000D01*
D10*
X2249490Y4600510D02*
X2249490Y7475510D01*
D10*
X10640000Y-590000D02*
X11040000Y-990000D01*
D10*
X11440000Y1010000D02*
X11040000Y610000D01*
D10*
X4649490Y4600510D02*
X4649490Y7644490D01*
D10*
X-3869224Y-8590000D02*
X-4569224Y-7890000D01*
D10*
X15440000Y-590000D02*
X19290000Y-590000D01*
D10*
X1040000Y-590000D02*
X649490Y-199490D01*
D10*
X11040000Y-3390000D02*
X11440000Y-2990000D01*
D10*
X13840000Y-2990000D02*
X14240000Y-3390000D01*
D10*
X14640000Y-6190000D02*
X15030510Y-6580510D01*
D10*
X8640000Y-4990000D02*
X9040000Y-5390000D01*
D10*
X1040000Y1810000D02*
X649490Y2200510D01*
D10*
X1840000Y1810000D02*
X1440000Y2210000D01*
D10*
X1040000Y-2190000D02*
X649490Y-1799490D01*
D10*
X3440000Y-590000D02*
X3040000Y-190000D01*
D10*
X14640000Y-7790000D02*
X15030510Y-8180510D01*
D10*
X2894010Y-9935990D02*
X2894010Y-12895214D01*
D10*
X13585990Y-9935990D02*
X13585990Y-12869010D01*
D10*
X6640000Y5010000D02*
X6640000Y7260000D01*
D10*
X6240000Y-2590000D02*
X5840000Y-2990000D01*
D10*
X890000Y4585000D02*
X649490Y4825510D01*
D10*
X3849490Y4600510D02*
X3849490Y7275510D01*
D10*
X5040000Y2610000D02*
X4640000Y3010000D01*
D10*
X1840000Y-1390000D02*
X1440000Y-990000D01*
D10*
X13440000Y-8990000D02*
X13840000Y-8590000D01*
D10*
X1040000Y-2990000D02*
X649490Y-3380510D01*
D10*
X5840000Y4210000D02*
X5449490Y4600510D01*
D10*
X4240000Y-1390000D02*
X5040000Y-590000D01*
D10*
X15440000Y-5390000D02*
X22365000Y-5390000D01*
D10*
X15440000Y-2190000D02*
X20915000Y-2190000D01*
D10*
X630510Y371754D02*
X401754Y600510D01*
D10*
X10640000Y-10190000D02*
X10640000Y-13190000D01*
D10*
X14640000Y3410000D02*
X14915000Y3410000D01*
D10*
X13840000Y-9390000D02*
X13840000Y-12915000D01*
D10*
X10640000Y2610000D02*
X11040000Y3010000D01*
D10*
X9840000Y1810000D02*
X10240000Y2210000D01*
D10*
X13840000Y4210000D02*
X14249490Y4619490D01*
D10*
X7030510Y4619490D02*
X7030510Y7319490D01*
D10*
X7840000Y-8190000D02*
X8240000Y-7790000D01*
D10*
X13840000Y-2190000D02*
X14240000Y-1790000D01*
D10*
X3440000Y-2990000D02*
X3040000Y-3390000D01*
D10*
X14640000Y-6990000D02*
X15030510Y-7380510D01*
D10*
X240000Y-3790000D02*
X-3610000Y-3790000D01*
D10*
X1712736Y-9765000D02*
X1449490Y-10028246D01*
D10*
X7440000Y2610000D02*
X7040000Y3010000D01*
D10*
X1840000Y-7790000D02*
X1440000Y-8190000D01*
D10*
X15049490Y2219490D02*
X18724490Y2219490D01*
D10*
X240000Y-9390000D02*
X-4085000Y-9390000D01*
D10*
X4240000Y-2190000D02*
X4640000Y-1790000D01*
D10*
X3440000Y-6190000D02*
X3040000Y-6590000D01*
D10*
X8240000Y2610000D02*
X8640000Y3010000D01*
D10*
X9840000Y-590000D02*
X10240000Y-990000D01*
D10*
X14774490Y1419490D02*
X14824490Y1419490D01*
D10*
X10640000Y1010000D02*
X10240000Y610000D01*
D10*
X2640000Y-6190000D02*
X2240000Y-6590000D01*
D10*
X11440000Y2610000D02*
X11840000Y3010000D01*
D10*
X11040000Y-8190000D02*
X10640000Y-8590000D01*
D10*
X14640000Y210000D02*
X15030510Y600510D01*
D10*
X3440000Y-5390000D02*
X3040000Y-5790000D01*
D10*
X7440000Y-6990000D02*
X7840000Y-7390000D01*
D10*
X2640000Y-6990000D02*
X2240000Y-7390000D01*
D10*
X7040000Y-1790000D02*
X6640000Y-2190000D01*
D10*
X2640000Y1810000D02*
X2240000Y2210000D01*
D10*
X13840000Y2610000D02*
X14240000Y3010000D01*
D10*
X11849490Y4619490D02*
X11849490Y6969490D01*
D10*
X5040000Y1810000D02*
X4640000Y2210000D01*
D10*
X12240000Y3410000D02*
X12640000Y3810000D01*
D10*
X10640000Y3410000D02*
X11040000Y3810000D01*
D10*
X3440000Y-9390000D02*
X2894010Y-9935990D01*
D10*
X4240000Y-8590000D02*
X4640000Y-8990000D01*
D10*
X9040000Y-9390000D02*
X9440000Y-8990000D01*
D10*
X9840000Y5010000D02*
X9840000Y6960000D01*
D10*
X15030510Y-6580510D02*
X22874490Y-6580510D01*
D10*
X4240000Y210000D02*
X4640000Y-190000D01*
D10*
X12240000Y-4590000D02*
X12640000Y-4990000D01*
D10*
X792264Y3410000D02*
X392264Y3810000D01*
D10*
X401754Y600510D02*
X-2625510Y600510D01*
D10*
X4240000Y-4590000D02*
X4640000Y-4990000D01*
D10*
X13040000Y-7790000D02*
X13440000Y-8190000D01*
D10*
X1008714Y3800510D02*
X897226Y3800510D01*
D10*
X9040000Y3410000D02*
X9440000Y3810000D01*
D10*
X11040000Y-990000D02*
X11440000Y-590000D01*
D10*
X3440000Y5010000D02*
X3440000Y7360000D01*
D10*
X8240000Y-590000D02*
X8640000Y-990000D01*
D10*
X6640000Y-13374224D02*
X6484520Y-13529704D01*
D10*
X6640000Y3410000D02*
X6240000Y3810000D01*
D10*
X8240000Y-1390000D02*
X8640000Y-1790000D01*
D10*
X649490Y-199490D02*
X-3025510Y-199490D01*
D10*
X14640000Y-2190000D02*
X15030510Y-1799490D01*
D10*
X5840000Y5010000D02*
X5840000Y7560000D01*
D10*
X-18400000Y96800000D02*
X-18400000Y96400000D01*
D10*
X10640000Y-6990000D02*
X10240000Y-6590000D01*
D10*
X5840000Y-10190000D02*
X5840000Y-12574224D01*
D10*
X5449490Y4600510D02*
X5449490Y7594490D01*
D10*
X-59650000Y26700000D02*
X-42050000Y44300000D01*
D10*
X3440000Y210000D02*
X3040000Y610000D01*
D10*
X15440000Y-3790000D02*
X19990000Y-3790000D01*
D10*
X1040000Y-8590000D02*
X649490Y-8980510D01*
D10*
X1040000Y1010000D02*
X792264Y1010000D01*
D10*
X7440000Y1810000D02*
X7040000Y2210000D01*
D10*
X14640000Y-2990000D02*
X15030510Y-3380510D01*
D10*
X1840000Y3410000D02*
X1449490Y3800510D01*
D10*
X10640000Y-5390000D02*
X11040000Y-4990000D01*
D10*
X7040000Y610000D02*
X7440000Y1010000D01*
D10*
X1040000Y4585000D02*
X890000Y4585000D01*
D10*
X-3334734Y-4999490D02*
X-4285000Y-4049224D01*
D10*
X13040000Y3410000D02*
X13440000Y3810000D01*
D10*
X4640000Y-8990000D02*
X4240000Y-9390000D01*
D10*
X15440000Y1810000D02*
X19190000Y1810000D01*
D10*
X240000Y-6190000D02*
X-4410000Y-6190000D01*
D10*
X12630510Y4600510D02*
X12630510Y6900510D01*
D10*
X240000Y-8590000D02*
X-3869224Y-8590000D01*
D10*
X15440000Y4210000D02*
X16740000Y4210000D01*
D10*
X12240000Y-10190000D02*
X12240000Y-12990000D01*
D10*
X240000Y-6990000D02*
X-4269224Y-6990000D01*
D10*
X14640000Y-1390000D02*
X15030510Y-999490D01*
D10*
X630510Y4371754D02*
X-1382736Y6385000D01*
D10*
X14849490Y4619490D02*
X15030510Y4800510D01*
D10*
X14640000Y4485000D02*
X14774490Y4619490D01*
D10*
X13040000Y-3790000D02*
X13440000Y-4190000D01*
D10*
X10640000Y-1390000D02*
X11040000Y-1790000D01*
D10*
X15440000Y1010000D02*
X19240000Y1010000D01*
D10*
X765000Y210000D02*
X630510Y344490D01*
D10*
X6640000Y210000D02*
X7040000Y-190000D01*
D10*
X13840000Y210000D02*
X14240000Y610000D01*
D10*
X5840000Y-5390000D02*
X6240000Y-5790000D01*
D10*
X649490Y-1799490D02*
X-3625510Y-1799490D01*
D10*
X6640000Y4210000D02*
X6249490Y4600510D01*
D10*
X649490Y2200510D02*
X-2800510Y2200510D01*
D10*
X8240000Y-5390000D02*
X8640000Y-4990000D01*
D10*
X1840000Y5010000D02*
X1840000Y7185000D01*
D10*
X649490Y-6580510D02*
X-4319490Y-6580510D01*
D10*
X897226Y3800510D02*
X630510Y4067226D01*
D10*
X1040000Y-1390000D02*
X649490Y-999490D01*
D10*
X15440000Y-4590000D02*
X21190000Y-4590000D01*
D10*
X14640000Y5010000D02*
X14640000Y5885000D01*
D10*
X11040000Y-3390000D02*
X11440000Y-3790000D01*
D10*
X9040000Y-7790000D02*
X9440000Y-8190000D01*
D10*
X5440000Y610000D02*
X5040000Y210000D01*
D10*
X13430510Y4600510D02*
X13430510Y6500510D01*
D10*
X14640000Y-4590000D02*
X15030510Y-4980510D01*
D10*
X5040000Y3410000D02*
X4640000Y3810000D01*
D10*
X8640000Y-190000D02*
X9040000Y210000D01*
D10*
X649490Y4825510D02*
X649490Y7369490D01*
D10*
X-2294224Y2610000D02*
X-3160000Y3475776D01*
D10*
X11440000Y1810000D02*
X11840000Y2210000D01*
D10*
X13840000Y-4590000D02*
X14240000Y-4990000D01*
D10*
X5840000Y-6990000D02*
X6240000Y-7390000D01*
D10*
X6640000Y-5390000D02*
X7040000Y-4990000D01*
D10*
X2640000Y5010000D02*
X2640000Y7185000D01*
D10*
X6640000Y1010000D02*
X7040000Y610000D01*
D10*
X13040000Y-2990000D02*
X13440000Y-3390000D01*
D10*
X240000Y-7790000D02*
X-4310000Y-7790000D01*
D10*
X8240000Y3410000D02*
X7849490Y3800510D01*
D10*
X1040000Y-9390000D02*
X680510Y-9390000D01*
D10*
X1040000Y5010000D02*
X1040000Y5285000D01*
D10*
X2640000Y3410000D02*
X2240000Y3810000D01*
D10*
X11440000Y4210000D02*
X11849490Y4619490D01*
D10*
X2400000Y44300000D02*
X4302402Y44300000D01*
D10*
X11440000Y-10190000D02*
X11440000Y-12890000D01*
D10*
X7849490Y3800510D02*
X7849490Y7875510D01*
D10*
X5840000Y-9390000D02*
X6230510Y-9780510D01*
D10*
X13040000Y-590000D02*
X13440000Y-190000D01*
D10*
X-18400000Y97200000D02*
X-18400000Y96800000D01*
D10*
X11440000Y-8590000D02*
X11040000Y-8190000D01*
D10*
X630510Y4067226D02*
X630510Y4371754D01*
D10*
X5840000Y1810000D02*
X5440000Y2210000D01*
D10*
X1840000Y-9390000D02*
X1840000Y-9765000D01*
D10*
X13040000Y1810000D02*
X13440000Y2210000D01*
D10*
X14824490Y1419490D02*
X18974490Y1419490D01*
D10*
X1840000Y-3790000D02*
X1440000Y-4190000D01*
D10*
X14915000Y3410000D02*
X14990000Y3485000D01*
D10*
X4640000Y-1790000D02*
X5040000Y-2190000D01*
D10*
X10240000Y-990000D02*
X9840000Y-1390000D01*
D10*
X14640000Y-3790000D02*
X15030510Y-4180510D01*
D10*
X9040000Y5010000D02*
X9040000Y6610000D01*
D10*
X5040000Y5010000D02*
X5040000Y7660000D01*
D10*
X12240000Y2610000D02*
X12640000Y3010000D01*
D10*
X401754Y-9780510D02*
X-4019490Y-9780510D01*
D10*
X14990000Y3485000D02*
X14990000Y3512264D01*
D10*
X4240000Y2610000D02*
X3840000Y3010000D01*
D10*
X9840000Y-10078512D02*
X9835991Y-13660991D01*
D10*
X5840000Y1010000D02*
X5440000Y610000D01*
D10*
X11440000Y-6990000D02*
X11040000Y-7390000D01*
D10*
X649490Y-10028246D02*
X649490Y-13174490D01*
D10*
X4240000Y1810000D02*
X3840000Y2210000D01*
D10*
X9040000Y-1390000D02*
X8640000Y-1790000D01*
D10*
X14640000Y-5390000D02*
X15030510Y-5780510D01*
D10*
X4640000Y-4990000D02*
X5040000Y-4590000D01*
D10*
X2640000Y4210000D02*
X2249490Y4600510D01*
D10*
X13840000Y5010000D02*
X13840000Y6535000D01*
D10*
X12240000Y4210000D02*
X12630510Y4600510D01*
D10*
X8240000Y-10190000D02*
X8240000Y-13715000D01*
D10*
X2640000Y2610000D02*
X2240000Y3010000D01*
D10*
X1040000Y4210000D02*
X1040000Y4585000D01*
D10*
X6640000Y-590000D02*
X7040000Y-990000D01*
D10*
X7440000Y-8590000D02*
X7840000Y-8990000D01*
D10*
X6640000Y1810000D02*
X6240000Y2210000D01*
D10*
X10640000Y-2990000D02*
X11040000Y-3390000D01*
D10*
X11030510Y4600510D02*
X11030510Y6050510D01*
D10*
X2640000Y-4590000D02*
X2240000Y-4990000D01*
D10*
X6240000Y-8190000D02*
X5840000Y-8590000D01*
D10*
X1840000Y210000D02*
X1440000Y610000D01*
D10*
X1040000Y-10190000D02*
X1040000Y-12440000D01*
D10*
X15030510Y4800510D02*
X15030510Y6219490D01*
D10*
X4240000Y-7790000D02*
X4640000Y-7390000D01*
D10*
X3049490Y4600510D02*
X3049490Y7525510D01*
D10*
X15030510Y-8180510D02*
X23855510Y-8180510D01*
D10*
X12240000Y5285000D02*
X12240000Y6985000D01*
D10*
X4302402Y44300000D02*
X14000000Y53997598D01*
D10*
X11840000Y-8990000D02*
X12240000Y-9390000D01*
D10*
X2640000Y210000D02*
X2240000Y610000D01*
D10*
X10240000Y610000D02*
X9840000Y210000D01*
D10*
X12240000Y-2990000D02*
X12649490Y-2580510D01*
D10*
X-42050000Y44300000D02*
X2400000Y44300000D01*
D10*
X7440000Y5010000D02*
X7440000Y7385000D01*
D10*
X2640000Y-10090000D02*
X2140000Y-10590000D01*
D10*
X9840000Y3410000D02*
X10240000Y3810000D01*
D10*
X878246Y-9799490D02*
X649490Y-10028246D01*
D10*
X15030510Y600510D02*
X20380510Y600510D01*
D10*
X13040000Y-6990000D02*
X13440000Y-7390000D01*
D10*
X2140000Y-10590000D02*
X2140000Y-13290000D01*
D10*
X649490Y-999490D02*
X-3350510Y-999490D01*
D10*
X4240000Y-10190000D02*
X4240000Y-13215000D01*
D10*
X2640000Y-5390000D02*
X2240000Y-5790000D01*
D10*
X7440000Y-1390000D02*
X7040000Y-1790000D01*
D10*
X7040000Y3810000D02*
X7440000Y3410000D01*
D10*
X4640000Y-8990000D02*
X5040000Y-8590000D01*
D10*
X3440000Y3410000D02*
X3040000Y3810000D01*
D10*
X13840000Y-590000D02*
X14240000Y-190000D01*
D10*
X5040000Y-1390000D02*
X4640000Y-1790000D01*
D10*
X7040000Y-4190000D02*
X7440000Y-4590000D01*
D10*
X14640000Y-8590000D02*
X15040000Y-8990000D01*
D10*
X4240000Y3410000D02*
X3840000Y3810000D01*
D10*
X240000Y3410000D02*
X-2735000Y3410000D01*
D10*
X2640000Y-3790000D02*
X2240000Y-4190000D01*
D10*
X392264Y1410000D02*
X-2285000Y1410000D01*
D10*
X5040000Y-10190000D02*
X5040000Y-13015000D01*
D10*
X5040000Y-3790000D02*
X4640000Y-4190000D01*
D10*
X6640000Y-2990000D02*
X7040000Y-3390000D01*
D10*
X1040000Y-5390000D02*
X649490Y-5780510D01*
D10*
X2640000Y1010000D02*
X2240000Y1410000D01*
D10*
X1840000Y1010000D02*
X1440000Y1410000D01*
D10*
X14640000Y-590000D02*
X15030510Y-199490D01*
D10*
X13840000Y1010000D02*
X14240000Y1410000D01*
D10*
X649490Y-8180510D02*
X-3525510Y-8180510D01*
D10*
X5040000Y4210000D02*
X4649490Y4600510D01*
D10*
X8240000Y5010000D02*
X8240000Y7560000D01*
D10*
X10640000Y5010000D02*
X10640000Y6535000D01*
D10*
X8240000Y-6990000D02*
X8640000Y-7390000D01*
D10*
X15030510Y-1799490D02*
X20430510Y-1799490D01*
D10*
X12240000Y-3790000D02*
X12640000Y-4190000D01*
D10*
X240000Y-5390000D02*
X-3760000Y-5390000D01*
D10*
X7040000Y-4990000D02*
X7440000Y-5390000D01*
D10*
X13840000Y-5390000D02*
X14240000Y-5790000D01*
D10*
X15440000Y210000D02*
X19415000Y210000D01*
D10*
X9040000Y-10190000D02*
X9040000Y-13665000D01*
D10*
X392264Y3810000D02*
X-1785000Y3810000D01*
D10*
X8640000Y-990000D02*
X9040000Y-590000D01*
D10*
X2640000Y-7790000D02*
X2240000Y-8190000D01*
D10*
X5040000Y-2990000D02*
X4640000Y-3390000D01*
D10*
X1840000Y-5390000D02*
X1440000Y-5790000D01*
D10*
X14249490Y4619490D02*
X14249490Y6019490D01*
D10*
X7040000Y-3390000D02*
X7440000Y-3790000D01*
D10*
X13040000Y-9390000D02*
X13585990Y-9935990D01*
D10*
X6640000Y2610000D02*
X6240000Y3010000D01*
D10*
X1449490Y-10028246D02*
X1449490Y-12474490D01*
D10*
X2640000Y-2190000D02*
X2240000Y-1790000D01*
D10*
X13840000Y-6190000D02*
X14240000Y-6590000D01*
D10*
X13840000Y-1390000D02*
X14240000Y-990000D01*
D10*
X9840000Y-9390000D02*
X9840000Y-10078512D01*
D10*
X11440000Y3410000D02*
X11840000Y3810000D01*
D10*
X9840000Y-2190000D02*
X10240000Y-2590000D01*
D10*
X9040000Y-2990000D02*
X8640000Y-3390000D01*
D10*
X2230510Y-8999490D02*
X1678246Y-8999490D01*
D10*
X8640000Y-3390000D02*
X8240000Y-3790000D01*
D10*
X5840000Y-3790000D02*
X6240000Y-4190000D01*
D10*
X2640000Y-8590000D02*
X2230510Y-8999490D01*
D10*
X8240000Y1010000D02*
X8640000Y610000D01*
D10*
X240000Y210000D02*
X-2360000Y210000D01*
D10*
X10640000Y-7790000D02*
X11040000Y-8190000D01*
D10*
X14640000Y2610000D02*
X15049490Y3019490D01*
D10*
X5840000Y3410000D02*
X5440000Y3810000D01*
D10*
X1840000Y-4590000D02*
X1440000Y-4990000D01*
D10*
X1840000Y-6190000D02*
X1440000Y-6590000D01*
D10*
X649490Y-3380510D02*
X-3569490Y-3380510D01*
D10*
X11440000Y210000D02*
X11040000Y-190000D01*
D10*
X6249490Y4600510D02*
X6249490Y7694490D01*
D10*
X5040000Y-7790000D02*
X5440000Y-8190000D01*
D10*
X12240000Y-6190000D02*
X12640000Y-6590000D01*
D10*
X6640000Y-4590000D02*
X7040000Y-4190000D01*
D10*
X1840000Y2610000D02*
X1440000Y3010000D01*
D10*
X9840000Y1010000D02*
X10240000Y610000D01*
D10*
X649490Y-4180510D02*
X-3794490Y-4180510D01*
D10*
X8630510Y4600510D02*
X8630510Y6650510D01*
D10*
X15049490Y4067226D02*
X15049490Y4460266D01*
D10*
X15440000Y-2990000D02*
X20865000Y-2990000D01*
D10*
X1040000Y-3790000D02*
X649490Y-4180510D01*
D10*
X11440000Y-7790000D02*
X11040000Y-7390000D01*
D10*
X6240000Y-4190000D02*
X5840000Y-4590000D01*
D10*
X15440000Y-6190000D02*
X23540000Y-6190000D01*
D10*
X15030510Y-4980510D02*
X21224490Y-4980510D01*
D10*
X6640000Y-9390000D02*
X6640000Y-13374224D01*
D10*
X240000Y1010000D02*
X-2419224Y1010000D01*
D10*
X3440000Y-10190000D02*
X3440000Y-13215000D01*
D10*
X630510Y344490D02*
X630510Y371754D01*
D10*
X3440000Y-7790000D02*
X3040000Y-8190000D01*
D10*
X9840000Y-4590000D02*
X10240000Y-4190000D01*
D10*
X13040000Y-8590000D02*
X13440000Y-8990000D01*
D10*
X15030510Y-3380510D02*
X20755510Y-3380510D01*
D10*
X13040000Y1010000D02*
X13440000Y1410000D01*
D10*
X15440000Y-7790000D02*
X23524224Y-7790000D01*
D10*
X15440000Y-6990000D02*
X23215000Y-6990000D01*
D10*
X1040000Y-4590000D02*
X630510Y-4999490D01*
D10*
X14640000Y4210000D02*
X14640000Y4485000D01*
D10*
X13040000Y5010000D02*
X13040000Y6660000D01*
D10*
X649490Y-7380510D02*
X-4344490Y-7380510D01*
D10*
X14640000Y-9390000D02*
X15040000Y-8990000D01*
D10*
X2640000Y-9390000D02*
X2640000Y-10090000D01*
D10*
X1840000Y-6990000D02*
X1440000Y-7390000D01*
D10*
X13040000Y-4590000D02*
X13440000Y-4990000D01*
D10*
X11440000Y-9390000D02*
X11840000Y-8990000D01*
D10*
X13040000Y-10190000D02*
X13040000Y-12965000D01*
D10*
X4240000Y-6990000D02*
X4640000Y-7390000D01*
D10*
X9040000Y1810000D02*
X9440000Y2210000D01*
D10*
X3440000Y1810000D02*
X3040000Y2210000D01*
D10*
X1840000Y-590000D02*
X1440000Y-190000D01*
D10*
X12649490Y-2580510D02*
X20924490Y-2580510D01*
D10*
X1678246Y-8999490D02*
X1430510Y-9247226D01*
D10*
X13040000Y-6190000D02*
X13440000Y-6590000D01*
D10*
X7440000Y4210000D02*
X7030510Y4619490D01*
D10*
X8640000Y-4190000D02*
X9040000Y-4590000D01*
G75*
D11*
X128140000Y-14840000D03*
D12*
X128140000Y-12940000D03*
D12*
X126240000Y-14840000D03*
D12*
X126240000Y-12940000D03*
D12*
X126240000Y-13890000D03*
D11*
X128140000Y-13890000D03*
D13*
X-139955000Y42915000D03*
D14*
X-139955000Y43715000D03*
D15*
X-140610000Y42910000D03*
D16*
X-140610000Y44520000D03*
D17*
X-141265000Y43715000D03*
D17*
X-141265000Y44115000D03*
D17*
X-141265000Y44515000D03*
D17*
X-141265000Y42915000D03*
D14*
X-139955000Y43315000D03*
D17*
X-141265000Y43315000D03*
D14*
X-139955000Y44515000D03*
D14*
X-139955000Y44115000D03*
D18*
X56500000Y60425000D03*
D19*
X60500000Y59775000D03*
D18*
X56500000Y59775000D03*
D20*
X58825000Y62100000D03*
D20*
X57525000Y62100000D03*
D19*
X60500000Y61075000D03*
D18*
X56500000Y61075000D03*
D21*
X58175000Y58100000D03*
D20*
X58175000Y62100000D03*
D22*
X58500000Y60100000D03*
D19*
X60500000Y59125000D03*
D20*
X59475000Y62100000D03*
D18*
X56500000Y59125000D03*
D21*
X59475000Y58100000D03*
D21*
X58825000Y58100000D03*
D21*
X57525000Y58100000D03*
D19*
X60500000Y60425000D03*
D23*
X-129400000Y29500000D03*
D23*
X-129400000Y30000000D03*
D23*
X-128900000Y29000000D03*
D23*
X-128900000Y29500000D03*
D23*
X-129400000Y29000000D03*
D23*
X-128900000Y30000000D03*
D24*
X94500000Y60760000D03*
D24*
X93700000Y67640000D03*
D24*
X93700000Y60760000D03*
D25*
X98540000Y62800000D03*
D26*
X92010000Y62510000D03*
D24*
X95300000Y60760000D03*
D25*
X98540000Y65200000D03*
D24*
X95700000Y67640000D03*
D25*
X98540000Y66400000D03*
D24*
X97300000Y67640000D03*
D24*
X94100000Y67640000D03*
D24*
X95300000Y67640000D03*
D24*
X92900000Y67640000D03*
D24*
X92900000Y60760000D03*
D25*
X98540000Y63200000D03*
D27*
X98190000Y64290000D03*
D27*
X98190000Y63490000D03*
D24*
X94900000Y60760000D03*
D24*
X96100000Y67640000D03*
D24*
X95700000Y60760000D03*
D24*
X97700000Y60760000D03*
D24*
X92500000Y67640000D03*
D24*
X96500000Y60760000D03*
D25*
X98540000Y66800000D03*
D24*
X96900000Y67640000D03*
D24*
X96900000Y60760000D03*
D24*
X96500000Y67640000D03*
D25*
X98540000Y62000000D03*
D25*
X98540000Y66000000D03*
D24*
X94900000Y67640000D03*
D25*
X98540000Y65600000D03*
D26*
X92010000Y64110000D03*
D24*
X97700000Y67640000D03*
D24*
X94100000Y60760000D03*
D24*
X97300000Y60760000D03*
D25*
X98540000Y62400000D03*
D24*
X94500000Y67640000D03*
D24*
X92500000Y60760000D03*
D28*
X95100000Y64200000D03*
D24*
X93300000Y60760000D03*
D26*
X92010000Y65310000D03*
D25*
X98540000Y61600000D03*
D25*
X91660000Y65600000D03*
D26*
X92010000Y66910000D03*
D25*
X91660000Y62800000D03*
D24*
X93300000Y67640000D03*
D24*
X96100000Y60760000D03*
D29*
X34282500Y-28300000D03*
D29*
X35117500Y-26300000D03*
D29*
X35117500Y-27800000D03*
D30*
X34282500Y-27300000D03*
D29*
X34282500Y-26300000D03*
D29*
X35117500Y-26800000D03*
D29*
X34282500Y-26800000D03*
D29*
X35117500Y-28300000D03*
D30*
X35117500Y-27300000D03*
D29*
X34282500Y-27800000D03*
D31*
X240000Y-4590000D03*
D31*
X2640000Y1010000D03*
D31*
X14640000Y-7790000D03*
D31*
X11440000Y-8590000D03*
D31*
X1840000Y-6990000D03*
D31*
X13840000Y-2990000D03*
D31*
X9840000Y-2990000D03*
D31*
X11440000Y-2190000D03*
D31*
X9840000Y4210000D03*
D31*
X5840000Y-2190000D03*
D31*
X6640000Y-4590000D03*
D31*
X5040000Y-5390000D03*
D31*
X8240000Y-2990000D03*
D31*
X13840000Y1010000D03*
D31*
X5040000Y-6990000D03*
D31*
X4240000Y-2990000D03*
D31*
X5040000Y-7790000D03*
D31*
X15440000Y-7790000D03*
D31*
X4240000Y-2190000D03*
D31*
X12240000Y-10190000D03*
D31*
X240000Y-6990000D03*
D31*
X7440000Y-9390000D03*
D31*
X4240000Y2610000D03*
D31*
X240000Y-9390000D03*
D31*
X13840000Y-6990000D03*
D31*
X15440000Y3410000D03*
D31*
X10640000Y-6990000D03*
D31*
X240000Y1810000D03*
D31*
X14640000Y2610000D03*
D31*
X3440000Y-8590000D03*
D31*
X1840000Y-3790000D03*
D31*
X1040000Y1010000D03*
D31*
X14640000Y1810000D03*
D31*
X1040000Y4210000D03*
D31*
X8240000Y-590000D03*
D31*
X3440000Y1810000D03*
D31*
X3440000Y-6990000D03*
D31*
X9040000Y-7790000D03*
D31*
X4240000Y-7790000D03*
D31*
X7440000Y-4590000D03*
D31*
X14640000Y5010000D03*
D31*
X3440000Y-590000D03*
D31*
X14640000Y-590000D03*
D31*
X11440000Y-1390000D03*
D31*
X1040000Y-10190000D03*
D31*
X9840000Y1010000D03*
D31*
X10640000Y-10190000D03*
D31*
X2640000Y-4590000D03*
D31*
X1840000Y210000D03*
D31*
X9840000Y5010000D03*
D31*
X11440000Y1010000D03*
D31*
X5040000Y3410000D03*
D31*
X7440000Y-590000D03*
D31*
X13040000Y-2990000D03*
D31*
X4240000Y-6990000D03*
D31*
X2640000Y-9390000D03*
D31*
X15440000Y210000D03*
D31*
X10640000Y-9390000D03*
D31*
X15440000Y1810000D03*
D31*
X5040000Y-4590000D03*
D31*
X9840000Y-6990000D03*
D31*
X2640000Y5010000D03*
D31*
X5040000Y-8590000D03*
D31*
X11440000Y-7790000D03*
D31*
X6640000Y1810000D03*
D31*
X240000Y-3790000D03*
D31*
X11440000Y-2990000D03*
D31*
X6640000Y-9390000D03*
D31*
X9040000Y-2190000D03*
D31*
X6640000Y-6990000D03*
D31*
X1840000Y2610000D03*
D31*
X240000Y-590000D03*
D31*
X7440000Y-6990000D03*
D31*
X10640000Y-7790000D03*
D31*
X8240000Y1810000D03*
D31*
X9040000Y-4590000D03*
D31*
X5840000Y-1390000D03*
D31*
X5840000Y-6990000D03*
D31*
X14640000Y-1390000D03*
D31*
X11440000Y4210000D03*
D31*
X9040000Y-5390000D03*
D31*
X1840000Y-5390000D03*
D31*
X12240000Y-8590000D03*
D31*
X15440000Y-6990000D03*
D31*
X6640000Y-3790000D03*
D31*
X2640000Y-5390000D03*
D31*
X14640000Y-2990000D03*
D31*
X240000Y-2990000D03*
D31*
X5840000Y4210000D03*
D31*
X13040000Y210000D03*
D31*
X11440000Y-9390000D03*
D31*
X9040000Y-2990000D03*
D31*
X10640000Y5010000D03*
D31*
X8240000Y-2190000D03*
D31*
X11440000Y2610000D03*
D31*
X15440000Y-6190000D03*
D31*
X10640000Y210000D03*
D31*
X7440000Y-3790000D03*
D31*
X8240000Y-5390000D03*
D31*
X14640000Y1010000D03*
D31*
X9040000Y1810000D03*
D31*
X3440000Y-4590000D03*
D31*
X2640000Y3410000D03*
D31*
X7440000Y210000D03*
D31*
X12240000Y1010000D03*
D31*
X7440000Y-1390000D03*
D31*
X5040000Y1010000D03*
D31*
X1040000Y-1390000D03*
D31*
X3440000Y4210000D03*
D31*
X9840000Y210000D03*
D31*
X1040000Y5010000D03*
D31*
X240000Y-8590000D03*
D31*
X5840000Y1010000D03*
D31*
X4240000Y4210000D03*
D31*
X240000Y210000D03*
D31*
X13840000Y-7790000D03*
D31*
X8240000Y-4590000D03*
D31*
X13040000Y-3790000D03*
D31*
X14640000Y-9390000D03*
D31*
X9040000Y-3790000D03*
D31*
X9840000Y-2190000D03*
D31*
X2640000Y210000D03*
D31*
X14640000Y-6990000D03*
D31*
X6640000Y4210000D03*
D31*
X4240000Y-5390000D03*
D31*
X4240000Y-9390000D03*
D31*
X5040000Y1810000D03*
D31*
X1840000Y-2990000D03*
D31*
X240000Y-5390000D03*
D31*
X13840000Y-3790000D03*
D31*
X5040000Y-1390000D03*
D31*
X240000Y2610000D03*
D31*
X10640000Y2610000D03*
D31*
X6640000Y-590000D03*
D31*
X13040000Y-8590000D03*
D31*
X12240000Y3410000D03*
D31*
X8240000Y-1390000D03*
D31*
X15440000Y-590000D03*
D31*
X8240000Y3410000D03*
D31*
X4240000Y1810000D03*
D31*
X13040000Y1810000D03*
D31*
X13840000Y1810000D03*
D31*
X6640000Y1010000D03*
D31*
X13840000Y-590000D03*
D31*
X1840000Y4210000D03*
D31*
X3440000Y-2990000D03*
D31*
X15440000Y4210000D03*
D31*
X11440000Y-590000D03*
D31*
X13840000Y-8590000D03*
D31*
X1040000Y-4590000D03*
D31*
X5040000Y-2990000D03*
D31*
X240000Y4210000D03*
D31*
X8240000Y1010000D03*
D31*
X7440000Y-2990000D03*
D31*
X13840000Y3410000D03*
D31*
X1040000Y-590000D03*
D31*
X12240000Y4210000D03*
D31*
X9840000Y-4590000D03*
D31*
X6640000Y210000D03*
D31*
X13840000Y-5390000D03*
D31*
X8240000Y-10190000D03*
D31*
X11440000Y-10190000D03*
D31*
X4240000Y5010000D03*
D31*
X14640000Y4210000D03*
D31*
X5840000Y1810000D03*
D31*
X6640000Y-2990000D03*
D31*
X1040000Y-6990000D03*
D31*
X240000Y-1390000D03*
D31*
X2640000Y-2990000D03*
D31*
X7440000Y5010000D03*
D31*
X5840000Y210000D03*
D31*
X1840000Y-8590000D03*
D31*
X7440000Y3410000D03*
D31*
X3440000Y5010000D03*
D31*
X5840000Y-2990000D03*
D31*
X14640000Y210000D03*
D31*
X8240000Y4210000D03*
D31*
X14640000Y-3790000D03*
D31*
X1840000Y-1390000D03*
D31*
X240000Y-6190000D03*
D31*
X6640000Y5010000D03*
D31*
X10640000Y-1390000D03*
D31*
X5840000Y2610000D03*
D31*
X10640000Y1810000D03*
D31*
X14640000Y-10190000D03*
D31*
X14640000Y3410000D03*
D31*
X240000Y-7790000D03*
D31*
X4240000Y-10190000D03*
D31*
X1040000Y-7790000D03*
D31*
X9040000Y-1390000D03*
D31*
X6640000Y2610000D03*
D31*
X9040000Y-6990000D03*
D31*
X12240000Y-3790000D03*
D31*
X9840000Y3410000D03*
D31*
X12240000Y-5390000D03*
D31*
X9040000Y3410000D03*
D31*
X12240000Y-7790000D03*
D31*
X13840000Y2610000D03*
D31*
X9840000Y-5390000D03*
D31*
X12240000Y-590000D03*
D31*
X9040000Y5010000D03*
D31*
X9040000Y-9390000D03*
D31*
X5040000Y5010000D03*
D31*
X3440000Y-7790000D03*
D31*
X10640000Y-2190000D03*
D31*
X3440000Y-9390000D03*
D31*
X1040000Y-2990000D03*
D31*
X2640000Y1810000D03*
D31*
X13040000Y-6990000D03*
D31*
X12240000Y1810000D03*
D31*
X15440000Y-5390000D03*
D31*
X1840000Y1010000D03*
D31*
X13040000Y-7790000D03*
D31*
X12240000Y-6190000D03*
D31*
X5040000Y210000D03*
D31*
X1840000Y3410000D03*
D31*
X2640000Y-590000D03*
D31*
X1040000Y-9390000D03*
D31*
X9840000Y-1390000D03*
D31*
X2640000Y-3790000D03*
D31*
X9040000Y4210000D03*
D31*
X5840000Y-8590000D03*
D31*
X13040000Y-9390000D03*
D31*
X6640000Y-7790000D03*
D31*
X10640000Y3410000D03*
D31*
X15440000Y-3790000D03*
D31*
X6640000Y-2190000D03*
D31*
X7440000Y-2190000D03*
D31*
X8240000Y2610000D03*
D31*
X5040000Y4210000D03*
D31*
X4240000Y-4590000D03*
D31*
X1840000Y1810000D03*
D31*
X9840000Y-590000D03*
D31*
X5040000Y-3790000D03*
D31*
X13040000Y-4590000D03*
D31*
X1040000Y1810000D03*
D31*
X13040000Y5010000D03*
D31*
X10640000Y1010000D03*
D31*
X13040000Y-590000D03*
D31*
X5840000Y-590000D03*
D31*
X10640000Y4210000D03*
D31*
X3440000Y210000D03*
D31*
X5840000Y5010000D03*
D31*
X13040000Y-10190000D03*
D31*
X1840000Y-7790000D03*
D31*
X10640000Y-590000D03*
D31*
X9840000Y-9390000D03*
D31*
X1040000Y3410000D03*
D31*
X1840000Y-4590000D03*
D31*
X2640000Y-6190000D03*
D31*
X13040000Y1010000D03*
D31*
X10640000Y-2990000D03*
D31*
X13840000Y-6190000D03*
D31*
X7440000Y1010000D03*
D31*
X1040000Y-6190000D03*
D31*
X5840000Y-5390000D03*
D31*
X13840000Y-9390000D03*
D31*
X8240000Y-7790000D03*
D31*
X15440000Y-1390000D03*
D31*
X13040000Y2610000D03*
D31*
X14640000Y-5390000D03*
D31*
X2640000Y-7790000D03*
D31*
X11440000Y210000D03*
D31*
X11440000Y-6990000D03*
D31*
X3440000Y-10190000D03*
D31*
X3440000Y-1390000D03*
D31*
X8240000Y-9390000D03*
D31*
X13040000Y-1390000D03*
D31*
X11440000Y1810000D03*
D31*
X13040000Y-2190000D03*
D31*
X4240000Y210000D03*
D31*
X14640000Y-6190000D03*
D31*
X2640000Y2610000D03*
D31*
X9040000Y1010000D03*
D31*
X1840000Y-590000D03*
D31*
X1840000Y5010000D03*
D31*
X7440000Y4210000D03*
D31*
X6640000Y-5390000D03*
D31*
X12240000Y-2190000D03*
D31*
X6640000Y-1390000D03*
D31*
X13040000Y4210000D03*
D31*
X5040000Y-10190000D03*
D31*
X9040000Y210000D03*
D31*
X7440000Y-8590000D03*
D31*
X2640000Y-1390000D03*
D31*
X1040000Y210000D03*
D31*
X11440000Y-5390000D03*
D31*
X4240000Y-590000D03*
D31*
X6640000Y3410000D03*
D31*
X3440000Y-5390000D03*
D31*
X5040000Y-590000D03*
D31*
X9040000Y-10190000D03*
D31*
X5840000Y-7790000D03*
D31*
X3440000Y-6190000D03*
D31*
X9840000Y1810000D03*
D31*
X1040000Y-2190000D03*
D31*
X15440000Y-2990000D03*
D31*
X1040000Y2610000D03*
D31*
X240000Y-2190000D03*
D31*
X15440000Y-8590000D03*
D31*
X1040000Y-5390000D03*
D31*
X1840000Y-2190000D03*
D31*
X3440000Y-3790000D03*
D31*
X15440000Y2610000D03*
D31*
X4240000Y-3790000D03*
D31*
X7440000Y1810000D03*
D31*
X12240000Y-9390000D03*
D31*
X13840000Y-4590000D03*
D31*
X9840000Y2610000D03*
D31*
X12240000Y5010000D03*
D31*
X4240000Y-8590000D03*
D31*
X1040000Y-8590000D03*
D31*
X12240000Y-2990000D03*
D31*
X15440000Y1010000D03*
D31*
X12240000Y2610000D03*
D31*
X8240000Y210000D03*
D31*
X7440000Y-7790000D03*
D31*
X3440000Y-2190000D03*
D31*
X11440000Y-3790000D03*
D31*
X12240000Y-6990000D03*
D31*
X5840000Y-10190000D03*
D31*
X13840000Y4210000D03*
D31*
X14640000Y-4590000D03*
D31*
X15440000Y-4590000D03*
D31*
X240000Y3410000D03*
D31*
X10640000Y-4590000D03*
D31*
X14640000Y-2190000D03*
D31*
X11440000Y5010000D03*
D31*
X4240000Y-1390000D03*
D31*
X9040000Y-8590000D03*
D31*
X1840000Y-6190000D03*
D31*
X5040000Y2610000D03*
D31*
X9840000Y-7790000D03*
D31*
X5840000Y-3790000D03*
D31*
X9840000Y-3790000D03*
D31*
X7440000Y2610000D03*
D31*
X13040000Y-6190000D03*
D31*
X2640000Y-6990000D03*
D31*
X2640000Y4210000D03*
D31*
X10640000Y-8590000D03*
D31*
X8240000Y-6990000D03*
D31*
X5040000Y-9390000D03*
D31*
X1840000Y-9390000D03*
D31*
X240000Y1010000D03*
D31*
X5840000Y-9390000D03*
D31*
X8240000Y5010000D03*
D31*
X5840000Y-4590000D03*
D31*
X6640000Y-8590000D03*
D31*
X12240000Y-4590000D03*
D31*
X4240000Y1010000D03*
D31*
X4240000Y3410000D03*
D31*
X12240000Y210000D03*
D31*
X13840000Y5010000D03*
D31*
X9040000Y-590000D03*
D31*
X1040000Y-3790000D03*
D31*
X13840000Y210000D03*
D31*
X3440000Y2610000D03*
D31*
X12240000Y-1390000D03*
D31*
X9840000Y-8590000D03*
D31*
X8240000Y-3790000D03*
D31*
X15440000Y-2190000D03*
D31*
X13840000Y-2190000D03*
D31*
X11440000Y3410000D03*
D31*
X5840000Y3410000D03*
D31*
X10640000Y-5390000D03*
D31*
X5040000Y-2190000D03*
D31*
X2640000Y-8590000D03*
D31*
X2640000Y-2190000D03*
D31*
X11440000Y-4590000D03*
D31*
X13040000Y3410000D03*
D31*
X8240000Y-8590000D03*
D31*
X7440000Y-5390000D03*
D31*
X13040000Y-5390000D03*
D31*
X1840000Y-10190000D03*
D31*
X10640000Y-3790000D03*
D31*
X14640000Y-8590000D03*
D31*
X3440000Y3410000D03*
D31*
X15440000Y-9390000D03*
D31*
X13840000Y-1390000D03*
D31*
X9040000Y2610000D03*
D31*
X3440000Y1010000D03*
D32*
X-14750000Y-2675000D03*
D32*
X-14750000Y-7075000D03*
D32*
X-14750000Y-4875000D03*
D11*
X129100000Y13740000D03*
D12*
X129100000Y15640000D03*
D12*
X127200000Y13740000D03*
D12*
X127200000Y15640000D03*
D12*
X127200000Y14690000D03*
D11*
X129100000Y14690000D03*
D33*
X-136390000Y74650000D03*
D34*
X-134490000Y73850000D03*
D33*
X-136390000Y75050000D03*
D35*
X-135440000Y74250000D03*
D34*
X-134490000Y73450000D03*
D34*
X-134490000Y74250000D03*
D33*
X-136390000Y73850000D03*
D33*
X-136390000Y74250000D03*
D34*
X-134490000Y74650000D03*
D34*
X-134490000Y75050000D03*
D33*
X-136390000Y73450000D03*
D18*
X56400000Y76325000D03*
D19*
X60400000Y75675000D03*
D18*
X56400000Y75675000D03*
D20*
X58725000Y78000000D03*
D20*
X57425000Y78000000D03*
D19*
X60400000Y76975000D03*
D18*
X56400000Y76975000D03*
D21*
X58075000Y74000000D03*
D20*
X58075000Y78000000D03*
D22*
X58400000Y76000000D03*
D19*
X60400000Y75025000D03*
D20*
X59375000Y78000000D03*
D18*
X56400000Y75025000D03*
D21*
X59375000Y74000000D03*
D21*
X58725000Y74000000D03*
D21*
X57425000Y74000000D03*
D19*
X60400000Y76325000D03*
D36*
X35889997Y-86547513D03*
D37*
X31189997Y-81467513D03*
D37*
X31189997Y-92262513D03*
D36*
X35889997Y-83372513D03*
D37*
X31189997Y-90992513D03*
D38*
X33540000Y-77765000D03*
D37*
X31189997Y-89087513D03*
D36*
X35889997Y-92262513D03*
D36*
X35889997Y-87817513D03*
D37*
X31189997Y-84007513D03*
D37*
X31189997Y-85277513D03*
D37*
X31189997Y-87182513D03*
D37*
X31189997Y-93532513D03*
D36*
X35889997Y-81467513D03*
D37*
X31189997Y-84642513D03*
D37*
X31189997Y-90357513D03*
D37*
X31189997Y-89722513D03*
D37*
X31189997Y-92897513D03*
D36*
X35889997Y-82102513D03*
D36*
X35889997Y-90992513D03*
D36*
X35889997Y-90357513D03*
D36*
X35889997Y-93532513D03*
D36*
X35889997Y-91627513D03*
D36*
X35889997Y-89722513D03*
D36*
X35889997Y-88452513D03*
D37*
X31189997Y-82102513D03*
D37*
X31189997Y-87817513D03*
D36*
X35889997Y-85277513D03*
D37*
X31189997Y-88452513D03*
D36*
X35889997Y-84007513D03*
D37*
X31189997Y-85912513D03*
D36*
X35889997Y-92897513D03*
D37*
X31189997Y-91627513D03*
D38*
X33540000Y-97235000D03*
D36*
X35889997Y-85912513D03*
D36*
X35889997Y-84642513D03*
D36*
X35889997Y-87182513D03*
D37*
X31189997Y-83372513D03*
D36*
X35889997Y-89087513D03*
D37*
X31189997Y-82737513D03*
D37*
X31189997Y-86547513D03*
D36*
X35889997Y-82737513D03*
D39*
X-114400000Y44300000D03*
D17*
X-114400000Y43500000D03*
D16*
X-113745000Y44305000D03*
D15*
X-113745000Y42695000D03*
D14*
X-113090000Y43500000D03*
D14*
X-113090000Y43100000D03*
D14*
X-113090000Y42700000D03*
D14*
X-113090000Y44300000D03*
D17*
X-114400000Y43900000D03*
D14*
X-113090000Y43900000D03*
D17*
X-114400000Y42700000D03*
D17*
X-114400000Y43100000D03*
D23*
X-114110000Y30260000D03*
D23*
X-114110000Y30760000D03*
D23*
X-113610000Y29760000D03*
D23*
X-113610000Y30260000D03*
D23*
X-114110000Y29760000D03*
D23*
X-113610000Y30760000D03*
D40*
X36990000Y-26650002D03*
D41*
X43650000Y-21570000D03*
D40*
X36990000Y-24650002D03*
D42*
X38300000Y-26300000D03*
D43*
X39000000Y-26700000D03*
D44*
X39000000Y-28300000D03*
D45*
X38650000Y-30230000D03*
D40*
X36990000Y-27150002D03*
D46*
X39000000Y-25100000D03*
D46*
X38300000Y-25500000D03*
D47*
X38650000Y-21570000D03*
D40*
X36990000Y-25150002D03*
D40*
X36990000Y-23150002D03*
D44*
X38300000Y-27100000D03*
D46*
X39000000Y-23500000D03*
D42*
X38300000Y-24700000D03*
D46*
X39000000Y-27500000D03*
D40*
X36990000Y-28150002D03*
D44*
X39000000Y-24300000D03*
D40*
X36990000Y-28650002D03*
D48*
X38300000Y-23100000D03*
D40*
X36990000Y-27650002D03*
D40*
X36990000Y-24150002D03*
D40*
X36990000Y-26150002D03*
D40*
X36990000Y-23650002D03*
D40*
X36990000Y-25650002D03*
D42*
X38300000Y-28700000D03*
D49*
X43650000Y-30230000D03*
D29*
X33882500Y27300000D03*
D29*
X34717500Y29300000D03*
D29*
X34717500Y27800000D03*
D30*
X33882500Y28300000D03*
D29*
X33882500Y29300000D03*
D29*
X34717500Y28800000D03*
D29*
X33882500Y28800000D03*
D29*
X34717500Y27300000D03*
D30*
X34717500Y28300000D03*
D29*
X33882500Y27800000D03*
D50*
X-96000000Y73300000D03*
D51*
X-93400000Y72030000D03*
D51*
X-93400000Y73300000D03*
D50*
X-96000000Y74570000D03*
D50*
X-96000000Y72030000D03*
D51*
X-93400000Y74570000D03*
D32*
X-16150000Y-2675000D03*
D32*
X-16150000Y-7075000D03*
D32*
X-16150000Y-4875000D03*
D52*
X-112695000Y56090000D03*
D52*
X-114145000Y55690000D03*
D52*
X-112695000Y56490000D03*
D52*
X-112695000Y56890000D03*
D53*
X-113620000Y56890000D03*
D52*
X-114145000Y56490000D03*
D52*
X-114145000Y56090000D03*
D52*
X-114145000Y56890000D03*
D53*
X-113220000Y56890000D03*
D53*
X-113220000Y55690000D03*
D53*
X-113620000Y55690000D03*
D52*
X-112695000Y55690000D03*
D54*
X32100000Y-21500000D03*
D54*
X33100000Y-21500000D03*
D55*
X-42874995Y-36599999D03*
D56*
X-37724995Y-46599999D03*
D56*
X-37724995Y-38599999D03*
D56*
X-37724995Y-40599999D03*
D55*
X-42874995Y-44599999D03*
D56*
X-37724995Y-42599999D03*
D55*
X-42874995Y-46599999D03*
D56*
X-37724995Y-34599999D03*
D56*
X-37724995Y-48599999D03*
D56*
X-37724995Y-36599999D03*
D55*
X-42874995Y-38599999D03*
D55*
X-42874995Y-34599999D03*
D55*
X-42874995Y-40599999D03*
D55*
X-42874995Y-48599999D03*
D56*
X-37724995Y-44599999D03*
D55*
X-42874995Y-42599999D03*
D24*
X94660000Y16120000D03*
D24*
X93860000Y23000000D03*
D24*
X93860000Y16120000D03*
D25*
X98700000Y18160000D03*
D26*
X92170000Y17870000D03*
D24*
X95460000Y16120000D03*
D25*
X98700000Y20560000D03*
D24*
X95860000Y23000000D03*
D25*
X98700000Y21760000D03*
D24*
X97460000Y23000000D03*
D24*
X94260000Y23000000D03*
D24*
X95460000Y23000000D03*
D24*
X93060000Y23000000D03*
D24*
X93060000Y16120000D03*
D25*
X98700000Y18560000D03*
D27*
X98350000Y19650000D03*
D27*
X98350000Y18850000D03*
D24*
X95060000Y16120000D03*
D24*
X96260000Y23000000D03*
D24*
X95860000Y16120000D03*
D24*
X97860000Y16120000D03*
D24*
X92660000Y23000000D03*
D24*
X96660000Y16120000D03*
D25*
X98700000Y22160000D03*
D24*
X97060000Y23000000D03*
D24*
X97060000Y16120000D03*
D24*
X96660000Y23000000D03*
D25*
X98700000Y17360000D03*
D25*
X98700000Y21360000D03*
D24*
X95060000Y23000000D03*
D25*
X98700000Y20960000D03*
D26*
X92170000Y19470000D03*
D24*
X97860000Y23000000D03*
D24*
X94260000Y16120000D03*
D24*
X97460000Y16120000D03*
D25*
X98700000Y17760000D03*
D24*
X94660000Y23000000D03*
D24*
X92660000Y16120000D03*
D28*
X95260000Y19560000D03*
D24*
X93460000Y16120000D03*
D26*
X92170000Y20670000D03*
D25*
X98700000Y16960000D03*
D25*
X91820000Y20960000D03*
D26*
X92170000Y22270000D03*
D25*
X91820000Y18160000D03*
D24*
X93460000Y23000000D03*
D24*
X96260000Y16120000D03*
D57*
X-9500000Y27500000D03*
D58*
X-5500000Y25000000D03*
D59*
X-16500000Y29500000D03*
D60*
X-10500000Y23000000D03*
D58*
X-22500000Y23000000D03*
D60*
X-18500000Y23000000D03*
D61*
X-19500000Y25000000D03*
D60*
X-17500000Y25000000D03*
D60*
X-6500000Y23000000D03*
D58*
X-7500000Y25000000D03*
D62*
X-20500000Y29500000D03*
D63*
X-3500000Y27500000D03*
D57*
X-7500000Y27500000D03*
D64*
X-13500000Y25000000D03*
D64*
X-3500000Y25000000D03*
D65*
X-4500000Y29500000D03*
D62*
X-18500000Y29500000D03*
D58*
X-16500000Y23000000D03*
D62*
X-6500000Y29500000D03*
D65*
X-10500000Y29500000D03*
D57*
X-22500000Y29500000D03*
D57*
X-13500000Y27500000D03*
D58*
X-20500000Y23000000D03*
D57*
X-12500000Y29500000D03*
D59*
X-11500000Y27500000D03*
D57*
X-17500000Y27500000D03*
D57*
X-19500000Y27500000D03*
D66*
X-21500000Y25000000D03*
D63*
X-21500000Y27500000D03*
D57*
X-5500000Y27500000D03*
D67*
X-12500000Y23000000D03*
D64*
X-4500000Y23000000D03*
D63*
X-8500000Y29500000D03*
D66*
X-8500000Y23000000D03*
D58*
X-11500000Y25000000D03*
D64*
X-9500000Y25000000D03*
D40*
X36990000Y25349998D03*
D68*
X43650000Y30430000D03*
D40*
X36990000Y27349998D03*
D43*
X38300000Y25700000D03*
D48*
X39000000Y25300000D03*
D43*
X39000000Y23700000D03*
D69*
X38650000Y21770000D03*
D40*
X36990000Y24849998D03*
D42*
X39000000Y26900000D03*
D70*
X38300000Y26500000D03*
D71*
X38650000Y30430000D03*
D40*
X36990000Y26849998D03*
D40*
X36990000Y28849998D03*
D43*
X38300000Y24900000D03*
D44*
X39000000Y28500000D03*
D46*
X38300000Y27300000D03*
D70*
X39000000Y24500000D03*
D40*
X36990000Y23849998D03*
D42*
X39000000Y27700000D03*
D40*
X36990000Y23349998D03*
D42*
X38300000Y28900000D03*
D40*
X36990000Y24349998D03*
D40*
X36990000Y27849998D03*
D40*
X36990000Y25849998D03*
D40*
X36990000Y28349998D03*
D40*
X36990000Y26349998D03*
D46*
X38300000Y23300000D03*
D72*
X43650000Y21770000D03*
D73*
X-57750000Y-7810000D03*
D74*
X-57750000Y-190000D03*
D75*
X-57750000Y-2730000D03*
D73*
X-57750000Y-5270000D03*
D76*
X-12620000Y75010000D03*
D76*
X-11820000Y68610000D03*
D76*
X-11020000Y78210000D03*
D76*
X-11020000Y70210000D03*
D76*
X-15820000Y79010000D03*
D76*
X-11020000Y69410000D03*
D76*
X-16620000Y67010000D03*
D76*
X-11020000Y67010000D03*
D76*
X-17420000Y71010000D03*
D76*
X-15820000Y67010000D03*
D76*
X-16620000Y73410000D03*
D76*
X-11820000Y75010000D03*
D76*
X-11020000Y73410000D03*
D76*
X-11820000Y78210000D03*
D76*
X-12620000Y69410000D03*
D76*
X-16620000Y79010000D03*
D76*
X-12620000Y75810000D03*
D76*
X-17420000Y70210000D03*
D76*
X-12620000Y72610000D03*
D76*
X-12620000Y74210000D03*
D76*
X-12620000Y73410000D03*
D76*
X-15820000Y71810000D03*
D76*
X-16620000Y76610000D03*
D76*
X-15820000Y75010000D03*
D76*
X-16620000Y74210000D03*
D76*
X-16620000Y75810000D03*
D76*
X-16620000Y67810000D03*
D76*
X-11020000Y68610000D03*
D76*
X-12620000Y70210000D03*
D76*
X-11020000Y67810000D03*
D76*
X-11820000Y71810000D03*
D76*
X-15820000Y76610000D03*
D76*
X-16620000Y71010000D03*
D76*
X-11020000Y71810000D03*
D76*
X-11020000Y75810000D03*
D76*
X-11820000Y75810000D03*
D76*
X-15820000Y75810000D03*
D76*
X-11820000Y76610000D03*
D76*
X-11820000Y67010000D03*
D76*
X-16620000Y78210000D03*
D76*
X-12620000Y77410000D03*
D76*
X-11820000Y69410000D03*
D76*
X-11820000Y71010000D03*
D76*
X-11020000Y75010000D03*
D76*
X-16620000Y68610000D03*
D76*
X-17420000Y67010000D03*
D76*
X-12620000Y76610000D03*
D76*
X-17420000Y78210000D03*
D76*
X-11820000Y67810000D03*
D76*
X-12620000Y78210000D03*
D76*
X-17420000Y67810000D03*
D76*
X-11020000Y77410000D03*
D76*
X-12620000Y79010000D03*
D76*
X-11020000Y76610000D03*
D76*
X-11820000Y72610000D03*
D76*
X-11820000Y74210000D03*
D76*
X-11020000Y71010000D03*
D76*
X-17420000Y69410000D03*
D76*
X-15820000Y72610000D03*
D76*
X-15820000Y71010000D03*
D76*
X-11820000Y70210000D03*
D76*
X-16620000Y75010000D03*
D76*
X-15820000Y77410000D03*
D76*
X-16620000Y69410000D03*
D76*
X-16620000Y77410000D03*
D76*
X-15820000Y69410000D03*
D76*
X-11020000Y79010000D03*
D76*
X-11820000Y73410000D03*
D76*
X-15820000Y74210000D03*
D76*
X-17420000Y73410000D03*
D76*
X-17420000Y77410000D03*
D76*
X-12620000Y67810000D03*
D76*
X-12620000Y68610000D03*
D76*
X-15820000Y67810000D03*
D76*
X-15820000Y78210000D03*
D76*
X-17420000Y75010000D03*
D76*
X-17420000Y71810000D03*
D76*
X-11820000Y77410000D03*
D76*
X-17420000Y68610000D03*
D76*
X-11020000Y74210000D03*
D76*
X-15820000Y68610000D03*
D76*
X-17420000Y75810000D03*
D76*
X-17420000Y74210000D03*
D76*
X-11820000Y79010000D03*
D76*
X-12620000Y71010000D03*
D76*
X-12620000Y71810000D03*
D76*
X-17420000Y76610000D03*
D76*
X-16620000Y70210000D03*
D76*
X-17420000Y79010000D03*
D76*
X-16620000Y71810000D03*
D76*
X-15820000Y70210000D03*
D76*
X-15820000Y73410000D03*
D76*
X-17420000Y72610000D03*
D76*
X-12620000Y67010000D03*
D76*
X-11020000Y72610000D03*
D76*
X-16620000Y72610000D03*
D73*
X-57840000Y-20260000D03*
D73*
X-57840000Y-12640000D03*
D73*
X-57840000Y-15180000D03*
D74*
X-57840000Y-17720000D03*
D77*
X-95820000Y45175000D03*
D77*
X-95820000Y42635000D03*
D78*
X-90420000Y45175000D03*
D77*
X-95820000Y46445000D03*
D77*
X-95820000Y43905000D03*
D78*
X-90420000Y42635000D03*
D78*
X-90420000Y43905000D03*
D78*
X-90420000Y46445000D03*
D79*
X-60320000Y21805000D03*
D79*
X-54320000Y25555000D03*
D79*
X-54320000Y21805000D03*
D79*
X-60320000Y25555000D03*
D80*
X-57345000Y69355000D03*
D80*
X-57995000Y69355000D03*
D81*
X-55395000Y74905000D03*
D80*
X-53445000Y69355000D03*
D81*
X-56695000Y74905000D03*
D80*
X-55395000Y69355000D03*
D81*
X-50845000Y74905000D03*
D80*
X-54095000Y69355000D03*
D81*
X-51495000Y74905000D03*
D81*
X-57995000Y74905000D03*
D80*
X-56695000Y69355000D03*
D81*
X-57345000Y74905000D03*
D81*
X-53445000Y74905000D03*
D80*
X-54745000Y69355000D03*
D81*
X-52795000Y74905000D03*
D80*
X-52795000Y69355000D03*
D81*
X-52145000Y74905000D03*
D81*
X-54745000Y74905000D03*
D80*
X-51495000Y69355000D03*
D80*
X-52145000Y69355000D03*
D80*
X-56045000Y69355000D03*
D80*
X-50845000Y69355000D03*
D81*
X-54095000Y74905000D03*
D81*
X-56045000Y74905000D03*
D29*
X34282500Y-25200000D03*
D29*
X35117500Y-23200000D03*
D29*
X35117500Y-24700000D03*
D30*
X34282500Y-24200000D03*
D29*
X34282500Y-23200000D03*
D29*
X35117500Y-23700000D03*
D29*
X34282500Y-23700000D03*
D29*
X35117500Y-25200000D03*
D30*
X35117500Y-24200000D03*
D29*
X34282500Y-24700000D03*
D82*
X33800000Y30300000D03*
D82*
X32800000Y30300000D03*
D29*
X33882500Y24200000D03*
D29*
X34717500Y26200000D03*
D29*
X34717500Y24700000D03*
D30*
X33882500Y25200000D03*
D29*
X33882500Y26200000D03*
D29*
X34717500Y25700000D03*
D29*
X33882500Y25700000D03*
D29*
X34717500Y24200000D03*
D30*
X34717500Y25200000D03*
D29*
X33882500Y24700000D03*
D29*
X32082500Y25800000D03*
D29*
X32917500Y27800000D03*
D29*
X32917500Y26300000D03*
D30*
X32082500Y26800000D03*
D29*
X32082500Y27800000D03*
D29*
X32917500Y27300000D03*
D29*
X32082500Y27300000D03*
D29*
X32917500Y25800000D03*
D30*
X32917500Y26800000D03*
D29*
X32082500Y26300000D03*
D36*
X-37870003Y19792487D03*
D37*
X-42570003Y24872487D03*
D37*
X-42570003Y14077487D03*
D36*
X-37870003Y22967487D03*
D37*
X-42570003Y15347487D03*
D38*
X-40220000Y28575000D03*
D37*
X-42570003Y17252487D03*
D36*
X-37870003Y14077487D03*
D36*
X-37870003Y18522487D03*
D37*
X-42570003Y22332487D03*
D37*
X-42570003Y21062487D03*
D37*
X-42570003Y19157487D03*
D37*
X-42570003Y12807487D03*
D36*
X-37870003Y24872487D03*
D37*
X-42570003Y21697487D03*
D37*
X-42570003Y15982487D03*
D37*
X-42570003Y16617487D03*
D37*
X-42570003Y13442487D03*
D36*
X-37870003Y24237487D03*
D36*
X-37870003Y15347487D03*
D36*
X-37870003Y15982487D03*
D36*
X-37870003Y12807487D03*
D36*
X-37870003Y14712487D03*
D36*
X-37870003Y16617487D03*
D36*
X-37870003Y17887487D03*
D37*
X-42570003Y24237487D03*
D37*
X-42570003Y18522487D03*
D36*
X-37870003Y21062487D03*
D37*
X-42570003Y17887487D03*
D36*
X-37870003Y22332487D03*
D37*
X-42570003Y20427487D03*
D36*
X-37870003Y13442487D03*
D37*
X-42570003Y14712487D03*
D38*
X-40220000Y9105000D03*
D36*
X-37870003Y20427487D03*
D36*
X-37870003Y21697487D03*
D36*
X-37870003Y19157487D03*
D37*
X-42570003Y22967487D03*
D36*
X-37870003Y17252487D03*
D37*
X-42570003Y23602487D03*
D37*
X-42570003Y19792487D03*
D36*
X-37870003Y23602487D03*
D52*
X-125975000Y56025000D03*
D52*
X-127425000Y55625000D03*
D52*
X-125975000Y56425000D03*
D52*
X-125975000Y56825000D03*
D53*
X-126900000Y56825000D03*
D52*
X-127425000Y56425000D03*
D52*
X-127425000Y56025000D03*
D52*
X-127425000Y56825000D03*
D53*
X-126500000Y56825000D03*
D53*
X-126500000Y55625000D03*
D53*
X-126900000Y55625000D03*
D52*
X-125975000Y55625000D03*
D32*
X-17550000Y-2675000D03*
D32*
X-17550000Y-7075000D03*
D32*
X-17550000Y-4875000D03*
D11*
X129030000Y39710000D03*
D12*
X129030000Y41610000D03*
D12*
X127130000Y39710000D03*
D12*
X127130000Y41610000D03*
D12*
X127130000Y40660000D03*
D11*
X129030000Y40660000D03*
D29*
X32382500Y-27000000D03*
D29*
X33217500Y-25000000D03*
D29*
X33217500Y-26500000D03*
D30*
X32382500Y-26000000D03*
D29*
X32382500Y-25000000D03*
D29*
X33217500Y-25500000D03*
D29*
X32382500Y-25500000D03*
D29*
X33217500Y-27000000D03*
D30*
X33217500Y-26000000D03*
D29*
X32382500Y-26500000D03*
D55*
X-42874995Y-20799999D03*
D56*
X-37724995Y-30799999D03*
D56*
X-37724995Y-22799999D03*
D56*
X-37724995Y-24799999D03*
D55*
X-42874995Y-28799999D03*
D56*
X-37724995Y-26799999D03*
D55*
X-42874995Y-30799999D03*
D56*
X-37724995Y-18799999D03*
D56*
X-37724995Y-32799999D03*
D56*
X-37724995Y-20799999D03*
D55*
X-42874995Y-22799999D03*
D55*
X-42874995Y-18799999D03*
D55*
X-42874995Y-24799999D03*
D55*
X-42874995Y-32799999D03*
D56*
X-37724995Y-28799999D03*
D55*
X-42874995Y-26799999D03*
D83*
X-56835000Y13860000D03*
D84*
X-56835000Y12590000D03*
D85*
X-56835000Y8780000D03*
D86*
X-58105000Y13860000D03*
D87*
X-58105000Y11320000D03*
D87*
X-58105000Y10050000D03*
D87*
X-56835000Y10050000D03*
D87*
X-56835000Y11320000D03*
D83*
X-58105000Y8780000D03*
D87*
X-58105000Y12590000D03*
D57*
X19500000Y27500000D03*
D64*
X23500000Y25000000D03*
D88*
X12500000Y29500000D03*
D60*
X18500000Y23000000D03*
D64*
X6500000Y23000000D03*
D67*
X10500000Y23000000D03*
D61*
X9500000Y25000000D03*
D60*
X11500000Y25000000D03*
D58*
X22500000Y23000000D03*
D60*
X21500000Y25000000D03*
D57*
X8500000Y29500000D03*
D57*
X25500000Y27500000D03*
D57*
X21500000Y27500000D03*
D58*
X15500000Y25000000D03*
D60*
X25500000Y25000000D03*
D59*
X24500000Y29500000D03*
D62*
X10500000Y29500000D03*
D64*
X12500000Y23000000D03*
D62*
X22500000Y29500000D03*
D57*
X18500000Y29500000D03*
D57*
X6500000Y29500000D03*
D62*
X15500000Y27500000D03*
D64*
X8500000Y23000000D03*
D65*
X16500000Y29500000D03*
D65*
X17500000Y27500000D03*
D88*
X11500000Y27500000D03*
D57*
X9500000Y27500000D03*
D67*
X7500000Y25000000D03*
D59*
X7500000Y27500000D03*
D65*
X23500000Y27500000D03*
D66*
X16500000Y23000000D03*
D60*
X24500000Y23000000D03*
D63*
X20500000Y29500000D03*
D66*
X20500000Y23000000D03*
D66*
X17500000Y25000000D03*
D58*
X19500000Y25000000D03*
D39*
X-128275000Y44620000D03*
D17*
X-128275000Y43820000D03*
D16*
X-127620000Y44625000D03*
D15*
X-127620000Y43015000D03*
D14*
X-126965000Y43820000D03*
D14*
X-126965000Y43420000D03*
D14*
X-126965000Y43020000D03*
D14*
X-126965000Y44620000D03*
D17*
X-128275000Y44220000D03*
D14*
X-126965000Y44220000D03*
D17*
X-128275000Y43020000D03*
D17*
X-128275000Y43420000D03*
D23*
X-147550000Y28700000D03*
D23*
X-147550000Y29200000D03*
D23*
X-147050000Y28200000D03*
D23*
X-147050000Y28700000D03*
D23*
X-147550000Y28200000D03*
D23*
X-147050000Y29200000D03*
D89*
X10240000Y610000D03*
D90*
X11040000Y2210000D03*
D90*
X10240000Y3010000D03*
D90*
X4640000Y-8990000D03*
D90*
X1440000Y-6590000D03*
D90*
X11840000Y2210000D03*
D90*
X1440000Y-4190000D03*
D91*
X-18800000Y96800000D03*
D90*
X2240000Y3810000D03*
D90*
X3040000Y-990000D03*
D92*
X11040000Y-3390000D03*
D89*
X3040000Y2210000D03*
D89*
X2240000Y1410000D03*
D89*
X5440000Y-7390000D03*
D90*
X2240000Y2210000D03*
D89*
X12640000Y3810000D03*
D89*
X7040000Y-7390000D03*
D90*
X2240000Y-8190000D03*
D93*
X10240000Y-5790000D03*
D91*
X13440000Y3810000D03*
D92*
X11040000Y-990000D03*
D89*
X5440000Y3810000D03*
D91*
X11040000Y610000D03*
D92*
X9440000Y-7390000D03*
D92*
X13440000Y1410000D03*
D90*
X7840000Y-7390000D03*
D90*
X2240000Y-5790000D03*
D89*
X8640000Y2210000D03*
D90*
X3840000Y2210000D03*
D91*
X3040000Y-190000D03*
D94*
X2240000Y-990000D03*
D90*
X12640000Y-190000D03*
D91*
X2240000Y-6590000D03*
D89*
X12640000Y-4990000D03*
D90*
X4640000Y-4990000D03*
D89*
X1440000Y610000D03*
D90*
X6240000Y3010000D03*
D92*
X7040000Y-990000D03*
D91*
X11840000Y3010000D03*
D90*
X14240000Y610000D03*
D90*
X2240000Y-190000D03*
D89*
X1440000Y-7390000D03*
D90*
X11040000Y-1790000D03*
D89*
X13440000Y-8190000D03*
D89*
X4640000Y-1790000D03*
D90*
X13440000Y-990000D03*
D94*
X3040000Y-3390000D03*
D89*
X9440000Y-8990000D03*
D92*
X11040000Y3810000D03*
D90*
X8640000Y-990000D03*
D90*
X5440000Y610000D03*
D90*
X1440000Y-990000D03*
D90*
X6240000Y2210000D03*
D89*
X10240000Y2210000D03*
D91*
X14240000Y-1790000D03*
D90*
X12640000Y610000D03*
D92*
X13440000Y3010000D03*
D90*
X15040000Y-8990000D03*
D89*
X13440000Y610000D03*
D90*
X14240000Y2210000D03*
D94*
X14240000Y-4990000D03*
D89*
X1440000Y-190000D03*
D90*
X7040000Y-4190000D03*
D89*
X11040000Y-8190000D03*
D92*
X7040000Y-1790000D03*
D92*
X14240000Y-4190000D03*
D90*
X4640000Y-4190000D03*
D94*
X2240000Y610000D03*
D90*
X8640000Y-4190000D03*
D89*
X1440000Y-8190000D03*
D93*
X14240000Y3010000D03*
D92*
X8640000Y-4990000D03*
D91*
X1440000Y2210000D03*
D90*
X9440000Y2210000D03*
D89*
X13440000Y-4990000D03*
D89*
X4640000Y3810000D03*
D91*
X13440000Y-6590000D03*
D89*
X4640000Y-3390000D03*
D89*
X3040000Y3010000D03*
D89*
X14240000Y-7390000D03*
D89*
X14240000Y-990000D03*
D90*
X-18000000Y96800000D03*
D94*
X3040000Y3810000D03*
D90*
X14240000Y-190000D03*
D90*
X4640000Y3010000D03*
D93*
X11040000Y3010000D03*
D89*
X14240000Y-8190000D03*
D90*
X9440000Y3010000D03*
D90*
X12640000Y-990000D03*
D89*
X2240000Y-4190000D03*
D89*
X13440000Y-5790000D03*
D90*
X13440000Y-8990000D03*
D90*
X10240000Y-2590000D03*
D90*
X7040000Y-4990000D03*
D92*
X11040000Y-190000D03*
D92*
X14240000Y-3390000D03*
D90*
X12640000Y2210000D03*
D92*
X13440000Y-7390000D03*
D90*
X6240000Y-2590000D03*
D89*
X8640000Y-190000D03*
D91*
X4640000Y-7390000D03*
D90*
X11040000Y-7390000D03*
D89*
X8640000Y-1790000D03*
D90*
X11040000Y-4190000D03*
D90*
X2240000Y-1790000D03*
D90*
X2240000Y-3390000D03*
D93*
X10240000Y-990000D03*
D93*
X8640000Y-7390000D03*
D93*
X8640000Y-3390000D03*
D89*
X3040000Y-1790000D03*
D90*
X3040000Y610000D03*
D90*
X12640000Y3010000D03*
D92*
X6240000Y-8190000D03*
D93*
X10240000Y3810000D03*
D92*
X3040000Y-7390000D03*
D91*
X2240000Y-4990000D03*
D90*
X13440000Y-3390000D03*
D90*
X3040000Y-8990000D03*
D90*
X6240000Y-7390000D03*
D91*
X4640000Y-5790000D03*
D93*
X3840000Y3810000D03*
D90*
X3040000Y-8190000D03*
D93*
X6240000Y-990000D03*
D94*
X11840000Y-7390000D03*
D92*
X3040000Y-4990000D03*
D91*
X7840000Y-8990000D03*
D92*
X9440000Y-8190000D03*
D92*
X3040000Y-5790000D03*
D94*
X4640000Y-190000D03*
D90*
X10240000Y-6590000D03*
D89*
X7040000Y610000D03*
D89*
X4640000Y2210000D03*
D89*
X2240000Y-7390000D03*
D93*
X8640000Y610000D03*
D91*
X3840000Y3010000D03*
D89*
X13440000Y-4190000D03*
D90*
X6240000Y-5790000D03*
D90*
X7840000Y-8190000D03*
D92*
X12640000Y1410000D03*
D89*
X7040000Y2210000D03*
D90*
X11840000Y3810000D03*
D91*
X11040000Y-5790000D03*
D93*
X10240000Y-4190000D03*
D90*
X12640000Y-4190000D03*
D89*
X12640000Y-5790000D03*
D90*
X3040000Y1410000D03*
D90*
X4640000Y610000D03*
D92*
X4640000Y-990000D03*
D93*
X7040000Y-3390000D03*
D90*
X5440000Y-8190000D03*
D93*
X6240000Y3810000D03*
D90*
X5440000Y2210000D03*
D92*
X2240000Y3010000D03*
D90*
X12640000Y-6590000D03*
D92*
X3040000Y-6590000D03*
D90*
X14240000Y-6590000D03*
D91*
X9440000Y3810000D03*
D90*
X1440000Y-3390000D03*
D90*
X10240000Y-7390000D03*
D90*
X7040000Y-190000D03*
D92*
X7040000Y3810000D03*
D90*
X1440000Y1410000D03*
D90*
X14240000Y1410000D03*
D90*
X6240000Y-4190000D03*
D91*
X8640000Y3010000D03*
D92*
X11040000Y-4990000D03*
D92*
X14240000Y-5790000D03*
D90*
X11840000Y-8990000D03*
D91*
X1440000Y-5790000D03*
D91*
X7040000Y3010000D03*
D90*
X13440000Y-190000D03*
D90*
X1440000Y3010000D03*
D90*
X5440000Y3010000D03*
D90*
X1440000Y-4990000D03*
D89*
X13440000Y2210000D03*
M02*
