G04 #@! TF.FileFunction,Legend,Bot*
%FSLAX46Y46*%
G04 Gerber Fmt 4.6, Leading zero omitted, Abs format (unit mm)*
G04 Created by KiCad (PCBNEW 4.0.7) date Sat Jan 20 00:24:16 2018*
%MOMM*%
%LPD*%
G01*
G04 APERTURE LIST*
%ADD10C,0.100000*%
%ADD11C,0.300000*%
%ADD12C,0.120000*%
%ADD13C,0.304800*%
%ADD14C,0.150000*%
G04 APERTURE END LIST*
D10*
D11*
X6261428Y-21430000D02*
X6975714Y-21430000D01*
X6118571Y-21001429D02*
X6618571Y-22501429D01*
X7118571Y-21001429D01*
X7475714Y-22501429D02*
X8475714Y-21001429D01*
X8475714Y-22501429D02*
X7475714Y-21001429D01*
X9047142Y-21001429D02*
X9047142Y-22501429D01*
X10047142Y-22501429D02*
X10332856Y-22501429D01*
X10475714Y-22430000D01*
X10618571Y-22287143D01*
X10689999Y-22001429D01*
X10689999Y-21501429D01*
X10618571Y-21215714D01*
X10475714Y-21072857D01*
X10332856Y-21001429D01*
X10047142Y-21001429D01*
X9904285Y-21072857D01*
X9761428Y-21215714D01*
X9689999Y-21501429D01*
X9689999Y-22001429D01*
X9761428Y-22287143D01*
X9904285Y-22430000D01*
X10047142Y-22501429D01*
X11332857Y-21001429D02*
X11332857Y-22501429D01*
X11832857Y-21430000D01*
X12332857Y-22501429D01*
X12332857Y-21001429D01*
X14190000Y-22001429D02*
X14190000Y-20501429D01*
X14904286Y-21215714D02*
X14975714Y-21072857D01*
X15118571Y-21001429D01*
X14190000Y-21215714D02*
X14261428Y-21072857D01*
X14404286Y-21001429D01*
X14690000Y-21001429D01*
X14832857Y-21072857D01*
X14904286Y-21215714D01*
X14904286Y-22001429D01*
D12*
X12670000Y-34820000D02*
X15330000Y-34820000D01*
X12670000Y-47580000D02*
X12670000Y-34820000D01*
X15330000Y-47580000D02*
X15330000Y-34820000D01*
X12670000Y-47580000D02*
X15330000Y-47580000D01*
X12670000Y-48850000D02*
X12670000Y-50180000D01*
X12670000Y-50180000D02*
X14000000Y-50180000D01*
X35590000Y-36130000D02*
X36590000Y-36130000D01*
X36590000Y-37830000D02*
X35590000Y-37830000D01*
X35550000Y-38050000D02*
X36550000Y-38050000D01*
X36550000Y-39750000D02*
X35550000Y-39750000D01*
X44350000Y-32550000D02*
X44350000Y-33550000D01*
X42650000Y-33550000D02*
X42650000Y-32550000D01*
X49450000Y-32550000D02*
X49450000Y-33550000D01*
X47750000Y-33550000D02*
X47750000Y-32550000D01*
X30840000Y-39930000D02*
X30840000Y-40930000D01*
X29140000Y-40930000D02*
X29140000Y-39930000D01*
X45450000Y-52400000D02*
X45450000Y-51400000D01*
X47150000Y-51400000D02*
X47150000Y-52400000D01*
X35600000Y-44750000D02*
X36600000Y-44750000D01*
X36600000Y-46450000D02*
X35600000Y-46450000D01*
X43440000Y-52430000D02*
X43440000Y-51430000D01*
X45140000Y-51430000D02*
X45140000Y-52430000D01*
X55400000Y-46950000D02*
X54400000Y-46950000D01*
X54400000Y-45250000D02*
X55400000Y-45250000D01*
X35590000Y-46730000D02*
X36590000Y-46730000D01*
X36590000Y-48430000D02*
X35590000Y-48430000D01*
X55440000Y-44830000D02*
X54440000Y-44830000D01*
X54440000Y-43130000D02*
X55440000Y-43130000D01*
X34640000Y-39930000D02*
X35640000Y-39930000D01*
X35640000Y-41630000D02*
X34640000Y-41630000D01*
D13*
X59470000Y-1960000D02*
X59470000Y-7040000D01*
X49310000Y-1960000D02*
X49310000Y-7040000D01*
X64550000Y-1960000D02*
X49310000Y-1960000D01*
X64550000Y-7040000D02*
X64550000Y-1960000D01*
X49310000Y-7040000D02*
X64550000Y-7040000D01*
X36610000Y-1960000D02*
X36610000Y-7040000D01*
X26450000Y-1960000D02*
X26450000Y-7040000D01*
X41690000Y-1960000D02*
X26450000Y-1960000D01*
X41690000Y-7040000D02*
X41690000Y-1960000D01*
X26450000Y-7040000D02*
X41690000Y-7040000D01*
D14*
X52500000Y-35500000D02*
X52500000Y-49500000D01*
X52500000Y-49500000D02*
X38500000Y-49500000D01*
X38500000Y-49500000D02*
X38500000Y-35500000D01*
X52500000Y-35500000D02*
X38500000Y-35500000D01*
X45460555Y-36100000D02*
G75*
G03X45460555Y-36100000I-360555J0D01*
G01*
D12*
X33800000Y-84850000D02*
X32800000Y-84850000D01*
X32800000Y-83150000D02*
X33800000Y-83150000D01*
X62500000Y-84850000D02*
X61500000Y-84850000D01*
X61500000Y-83150000D02*
X62500000Y-83150000D01*
X37500000Y-83150000D02*
X38500000Y-83150000D01*
X38500000Y-84850000D02*
X37500000Y-84850000D01*
X51640000Y-33530000D02*
X51640000Y-32530000D01*
X53340000Y-32530000D02*
X53340000Y-33530000D01*
X67400000Y-84850000D02*
X66400000Y-84850000D01*
X66400000Y-83150000D02*
X67400000Y-83150000D01*
X47440000Y-52430000D02*
X47440000Y-51430000D01*
X49140000Y-51430000D02*
X49140000Y-52430000D01*
X44410000Y-30180000D02*
X44410000Y-31180000D01*
X45770000Y-31180000D02*
X45770000Y-30180000D01*
X46410000Y-29080000D02*
X46410000Y-30080000D01*
X47770000Y-30080000D02*
X47770000Y-29080000D01*
D14*
X14333333Y-50632381D02*
X14333333Y-51346667D01*
X14380953Y-51489524D01*
X14476191Y-51584762D01*
X14619048Y-51632381D01*
X14714286Y-51632381D01*
X13380952Y-50632381D02*
X13857143Y-50632381D01*
X13904762Y-51108571D01*
X13857143Y-51060952D01*
X13761905Y-51013333D01*
X13523809Y-51013333D01*
X13428571Y-51060952D01*
X13380952Y-51108571D01*
X13333333Y-51203810D01*
X13333333Y-51441905D01*
X13380952Y-51537143D01*
X13428571Y-51584762D01*
X13523809Y-51632381D01*
X13761905Y-51632381D01*
X13857143Y-51584762D01*
X13904762Y-51537143D01*
X32556666Y-37337143D02*
X32604285Y-37384762D01*
X32747142Y-37432381D01*
X32842380Y-37432381D01*
X32985238Y-37384762D01*
X33080476Y-37289524D01*
X33128095Y-37194286D01*
X33175714Y-37003810D01*
X33175714Y-36860952D01*
X33128095Y-36670476D01*
X33080476Y-36575238D01*
X32985238Y-36480000D01*
X32842380Y-36432381D01*
X32747142Y-36432381D01*
X32604285Y-36480000D01*
X32556666Y-36527619D01*
X31604285Y-37432381D02*
X32175714Y-37432381D01*
X31890000Y-37432381D02*
X31890000Y-36432381D01*
X31985238Y-36575238D01*
X32080476Y-36670476D01*
X32175714Y-36718095D01*
X32656666Y-39437143D02*
X32704285Y-39484762D01*
X32847142Y-39532381D01*
X32942380Y-39532381D01*
X33085238Y-39484762D01*
X33180476Y-39389524D01*
X33228095Y-39294286D01*
X33275714Y-39103810D01*
X33275714Y-38960952D01*
X33228095Y-38770476D01*
X33180476Y-38675238D01*
X33085238Y-38580000D01*
X32942380Y-38532381D01*
X32847142Y-38532381D01*
X32704285Y-38580000D01*
X32656666Y-38627619D01*
X32275714Y-38627619D02*
X32228095Y-38580000D01*
X32132857Y-38532381D01*
X31894761Y-38532381D01*
X31799523Y-38580000D01*
X31751904Y-38627619D01*
X31704285Y-38722857D01*
X31704285Y-38818095D01*
X31751904Y-38960952D01*
X32323333Y-39532381D01*
X31704285Y-39532381D01*
X44047143Y-29413334D02*
X44094762Y-29365715D01*
X44142381Y-29222858D01*
X44142381Y-29127620D01*
X44094762Y-28984762D01*
X43999524Y-28889524D01*
X43904286Y-28841905D01*
X43713810Y-28794286D01*
X43570952Y-28794286D01*
X43380476Y-28841905D01*
X43285238Y-28889524D01*
X43190000Y-28984762D01*
X43142381Y-29127620D01*
X43142381Y-29222858D01*
X43190000Y-29365715D01*
X43237619Y-29413334D01*
X43142381Y-29746667D02*
X43142381Y-30413334D01*
X44142381Y-29984762D01*
X49047143Y-29413334D02*
X49094762Y-29365715D01*
X49142381Y-29222858D01*
X49142381Y-29127620D01*
X49094762Y-28984762D01*
X48999524Y-28889524D01*
X48904286Y-28841905D01*
X48713810Y-28794286D01*
X48570952Y-28794286D01*
X48380476Y-28841905D01*
X48285238Y-28889524D01*
X48190000Y-28984762D01*
X48142381Y-29127620D01*
X48142381Y-29222858D01*
X48190000Y-29365715D01*
X48237619Y-29413334D01*
X49142381Y-29889524D02*
X49142381Y-30080000D01*
X49094762Y-30175239D01*
X49047143Y-30222858D01*
X48904286Y-30318096D01*
X48713810Y-30365715D01*
X48332857Y-30365715D01*
X48237619Y-30318096D01*
X48190000Y-30270477D01*
X48142381Y-30175239D01*
X48142381Y-29984762D01*
X48190000Y-29889524D01*
X48237619Y-29841905D01*
X48332857Y-29794286D01*
X48570952Y-29794286D01*
X48666190Y-29841905D01*
X48713810Y-29889524D01*
X48761429Y-29984762D01*
X48761429Y-30175239D01*
X48713810Y-30270477D01*
X48666190Y-30318096D01*
X48570952Y-30365715D01*
X28447143Y-39637143D02*
X28494762Y-39589524D01*
X28542381Y-39446667D01*
X28542381Y-39351429D01*
X28494762Y-39208571D01*
X28399524Y-39113333D01*
X28304286Y-39065714D01*
X28113810Y-39018095D01*
X27970952Y-39018095D01*
X27780476Y-39065714D01*
X27685238Y-39113333D01*
X27590000Y-39208571D01*
X27542381Y-39351429D01*
X27542381Y-39446667D01*
X27590000Y-39589524D01*
X27637619Y-39637143D01*
X28542381Y-40589524D02*
X28542381Y-40018095D01*
X28542381Y-40303809D02*
X27542381Y-40303809D01*
X27685238Y-40208571D01*
X27780476Y-40113333D01*
X27828095Y-40018095D01*
X27542381Y-41208571D02*
X27542381Y-41303810D01*
X27590000Y-41399048D01*
X27637619Y-41446667D01*
X27732857Y-41494286D01*
X27923333Y-41541905D01*
X28161429Y-41541905D01*
X28351905Y-41494286D01*
X28447143Y-41446667D01*
X28494762Y-41399048D01*
X28542381Y-41303810D01*
X28542381Y-41208571D01*
X28494762Y-41113333D01*
X28447143Y-41065714D01*
X28351905Y-41018095D01*
X28161429Y-40970476D01*
X27923333Y-40970476D01*
X27732857Y-41018095D01*
X27637619Y-41065714D01*
X27590000Y-41113333D01*
X27542381Y-41208571D01*
X46747143Y-55037143D02*
X46794762Y-54989524D01*
X46842381Y-54846667D01*
X46842381Y-54751429D01*
X46794762Y-54608571D01*
X46699524Y-54513333D01*
X46604286Y-54465714D01*
X46413810Y-54418095D01*
X46270952Y-54418095D01*
X46080476Y-54465714D01*
X45985238Y-54513333D01*
X45890000Y-54608571D01*
X45842381Y-54751429D01*
X45842381Y-54846667D01*
X45890000Y-54989524D01*
X45937619Y-55037143D01*
X46842381Y-55989524D02*
X46842381Y-55418095D01*
X46842381Y-55703809D02*
X45842381Y-55703809D01*
X45985238Y-55608571D01*
X46080476Y-55513333D01*
X46128095Y-55418095D01*
X46842381Y-56941905D02*
X46842381Y-56370476D01*
X46842381Y-56656190D02*
X45842381Y-56656190D01*
X45985238Y-56560952D01*
X46080476Y-56465714D01*
X46128095Y-56370476D01*
X33232857Y-46037143D02*
X33280476Y-46084762D01*
X33423333Y-46132381D01*
X33518571Y-46132381D01*
X33661429Y-46084762D01*
X33756667Y-45989524D01*
X33804286Y-45894286D01*
X33851905Y-45703810D01*
X33851905Y-45560952D01*
X33804286Y-45370476D01*
X33756667Y-45275238D01*
X33661429Y-45180000D01*
X33518571Y-45132381D01*
X33423333Y-45132381D01*
X33280476Y-45180000D01*
X33232857Y-45227619D01*
X32280476Y-46132381D02*
X32851905Y-46132381D01*
X32566191Y-46132381D02*
X32566191Y-45132381D01*
X32661429Y-45275238D01*
X32756667Y-45370476D01*
X32851905Y-45418095D01*
X31899524Y-45227619D02*
X31851905Y-45180000D01*
X31756667Y-45132381D01*
X31518571Y-45132381D01*
X31423333Y-45180000D01*
X31375714Y-45227619D01*
X31328095Y-45322857D01*
X31328095Y-45418095D01*
X31375714Y-45560952D01*
X31947143Y-46132381D01*
X31328095Y-46132381D01*
X44747143Y-55137143D02*
X44794762Y-55089524D01*
X44842381Y-54946667D01*
X44842381Y-54851429D01*
X44794762Y-54708571D01*
X44699524Y-54613333D01*
X44604286Y-54565714D01*
X44413810Y-54518095D01*
X44270952Y-54518095D01*
X44080476Y-54565714D01*
X43985238Y-54613333D01*
X43890000Y-54708571D01*
X43842381Y-54851429D01*
X43842381Y-54946667D01*
X43890000Y-55089524D01*
X43937619Y-55137143D01*
X44842381Y-56089524D02*
X44842381Y-55518095D01*
X44842381Y-55803809D02*
X43842381Y-55803809D01*
X43985238Y-55708571D01*
X44080476Y-55613333D01*
X44128095Y-55518095D01*
X43842381Y-56422857D02*
X43842381Y-57041905D01*
X44223333Y-56708571D01*
X44223333Y-56851429D01*
X44270952Y-56946667D01*
X44318571Y-56994286D01*
X44413810Y-57041905D01*
X44651905Y-57041905D01*
X44747143Y-56994286D01*
X44794762Y-56946667D01*
X44842381Y-56851429D01*
X44842381Y-56565714D01*
X44794762Y-56470476D01*
X44747143Y-56422857D01*
X59432857Y-46537143D02*
X59480476Y-46584762D01*
X59623333Y-46632381D01*
X59718571Y-46632381D01*
X59861429Y-46584762D01*
X59956667Y-46489524D01*
X60004286Y-46394286D01*
X60051905Y-46203810D01*
X60051905Y-46060952D01*
X60004286Y-45870476D01*
X59956667Y-45775238D01*
X59861429Y-45680000D01*
X59718571Y-45632381D01*
X59623333Y-45632381D01*
X59480476Y-45680000D01*
X59432857Y-45727619D01*
X58480476Y-46632381D02*
X59051905Y-46632381D01*
X58766191Y-46632381D02*
X58766191Y-45632381D01*
X58861429Y-45775238D01*
X58956667Y-45870476D01*
X59051905Y-45918095D01*
X57623333Y-45965714D02*
X57623333Y-46632381D01*
X57861429Y-45584762D02*
X58099524Y-46299048D01*
X57480476Y-46299048D01*
X32932857Y-47937143D02*
X32980476Y-47984762D01*
X33123333Y-48032381D01*
X33218571Y-48032381D01*
X33361429Y-47984762D01*
X33456667Y-47889524D01*
X33504286Y-47794286D01*
X33551905Y-47603810D01*
X33551905Y-47460952D01*
X33504286Y-47270476D01*
X33456667Y-47175238D01*
X33361429Y-47080000D01*
X33218571Y-47032381D01*
X33123333Y-47032381D01*
X32980476Y-47080000D01*
X32932857Y-47127619D01*
X31980476Y-48032381D02*
X32551905Y-48032381D01*
X32266191Y-48032381D02*
X32266191Y-47032381D01*
X32361429Y-47175238D01*
X32456667Y-47270476D01*
X32551905Y-47318095D01*
X31075714Y-47032381D02*
X31551905Y-47032381D01*
X31599524Y-47508571D01*
X31551905Y-47460952D01*
X31456667Y-47413333D01*
X31218571Y-47413333D01*
X31123333Y-47460952D01*
X31075714Y-47508571D01*
X31028095Y-47603810D01*
X31028095Y-47841905D01*
X31075714Y-47937143D01*
X31123333Y-47984762D01*
X31218571Y-48032381D01*
X31456667Y-48032381D01*
X31551905Y-47984762D01*
X31599524Y-47937143D01*
X59332857Y-44337143D02*
X59380476Y-44384762D01*
X59523333Y-44432381D01*
X59618571Y-44432381D01*
X59761429Y-44384762D01*
X59856667Y-44289524D01*
X59904286Y-44194286D01*
X59951905Y-44003810D01*
X59951905Y-43860952D01*
X59904286Y-43670476D01*
X59856667Y-43575238D01*
X59761429Y-43480000D01*
X59618571Y-43432381D01*
X59523333Y-43432381D01*
X59380476Y-43480000D01*
X59332857Y-43527619D01*
X58380476Y-44432381D02*
X58951905Y-44432381D01*
X58666191Y-44432381D02*
X58666191Y-43432381D01*
X58761429Y-43575238D01*
X58856667Y-43670476D01*
X58951905Y-43718095D01*
X57809048Y-43860952D02*
X57904286Y-43813333D01*
X57951905Y-43765714D01*
X57999524Y-43670476D01*
X57999524Y-43622857D01*
X57951905Y-43527619D01*
X57904286Y-43480000D01*
X57809048Y-43432381D01*
X57618571Y-43432381D01*
X57523333Y-43480000D01*
X57475714Y-43527619D01*
X57428095Y-43622857D01*
X57428095Y-43670476D01*
X57475714Y-43765714D01*
X57523333Y-43813333D01*
X57618571Y-43860952D01*
X57809048Y-43860952D01*
X57904286Y-43908571D01*
X57951905Y-43956190D01*
X57999524Y-44051429D01*
X57999524Y-44241905D01*
X57951905Y-44337143D01*
X57904286Y-44384762D01*
X57809048Y-44432381D01*
X57618571Y-44432381D01*
X57523333Y-44384762D01*
X57475714Y-44337143D01*
X57428095Y-44241905D01*
X57428095Y-44051429D01*
X57475714Y-43956190D01*
X57523333Y-43908571D01*
X57618571Y-43860952D01*
X36232857Y-42837143D02*
X36280476Y-42884762D01*
X36423333Y-42932381D01*
X36518571Y-42932381D01*
X36661429Y-42884762D01*
X36756667Y-42789524D01*
X36804286Y-42694286D01*
X36851905Y-42503810D01*
X36851905Y-42360952D01*
X36804286Y-42170476D01*
X36756667Y-42075238D01*
X36661429Y-41980000D01*
X36518571Y-41932381D01*
X36423333Y-41932381D01*
X36280476Y-41980000D01*
X36232857Y-42027619D01*
X35280476Y-42932381D02*
X35851905Y-42932381D01*
X35566191Y-42932381D02*
X35566191Y-41932381D01*
X35661429Y-42075238D01*
X35756667Y-42170476D01*
X35851905Y-42218095D01*
X34804286Y-42932381D02*
X34613810Y-42932381D01*
X34518571Y-42884762D01*
X34470952Y-42837143D01*
X34375714Y-42694286D01*
X34328095Y-42503810D01*
X34328095Y-42122857D01*
X34375714Y-42027619D01*
X34423333Y-41980000D01*
X34518571Y-41932381D01*
X34709048Y-41932381D01*
X34804286Y-41980000D01*
X34851905Y-42027619D01*
X34899524Y-42122857D01*
X34899524Y-42360952D01*
X34851905Y-42456190D01*
X34804286Y-42503810D01*
X34709048Y-42551429D01*
X34518571Y-42551429D01*
X34423333Y-42503810D01*
X34375714Y-42456190D01*
X34328095Y-42360952D01*
X51032381Y-1229715D02*
X51032381Y-658286D01*
X51032381Y-944000D02*
X50032381Y-944000D01*
X50175238Y-848762D01*
X50270476Y-753524D01*
X50318095Y-658286D01*
X60290000Y-8118096D02*
X60242381Y-8022858D01*
X60242381Y-7880001D01*
X60290000Y-7737143D01*
X60385238Y-7641905D01*
X60480476Y-7594286D01*
X60670952Y-7546667D01*
X60813810Y-7546667D01*
X61004286Y-7594286D01*
X61099524Y-7641905D01*
X61194762Y-7737143D01*
X61242381Y-7880001D01*
X61242381Y-7975239D01*
X61194762Y-8118096D01*
X61147143Y-8165715D01*
X60813810Y-8165715D01*
X60813810Y-7975239D01*
X61242381Y-8594286D02*
X60242381Y-8594286D01*
X61242381Y-9165715D01*
X60242381Y-9165715D01*
X61242381Y-9641905D02*
X60242381Y-9641905D01*
X60242381Y-9880000D01*
X60290000Y-10022858D01*
X60385238Y-10118096D01*
X60480476Y-10165715D01*
X60670952Y-10213334D01*
X60813810Y-10213334D01*
X61004286Y-10165715D01*
X61099524Y-10118096D01*
X61194762Y-10022858D01*
X61242381Y-9880000D01*
X61242381Y-9641905D01*
X62942381Y-7646667D02*
X63942381Y-7980000D01*
X62942381Y-8313334D01*
X63847143Y-9218096D02*
X63894762Y-9170477D01*
X63942381Y-9027620D01*
X63942381Y-8932382D01*
X63894762Y-8789524D01*
X63799524Y-8694286D01*
X63704286Y-8646667D01*
X63513810Y-8599048D01*
X63370952Y-8599048D01*
X63180476Y-8646667D01*
X63085238Y-8694286D01*
X62990000Y-8789524D01*
X62942381Y-8932382D01*
X62942381Y-9027620D01*
X62990000Y-9170477D01*
X63037619Y-9218096D01*
X63847143Y-10218096D02*
X63894762Y-10170477D01*
X63942381Y-10027620D01*
X63942381Y-9932382D01*
X63894762Y-9789524D01*
X63799524Y-9694286D01*
X63704286Y-9646667D01*
X63513810Y-9599048D01*
X63370952Y-9599048D01*
X63180476Y-9646667D01*
X63085238Y-9694286D01*
X62990000Y-9789524D01*
X62942381Y-9932382D01*
X62942381Y-10027620D01*
X62990000Y-10170477D01*
X63037619Y-10218096D01*
X28172381Y-1229715D02*
X28172381Y-658286D01*
X28172381Y-944000D02*
X27172381Y-944000D01*
X27315238Y-848762D01*
X27410476Y-753524D01*
X27458095Y-658286D01*
X37390000Y-8018096D02*
X37342381Y-7922858D01*
X37342381Y-7780001D01*
X37390000Y-7637143D01*
X37485238Y-7541905D01*
X37580476Y-7494286D01*
X37770952Y-7446667D01*
X37913810Y-7446667D01*
X38104286Y-7494286D01*
X38199524Y-7541905D01*
X38294762Y-7637143D01*
X38342381Y-7780001D01*
X38342381Y-7875239D01*
X38294762Y-8018096D01*
X38247143Y-8065715D01*
X37913810Y-8065715D01*
X37913810Y-7875239D01*
X38342381Y-8494286D02*
X37342381Y-8494286D01*
X38342381Y-9065715D01*
X37342381Y-9065715D01*
X38342381Y-9541905D02*
X37342381Y-9541905D01*
X37342381Y-9780000D01*
X37390000Y-9922858D01*
X37485238Y-10018096D01*
X37580476Y-10065715D01*
X37770952Y-10113334D01*
X37913810Y-10113334D01*
X38104286Y-10065715D01*
X38199524Y-10018096D01*
X38294762Y-9922858D01*
X38342381Y-9780000D01*
X38342381Y-9541905D01*
X40042381Y-7446667D02*
X41042381Y-7780000D01*
X40042381Y-8113334D01*
X40947143Y-9018096D02*
X40994762Y-8970477D01*
X41042381Y-8827620D01*
X41042381Y-8732382D01*
X40994762Y-8589524D01*
X40899524Y-8494286D01*
X40804286Y-8446667D01*
X40613810Y-8399048D01*
X40470952Y-8399048D01*
X40280476Y-8446667D01*
X40185238Y-8494286D01*
X40090000Y-8589524D01*
X40042381Y-8732382D01*
X40042381Y-8827620D01*
X40090000Y-8970477D01*
X40137619Y-9018096D01*
X40947143Y-10018096D02*
X40994762Y-9970477D01*
X41042381Y-9827620D01*
X41042381Y-9732382D01*
X40994762Y-9589524D01*
X40899524Y-9494286D01*
X40804286Y-9446667D01*
X40613810Y-9399048D01*
X40470952Y-9399048D01*
X40280476Y-9446667D01*
X40185238Y-9494286D01*
X40090000Y-9589524D01*
X40042381Y-9732382D01*
X40042381Y-9827620D01*
X40090000Y-9970477D01*
X40137619Y-10018096D01*
X46261905Y-50452381D02*
X46261905Y-51261905D01*
X46214286Y-51357143D01*
X46166667Y-51404762D01*
X46071429Y-51452381D01*
X45880952Y-51452381D01*
X45785714Y-51404762D01*
X45738095Y-51357143D01*
X45690476Y-51261905D01*
X45690476Y-50452381D01*
X44690476Y-51452381D02*
X45261905Y-51452381D01*
X44976191Y-51452381D02*
X44976191Y-50452381D01*
X45071429Y-50595238D01*
X45166667Y-50690476D01*
X45261905Y-50738095D01*
X29732857Y-84337143D02*
X29780476Y-84384762D01*
X29923333Y-84432381D01*
X30018571Y-84432381D01*
X30161429Y-84384762D01*
X30256667Y-84289524D01*
X30304286Y-84194286D01*
X30351905Y-84003810D01*
X30351905Y-83860952D01*
X30304286Y-83670476D01*
X30256667Y-83575238D01*
X30161429Y-83480000D01*
X30018571Y-83432381D01*
X29923333Y-83432381D01*
X29780476Y-83480000D01*
X29732857Y-83527619D01*
X29351905Y-83527619D02*
X29304286Y-83480000D01*
X29209048Y-83432381D01*
X28970952Y-83432381D01*
X28875714Y-83480000D01*
X28828095Y-83527619D01*
X28780476Y-83622857D01*
X28780476Y-83718095D01*
X28828095Y-83860952D01*
X29399524Y-84432381D01*
X28780476Y-84432381D01*
X28161429Y-83432381D02*
X28066190Y-83432381D01*
X27970952Y-83480000D01*
X27923333Y-83527619D01*
X27875714Y-83622857D01*
X27828095Y-83813333D01*
X27828095Y-84051429D01*
X27875714Y-84241905D01*
X27923333Y-84337143D01*
X27970952Y-84384762D01*
X28066190Y-84432381D01*
X28161429Y-84432381D01*
X28256667Y-84384762D01*
X28304286Y-84337143D01*
X28351905Y-84241905D01*
X28399524Y-84051429D01*
X28399524Y-83813333D01*
X28351905Y-83622857D01*
X28304286Y-83527619D01*
X28256667Y-83480000D01*
X28161429Y-83432381D01*
X58142857Y-84357143D02*
X58190476Y-84404762D01*
X58333333Y-84452381D01*
X58428571Y-84452381D01*
X58571429Y-84404762D01*
X58666667Y-84309524D01*
X58714286Y-84214286D01*
X58761905Y-84023810D01*
X58761905Y-83880952D01*
X58714286Y-83690476D01*
X58666667Y-83595238D01*
X58571429Y-83500000D01*
X58428571Y-83452381D01*
X58333333Y-83452381D01*
X58190476Y-83500000D01*
X58142857Y-83547619D01*
X57761905Y-83547619D02*
X57714286Y-83500000D01*
X57619048Y-83452381D01*
X57380952Y-83452381D01*
X57285714Y-83500000D01*
X57238095Y-83547619D01*
X57190476Y-83642857D01*
X57190476Y-83738095D01*
X57238095Y-83880952D01*
X57809524Y-84452381D01*
X57190476Y-84452381D01*
X56238095Y-84452381D02*
X56809524Y-84452381D01*
X56523810Y-84452381D02*
X56523810Y-83452381D01*
X56619048Y-83595238D01*
X56714286Y-83690476D01*
X56809524Y-83738095D01*
X43032857Y-84437143D02*
X43080476Y-84484762D01*
X43223333Y-84532381D01*
X43318571Y-84532381D01*
X43461429Y-84484762D01*
X43556667Y-84389524D01*
X43604286Y-84294286D01*
X43651905Y-84103810D01*
X43651905Y-83960952D01*
X43604286Y-83770476D01*
X43556667Y-83675238D01*
X43461429Y-83580000D01*
X43318571Y-83532381D01*
X43223333Y-83532381D01*
X43080476Y-83580000D01*
X43032857Y-83627619D01*
X42651905Y-83627619D02*
X42604286Y-83580000D01*
X42509048Y-83532381D01*
X42270952Y-83532381D01*
X42175714Y-83580000D01*
X42128095Y-83627619D01*
X42080476Y-83722857D01*
X42080476Y-83818095D01*
X42128095Y-83960952D01*
X42699524Y-84532381D01*
X42080476Y-84532381D01*
X41699524Y-83627619D02*
X41651905Y-83580000D01*
X41556667Y-83532381D01*
X41318571Y-83532381D01*
X41223333Y-83580000D01*
X41175714Y-83627619D01*
X41128095Y-83722857D01*
X41128095Y-83818095D01*
X41175714Y-83960952D01*
X41747143Y-84532381D01*
X41128095Y-84532381D01*
X52847143Y-28337143D02*
X52894762Y-28289524D01*
X52942381Y-28146667D01*
X52942381Y-28051429D01*
X52894762Y-27908571D01*
X52799524Y-27813333D01*
X52704286Y-27765714D01*
X52513810Y-27718095D01*
X52370952Y-27718095D01*
X52180476Y-27765714D01*
X52085238Y-27813333D01*
X51990000Y-27908571D01*
X51942381Y-28051429D01*
X51942381Y-28146667D01*
X51990000Y-28289524D01*
X52037619Y-28337143D01*
X52037619Y-28718095D02*
X51990000Y-28765714D01*
X51942381Y-28860952D01*
X51942381Y-29099048D01*
X51990000Y-29194286D01*
X52037619Y-29241905D01*
X52132857Y-29289524D01*
X52228095Y-29289524D01*
X52370952Y-29241905D01*
X52942381Y-28670476D01*
X52942381Y-29289524D01*
X52275714Y-30146667D02*
X52942381Y-30146667D01*
X51894762Y-29908571D02*
X52609048Y-29670476D01*
X52609048Y-30289524D01*
X72132857Y-84337143D02*
X72180476Y-84384762D01*
X72323333Y-84432381D01*
X72418571Y-84432381D01*
X72561429Y-84384762D01*
X72656667Y-84289524D01*
X72704286Y-84194286D01*
X72751905Y-84003810D01*
X72751905Y-83860952D01*
X72704286Y-83670476D01*
X72656667Y-83575238D01*
X72561429Y-83480000D01*
X72418571Y-83432381D01*
X72323333Y-83432381D01*
X72180476Y-83480000D01*
X72132857Y-83527619D01*
X71751905Y-83527619D02*
X71704286Y-83480000D01*
X71609048Y-83432381D01*
X71370952Y-83432381D01*
X71275714Y-83480000D01*
X71228095Y-83527619D01*
X71180476Y-83622857D01*
X71180476Y-83718095D01*
X71228095Y-83860952D01*
X71799524Y-84432381D01*
X71180476Y-84432381D01*
X70847143Y-83432381D02*
X70180476Y-83432381D01*
X70609048Y-84432381D01*
X48847143Y-55037143D02*
X48894762Y-54989524D01*
X48942381Y-54846667D01*
X48942381Y-54751429D01*
X48894762Y-54608571D01*
X48799524Y-54513333D01*
X48704286Y-54465714D01*
X48513810Y-54418095D01*
X48370952Y-54418095D01*
X48180476Y-54465714D01*
X48085238Y-54513333D01*
X47990000Y-54608571D01*
X47942381Y-54751429D01*
X47942381Y-54846667D01*
X47990000Y-54989524D01*
X48037619Y-55037143D01*
X48942381Y-55989524D02*
X48942381Y-55418095D01*
X48942381Y-55703809D02*
X47942381Y-55703809D01*
X48085238Y-55608571D01*
X48180476Y-55513333D01*
X48228095Y-55418095D01*
X47942381Y-56322857D02*
X47942381Y-56989524D01*
X48942381Y-56560952D01*
X45642381Y-27313334D02*
X45166190Y-26980000D01*
X45642381Y-26741905D02*
X44642381Y-26741905D01*
X44642381Y-27122858D01*
X44690000Y-27218096D01*
X44737619Y-27265715D01*
X44832857Y-27313334D01*
X44975714Y-27313334D01*
X45070952Y-27265715D01*
X45118571Y-27218096D01*
X45166190Y-27122858D01*
X45166190Y-26741905D01*
X45642381Y-28265715D02*
X45642381Y-27694286D01*
X45642381Y-27980000D02*
X44642381Y-27980000D01*
X44785238Y-27884762D01*
X44880476Y-27789524D01*
X44928095Y-27694286D01*
X47542381Y-26413334D02*
X47066190Y-26080000D01*
X47542381Y-25841905D02*
X46542381Y-25841905D01*
X46542381Y-26222858D01*
X46590000Y-26318096D01*
X46637619Y-26365715D01*
X46732857Y-26413334D01*
X46875714Y-26413334D01*
X46970952Y-26365715D01*
X47018571Y-26318096D01*
X47066190Y-26222858D01*
X47066190Y-25841905D01*
X46637619Y-26794286D02*
X46590000Y-26841905D01*
X46542381Y-26937143D01*
X46542381Y-27175239D01*
X46590000Y-27270477D01*
X46637619Y-27318096D01*
X46732857Y-27365715D01*
X46828095Y-27365715D01*
X46970952Y-27318096D01*
X47542381Y-26746667D01*
X47542381Y-27365715D01*
M02*
