G04 #@! TF.FileFunction,Legend,Top*
%FSLAX46Y46*%
G04 Gerber Fmt 4.6, Leading zero omitted, Abs format (unit mm)*
G04 Created by KiCad (PCBNEW 4.0.7) date Sat Jan 20 00:24:16 2018*
%MOMM*%
%LPD*%
G01*
G04 APERTURE LIST*
%ADD10C,0.100000*%
%ADD11C,0.300000*%
%ADD12C,0.200000*%
%ADD13C,0.120000*%
%ADD14C,0.304800*%
%ADD15C,0.150000*%
%ADD16C,0.127000*%
%ADD17C,0.254000*%
%ADD18C,0.101600*%
G04 APERTURE END LIST*
D10*
D11*
X15204285Y-19401429D02*
X14847142Y-18401429D01*
X14490000Y-19401429D01*
X11990000Y-18401429D02*
X12847143Y-18401429D01*
X12418571Y-18401429D02*
X12418571Y-19901429D01*
X12561428Y-19687143D01*
X12704286Y-19544286D01*
X12847143Y-19472857D01*
X11347143Y-18544286D02*
X11275715Y-18472857D01*
X11347143Y-18401429D01*
X11418572Y-18472857D01*
X11347143Y-18544286D01*
X11347143Y-18401429D01*
X10347143Y-19901429D02*
X10204286Y-19901429D01*
X10061429Y-19830000D01*
X9990000Y-19758571D01*
X9918571Y-19615714D01*
X9847143Y-19330000D01*
X9847143Y-18972857D01*
X9918571Y-18687143D01*
X9990000Y-18544286D01*
X10061429Y-18472857D01*
X10204286Y-18401429D01*
X10347143Y-18401429D01*
X10490000Y-18472857D01*
X10561429Y-18544286D01*
X10632857Y-18687143D01*
X10704286Y-18972857D01*
X10704286Y-19330000D01*
X10632857Y-19615714D01*
X10561429Y-19758571D01*
X10490000Y-19830000D01*
X10347143Y-19901429D01*
X15218572Y-21530000D02*
X14504286Y-21530000D01*
X15361429Y-21101429D02*
X14861429Y-22601429D01*
X14361429Y-21101429D01*
X14004286Y-22601429D02*
X13004286Y-21101429D01*
X13004286Y-22601429D02*
X14004286Y-21101429D01*
X12432858Y-21101429D02*
X12432858Y-22601429D01*
X11432858Y-22601429D02*
X11147144Y-22601429D01*
X11004286Y-22530000D01*
X10861429Y-22387143D01*
X10790001Y-22101429D01*
X10790001Y-21601429D01*
X10861429Y-21315714D01*
X11004286Y-21172857D01*
X11147144Y-21101429D01*
X11432858Y-21101429D01*
X11575715Y-21172857D01*
X11718572Y-21315714D01*
X11790001Y-21601429D01*
X11790001Y-22101429D01*
X11718572Y-22387143D01*
X11575715Y-22530000D01*
X11432858Y-22601429D01*
X10147143Y-21101429D02*
X10147143Y-22601429D01*
X9647143Y-21530000D01*
X9147143Y-22601429D01*
X9147143Y-21101429D01*
X7290000Y-22101429D02*
X7290000Y-20601429D01*
X6575714Y-21315714D02*
X6504286Y-21172857D01*
X6361429Y-21101429D01*
X7290000Y-21315714D02*
X7218572Y-21172857D01*
X7075714Y-21101429D01*
X6790000Y-21101429D01*
X6647143Y-21172857D01*
X6575714Y-21315714D01*
X6575714Y-22101429D01*
D12*
X0Y0D02*
X91000000Y0D01*
D13*
X75100000Y-43320000D02*
X76100000Y-43320000D01*
X76100000Y-44680000D02*
X75100000Y-44680000D01*
D12*
X80770000Y-28063000D02*
X80770000Y-26063000D01*
X80770000Y-26063000D02*
X86380000Y-26063000D01*
X86380000Y-26063000D02*
X88390000Y-28063000D01*
X80770000Y-59369000D02*
X80770000Y-61369000D01*
X80770000Y-61369000D02*
X86380000Y-61369000D01*
X86380000Y-61369000D02*
X88390000Y-59369000D01*
X80516000Y-58448000D02*
X79754000Y-58956000D01*
X79754000Y-58956000D02*
X79754000Y-57940000D01*
X79754000Y-57940000D02*
X80516000Y-58448000D01*
D13*
X22940000Y-29130000D02*
X22940000Y-30130000D01*
X24640000Y-30130000D02*
X24640000Y-29130000D01*
X24930000Y-29130000D02*
X24930000Y-30130000D01*
X26630000Y-30130000D02*
X26630000Y-29130000D01*
X58840000Y-13580000D02*
X58840000Y-14580000D01*
X60540000Y-14580000D02*
X60540000Y-13580000D01*
X33050000Y-30500000D02*
X34050000Y-30500000D01*
X34050000Y-28800000D02*
X33050000Y-28800000D01*
X35440000Y-13280000D02*
X35440000Y-14280000D01*
X37140000Y-14280000D02*
X37140000Y-13280000D01*
X2450000Y-41800000D02*
X3550000Y-41800000D01*
X3550000Y-41800000D02*
X3550000Y-39200000D01*
X2450000Y-41800000D02*
X2450000Y-39200000D01*
X2450000Y-51800000D02*
X3550000Y-51800000D01*
X3550000Y-51800000D02*
X3550000Y-49200000D01*
X2450000Y-51800000D02*
X2450000Y-49200000D01*
D14*
X59470000Y-1960000D02*
X59470000Y-7040000D01*
X49310000Y-7040000D02*
X64550000Y-7040000D01*
X64550000Y-7040000D02*
X64550000Y-1960000D01*
X64550000Y-1960000D02*
X49310000Y-1960000D01*
X49310000Y-1960000D02*
X49310000Y-7040000D01*
X36610000Y-1960000D02*
X36610000Y-7040000D01*
X26450000Y-7040000D02*
X41690000Y-7040000D01*
X41690000Y-7040000D02*
X41690000Y-1960000D01*
X41690000Y-1960000D02*
X26450000Y-1960000D01*
X26450000Y-1960000D02*
X26450000Y-7040000D01*
D13*
X29930000Y-28090000D02*
X28170000Y-28090000D01*
X28170000Y-31160000D02*
X30600000Y-31160000D01*
D15*
X58115000Y-16255000D02*
X58115000Y-11805000D01*
X51215000Y-17780000D02*
X51215000Y-11805000D01*
X34765000Y-16255000D02*
X34765000Y-11805000D01*
X27865000Y-17780000D02*
X27865000Y-11805000D01*
X23775000Y-40775000D02*
X19325000Y-40775000D01*
X25300000Y-47675000D02*
X19325000Y-47675000D01*
D13*
X17640000Y-49580000D02*
X17640000Y-50580000D01*
X19340000Y-50580000D02*
X19340000Y-49580000D01*
X22690000Y-48130000D02*
X21690000Y-48130000D01*
X21690000Y-49830000D02*
X22690000Y-49830000D01*
X23740000Y-38530000D02*
X22740000Y-38530000D01*
X22740000Y-40230000D02*
X23740000Y-40230000D01*
X50740000Y-14580000D02*
X50740000Y-13580000D01*
X49040000Y-13580000D02*
X49040000Y-14580000D01*
X27640000Y-13980000D02*
X27640000Y-12980000D01*
X25940000Y-12980000D02*
X25940000Y-13980000D01*
X75100000Y-46320000D02*
X76100000Y-46320000D01*
X76100000Y-47680000D02*
X75100000Y-47680000D01*
X75100000Y-38120000D02*
X76100000Y-38120000D01*
X76100000Y-39480000D02*
X75100000Y-39480000D01*
X75100000Y-35620000D02*
X76100000Y-35620000D01*
X76100000Y-36980000D02*
X75100000Y-36980000D01*
X75100000Y-40820000D02*
X76100000Y-40820000D01*
X76100000Y-42180000D02*
X75100000Y-42180000D01*
X7180000Y-39500000D02*
X7180000Y-40500000D01*
X5820000Y-40500000D02*
X5820000Y-39500000D01*
X7180000Y-49500000D02*
X7180000Y-50500000D01*
X5820000Y-50500000D02*
X5820000Y-49500000D01*
D16*
X47400000Y-75460000D02*
X50550000Y-75460000D01*
X60250000Y-75460000D02*
X62550000Y-75460000D01*
X70250000Y-75460000D02*
X72400000Y-75460000D01*
X72400000Y-75460000D02*
X72400000Y-82660000D01*
X72400000Y-82660000D02*
X70250000Y-82660000D01*
X62550000Y-82660000D02*
X60200000Y-82660000D01*
X50500000Y-82660000D02*
X47400000Y-82660000D01*
X47400000Y-82660000D02*
X47400000Y-75460000D01*
X18820000Y-75460000D02*
X21970000Y-75460000D01*
X31670000Y-75460000D02*
X33970000Y-75460000D01*
X41670000Y-75460000D02*
X43820000Y-75460000D01*
X43820000Y-75460000D02*
X43820000Y-82660000D01*
X43820000Y-82660000D02*
X41670000Y-82660000D01*
X33970000Y-82660000D02*
X31620000Y-82660000D01*
X21920000Y-82660000D02*
X18820000Y-82660000D01*
X18820000Y-82660000D02*
X18820000Y-75460000D01*
D15*
X75433334Y-45902381D02*
X75100000Y-45426190D01*
X74861905Y-45902381D02*
X74861905Y-44902381D01*
X75242858Y-44902381D01*
X75338096Y-44950000D01*
X75385715Y-44997619D01*
X75433334Y-45092857D01*
X75433334Y-45235714D01*
X75385715Y-45330952D01*
X75338096Y-45378571D01*
X75242858Y-45426190D01*
X74861905Y-45426190D01*
X76290477Y-45235714D02*
X76290477Y-45902381D01*
X76052381Y-44854762D02*
X75814286Y-45569048D01*
X76433334Y-45569048D01*
D12*
X90168000Y-44804571D02*
X90168000Y-44078857D01*
X90603429Y-44949714D02*
X89079429Y-44441714D01*
X90603429Y-43933714D01*
X90603429Y-42627428D02*
X90603429Y-43498285D01*
X90603429Y-43062857D02*
X89079429Y-43062857D01*
X89297143Y-43208000D01*
X89442286Y-43353142D01*
X89514857Y-43498285D01*
D15*
X78455429Y-51299714D02*
X78455429Y-50283714D01*
X79979429Y-51299714D01*
X79979429Y-50283714D01*
X79398857Y-49703142D02*
X79398857Y-48541999D01*
X78455429Y-48033999D02*
X78455429Y-47163142D01*
X79979429Y-47598571D02*
X78455429Y-47598571D01*
X78455429Y-46655142D02*
X79689143Y-46655142D01*
X79834286Y-46582570D01*
X79906857Y-46509999D01*
X79979429Y-46364856D01*
X79979429Y-46074570D01*
X79906857Y-45929428D01*
X79834286Y-45856856D01*
X79689143Y-45784285D01*
X78455429Y-45784285D01*
X79979429Y-44187714D02*
X79253714Y-44695714D01*
X79979429Y-45058571D02*
X78455429Y-45058571D01*
X78455429Y-44477999D01*
X78528000Y-44332857D01*
X78600571Y-44260285D01*
X78745714Y-44187714D01*
X78963429Y-44187714D01*
X79108571Y-44260285D01*
X79181143Y-44332857D01*
X79253714Y-44477999D01*
X79253714Y-45058571D01*
X79979429Y-43534571D02*
X78455429Y-43534571D01*
X79979429Y-42663714D01*
X78455429Y-42663714D01*
X79398857Y-41938000D02*
X79398857Y-40776857D01*
X79979429Y-39325429D02*
X79979429Y-40051143D01*
X78455429Y-40051143D01*
X79979429Y-38817429D02*
X78455429Y-38817429D01*
X78455429Y-38309429D02*
X78455429Y-37438572D01*
X79979429Y-37874001D02*
X78455429Y-37874001D01*
X79181143Y-36930572D02*
X79181143Y-36422572D01*
X79979429Y-36204858D02*
X79979429Y-36930572D01*
X78455429Y-36930572D01*
X78455429Y-36204858D01*
X24247143Y-33146666D02*
X24294762Y-33194285D01*
X24342381Y-33337142D01*
X24342381Y-33432380D01*
X24294762Y-33575238D01*
X24199524Y-33670476D01*
X24104286Y-33718095D01*
X23913810Y-33765714D01*
X23770952Y-33765714D01*
X23580476Y-33718095D01*
X23485238Y-33670476D01*
X23390000Y-33575238D01*
X23342381Y-33432380D01*
X23342381Y-33337142D01*
X23390000Y-33194285D01*
X23437619Y-33146666D01*
X23342381Y-32813333D02*
X23342381Y-32194285D01*
X23723333Y-32527619D01*
X23723333Y-32384761D01*
X23770952Y-32289523D01*
X23818571Y-32241904D01*
X23913810Y-32194285D01*
X24151905Y-32194285D01*
X24247143Y-32241904D01*
X24294762Y-32289523D01*
X24342381Y-32384761D01*
X24342381Y-32670476D01*
X24294762Y-32765714D01*
X24247143Y-32813333D01*
X26247143Y-33146666D02*
X26294762Y-33194285D01*
X26342381Y-33337142D01*
X26342381Y-33432380D01*
X26294762Y-33575238D01*
X26199524Y-33670476D01*
X26104286Y-33718095D01*
X25913810Y-33765714D01*
X25770952Y-33765714D01*
X25580476Y-33718095D01*
X25485238Y-33670476D01*
X25390000Y-33575238D01*
X25342381Y-33432380D01*
X25342381Y-33337142D01*
X25390000Y-33194285D01*
X25437619Y-33146666D01*
X25675714Y-32289523D02*
X26342381Y-32289523D01*
X25294762Y-32527619D02*
X26009048Y-32765714D01*
X26009048Y-32146666D01*
X61847143Y-14246666D02*
X61894762Y-14294285D01*
X61942381Y-14437142D01*
X61942381Y-14532380D01*
X61894762Y-14675238D01*
X61799524Y-14770476D01*
X61704286Y-14818095D01*
X61513810Y-14865714D01*
X61370952Y-14865714D01*
X61180476Y-14818095D01*
X61085238Y-14770476D01*
X60990000Y-14675238D01*
X60942381Y-14532380D01*
X60942381Y-14437142D01*
X60990000Y-14294285D01*
X61037619Y-14246666D01*
X60942381Y-13341904D02*
X60942381Y-13818095D01*
X61418571Y-13865714D01*
X61370952Y-13818095D01*
X61323333Y-13722857D01*
X61323333Y-13484761D01*
X61370952Y-13389523D01*
X61418571Y-13341904D01*
X61513810Y-13294285D01*
X61751905Y-13294285D01*
X61847143Y-13341904D01*
X61894762Y-13389523D01*
X61942381Y-13484761D01*
X61942381Y-13722857D01*
X61894762Y-13818095D01*
X61847143Y-13865714D01*
X33383334Y-31757143D02*
X33335715Y-31804762D01*
X33192858Y-31852381D01*
X33097620Y-31852381D01*
X32954762Y-31804762D01*
X32859524Y-31709524D01*
X32811905Y-31614286D01*
X32764286Y-31423810D01*
X32764286Y-31280952D01*
X32811905Y-31090476D01*
X32859524Y-30995238D01*
X32954762Y-30900000D01*
X33097620Y-30852381D01*
X33192858Y-30852381D01*
X33335715Y-30900000D01*
X33383334Y-30947619D01*
X34240477Y-30852381D02*
X34050000Y-30852381D01*
X33954762Y-30900000D01*
X33907143Y-30947619D01*
X33811905Y-31090476D01*
X33764286Y-31280952D01*
X33764286Y-31661905D01*
X33811905Y-31757143D01*
X33859524Y-31804762D01*
X33954762Y-31852381D01*
X34145239Y-31852381D01*
X34240477Y-31804762D01*
X34288096Y-31757143D01*
X34335715Y-31661905D01*
X34335715Y-31423810D01*
X34288096Y-31328571D01*
X34240477Y-31280952D01*
X34145239Y-31233333D01*
X33954762Y-31233333D01*
X33859524Y-31280952D01*
X33811905Y-31328571D01*
X33764286Y-31423810D01*
X38447143Y-14522857D02*
X38494762Y-14570476D01*
X38542381Y-14713333D01*
X38542381Y-14808571D01*
X38494762Y-14951429D01*
X38399524Y-15046667D01*
X38304286Y-15094286D01*
X38113810Y-15141905D01*
X37970952Y-15141905D01*
X37780476Y-15094286D01*
X37685238Y-15046667D01*
X37590000Y-14951429D01*
X37542381Y-14808571D01*
X37542381Y-14713333D01*
X37590000Y-14570476D01*
X37637619Y-14522857D01*
X38542381Y-13570476D02*
X38542381Y-14141905D01*
X38542381Y-13856191D02*
X37542381Y-13856191D01*
X37685238Y-13951429D01*
X37780476Y-14046667D01*
X37828095Y-14141905D01*
X37542381Y-12713333D02*
X37542381Y-12903810D01*
X37590000Y-12999048D01*
X37637619Y-13046667D01*
X37780476Y-13141905D01*
X37970952Y-13189524D01*
X38351905Y-13189524D01*
X38447143Y-13141905D01*
X38494762Y-13094286D01*
X38542381Y-12999048D01*
X38542381Y-12808571D01*
X38494762Y-12713333D01*
X38447143Y-12665714D01*
X38351905Y-12618095D01*
X38113810Y-12618095D01*
X38018571Y-12665714D01*
X37970952Y-12713333D01*
X37923333Y-12808571D01*
X37923333Y-12999048D01*
X37970952Y-13094286D01*
X38018571Y-13141905D01*
X38113810Y-13189524D01*
X2002381Y-40738095D02*
X1002381Y-40738095D01*
X1002381Y-40500000D01*
X1050000Y-40357142D01*
X1145238Y-40261904D01*
X1240476Y-40214285D01*
X1430952Y-40166666D01*
X1573810Y-40166666D01*
X1764286Y-40214285D01*
X1859524Y-40261904D01*
X1954762Y-40357142D01*
X2002381Y-40500000D01*
X2002381Y-40738095D01*
X2002381Y-39214285D02*
X2002381Y-39785714D01*
X2002381Y-39500000D02*
X1002381Y-39500000D01*
X1145238Y-39595238D01*
X1240476Y-39690476D01*
X1288095Y-39785714D01*
X2002381Y-50738095D02*
X1002381Y-50738095D01*
X1002381Y-50500000D01*
X1050000Y-50357142D01*
X1145238Y-50261904D01*
X1240476Y-50214285D01*
X1430952Y-50166666D01*
X1573810Y-50166666D01*
X1764286Y-50214285D01*
X1859524Y-50261904D01*
X1954762Y-50357142D01*
X2002381Y-50500000D01*
X2002381Y-50738095D01*
X1097619Y-49785714D02*
X1050000Y-49738095D01*
X1002381Y-49642857D01*
X1002381Y-49404761D01*
X1050000Y-49309523D01*
X1097619Y-49261904D01*
X1192857Y-49214285D01*
X1288095Y-49214285D01*
X1430952Y-49261904D01*
X2002381Y-49833333D01*
X2002381Y-49214285D01*
D17*
X47737619Y-5600667D02*
X48463333Y-5600667D01*
X48608476Y-5649047D01*
X48705238Y-5745809D01*
X48753619Y-5890952D01*
X48753619Y-5987714D01*
X47737619Y-5213619D02*
X47737619Y-4584667D01*
X48124667Y-4923333D01*
X48124667Y-4778191D01*
X48173048Y-4681429D01*
X48221429Y-4633048D01*
X48318190Y-4584667D01*
X48560095Y-4584667D01*
X48656857Y-4633048D01*
X48705238Y-4681429D01*
X48753619Y-4778191D01*
X48753619Y-5068476D01*
X48705238Y-5165238D01*
X48656857Y-5213619D01*
D15*
X62842381Y-10313333D02*
X63842381Y-9980000D01*
X62842381Y-9646666D01*
X63747143Y-8741904D02*
X63794762Y-8789523D01*
X63842381Y-8932380D01*
X63842381Y-9027618D01*
X63794762Y-9170476D01*
X63699524Y-9265714D01*
X63604286Y-9313333D01*
X63413810Y-9360952D01*
X63270952Y-9360952D01*
X63080476Y-9313333D01*
X62985238Y-9265714D01*
X62890000Y-9170476D01*
X62842381Y-9027618D01*
X62842381Y-8932380D01*
X62890000Y-8789523D01*
X62937619Y-8741904D01*
X63747143Y-7741904D02*
X63794762Y-7789523D01*
X63842381Y-7932380D01*
X63842381Y-8027618D01*
X63794762Y-8170476D01*
X63699524Y-8265714D01*
X63604286Y-8313333D01*
X63413810Y-8360952D01*
X63270952Y-8360952D01*
X63080476Y-8313333D01*
X62985238Y-8265714D01*
X62890000Y-8170476D01*
X62842381Y-8027618D01*
X62842381Y-7932380D01*
X62890000Y-7789523D01*
X62937619Y-7741904D01*
X60290000Y-9641904D02*
X60242381Y-9737142D01*
X60242381Y-9879999D01*
X60290000Y-10022857D01*
X60385238Y-10118095D01*
X60480476Y-10165714D01*
X60670952Y-10213333D01*
X60813810Y-10213333D01*
X61004286Y-10165714D01*
X61099524Y-10118095D01*
X61194762Y-10022857D01*
X61242381Y-9879999D01*
X61242381Y-9784761D01*
X61194762Y-9641904D01*
X61147143Y-9594285D01*
X60813810Y-9594285D01*
X60813810Y-9784761D01*
X61242381Y-9165714D02*
X60242381Y-9165714D01*
X61242381Y-8594285D01*
X60242381Y-8594285D01*
X61242381Y-8118095D02*
X60242381Y-8118095D01*
X60242381Y-7880000D01*
X60290000Y-7737142D01*
X60385238Y-7641904D01*
X60480476Y-7594285D01*
X60670952Y-7546666D01*
X60813810Y-7546666D01*
X61004286Y-7594285D01*
X61099524Y-7641904D01*
X61194762Y-7737142D01*
X61242381Y-7880000D01*
X61242381Y-8118095D01*
X51032381Y-658285D02*
X51032381Y-1229714D01*
X51032381Y-944000D02*
X50032381Y-944000D01*
X50175238Y-1039238D01*
X50270476Y-1134476D01*
X50318095Y-1229714D01*
D17*
X24877619Y-5338667D02*
X25603333Y-5338667D01*
X25748476Y-5387047D01*
X25845238Y-5483809D01*
X25893619Y-5628952D01*
X25893619Y-5725714D01*
X25216286Y-4419429D02*
X25893619Y-4419429D01*
X24829238Y-4661333D02*
X25554952Y-4903238D01*
X25554952Y-4274286D01*
D15*
X39942381Y-10113333D02*
X40942381Y-9780000D01*
X39942381Y-9446666D01*
X40847143Y-8541904D02*
X40894762Y-8589523D01*
X40942381Y-8732380D01*
X40942381Y-8827618D01*
X40894762Y-8970476D01*
X40799524Y-9065714D01*
X40704286Y-9113333D01*
X40513810Y-9160952D01*
X40370952Y-9160952D01*
X40180476Y-9113333D01*
X40085238Y-9065714D01*
X39990000Y-8970476D01*
X39942381Y-8827618D01*
X39942381Y-8732380D01*
X39990000Y-8589523D01*
X40037619Y-8541904D01*
X40847143Y-7541904D02*
X40894762Y-7589523D01*
X40942381Y-7732380D01*
X40942381Y-7827618D01*
X40894762Y-7970476D01*
X40799524Y-8065714D01*
X40704286Y-8113333D01*
X40513810Y-8160952D01*
X40370952Y-8160952D01*
X40180476Y-8113333D01*
X40085238Y-8065714D01*
X39990000Y-7970476D01*
X39942381Y-7827618D01*
X39942381Y-7732380D01*
X39990000Y-7589523D01*
X40037619Y-7541904D01*
X37380000Y-9541904D02*
X37332381Y-9637142D01*
X37332381Y-9779999D01*
X37380000Y-9922857D01*
X37475238Y-10018095D01*
X37570476Y-10065714D01*
X37760952Y-10113333D01*
X37903810Y-10113333D01*
X38094286Y-10065714D01*
X38189524Y-10018095D01*
X38284762Y-9922857D01*
X38332381Y-9779999D01*
X38332381Y-9684761D01*
X38284762Y-9541904D01*
X38237143Y-9494285D01*
X37903810Y-9494285D01*
X37903810Y-9684761D01*
X38332381Y-9065714D02*
X37332381Y-9065714D01*
X38332381Y-8494285D01*
X37332381Y-8494285D01*
X38332381Y-8018095D02*
X37332381Y-8018095D01*
X37332381Y-7780000D01*
X37380000Y-7637142D01*
X37475238Y-7541904D01*
X37570476Y-7494285D01*
X37760952Y-7446666D01*
X37903810Y-7446666D01*
X38094286Y-7494285D01*
X38189524Y-7541904D01*
X38284762Y-7637142D01*
X38332381Y-7780000D01*
X38332381Y-8018095D01*
X28172381Y-658285D02*
X28172381Y-1229714D01*
X28172381Y-944000D02*
X27172381Y-944000D01*
X27315238Y-1039238D01*
X27410476Y-1134476D01*
X27458095Y-1229714D01*
X28288095Y-31552381D02*
X28288095Y-32361905D01*
X28335714Y-32457143D01*
X28383333Y-32504762D01*
X28478571Y-32552381D01*
X28669048Y-32552381D01*
X28764286Y-32504762D01*
X28811905Y-32457143D01*
X28859524Y-32361905D01*
X28859524Y-31552381D01*
X29288095Y-31647619D02*
X29335714Y-31600000D01*
X29430952Y-31552381D01*
X29669048Y-31552381D01*
X29764286Y-31600000D01*
X29811905Y-31647619D01*
X29859524Y-31742857D01*
X29859524Y-31838095D01*
X29811905Y-31980952D01*
X29240476Y-32552381D01*
X29859524Y-32552381D01*
X54142381Y-14841905D02*
X54951905Y-14841905D01*
X55047143Y-14794286D01*
X55094762Y-14746667D01*
X55142381Y-14651429D01*
X55142381Y-14460952D01*
X55094762Y-14365714D01*
X55047143Y-14318095D01*
X54951905Y-14270476D01*
X54142381Y-14270476D01*
X54142381Y-13889524D02*
X54142381Y-13270476D01*
X54523333Y-13603810D01*
X54523333Y-13460952D01*
X54570952Y-13365714D01*
X54618571Y-13318095D01*
X54713810Y-13270476D01*
X54951905Y-13270476D01*
X55047143Y-13318095D01*
X55094762Y-13365714D01*
X55142381Y-13460952D01*
X55142381Y-13746667D01*
X55094762Y-13841905D01*
X55047143Y-13889524D01*
X30742381Y-14741905D02*
X31551905Y-14741905D01*
X31647143Y-14694286D01*
X31694762Y-14646667D01*
X31742381Y-14551429D01*
X31742381Y-14360952D01*
X31694762Y-14265714D01*
X31647143Y-14218095D01*
X31551905Y-14170476D01*
X30742381Y-14170476D01*
X31075714Y-13265714D02*
X31742381Y-13265714D01*
X30694762Y-13503810D02*
X31409048Y-13741905D01*
X31409048Y-13122857D01*
X20728095Y-43732381D02*
X20728095Y-44541905D01*
X20775714Y-44637143D01*
X20823333Y-44684762D01*
X20918571Y-44732381D01*
X21109048Y-44732381D01*
X21204286Y-44684762D01*
X21251905Y-44637143D01*
X21299524Y-44541905D01*
X21299524Y-43732381D01*
X22251905Y-43732381D02*
X21775714Y-43732381D01*
X21728095Y-44208571D01*
X21775714Y-44160952D01*
X21870952Y-44113333D01*
X22109048Y-44113333D01*
X22204286Y-44160952D01*
X22251905Y-44208571D01*
X22299524Y-44303810D01*
X22299524Y-44541905D01*
X22251905Y-44637143D01*
X22204286Y-44684762D01*
X22109048Y-44732381D01*
X21870952Y-44732381D01*
X21775714Y-44684762D01*
X21728095Y-44637143D01*
X17097143Y-50722857D02*
X17144762Y-50770476D01*
X17192381Y-50913333D01*
X17192381Y-51008571D01*
X17144762Y-51151429D01*
X17049524Y-51246667D01*
X16954286Y-51294286D01*
X16763810Y-51341905D01*
X16620952Y-51341905D01*
X16430476Y-51294286D01*
X16335238Y-51246667D01*
X16240000Y-51151429D01*
X16192381Y-51008571D01*
X16192381Y-50913333D01*
X16240000Y-50770476D01*
X16287619Y-50722857D01*
X16287619Y-50341905D02*
X16240000Y-50294286D01*
X16192381Y-50199048D01*
X16192381Y-49960952D01*
X16240000Y-49865714D01*
X16287619Y-49818095D01*
X16382857Y-49770476D01*
X16478095Y-49770476D01*
X16620952Y-49818095D01*
X17192381Y-50389524D01*
X17192381Y-49770476D01*
X16192381Y-49437143D02*
X16192381Y-48818095D01*
X16573333Y-49151429D01*
X16573333Y-49008571D01*
X16620952Y-48913333D01*
X16668571Y-48865714D01*
X16763810Y-48818095D01*
X17001905Y-48818095D01*
X17097143Y-48865714D01*
X17144762Y-48913333D01*
X17192381Y-49008571D01*
X17192381Y-49294286D01*
X17144762Y-49389524D01*
X17097143Y-49437143D01*
X21647143Y-51237143D02*
X21599524Y-51284762D01*
X21456667Y-51332381D01*
X21361429Y-51332381D01*
X21218571Y-51284762D01*
X21123333Y-51189524D01*
X21075714Y-51094286D01*
X21028095Y-50903810D01*
X21028095Y-50760952D01*
X21075714Y-50570476D01*
X21123333Y-50475238D01*
X21218571Y-50380000D01*
X21361429Y-50332381D01*
X21456667Y-50332381D01*
X21599524Y-50380000D01*
X21647143Y-50427619D01*
X22028095Y-50427619D02*
X22075714Y-50380000D01*
X22170952Y-50332381D01*
X22409048Y-50332381D01*
X22504286Y-50380000D01*
X22551905Y-50427619D01*
X22599524Y-50522857D01*
X22599524Y-50618095D01*
X22551905Y-50760952D01*
X21980476Y-51332381D01*
X22599524Y-51332381D01*
X23504286Y-50332381D02*
X23028095Y-50332381D01*
X22980476Y-50808571D01*
X23028095Y-50760952D01*
X23123333Y-50713333D01*
X23361429Y-50713333D01*
X23456667Y-50760952D01*
X23504286Y-50808571D01*
X23551905Y-50903810D01*
X23551905Y-51141905D01*
X23504286Y-51237143D01*
X23456667Y-51284762D01*
X23361429Y-51332381D01*
X23123333Y-51332381D01*
X23028095Y-51284762D01*
X22980476Y-51237143D01*
X22597143Y-37987143D02*
X22549524Y-38034762D01*
X22406667Y-38082381D01*
X22311429Y-38082381D01*
X22168571Y-38034762D01*
X22073333Y-37939524D01*
X22025714Y-37844286D01*
X21978095Y-37653810D01*
X21978095Y-37510952D01*
X22025714Y-37320476D01*
X22073333Y-37225238D01*
X22168571Y-37130000D01*
X22311429Y-37082381D01*
X22406667Y-37082381D01*
X22549524Y-37130000D01*
X22597143Y-37177619D01*
X22978095Y-37177619D02*
X23025714Y-37130000D01*
X23120952Y-37082381D01*
X23359048Y-37082381D01*
X23454286Y-37130000D01*
X23501905Y-37177619D01*
X23549524Y-37272857D01*
X23549524Y-37368095D01*
X23501905Y-37510952D01*
X22930476Y-38082381D01*
X23549524Y-38082381D01*
X24406667Y-37082381D02*
X24216190Y-37082381D01*
X24120952Y-37130000D01*
X24073333Y-37177619D01*
X23978095Y-37320476D01*
X23930476Y-37510952D01*
X23930476Y-37891905D01*
X23978095Y-37987143D01*
X24025714Y-38034762D01*
X24120952Y-38082381D01*
X24311429Y-38082381D01*
X24406667Y-38034762D01*
X24454286Y-37987143D01*
X24501905Y-37891905D01*
X24501905Y-37653810D01*
X24454286Y-37558571D01*
X24406667Y-37510952D01*
X24311429Y-37463333D01*
X24120952Y-37463333D01*
X24025714Y-37510952D01*
X23978095Y-37558571D01*
X23930476Y-37653810D01*
X48647143Y-14522857D02*
X48694762Y-14570476D01*
X48742381Y-14713333D01*
X48742381Y-14808571D01*
X48694762Y-14951429D01*
X48599524Y-15046667D01*
X48504286Y-15094286D01*
X48313810Y-15141905D01*
X48170952Y-15141905D01*
X47980476Y-15094286D01*
X47885238Y-15046667D01*
X47790000Y-14951429D01*
X47742381Y-14808571D01*
X47742381Y-14713333D01*
X47790000Y-14570476D01*
X47837619Y-14522857D01*
X47837619Y-14141905D02*
X47790000Y-14094286D01*
X47742381Y-13999048D01*
X47742381Y-13760952D01*
X47790000Y-13665714D01*
X47837619Y-13618095D01*
X47932857Y-13570476D01*
X48028095Y-13570476D01*
X48170952Y-13618095D01*
X48742381Y-14189524D01*
X48742381Y-13570476D01*
X48170952Y-12999048D02*
X48123333Y-13094286D01*
X48075714Y-13141905D01*
X47980476Y-13189524D01*
X47932857Y-13189524D01*
X47837619Y-13141905D01*
X47790000Y-13094286D01*
X47742381Y-12999048D01*
X47742381Y-12808571D01*
X47790000Y-12713333D01*
X47837619Y-12665714D01*
X47932857Y-12618095D01*
X47980476Y-12618095D01*
X48075714Y-12665714D01*
X48123333Y-12713333D01*
X48170952Y-12808571D01*
X48170952Y-12999048D01*
X48218571Y-13094286D01*
X48266190Y-13141905D01*
X48361429Y-13189524D01*
X48551905Y-13189524D01*
X48647143Y-13141905D01*
X48694762Y-13094286D01*
X48742381Y-12999048D01*
X48742381Y-12808571D01*
X48694762Y-12713333D01*
X48647143Y-12665714D01*
X48551905Y-12618095D01*
X48361429Y-12618095D01*
X48266190Y-12665714D01*
X48218571Y-12713333D01*
X48170952Y-12808571D01*
X25447143Y-14022857D02*
X25494762Y-14070476D01*
X25542381Y-14213333D01*
X25542381Y-14308571D01*
X25494762Y-14451429D01*
X25399524Y-14546667D01*
X25304286Y-14594286D01*
X25113810Y-14641905D01*
X24970952Y-14641905D01*
X24780476Y-14594286D01*
X24685238Y-14546667D01*
X24590000Y-14451429D01*
X24542381Y-14308571D01*
X24542381Y-14213333D01*
X24590000Y-14070476D01*
X24637619Y-14022857D01*
X24637619Y-13641905D02*
X24590000Y-13594286D01*
X24542381Y-13499048D01*
X24542381Y-13260952D01*
X24590000Y-13165714D01*
X24637619Y-13118095D01*
X24732857Y-13070476D01*
X24828095Y-13070476D01*
X24970952Y-13118095D01*
X25542381Y-13689524D01*
X25542381Y-13070476D01*
X25542381Y-12594286D02*
X25542381Y-12403810D01*
X25494762Y-12308571D01*
X25447143Y-12260952D01*
X25304286Y-12165714D01*
X25113810Y-12118095D01*
X24732857Y-12118095D01*
X24637619Y-12165714D01*
X24590000Y-12213333D01*
X24542381Y-12308571D01*
X24542381Y-12499048D01*
X24590000Y-12594286D01*
X24637619Y-12641905D01*
X24732857Y-12689524D01*
X24970952Y-12689524D01*
X25066190Y-12641905D01*
X25113810Y-12594286D01*
X25161429Y-12499048D01*
X25161429Y-12308571D01*
X25113810Y-12213333D01*
X25066190Y-12165714D01*
X24970952Y-12118095D01*
X75433334Y-48902381D02*
X75100000Y-48426190D01*
X74861905Y-48902381D02*
X74861905Y-47902381D01*
X75242858Y-47902381D01*
X75338096Y-47950000D01*
X75385715Y-47997619D01*
X75433334Y-48092857D01*
X75433334Y-48235714D01*
X75385715Y-48330952D01*
X75338096Y-48378571D01*
X75242858Y-48426190D01*
X74861905Y-48426190D01*
X75766667Y-47902381D02*
X76385715Y-47902381D01*
X76052381Y-48283333D01*
X76195239Y-48283333D01*
X76290477Y-48330952D01*
X76338096Y-48378571D01*
X76385715Y-48473810D01*
X76385715Y-48711905D01*
X76338096Y-48807143D01*
X76290477Y-48854762D01*
X76195239Y-48902381D01*
X75909524Y-48902381D01*
X75814286Y-48854762D01*
X75766667Y-48807143D01*
X75433334Y-40702381D02*
X75100000Y-40226190D01*
X74861905Y-40702381D02*
X74861905Y-39702381D01*
X75242858Y-39702381D01*
X75338096Y-39750000D01*
X75385715Y-39797619D01*
X75433334Y-39892857D01*
X75433334Y-40035714D01*
X75385715Y-40130952D01*
X75338096Y-40178571D01*
X75242858Y-40226190D01*
X74861905Y-40226190D01*
X76338096Y-39702381D02*
X75861905Y-39702381D01*
X75814286Y-40178571D01*
X75861905Y-40130952D01*
X75957143Y-40083333D01*
X76195239Y-40083333D01*
X76290477Y-40130952D01*
X76338096Y-40178571D01*
X76385715Y-40273810D01*
X76385715Y-40511905D01*
X76338096Y-40607143D01*
X76290477Y-40654762D01*
X76195239Y-40702381D01*
X75957143Y-40702381D01*
X75861905Y-40654762D01*
X75814286Y-40607143D01*
X75433334Y-38202381D02*
X75100000Y-37726190D01*
X74861905Y-38202381D02*
X74861905Y-37202381D01*
X75242858Y-37202381D01*
X75338096Y-37250000D01*
X75385715Y-37297619D01*
X75433334Y-37392857D01*
X75433334Y-37535714D01*
X75385715Y-37630952D01*
X75338096Y-37678571D01*
X75242858Y-37726190D01*
X74861905Y-37726190D01*
X76290477Y-37202381D02*
X76100000Y-37202381D01*
X76004762Y-37250000D01*
X75957143Y-37297619D01*
X75861905Y-37440476D01*
X75814286Y-37630952D01*
X75814286Y-38011905D01*
X75861905Y-38107143D01*
X75909524Y-38154762D01*
X76004762Y-38202381D01*
X76195239Y-38202381D01*
X76290477Y-38154762D01*
X76338096Y-38107143D01*
X76385715Y-38011905D01*
X76385715Y-37773810D01*
X76338096Y-37678571D01*
X76290477Y-37630952D01*
X76195239Y-37583333D01*
X76004762Y-37583333D01*
X75909524Y-37630952D01*
X75861905Y-37678571D01*
X75814286Y-37773810D01*
X75433334Y-43402381D02*
X75100000Y-42926190D01*
X74861905Y-43402381D02*
X74861905Y-42402381D01*
X75242858Y-42402381D01*
X75338096Y-42450000D01*
X75385715Y-42497619D01*
X75433334Y-42592857D01*
X75433334Y-42735714D01*
X75385715Y-42830952D01*
X75338096Y-42878571D01*
X75242858Y-42926190D01*
X74861905Y-42926190D01*
X75766667Y-42402381D02*
X76433334Y-42402381D01*
X76004762Y-43402381D01*
X5502381Y-40166666D02*
X5026190Y-40500000D01*
X5502381Y-40738095D02*
X4502381Y-40738095D01*
X4502381Y-40357142D01*
X4550000Y-40261904D01*
X4597619Y-40214285D01*
X4692857Y-40166666D01*
X4835714Y-40166666D01*
X4930952Y-40214285D01*
X4978571Y-40261904D01*
X5026190Y-40357142D01*
X5026190Y-40738095D01*
X4930952Y-39595238D02*
X4883333Y-39690476D01*
X4835714Y-39738095D01*
X4740476Y-39785714D01*
X4692857Y-39785714D01*
X4597619Y-39738095D01*
X4550000Y-39690476D01*
X4502381Y-39595238D01*
X4502381Y-39404761D01*
X4550000Y-39309523D01*
X4597619Y-39261904D01*
X4692857Y-39214285D01*
X4740476Y-39214285D01*
X4835714Y-39261904D01*
X4883333Y-39309523D01*
X4930952Y-39404761D01*
X4930952Y-39595238D01*
X4978571Y-39690476D01*
X5026190Y-39738095D01*
X5121429Y-39785714D01*
X5311905Y-39785714D01*
X5407143Y-39738095D01*
X5454762Y-39690476D01*
X5502381Y-39595238D01*
X5502381Y-39404761D01*
X5454762Y-39309523D01*
X5407143Y-39261904D01*
X5311905Y-39214285D01*
X5121429Y-39214285D01*
X5026190Y-39261904D01*
X4978571Y-39309523D01*
X4930952Y-39404761D01*
X5502381Y-50166666D02*
X5026190Y-50500000D01*
X5502381Y-50738095D02*
X4502381Y-50738095D01*
X4502381Y-50357142D01*
X4550000Y-50261904D01*
X4597619Y-50214285D01*
X4692857Y-50166666D01*
X4835714Y-50166666D01*
X4930952Y-50214285D01*
X4978571Y-50261904D01*
X5026190Y-50357142D01*
X5026190Y-50738095D01*
X5502381Y-49690476D02*
X5502381Y-49500000D01*
X5454762Y-49404761D01*
X5407143Y-49357142D01*
X5264286Y-49261904D01*
X5073810Y-49214285D01*
X4692857Y-49214285D01*
X4597619Y-49261904D01*
X4550000Y-49309523D01*
X4502381Y-49404761D01*
X4502381Y-49595238D01*
X4550000Y-49690476D01*
X4597619Y-49738095D01*
X4692857Y-49785714D01*
X4930952Y-49785714D01*
X5026190Y-49738095D01*
X5073810Y-49690476D01*
X5121429Y-49595238D01*
X5121429Y-49404761D01*
X5073810Y-49309523D01*
X5026190Y-49261904D01*
X4930952Y-49214285D01*
D18*
X47441976Y-72049298D02*
X47441976Y-72911083D01*
X47384524Y-73083440D01*
X47269619Y-73198345D01*
X47097262Y-73255798D01*
X46982357Y-73255798D01*
X47959048Y-72164202D02*
X48016500Y-72106750D01*
X48131405Y-72049298D01*
X48418667Y-72049298D01*
X48533571Y-72106750D01*
X48591024Y-72164202D01*
X48648476Y-72279107D01*
X48648476Y-72394012D01*
X48591024Y-72566369D01*
X47901595Y-73255798D01*
X48648476Y-73255798D01*
X53477262Y-73193821D02*
X53879429Y-73193821D01*
X54051786Y-73825798D02*
X53477262Y-73825798D01*
X53477262Y-72619298D01*
X54051786Y-72619298D01*
X54453952Y-73825798D02*
X55085928Y-73021464D01*
X54453952Y-73021464D02*
X55085928Y-73825798D01*
X55373190Y-73021464D02*
X55832809Y-73021464D01*
X55545547Y-72619298D02*
X55545547Y-73653440D01*
X55602999Y-73768345D01*
X55717904Y-73825798D01*
X55832809Y-73825798D01*
X56694595Y-73768345D02*
X56579690Y-73825798D01*
X56349881Y-73825798D01*
X56234976Y-73768345D01*
X56177524Y-73653440D01*
X56177524Y-73193821D01*
X56234976Y-73078917D01*
X56349881Y-73021464D01*
X56579690Y-73021464D01*
X56694595Y-73078917D01*
X56752047Y-73193821D01*
X56752047Y-73308726D01*
X56177524Y-73423631D01*
X57269119Y-73021464D02*
X57269119Y-73825798D01*
X57269119Y-73136369D02*
X57326571Y-73078917D01*
X57441476Y-73021464D01*
X57613833Y-73021464D01*
X57728738Y-73078917D01*
X57786190Y-73193821D01*
X57786190Y-73825798D01*
X58303262Y-73768345D02*
X58418166Y-73825798D01*
X58647976Y-73825798D01*
X58762881Y-73768345D01*
X58820333Y-73653440D01*
X58820333Y-73595988D01*
X58762881Y-73481083D01*
X58647976Y-73423631D01*
X58475619Y-73423631D01*
X58360714Y-73366179D01*
X58303262Y-73251274D01*
X58303262Y-73193821D01*
X58360714Y-73078917D01*
X58475619Y-73021464D01*
X58647976Y-73021464D01*
X58762881Y-73078917D01*
X59337404Y-73825798D02*
X59337404Y-73021464D01*
X59337404Y-72619298D02*
X59279952Y-72676750D01*
X59337404Y-72734202D01*
X59394856Y-72676750D01*
X59337404Y-72619298D01*
X59337404Y-72734202D01*
X60084285Y-73825798D02*
X59969380Y-73768345D01*
X59911928Y-73710893D01*
X59854476Y-73595988D01*
X59854476Y-73251274D01*
X59911928Y-73136369D01*
X59969380Y-73078917D01*
X60084285Y-73021464D01*
X60256642Y-73021464D01*
X60371547Y-73078917D01*
X60428999Y-73136369D01*
X60486452Y-73251274D01*
X60486452Y-73595988D01*
X60428999Y-73710893D01*
X60371547Y-73768345D01*
X60256642Y-73825798D01*
X60084285Y-73825798D01*
X61003523Y-73021464D02*
X61003523Y-73825798D01*
X61003523Y-73136369D02*
X61060975Y-73078917D01*
X61175880Y-73021464D01*
X61348237Y-73021464D01*
X61463142Y-73078917D01*
X61520594Y-73193821D01*
X61520594Y-73825798D01*
X62956904Y-73768345D02*
X63129261Y-73825798D01*
X63416523Y-73825798D01*
X63531427Y-73768345D01*
X63588880Y-73710893D01*
X63646332Y-73595988D01*
X63646332Y-73481083D01*
X63588880Y-73366179D01*
X63531427Y-73308726D01*
X63416523Y-73251274D01*
X63186713Y-73193821D01*
X63071808Y-73136369D01*
X63014356Y-73078917D01*
X62956904Y-72964012D01*
X62956904Y-72849107D01*
X63014356Y-72734202D01*
X63071808Y-72676750D01*
X63186713Y-72619298D01*
X63473975Y-72619298D01*
X63646332Y-72676750D01*
X64335761Y-73825798D02*
X64220856Y-73768345D01*
X64163404Y-73710893D01*
X64105952Y-73595988D01*
X64105952Y-73251274D01*
X64163404Y-73136369D01*
X64220856Y-73078917D01*
X64335761Y-73021464D01*
X64508118Y-73021464D01*
X64623023Y-73078917D01*
X64680475Y-73136369D01*
X64737928Y-73251274D01*
X64737928Y-73595988D01*
X64680475Y-73710893D01*
X64623023Y-73768345D01*
X64508118Y-73825798D01*
X64335761Y-73825798D01*
X65772070Y-73021464D02*
X65772070Y-73825798D01*
X65254999Y-73021464D02*
X65254999Y-73653440D01*
X65312451Y-73768345D01*
X65427356Y-73825798D01*
X65599713Y-73825798D01*
X65714618Y-73768345D01*
X65772070Y-73710893D01*
X66174237Y-73021464D02*
X66633856Y-73021464D01*
X66346594Y-72619298D02*
X66346594Y-73653440D01*
X66404046Y-73768345D01*
X66518951Y-73825798D01*
X66633856Y-73825798D01*
X67036023Y-73825798D02*
X67036023Y-72619298D01*
X67553094Y-73825798D02*
X67553094Y-73193821D01*
X67495642Y-73078917D01*
X67380737Y-73021464D01*
X67208380Y-73021464D01*
X67093475Y-73078917D01*
X67036023Y-73136369D01*
X18861976Y-72049298D02*
X18861976Y-72911083D01*
X18804524Y-73083440D01*
X18689619Y-73198345D01*
X18517262Y-73255798D01*
X18402357Y-73255798D01*
X20068476Y-73255798D02*
X19379048Y-73255798D01*
X19723762Y-73255798D02*
X19723762Y-72049298D01*
X19608857Y-72221655D01*
X19493952Y-72336560D01*
X19379048Y-72394012D01*
X24777262Y-74093821D02*
X25179429Y-74093821D01*
X25351786Y-74725798D02*
X24777262Y-74725798D01*
X24777262Y-73519298D01*
X25351786Y-73519298D01*
X25753952Y-74725798D02*
X26385928Y-73921464D01*
X25753952Y-73921464D02*
X26385928Y-74725798D01*
X26673190Y-73921464D02*
X27132809Y-73921464D01*
X26845547Y-73519298D02*
X26845547Y-74553440D01*
X26902999Y-74668345D01*
X27017904Y-74725798D01*
X27132809Y-74725798D01*
X27994595Y-74668345D02*
X27879690Y-74725798D01*
X27649881Y-74725798D01*
X27534976Y-74668345D01*
X27477524Y-74553440D01*
X27477524Y-74093821D01*
X27534976Y-73978917D01*
X27649881Y-73921464D01*
X27879690Y-73921464D01*
X27994595Y-73978917D01*
X28052047Y-74093821D01*
X28052047Y-74208726D01*
X27477524Y-74323631D01*
X28569119Y-73921464D02*
X28569119Y-74725798D01*
X28569119Y-74036369D02*
X28626571Y-73978917D01*
X28741476Y-73921464D01*
X28913833Y-73921464D01*
X29028738Y-73978917D01*
X29086190Y-74093821D01*
X29086190Y-74725798D01*
X29603262Y-74668345D02*
X29718166Y-74725798D01*
X29947976Y-74725798D01*
X30062881Y-74668345D01*
X30120333Y-74553440D01*
X30120333Y-74495988D01*
X30062881Y-74381083D01*
X29947976Y-74323631D01*
X29775619Y-74323631D01*
X29660714Y-74266179D01*
X29603262Y-74151274D01*
X29603262Y-74093821D01*
X29660714Y-73978917D01*
X29775619Y-73921464D01*
X29947976Y-73921464D01*
X30062881Y-73978917D01*
X30637404Y-74725798D02*
X30637404Y-73921464D01*
X30637404Y-73519298D02*
X30579952Y-73576750D01*
X30637404Y-73634202D01*
X30694856Y-73576750D01*
X30637404Y-73519298D01*
X30637404Y-73634202D01*
X31384285Y-74725798D02*
X31269380Y-74668345D01*
X31211928Y-74610893D01*
X31154476Y-74495988D01*
X31154476Y-74151274D01*
X31211928Y-74036369D01*
X31269380Y-73978917D01*
X31384285Y-73921464D01*
X31556642Y-73921464D01*
X31671547Y-73978917D01*
X31728999Y-74036369D01*
X31786452Y-74151274D01*
X31786452Y-74495988D01*
X31728999Y-74610893D01*
X31671547Y-74668345D01*
X31556642Y-74725798D01*
X31384285Y-74725798D01*
X32303523Y-73921464D02*
X32303523Y-74725798D01*
X32303523Y-74036369D02*
X32360975Y-73978917D01*
X32475880Y-73921464D01*
X32648237Y-73921464D01*
X32763142Y-73978917D01*
X32820594Y-74093821D01*
X32820594Y-74725798D01*
X34314356Y-74725798D02*
X34314356Y-73519298D01*
X35003784Y-74725798D01*
X35003784Y-73519298D01*
X35750665Y-74725798D02*
X35635760Y-74668345D01*
X35578308Y-74610893D01*
X35520856Y-74495988D01*
X35520856Y-74151274D01*
X35578308Y-74036369D01*
X35635760Y-73978917D01*
X35750665Y-73921464D01*
X35923022Y-73921464D01*
X36037927Y-73978917D01*
X36095379Y-74036369D01*
X36152832Y-74151274D01*
X36152832Y-74495988D01*
X36095379Y-74610893D01*
X36037927Y-74668345D01*
X35923022Y-74725798D01*
X35750665Y-74725798D01*
X36669903Y-74725798D02*
X36669903Y-73921464D01*
X36669903Y-74151274D02*
X36727355Y-74036369D01*
X36784808Y-73978917D01*
X36899712Y-73921464D01*
X37014617Y-73921464D01*
X37244427Y-73921464D02*
X37704046Y-73921464D01*
X37416784Y-73519298D02*
X37416784Y-74553440D01*
X37474236Y-74668345D01*
X37589141Y-74725798D01*
X37704046Y-74725798D01*
X38106213Y-74725798D02*
X38106213Y-73519298D01*
X38623284Y-74725798D02*
X38623284Y-74093821D01*
X38565832Y-73978917D01*
X38450927Y-73921464D01*
X38278570Y-73921464D01*
X38163665Y-73978917D01*
X38106213Y-74036369D01*
D15*
M02*
