%FSLAX46Y46*%
%MOMM*%
%AMPS57*
4,1,4,
0.550000,-0.649996,
-0.550000,-0.649996,
-0.550000,0.000004,
0.550000,0.000004,
0.550000,-0.649996,
0
*
1,1,1.100000,0.000000,0.000004*
1,1,1.100000,0.000000,-0.649996*
4,1,4,
0.500000,0.550004,
0.500000,-0.549996,
0.000000,-0.549996,
0.000000,0.550004,
0.500000,0.550004,
0
*
1,1,1.100000,0.000000,0.000004*
1,1,1.100000,0.500000,0.000004*
%
%ADD57PS57*%
%AMPS37*
4,1,4,
0.550000,-0.649996,
-0.550000,-0.649996,
-0.550000,0.000004,
0.550000,0.000004,
0.550000,-0.649996,
0
*
1,1,1.100000,0.000000,0.000004*
1,1,1.100000,0.000000,-0.649996*
4,1,4,
0.500000,0.550004,
0.500000,-0.549996,
0.000000,-0.549996,
0.000000,0.550004,
0.500000,0.550004,
0
*
1,1,1.100000,0.000000,0.000004*
1,1,1.100000,0.500000,0.000004*
%
%ADD37PS37*%
%AMPS70*
1,1,1.166800,0.000000,0.000000*
%
%ADD70PS70*%
%AMPS67*
1,1,1.166800,0.000000,0.000000*
%
%ADD67PS67*%
%AMPS60*
1,1,1.800000,0.000000,0.000000*
%
%ADD60PS60*%
%AMPS35*
1,1,0.700000,0.000000,0.000000*
%
%ADD35PS35*%
%AMPS32*
1,1,0.700000,0.000000,0.000000*
%
%ADD32PS32*%
%AMPS33*
1,1,0.700000,0.000000,0.000000*
%
%ADD33PS33*%
%AMPS61*
1,1,1.800000,0.000000,0.000000*
%
%ADD61PS61*%
%AMPS66*
1,1,1.166800,0.000000,0.000000*
%
%ADD66PS66*%
%AMPS52*
1,1,1.000000,0.000000,0.000000*
%
%ADD52PS52*%
%AMPS72*
1,1,1.000000,0.000000,0.000000*
%
%ADD72PS72*%
%AMPS53*
1,1,1.000000,0.000000,0.000000*
%
%ADD53PS53*%
%AMPS46*
1,1,1.000000,0.000000,0.000000*
%
%ADD46PS46*%
%AMPS36*
1,1,0.700000,0.000000,0.000000*
%
%ADD36PS36*%
%AMPS47*
1,1,1.000000,0.000000,0.000000*
%
%ADD47PS47*%
%AMPS54*
1,1,1.000000,0.000000,0.000000*
%
%ADD54PS54*%
%AMPS69*
1,1,1.166800,0.000000,0.000000*
%
%ADD69PS69*%
%AMPS63*
1,1,1.800000,0.000000,0.000000*
%
%ADD63PS63*%
%AMPS51*
1,1,1.000000,0.000000,0.000000*
%
%ADD51PS51*%
%AMPS71*
1,1,1.000000,0.000000,0.000000*
%
%ADD71PS71*%
%AMPS62*
1,1,1.800000,0.000000,0.000000*
%
%ADD62PS62*%
%AMPS31*
1,1,0.700000,0.000000,0.000000*
%
%ADD31PS31*%
%AMPS50*
1,1,1.000000,0.000000,0.000000*
%
%ADD50PS50*%
%AMPS49*
1,1,1.000000,0.000000,0.000000*
%
%ADD49PS49*%
%AMPS45*
1,1,1.000000,0.000000,0.000000*
%
%ADD45PS45*%
%AMPS48*
1,1,1.000000,0.000000,0.000000*
%
%ADD48PS48*%
%AMPS40*
1,1,0.700000,0.000000,0.000000*
%
%ADD40PS40*%
%AMPS68*
1,1,1.166800,0.000000,0.000000*
%
%ADD68PS68*%
%AMPS20*
21,1,0.700000,0.600000,0.000000,0.000000,360.000000*
%
%ADD20PS20*%
%AMPS12*
21,1,0.700000,0.600000,0.000000,0.000000,270.000000*
%
%ADD12PS12*%
%AMPS22*
21,1,0.700000,0.600000,0.000000,0.000000,90.000000*
%
%ADD22PS22*%
%AMPS59*
21,1,1.500000,1.300000,0.000000,0.000000,360.000000*
%
%ADD59PS59*%
%AMPS28*
21,1,0.900000,0.900000,0.000000,0.000000,270.000000*
%
%ADD28PS28*%
%AMPS21*
21,1,1.100000,1.350000,0.000000,0.000000,270.000000*
%
%ADD21PS21*%
%AMPS14*
21,1,0.900000,0.850000,0.000000,0.000000,360.000000*
%
%ADD14PS14*%
%AMPS16*
21,1,0.900000,0.850000,0.000000,0.000000,270.000000*
%
%ADD16PS16*%
%AMPS29*
21,1,0.900000,0.850000,0.000000,0.000000,90.000000*
%
%ADD29PS29*%
%AMPS13*
21,1,0.500000,0.700000,0.000000,0.000000,360.000000*
%
%ADD13PS13*%
%AMPS11*
21,1,0.500000,0.700000,0.000000,0.000000,270.000000*
%
%ADD11PS11*%
%AMPS15*
21,1,0.500000,0.700000,0.000000,0.000000,90.000000*
%
%ADD15PS15*%
%AMPS23*
21,1,2.000000,2.600000,0.000000,0.000000,270.000000*
%
%ADD23PS23*%
%AMPS10*
21,1,0.800000,1.400000,0.000000,0.000000,270.000000*
%
%ADD10PS10*%
%AMPS42*
21,1,0.800000,1.400000,0.000000,0.000000,180.000000*
%
%ADD42PS42*%
%AMPS25*
21,1,0.800000,1.400000,0.000000,0.000000,90.000000*
%
%ADD25PS25*%
%AMPS17*
21,1,0.404800,1.547800,0.000000,0.000000,270.000000*
%
%ADD17PS17*%
%AMPS24*
21,1,0.600000,1.000000,0.000000,0.000000,270.000000*
%
%ADD24PS24*%
%AMPS19*
21,1,0.600000,1.000000,0.000000,0.000000,90.000000*
%
%ADD19PS19*%
%AMPS73*
1,1,0.300000,0.000000,0.000000*
%
%ADD73PS73*%
%AMPS30*
21,1,0.500000,1.000000,0.000000,0.000000,180.000000*
1,1,1.000000,-0.250000,0.000000*
1,1,1.000000,0.250000,0.000000*
%
%ADD30PS30*%
%AMPS55*
21,1,0.500000,1.000000,0.000000,0.000000,180.000000*
1,1,1.000000,-0.250000,0.000000*
1,1,1.000000,0.250000,0.000000*
%
%ADD55PS55*%
%AMPS41*
21,1,0.500000,1.000000,0.000000,0.000000,180.000000*
1,1,1.000000,-0.250000,0.000000*
1,1,1.000000,0.250000,0.000000*
%
%ADD41PS41*%
%AMPS58*
21,1,0.500000,1.000000,0.000000,0.000000,180.000000*
1,1,1.000000,-0.250000,0.000000*
1,1,1.000000,0.250000,0.000000*
%
%ADD58PS58*%
%AMPS18*
1,1,1.116000,0.000000,0.000000*
%
%ADD18PS18*%
%AMPS26*
1,1,0.800000,0.000000,0.000000*
%
%ADD26PS26*%
%AMPS43*
1,1,1.100000,0.000000,0.000000*
%
%ADD43PS43*%
%AMPS27*
1,1,1.000000,0.000000,0.000000*
%
%ADD27PS27*%
%AMPS44*
1,1,2.450000,0.000000,0.000000*
%
%ADD44PS44*%
%AMPS38*
1,1,0.950000,0.000000,0.000000*
%
%ADD38PS38*%
%AMPS39*
21,1,0.300000,0.950000,0.000000,0.000000,90.000000*
1,1,0.950000,0.000000,0.150000*
1,1,0.950000,0.000000,-0.150000*
%
%ADD39PS39*%
%AMPS65*
1,1,0.600000,-1.375000,-0.700000*
1,1,0.600000,1.375000,0.700000*
1,1,0.600000,1.375000,-0.700000*
1,1,0.600000,-1.375000,0.700000*
21,1,3.350000,1.400000,0.000000,0.000000,180.000000*
21,1,2.750000,2.000000,0.000000,0.000000,180.000000*
%
%ADD65PS65*%
%AMPS64*
1,1,0.500000,0.275000,0.750000*
1,1,0.500000,-0.275000,-0.750000*
1,1,0.500000,-0.275000,0.750000*
1,1,0.500000,0.275000,-0.750000*
21,1,1.050000,1.500000,0.000000,0.000000,360.000000*
21,1,0.550000,2.000000,0.000000,0.000000,360.000000*
%
%ADD64PS64*%
%AMPS56*
4,1,4,
0.550000,0.000000,
-0.550000,0.000000,
-0.550000,0.650000,
0.550000,0.650000,
0.550000,0.000000,
0
*
1,1,1.100000,0.000000,0.650000*
1,1,1.100000,0.000000,0.000000*
4,1,4,
0.500000,0.550000,
0.500000,-0.550000,
0.000000,-0.550000,
0.000000,0.550000,
0.500000,0.550000,
0
*
1,1,1.100000,0.000000,0.000000*
1,1,1.100000,0.500000,0.000000*
%
%ADD56PS56*%
%AMPS34*
4,1,4,
0.550000,0.000000,
-0.550000,0.000000,
-0.550000,0.650000,
0.550000,0.650000,
0.550000,0.000000,
0
*
1,1,1.100000,0.000000,0.650000*
1,1,1.100000,0.000000,0.000000*
4,1,4,
0.500000,0.550000,
0.500000,-0.550000,
0.000000,-0.550000,
0.000000,0.550000,
0.500000,0.550000,
0
*
1,1,1.100000,0.000000,0.000000*
1,1,1.100000,0.500000,0.000000*
%
%ADD34PS34*%
G01*
G01*
%LPD*%
G75*
D10*
X-150000000Y24350000D03*
D10*
X-150000000Y26250000D03*
D11*
X86100000Y21550000D03*
D11*
X86100000Y22450000D03*
D11*
X-9900000Y89950000D03*
D11*
X-9900000Y90850000D03*
D12*
X16100000Y124750000D03*
D12*
X16100000Y123650000D03*
D13*
X-59350000Y77400000D03*
D13*
X-60250000Y77400000D03*
D14*
X102250000Y-2100000D03*
D14*
X103750000Y-2100000D03*
D12*
X22000000Y88150000D03*
D12*
X22000000Y87050000D03*
D12*
X85300000Y18350000D03*
D12*
X85300000Y17250000D03*
D12*
X20000000Y104250000D03*
D12*
X20000000Y103150000D03*
D15*
X-95800000Y41250000D03*
D15*
X-95800000Y40350000D03*
D12*
X19000000Y88150000D03*
D12*
X19000000Y87050000D03*
D13*
X97350000Y-9400000D03*
D13*
X96450000Y-9400000D03*
D16*
X88000000Y62650000D03*
D16*
X88000000Y61150000D03*
D12*
X15000000Y88150000D03*
D12*
X15000000Y87050000D03*
D16*
X-111000000Y30950000D03*
D16*
X-111000000Y29450000D03*
D12*
X86300000Y18350000D03*
D12*
X86300000Y17250000D03*
D11*
X85000000Y21550000D03*
D11*
X85000000Y22450000D03*
D17*
X37413900Y15260800D03*
D17*
X37413900Y-6255500D03*
D17*
X43586100Y-7756700D03*
D17*
X37413900Y-11259300D03*
D17*
X43586100Y7254800D03*
D17*
X43586100Y-1251700D03*
D17*
X43586100Y10757400D03*
D17*
X37413900Y-250900D03*
D17*
X43586100Y13259300D03*
D17*
X43586100Y-6755900D03*
D17*
X37413900Y12759000D03*
D17*
X43586100Y-9758200D03*
D17*
X37413900Y-4754300D03*
D17*
X37413900Y-6755900D03*
D17*
X37413900Y-3753600D03*
D18*
X42532000Y-15741100D03*
D17*
X43586100Y4252500D03*
D17*
X43586100Y-5755100D03*
D17*
X43586100Y13759700D03*
D17*
X37413900Y13259300D03*
D17*
X43586100Y-10758900D03*
D17*
X37413900Y11758200D03*
D17*
X43586100Y-5254700D03*
D17*
X43586100Y5253300D03*
D17*
X37413900Y-4253900D03*
D17*
X37413900Y-2752800D03*
D17*
X43586100Y-4253900D03*
D17*
X37413900Y-8257000D03*
D17*
X43586100Y4752900D03*
D17*
X37413900Y14260100D03*
D17*
X43586100Y-3253200D03*
D17*
X43586100Y12258600D03*
D17*
X37413900Y249400D03*
D17*
X37413900Y-751300D03*
D17*
X43586100Y7755200D03*
D17*
X43586100Y10257000D03*
D17*
X43586100Y-7256299D03*
D17*
X37413900Y8755900D03*
D17*
X37413900Y5253300D03*
D17*
X43586100Y9256299D03*
D17*
X43586100Y-2752800D03*
D17*
X37413900Y3752200D03*
D17*
X43586100Y-10258500D03*
D17*
X37413900Y-12760400D03*
D17*
X43586100Y-13260800D03*
D17*
X43586100Y5753700D03*
D17*
X37413900Y8255500D03*
D17*
X43586100Y-3753600D03*
D17*
X37413900Y749801D03*
D17*
X43586100Y-1752100D03*
D17*
X37413900Y-7756700D03*
D18*
X42532000Y17741100D03*
D17*
X43586100Y-751300D03*
D17*
X37413900Y5753700D03*
D17*
X37413900Y1250199D03*
D17*
X37413900Y2751400D03*
D17*
X37413900Y-10758900D03*
D17*
X43586100Y2751400D03*
D17*
X43586100Y11758200D03*
D17*
X43586100Y-4754300D03*
D17*
X43586100Y-12760400D03*
D17*
X43586100Y-2252400D03*
D17*
X37413900Y9756700D03*
D17*
X37413900Y-7256299D03*
D17*
X43586100Y749801D03*
D17*
X37413900Y-2252400D03*
D17*
X37413900Y4752900D03*
D17*
X43586100Y15761200D03*
D17*
X37413900Y-5755100D03*
D17*
X37413900Y9256299D03*
D17*
X37413900Y6254000D03*
D17*
X37413900Y7755200D03*
D17*
X43586100Y9756700D03*
D17*
X43586100Y6754400D03*
D17*
X43586100Y1750600D03*
D17*
X43586100Y8755900D03*
D17*
X43586100Y3752200D03*
D17*
X37413900Y-9257800D03*
D17*
X37413900Y4252500D03*
D17*
X43586100Y1250199D03*
D17*
X37413900Y-12260000D03*
D17*
X37413900Y14760500D03*
D17*
X37413900Y-5254700D03*
D17*
X37413900Y15761200D03*
D17*
X43586100Y-11259300D03*
D17*
X43586100Y-8757400D03*
D17*
X37413900Y10257000D03*
D17*
X37413900Y13759700D03*
D17*
X37413900Y7254800D03*
D17*
X37413900Y12258600D03*
D17*
X37413900Y3251800D03*
D17*
X37413900Y-13260800D03*
D17*
X37413900Y-8757400D03*
D17*
X37413900Y6754400D03*
D17*
X37413900Y1750600D03*
D17*
X37413900Y-9758200D03*
D17*
X43586100Y-12260000D03*
D17*
X43586100Y249400D03*
D17*
X43586100Y3251800D03*
D17*
X37413900Y-1251700D03*
D17*
X43586100Y15260800D03*
D17*
X43586100Y-8257000D03*
D17*
X37413900Y10757400D03*
D17*
X43586100Y12759000D03*
D17*
X37413900Y-11759700D03*
D17*
X43586100Y-6255500D03*
D17*
X37413900Y2251000D03*
D17*
X43586100Y14260100D03*
D17*
X37413900Y11257800D03*
D17*
X43586100Y-13761200D03*
D17*
X43586100Y2251000D03*
D17*
X43586100Y11257800D03*
D17*
X43586100Y8255500D03*
D17*
X43586100Y-250900D03*
D17*
X37413900Y-1752100D03*
D17*
X37413900Y-3253200D03*
D17*
X43586100Y6254000D03*
D17*
X43586100Y14760500D03*
D17*
X43586100Y-11759700D03*
D17*
X37413900Y-10258500D03*
D17*
X37413900Y-13761200D03*
D17*
X43586100Y-9257800D03*
D11*
X19799996Y55949994D03*
D11*
X19799996Y56849994D03*
D12*
X16100000Y120650000D03*
D12*
X16100000Y119550000D03*
D12*
X24100000Y128750000D03*
D12*
X24100000Y127650000D03*
D12*
X24700000Y59450000D03*
D12*
X24700000Y58350000D03*
D11*
X80400000Y61450000D03*
D11*
X80400000Y62350000D03*
D12*
X16100000Y116750000D03*
D12*
X16100000Y115650000D03*
D12*
X19100000Y128750000D03*
D12*
X19100000Y127650000D03*
D12*
X20100000Y120650000D03*
D12*
X20100000Y119550000D03*
D11*
X-110700000Y26050000D03*
D11*
X-110700000Y26950000D03*
D19*
X82800000Y62650000D03*
D19*
X82800000Y61150000D03*
D16*
X140600000Y14950000D03*
D16*
X140600000Y13450000D03*
D11*
X31100000Y21350000D03*
D11*
X31100000Y22250000D03*
D11*
X30900000Y-30350000D03*
D11*
X30900000Y-29450000D03*
D13*
X91750000Y13700000D03*
D13*
X90850000Y13700000D03*
D12*
X18700000Y59450000D03*
D12*
X18700000Y58350000D03*
D12*
X24100000Y99850000D03*
D12*
X24100000Y98750000D03*
D11*
X-112900000Y26050000D03*
D11*
X-112900000Y26950000D03*
D14*
X91450000Y43700000D03*
D14*
X92950000Y43700000D03*
D20*
X91650000Y44900000D03*
D20*
X92750000Y44900000D03*
D12*
X14900000Y99850000D03*
D12*
X14900000Y98750000D03*
D11*
X-111700000Y55950000D03*
D11*
X-111700000Y56850000D03*
D12*
X29100000Y99850000D03*
D12*
X29100000Y98750000D03*
D13*
X103550000Y-9500000D03*
D13*
X102650000Y-9500000D03*
D21*
X-22300008Y57200056D03*
D21*
X-22300008Y59200056D03*
D11*
X-124900000Y55850000D03*
D11*
X-124900000Y56750000D03*
D16*
X-123700000Y30150000D03*
D16*
X-123700000Y28650000D03*
D14*
X84450000Y-300000D03*
D14*
X85950000Y-300000D03*
D12*
X15100000Y112950000D03*
D12*
X15100000Y111850000D03*
D12*
X15900000Y99850000D03*
D12*
X15900000Y98750000D03*
D11*
X84700000Y65850000D03*
D11*
X84700000Y66750000D03*
D22*
X-138700000Y73650000D03*
D22*
X-138700000Y74750000D03*
D16*
X140000000Y41450000D03*
D16*
X140000000Y39950000D03*
D11*
X29400000Y-30350000D03*
D11*
X29400000Y-29450000D03*
D20*
X96450000Y300000D03*
D20*
X97550000Y300000D03*
D12*
X37100000Y99850000D03*
D12*
X37100000Y98750000D03*
D13*
X-57350000Y78500000D03*
D13*
X-58250000Y78500000D03*
D12*
X-17900000Y58850000D03*
D12*
X-17900000Y57750000D03*
D20*
X104450000Y56200000D03*
D20*
X105550000Y56200000D03*
D23*
X98500000Y50850000D03*
D23*
X98500000Y46750000D03*
D11*
X-12100000Y91750000D03*
D11*
X-12100000Y92650000D03*
D14*
X96250000Y-2100000D03*
D14*
X97750000Y-2100000D03*
D10*
X121000000Y8650000D03*
D10*
X121000000Y10550000D03*
D12*
X24000000Y91950000D03*
D12*
X24000000Y90850000D03*
D22*
X15800000Y103150000D03*
D22*
X15800000Y104250000D03*
D24*
X83200000Y16950000D03*
D24*
X83200000Y18450000D03*
D14*
X84050000Y53900000D03*
D14*
X85550000Y53900000D03*
D16*
X138700000Y41450000D03*
D16*
X138700000Y39950000D03*
D22*
X-115600000Y42950000D03*
D22*
X-115600000Y44050000D03*
D11*
X-143500000Y25250000D03*
D11*
X-143500000Y26150000D03*
D20*
X97950000Y44700000D03*
D20*
X99050000Y44700000D03*
D12*
X-122500000Y29950000D03*
D12*
X-122500000Y28850000D03*
D21*
X17599992Y127200056D03*
D21*
X17599992Y129200056D03*
D14*
X84050000Y39000000D03*
D14*
X85550000Y39000000D03*
D12*
X25100000Y128750000D03*
D12*
X25100000Y127650000D03*
D14*
X84050000Y41400000D03*
D14*
X85550000Y41400000D03*
D12*
X21100000Y128750000D03*
D12*
X21100000Y127650000D03*
D11*
X-145700000Y25250000D03*
D11*
X-145700000Y26150000D03*
D12*
X20700000Y59450000D03*
D12*
X20700000Y58350000D03*
D13*
X85250000Y34300000D03*
D13*
X84350000Y34300000D03*
D12*
X-16900000Y62450000D03*
D12*
X-16900000Y61350000D03*
D14*
X45150000Y-83700000D03*
D14*
X46650000Y-83700000D03*
D12*
X18700000Y54750000D03*
D12*
X18700000Y53650000D03*
D20*
X84250000Y33200000D03*
D20*
X85350000Y33200000D03*
D14*
X96250000Y-6900000D03*
D14*
X97750000Y-6900000D03*
D11*
X-16500000Y89950000D03*
D11*
X-16500000Y90850000D03*
D13*
X98950000Y34000000D03*
D13*
X98050000Y34000000D03*
D13*
X-53250000Y78500000D03*
D13*
X-54150000Y78500000D03*
D16*
X138700000Y-14450000D03*
D16*
X138700000Y-15950000D03*
D12*
X-141500000Y8750000D03*
D12*
X-141500000Y7650000D03*
D12*
X-18900000Y62450000D03*
D12*
X-18900000Y61350000D03*
D14*
X90550000Y-2300000D03*
D14*
X92050000Y-2300000D03*
D14*
X84050000Y42600000D03*
D14*
X85550000Y42600000D03*
D12*
X19000000Y104250000D03*
D12*
X19000000Y103150000D03*
D12*
X14900000Y108550000D03*
D12*
X14900000Y107450000D03*
D25*
X122300000Y36550000D03*
D25*
X122300000Y34650000D03*
D11*
X-19100000Y-9250000D03*
D11*
X-19100000Y-8350000D03*
D16*
X-109700000Y30950000D03*
D16*
X-109700000Y29450000D03*
D20*
X96550000Y11500000D03*
D20*
X97650000Y11500000D03*
D12*
X-52100000Y67050000D03*
D12*
X-52100000Y65950000D03*
D14*
X96250000Y-4500000D03*
D14*
X97750000Y-4500000D03*
D12*
X20100000Y112950000D03*
D12*
X20100000Y111850000D03*
D14*
X84450000Y-5100000D03*
D14*
X85950000Y-5100000D03*
D12*
X-129800000Y44350000D03*
D12*
X-129800000Y43250000D03*
D14*
X97750000Y41100000D03*
D14*
X99250000Y41100000D03*
D11*
X-8800000Y89950000D03*
D11*
X-8800000Y90850000D03*
D12*
X-116700000Y30750000D03*
D12*
X-116700000Y29650000D03*
D12*
X-115400000Y56850000D03*
D12*
X-115400000Y55750000D03*
D11*
X-128700000Y31750000D03*
D11*
X-128700000Y32650000D03*
D14*
X97750000Y37500000D03*
D14*
X99250000Y37500000D03*
D14*
X84050000Y37800000D03*
D14*
X85550000Y37800000D03*
D20*
X102450000Y12300000D03*
D20*
X103550000Y12300000D03*
D11*
X-144600000Y25250000D03*
D11*
X-144600000Y26150000D03*
D12*
X23700000Y59450000D03*
D12*
X23700000Y58350000D03*
D11*
X-15400000Y91750000D03*
D11*
X-15400000Y92650000D03*
D23*
X105100000Y50850000D03*
D23*
X105100000Y46750000D03*
D12*
X16100000Y112950000D03*
D12*
X16100000Y111850000D03*
D14*
X102250000Y-5700000D03*
D14*
X103750000Y-5700000D03*
D12*
X-18900000Y58850000D03*
D12*
X-18900000Y57750000D03*
D16*
X89300000Y62650000D03*
D16*
X89300000Y61150000D03*
D11*
X-8800000Y91750000D03*
D11*
X-8800000Y92650000D03*
D11*
X-90300000Y40350000D03*
D11*
X-90300000Y41250000D03*
D11*
X-9900000Y91750000D03*
D11*
X-9900000Y92650000D03*
D14*
X39550000Y-80500000D03*
D14*
X41050000Y-80500000D03*
D11*
X-17600000Y91750000D03*
D11*
X-17600000Y92650000D03*
D20*
X104850000Y21400000D03*
D20*
X105950000Y21400000D03*
D12*
X36100000Y99850000D03*
D12*
X36100000Y98750000D03*
D14*
X102250000Y-900000D03*
D14*
X103750000Y-900000D03*
D13*
X103450000Y13400000D03*
D13*
X102550000Y13400000D03*
D12*
X20100000Y116750000D03*
D12*
X20100000Y115650000D03*
D22*
X121700000Y-14350000D03*
D22*
X121700000Y-13250000D03*
D14*
X97750000Y38700000D03*
D14*
X99250000Y38700000D03*
D11*
X-11000000Y91750000D03*
D11*
X-11000000Y92650000D03*
D14*
X100950000Y20000000D03*
D14*
X102450000Y20000000D03*
D14*
X102250000Y-6900000D03*
D14*
X103750000Y-6900000D03*
D14*
X97750000Y39900000D03*
D14*
X99250000Y39900000D03*
D21*
X17499992Y90400056D03*
D21*
X17499992Y92400056D03*
D24*
X122700000Y9050000D03*
D24*
X122700000Y10550000D03*
D11*
X18700000Y51250000D03*
D11*
X18700000Y52150000D03*
D21*
X17499992Y86600056D03*
D21*
X17499992Y88600056D03*
D12*
X19100000Y116750000D03*
D12*
X19100000Y115650000D03*
D11*
X86900000Y65850000D03*
D11*
X86900000Y66750000D03*
D13*
X105450000Y35300000D03*
D13*
X104550000Y35300000D03*
D11*
X-15400000Y89950000D03*
D11*
X-15400000Y90850000D03*
D10*
X39500000Y-91550000D03*
D10*
X39500000Y-89650000D03*
D16*
X-115500000Y30950000D03*
D16*
X-115500000Y29450000D03*
D26*
X33540000Y-95185000D03*
D27*
X33540000Y-79815000D03*
D28*
X-18300000Y-22300000D03*
D28*
X-18300000Y-20700000D03*
D14*
X104250000Y43700000D03*
D14*
X105750000Y43700000D03*
D12*
X-16600000Y85850000D03*
D12*
X-16600000Y84750000D03*
D24*
X124200000Y34950000D03*
D24*
X124200000Y36450000D03*
D20*
X91650000Y33100000D03*
D20*
X92750000Y33100000D03*
D29*
X-143000000Y27950000D03*
D29*
X-143000000Y29450000D03*
D12*
X-11600000Y85850000D03*
D12*
X-11600000Y84750000D03*
D20*
X96350000Y-11600000D03*
D20*
X97450000Y-11600000D03*
D12*
X15900000Y108550000D03*
D12*
X15900000Y107450000D03*
D14*
X104350000Y52800000D03*
D14*
X105850000Y52800000D03*
D16*
X141300000Y41450000D03*
D16*
X141300000Y39950000D03*
D14*
X104350000Y54000000D03*
D14*
X105850000Y54000000D03*
D14*
X42350000Y-87200000D03*
D14*
X43850000Y-87200000D03*
D12*
X-15900000Y58850000D03*
D12*
X-15900000Y57750000D03*
D13*
X-51150000Y78500000D03*
D13*
X-52050000Y78500000D03*
D14*
X91450000Y38900000D03*
D14*
X92950000Y38900000D03*
D11*
X-12100000Y89950000D03*
D11*
X-12100000Y90850000D03*
D12*
X15100000Y116750000D03*
D12*
X15100000Y115650000D03*
D14*
X102250000Y8900000D03*
D14*
X103750000Y8900000D03*
D20*
X90750000Y12600000D03*
D20*
X91850000Y12600000D03*
D13*
X-53250000Y77400000D03*
D13*
X-54150000Y77400000D03*
D23*
X134700000Y42850000D03*
D23*
X134700000Y38750000D03*
D12*
X16000000Y91950000D03*
D12*
X16000000Y90850000D03*
D14*
X84050000Y36600000D03*
D14*
X85550000Y36600000D03*
D16*
X-125000000Y30150000D03*
D16*
X-125000000Y28650000D03*
D12*
X20100000Y108550000D03*
D12*
X20100000Y107450000D03*
D12*
X22100000Y99850000D03*
D12*
X22100000Y98750000D03*
D11*
X-111800000Y26050000D03*
D11*
X-111800000Y26950000D03*
D30*
X43650000Y-21570000D03*
D31*
X38300000Y-26300000D03*
D32*
X39000000Y-26700000D03*
D33*
X39000000Y-28300000D03*
D34*
X38650000Y-30230000D03*
D35*
X39000000Y-25100000D03*
D36*
X38300000Y-25500000D03*
D37*
X38650000Y-21570000D03*
D38*
X37650000Y-29500000D03*
D36*
X38300000Y-27100000D03*
D39*
X37650000Y-22300000D03*
D32*
X39000000Y-23500000D03*
D32*
X38300000Y-24700000D03*
D32*
X39000000Y-27500000D03*
D40*
X39000000Y-24300000D03*
D35*
X38300000Y-23100000D03*
D33*
X38300000Y-28700000D03*
D41*
X43650000Y-30230000D03*
D12*
X19100000Y120650000D03*
D12*
X19100000Y119550000D03*
D11*
X33600000Y21350000D03*
D11*
X33600000Y22250000D03*
D20*
X103050000Y66100000D03*
D20*
X104150000Y66100000D03*
D12*
X-16900000Y58850000D03*
D12*
X-16900000Y57750000D03*
D12*
X-15600000Y85850000D03*
D12*
X-15600000Y84750000D03*
D13*
X105450000Y57300000D03*
D13*
X104550000Y57300000D03*
D11*
X-13200000Y91750000D03*
D11*
X-13200000Y92650000D03*
D19*
X122700000Y8050000D03*
D19*
X122700000Y6550000D03*
D21*
X17499992Y98400056D03*
D21*
X17499992Y100400056D03*
D11*
X-14300000Y89950000D03*
D11*
X-14300000Y90850000D03*
D22*
X122900000Y-14350000D03*
D22*
X122900000Y-13250000D03*
D11*
X-135600000Y7750000D03*
D11*
X-135600000Y8650000D03*
D11*
X-120200000Y67750000D03*
D11*
X-120200000Y68650000D03*
D22*
X-133200000Y73650000D03*
D22*
X-133200000Y74750000D03*
D14*
X97750000Y42300000D03*
D14*
X99250000Y42300000D03*
D11*
X-18700000Y91750000D03*
D11*
X-18700000Y92650000D03*
D20*
X90750000Y1300000D03*
D20*
X91850000Y1300000D03*
D13*
X92650000Y34200000D03*
D13*
X91750000Y34200000D03*
D14*
X84450000Y-7500000D03*
D14*
X85950000Y-7500000D03*
D13*
X-59350000Y78500000D03*
D13*
X-60250000Y78500000D03*
D29*
X-141700000Y27950000D03*
D29*
X-141700000Y29450000D03*
D22*
X124400000Y40050000D03*
D22*
X124400000Y41150000D03*
D14*
X96250000Y-5700000D03*
D14*
X97750000Y-5700000D03*
D12*
X21000000Y91950000D03*
D12*
X21000000Y90850000D03*
D14*
X104250000Y42500000D03*
D14*
X105750000Y42500000D03*
D20*
X91750000Y56200000D03*
D20*
X92850000Y56200000D03*
D12*
X19100000Y124750000D03*
D12*
X19100000Y123650000D03*
D20*
X84250000Y45000000D03*
D20*
X85350000Y45000000D03*
D20*
X90750000Y-10600000D03*
D20*
X91850000Y-10600000D03*
D21*
X17599992Y115300056D03*
D21*
X17599992Y117300056D03*
D22*
X125400000Y40050000D03*
D22*
X125400000Y41150000D03*
D23*
X85770000Y7130000D03*
D23*
X85770000Y3030000D03*
D12*
X21100000Y116750000D03*
D12*
X21100000Y115650000D03*
D14*
X104250000Y41300000D03*
D14*
X105750000Y41300000D03*
D14*
X47950000Y-87200000D03*
D14*
X49450000Y-87200000D03*
D11*
X80700000Y17150000D03*
D11*
X80700000Y18050000D03*
D14*
X104250000Y36500000D03*
D14*
X105750000Y36500000D03*
D15*
X-135200000Y72350000D03*
D15*
X-135200000Y71450000D03*
D20*
X104850000Y20400000D03*
D20*
X105950000Y20400000D03*
D12*
X19100000Y99850000D03*
D12*
X19100000Y98750000D03*
D14*
X97660000Y52930000D03*
D14*
X99160000Y52930000D03*
D11*
X-16500000Y91750000D03*
D11*
X-16500000Y92650000D03*
D20*
X104450000Y33100000D03*
D20*
X105550000Y33100000D03*
D15*
X-94700000Y41250000D03*
D15*
X-94700000Y40350000D03*
D11*
X-124800000Y25150000D03*
D11*
X-124800000Y26050000D03*
D12*
X-18600000Y85850000D03*
D12*
X-18600000Y84750000D03*
D12*
X19000000Y91950000D03*
D12*
X19000000Y90850000D03*
D20*
X104450000Y55200000D03*
D20*
X105550000Y55200000D03*
D19*
X124200000Y33950000D03*
D19*
X124200000Y32450000D03*
D13*
X105450000Y34200000D03*
D13*
X104550000Y34200000D03*
D16*
X-127600000Y30150000D03*
D16*
X-127600000Y28650000D03*
D14*
X42350000Y-80500000D03*
D14*
X43850000Y-80500000D03*
D13*
X91750000Y-8400000D03*
D13*
X90850000Y-8400000D03*
D22*
X54700000Y75450000D03*
D22*
X54700000Y76550000D03*
D12*
X25100000Y99850000D03*
D12*
X25100000Y98750000D03*
D12*
X31100000Y99850000D03*
D12*
X31100000Y98750000D03*
D21*
X-22300008Y60900056D03*
D21*
X-22300008Y62900056D03*
D21*
X17499992Y94300056D03*
D21*
X17499992Y96300056D03*
D13*
X85650000Y-8700000D03*
D13*
X84750000Y-8700000D03*
D14*
X90550000Y9200000D03*
D14*
X92050000Y9200000D03*
D21*
X17599992Y123200056D03*
D21*
X17599992Y125200056D03*
D13*
X91750000Y-9500000D03*
D13*
X90850000Y-9500000D03*
D22*
X123200000Y14050000D03*
D22*
X123200000Y15150000D03*
D12*
X-122300000Y68750000D03*
D12*
X-122300000Y67650000D03*
D12*
X21100000Y99850000D03*
D12*
X21100000Y98750000D03*
D12*
X39100000Y99850000D03*
D12*
X39100000Y98750000D03*
D11*
X-128100000Y25150000D03*
D11*
X-128100000Y26050000D03*
D11*
X-18700000Y89950000D03*
D11*
X-18700000Y90850000D03*
D15*
X81500000Y62350000D03*
D15*
X81500000Y61450000D03*
D12*
X19100000Y108550000D03*
D12*
X19100000Y107450000D03*
D12*
X22100000Y128750000D03*
D12*
X22100000Y127650000D03*
D20*
X104450000Y44900000D03*
D20*
X105550000Y44900000D03*
D13*
X-57350000Y77400000D03*
D13*
X-58250000Y77400000D03*
D11*
X-92500000Y40350000D03*
D11*
X-92500000Y41250000D03*
D12*
X27100000Y99850000D03*
D12*
X27100000Y98750000D03*
D12*
X-12600000Y85850000D03*
D12*
X-12600000Y84750000D03*
D21*
X17599992Y119200056D03*
D21*
X17599992Y121200056D03*
D12*
X21100000Y120650000D03*
D12*
X21100000Y119550000D03*
D42*
X-20850000Y20600000D03*
D42*
X-18950000Y20600000D03*
D14*
X102250000Y-8100000D03*
D14*
X103750000Y-8100000D03*
D13*
X85250000Y35400000D03*
D13*
X84350000Y35400000D03*
D16*
X137400000Y-14450000D03*
D16*
X137400000Y-15950000D03*
D13*
X85250000Y57200000D03*
D13*
X84350000Y57200000D03*
D14*
X91450000Y36500000D03*
D14*
X92950000Y36500000D03*
D24*
X88600000Y21350000D03*
D24*
X88600000Y22850000D03*
D21*
X17599992Y111400056D03*
D21*
X17599992Y113400056D03*
D24*
X89300000Y65550000D03*
D24*
X89300000Y67050000D03*
D13*
X97550000Y13600000D03*
D13*
X96650000Y13600000D03*
D11*
X-13200000Y89950000D03*
D11*
X-13200000Y90850000D03*
D15*
X125100000Y17350000D03*
D15*
X125100000Y16450000D03*
D14*
X100150000Y64900000D03*
D14*
X101650000Y64900000D03*
D13*
X-55350000Y77400000D03*
D13*
X-56250000Y77400000D03*
D12*
X21100000Y108550000D03*
D12*
X21100000Y107450000D03*
D14*
X42350000Y-83700000D03*
D14*
X43850000Y-83700000D03*
D12*
X-19000000Y53050000D03*
D12*
X-19000000Y51950000D03*
D23*
X84800000Y50850000D03*
D23*
X84800000Y46750000D03*
D14*
X100950000Y18700000D03*
D14*
X102450000Y18700000D03*
D11*
X-91400000Y40350000D03*
D11*
X-91400000Y41250000D03*
D11*
X124200000Y37450000D03*
D11*
X124200000Y38350000D03*
D16*
X88500000Y18650000D03*
D16*
X88500000Y17150000D03*
D13*
X-49150000Y78500000D03*
D13*
X-50050000Y78500000D03*
D16*
X139300000Y14950000D03*
D16*
X139300000Y13450000D03*
D22*
X-132200000Y73650000D03*
D22*
X-132200000Y74750000D03*
D12*
X-129600000Y56750000D03*
D12*
X-129600000Y55650000D03*
D12*
X-14600000Y85850000D03*
D12*
X-14600000Y84750000D03*
D12*
X20100000Y99850000D03*
D12*
X20100000Y98750000D03*
D12*
X85800000Y62450000D03*
D12*
X85800000Y61350000D03*
D11*
X-125900000Y25150000D03*
D11*
X-125900000Y26050000D03*
D14*
X45150000Y-80500000D03*
D14*
X46650000Y-80500000D03*
D11*
X-113500000Y32450000D03*
D11*
X-113500000Y33350000D03*
D11*
X122700000Y11550000D03*
D11*
X122700000Y12450000D03*
D12*
X20000000Y95950000D03*
D12*
X20000000Y94850000D03*
D12*
X20100000Y124750000D03*
D12*
X20100000Y123650000D03*
D15*
X-14400000Y-23450000D03*
D15*
X-14400000Y-24350000D03*
D12*
X22700000Y59450000D03*
D12*
X22700000Y58350000D03*
D11*
X88000000Y65850000D03*
D11*
X88000000Y66750000D03*
D43*
X-41300000Y-40600000D03*
D43*
X-39300000Y-38600000D03*
D43*
X-39300000Y-40600000D03*
D43*
X-41300000Y-38600000D03*
D43*
X-39300000Y-44600000D03*
D43*
X-41300000Y-36600000D03*
D43*
X-39300000Y-36600000D03*
D43*
X-39300000Y-34600000D03*
D43*
X-39300000Y-48600000D03*
D43*
X-41300000Y-46600000D03*
D43*
X-41300000Y-34600000D03*
D43*
X-39300000Y-42600000D03*
D43*
X-41300000Y-48600000D03*
D43*
X-41300000Y-42600000D03*
D43*
X-39300000Y-46600000D03*
D43*
X-41300000Y-44600000D03*
D11*
X-11000000Y89950000D03*
D11*
X-11000000Y90850000D03*
D16*
X-126300000Y30150000D03*
D16*
X-126300000Y28650000D03*
D12*
X16100000Y128750000D03*
D12*
X16100000Y127650000D03*
D12*
X19700000Y59450000D03*
D12*
X19700000Y58350000D03*
D25*
X35300000Y1150000D03*
D25*
X35300000Y-750000D03*
D12*
X15100000Y124750000D03*
D12*
X15100000Y123650000D03*
D14*
X102250000Y-3300000D03*
D14*
X103750000Y-3300000D03*
D14*
X45150000Y-87200000D03*
D14*
X46650000Y-87200000D03*
D44*
X-24300000Y26250000D03*
D45*
X-9500000Y27500000D03*
D46*
X-5500000Y25000000D03*
D44*
X-15150000Y26250000D03*
D47*
X-16500000Y29500000D03*
D48*
X-10500000Y23000000D03*
D49*
X-22500000Y23000000D03*
D49*
X-18500000Y23000000D03*
D46*
X-19500000Y25000000D03*
D49*
X-17500000Y25000000D03*
D49*
X-6500000Y23000000D03*
D46*
X-7500000Y25000000D03*
D50*
X-20500000Y29500000D03*
D50*
X-3500000Y27500000D03*
D51*
X-7500000Y27500000D03*
D46*
X-13500000Y25000000D03*
D48*
X-3500000Y25000000D03*
D51*
X-4500000Y29500000D03*
D52*
X-18500000Y29500000D03*
D48*
X-16500000Y23000000D03*
D53*
X-6500000Y29500000D03*
D51*
X-10500000Y29500000D03*
D47*
X-22500000Y29500000D03*
D53*
X-13500000Y27500000D03*
D46*
X-20500000Y23000000D03*
D51*
X-12500000Y29500000D03*
D45*
X-11500000Y27500000D03*
D47*
X-17500000Y27500000D03*
D50*
X-19500000Y27500000D03*
D54*
X-21500000Y25000000D03*
D53*
X-21500000Y27500000D03*
D45*
X-5500000Y27500000D03*
D46*
X-12500000Y23000000D03*
D49*
X-4500000Y23000000D03*
D45*
X-8500000Y29500000D03*
D49*
X-8500000Y23000000D03*
D48*
X-11500000Y25000000D03*
D48*
X-9500000Y25000000D03*
D12*
X84800000Y62450000D03*
D12*
X84800000Y61350000D03*
D23*
X97090000Y7070000D03*
D23*
X97090000Y2970000D03*
D14*
X100150000Y66200000D03*
D14*
X101650000Y66200000D03*
D20*
X84250000Y55100000D03*
D20*
X85350000Y55100000D03*
D12*
X-13000000Y53050000D03*
D12*
X-13000000Y51950000D03*
D15*
X-18300000Y-23450000D03*
D15*
X-18300000Y-24350000D03*
D14*
X91450000Y37700000D03*
D14*
X92950000Y37700000D03*
D12*
X26100000Y99850000D03*
D12*
X26100000Y98750000D03*
D14*
X85050000Y10200000D03*
D14*
X86550000Y10200000D03*
D14*
X96350000Y9100000D03*
D14*
X97850000Y9100000D03*
D55*
X43650000Y30430000D03*
D40*
X38300000Y25700000D03*
D35*
X39000000Y25300000D03*
D32*
X39000000Y23700000D03*
D56*
X38650000Y21770000D03*
D32*
X39000000Y26900000D03*
D35*
X38300000Y26500000D03*
D57*
X38650000Y30430000D03*
D38*
X37650000Y22500000D03*
D35*
X38300000Y24900000D03*
D39*
X37650000Y29700000D03*
D35*
X39000000Y28500000D03*
D40*
X38300000Y27300000D03*
D31*
X39000000Y24500000D03*
D32*
X39000000Y27700000D03*
D36*
X38300000Y28900000D03*
D33*
X38300000Y23300000D03*
D58*
X43650000Y21770000D03*
D14*
X85050000Y9000000D03*
D14*
X86550000Y9000000D03*
D59*
X-139500000Y9000000D03*
D59*
X-137300000Y9000000D03*
D59*
X-137300000Y7400000D03*
D59*
X-139500000Y7400000D03*
D16*
X-130600000Y30150000D03*
D16*
X-130600000Y28650000D03*
D23*
X133400000Y-13150000D03*
D23*
X133400000Y-17250000D03*
D12*
X23000000Y91950000D03*
D12*
X23000000Y90850000D03*
D20*
X97950000Y32900000D03*
D20*
X99050000Y32900000D03*
D14*
X100150000Y63600000D03*
D14*
X101650000Y63600000D03*
D14*
X84050000Y40200000D03*
D14*
X85550000Y40200000D03*
D14*
X104250000Y38900000D03*
D14*
X105750000Y38900000D03*
D20*
X85250000Y11400000D03*
D20*
X86350000Y11400000D03*
D23*
X103060000Y6880000D03*
D23*
X103060000Y2780000D03*
D12*
X16000000Y88150000D03*
D12*
X16000000Y87050000D03*
D14*
X102250000Y-4500000D03*
D14*
X103750000Y-4500000D03*
D12*
X-97700000Y46350000D03*
D12*
X-97700000Y45250000D03*
D11*
X81800000Y17150000D03*
D11*
X81800000Y18050000D03*
D12*
X23100000Y99850000D03*
D12*
X23100000Y98750000D03*
D12*
X-128600000Y56750000D03*
D12*
X-128600000Y55650000D03*
D12*
X23100000Y108550000D03*
D12*
X23100000Y107450000D03*
D12*
X19100000Y112950000D03*
D12*
X19100000Y111850000D03*
D11*
X-17600000Y93750000D03*
D11*
X-17600000Y94650000D03*
D14*
X39550000Y-83700000D03*
D14*
X41050000Y-83700000D03*
D20*
X84550000Y900000D03*
D20*
X85650000Y900000D03*
D14*
X96250000Y-8100000D03*
D14*
X97750000Y-8100000D03*
D20*
X102550000Y-11700000D03*
D20*
X103650000Y-11700000D03*
D22*
X-137700000Y73650000D03*
D22*
X-137700000Y74750000D03*
D22*
X125600000Y14050000D03*
D22*
X125600000Y15150000D03*
D15*
X-15700000Y-23450000D03*
D15*
X-15700000Y-24350000D03*
D12*
X23100000Y128750000D03*
D12*
X23100000Y127650000D03*
D13*
X97350000Y-10500000D03*
D13*
X96450000Y-10500000D03*
D14*
X97660000Y54130000D03*
D14*
X99160000Y54130000D03*
D14*
X84050000Y52700000D03*
D14*
X85550000Y52700000D03*
D12*
X-131700000Y30050000D03*
D12*
X-131700000Y28950000D03*
D14*
X90550000Y-4700000D03*
D14*
X92050000Y-4700000D03*
D60*
X-57750000Y-7810000D03*
D61*
X-57750000Y-190000D03*
D62*
X-57750000Y-2730000D03*
D63*
X-57750000Y-5270000D03*
D14*
X39550000Y-87200000D03*
D14*
X41050000Y-87200000D03*
D12*
X15000000Y91950000D03*
D12*
X15000000Y90850000D03*
D61*
X-57840000Y-20260000D03*
D60*
X-57840000Y-12640000D03*
D60*
X-57840000Y-15180000D03*
D63*
X-57840000Y-17720000D03*
D20*
X84250000Y56100000D03*
D20*
X85350000Y56100000D03*
D16*
X141900000Y14950000D03*
D16*
X141900000Y13450000D03*
D14*
X102250000Y10100000D03*
D14*
X103750000Y10100000D03*
D14*
X91450000Y41300000D03*
D14*
X92950000Y41300000D03*
D12*
X-111900000Y44050000D03*
D12*
X-111900000Y42950000D03*
D14*
X91450000Y40100000D03*
D14*
X92950000Y40100000D03*
D10*
X121100000Y-18450000D03*
D10*
X121100000Y-16550000D03*
D28*
X-17000000Y-22300000D03*
D28*
X-17000000Y-20700000D03*
D20*
X97860000Y55430000D03*
D20*
X98960000Y55430000D03*
D14*
X97750000Y36300000D03*
D14*
X99250000Y36300000D03*
D11*
X-6600000Y91750000D03*
D11*
X-6600000Y92650000D03*
D21*
X17609992Y106980056D03*
D21*
X17609992Y108980056D03*
D12*
X-121300000Y68750000D03*
D12*
X-121300000Y67650000D03*
D15*
X21999996Y56849994D03*
D15*
X21999996Y55949994D03*
D12*
X-125400000Y44350000D03*
D12*
X-125400000Y43250000D03*
D12*
X21000000Y104250000D03*
D12*
X21000000Y103150000D03*
D11*
X-11400000Y52050000D03*
D11*
X-11400000Y52950000D03*
D13*
X98860000Y57530000D03*
D13*
X97960000Y57530000D03*
D14*
X97750000Y43500000D03*
D14*
X99250000Y43500000D03*
D14*
X90550000Y100000D03*
D14*
X92050000Y100000D03*
D11*
X122700000Y-17050000D03*
D11*
X122700000Y-16150000D03*
D14*
X104250000Y37700000D03*
D14*
X105750000Y37700000D03*
D16*
X89800000Y18650000D03*
D16*
X89800000Y17150000D03*
D20*
X103050000Y65100000D03*
D20*
X104150000Y65100000D03*
D29*
X-145600000Y27950000D03*
D29*
X-145600000Y29450000D03*
D13*
X85650000Y-9800000D03*
D13*
X84750000Y-9800000D03*
D11*
X-14300000Y91750000D03*
D11*
X-14300000Y92650000D03*
D12*
X-20000000Y53050000D03*
D12*
X-20000000Y51950000D03*
D14*
X96250000Y-900000D03*
D14*
X97750000Y-900000D03*
D12*
X-15900000Y62450000D03*
D12*
X-15900000Y61350000D03*
D12*
X-97600000Y73850000D03*
D12*
X-97600000Y72750000D03*
D15*
X-17000000Y-18650000D03*
D15*
X-17000000Y-19550000D03*
D14*
X84450000Y-1500000D03*
D14*
X85950000Y-1500000D03*
D22*
X-140500000Y28250000D03*
D22*
X-140500000Y29350000D03*
D13*
X-49150000Y77400000D03*
D13*
X-50050000Y77400000D03*
D12*
X15100000Y120650000D03*
D12*
X15100000Y119550000D03*
D15*
X-136300000Y72350000D03*
D15*
X-136300000Y71450000D03*
D14*
X104250000Y40100000D03*
D14*
X105750000Y40100000D03*
D11*
X-18700000Y93750000D03*
D11*
X-18700000Y94650000D03*
D12*
X15100000Y128750000D03*
D12*
X15100000Y127650000D03*
D11*
X-17600000Y88150000D03*
D11*
X-17600000Y89050000D03*
D11*
X122700000Y-18850000D03*
D11*
X122700000Y-17950000D03*
D26*
X-40220000Y11155000D03*
D27*
X-40220000Y26525000D03*
D12*
X26100000Y128750000D03*
D12*
X26100000Y127650000D03*
D20*
X85250000Y12400000D03*
D20*
X86350000Y12400000D03*
D12*
X20000000Y91950000D03*
D12*
X20000000Y90850000D03*
D12*
X-107200000Y30750000D03*
D12*
X-107200000Y29650000D03*
D12*
X54700000Y60650000D03*
D12*
X54700000Y59550000D03*
D14*
X91450000Y42500000D03*
D14*
X92950000Y42500000D03*
D12*
X-142600000Y44250000D03*
D12*
X-142600000Y43150000D03*
D22*
X124600000Y14050000D03*
D22*
X124600000Y15150000D03*
D12*
X-14900000Y62450000D03*
D12*
X-14900000Y61350000D03*
D12*
X40100000Y99850000D03*
D12*
X40100000Y98750000D03*
D12*
X-17600000Y85850000D03*
D12*
X-17600000Y84750000D03*
D14*
X90550000Y-5900000D03*
D14*
X92050000Y-5900000D03*
D12*
X-14900000Y58850000D03*
D12*
X-14900000Y57750000D03*
D12*
X25700000Y59450000D03*
D12*
X25700000Y58350000D03*
D12*
X21700000Y59450000D03*
D12*
X21700000Y58350000D03*
D22*
X122900000Y40050000D03*
D22*
X122900000Y41150000D03*
D14*
X84050000Y43800000D03*
D14*
X85550000Y43800000D03*
D13*
X-51150000Y77400000D03*
D13*
X-52050000Y77400000D03*
D16*
X-20200000Y59050000D03*
D16*
X-20200000Y57550000D03*
D42*
X6050000Y21000000D03*
D42*
X7950000Y21000000D03*
D12*
X-13600000Y85850000D03*
D12*
X-13600000Y84750000D03*
D16*
X-149200000Y29450000D03*
D16*
X-149200000Y27950000D03*
D20*
X102450000Y400000D03*
D20*
X103550000Y400000D03*
D11*
X-7700000Y91750000D03*
D11*
X-7700000Y92650000D03*
D14*
X96350000Y10300000D03*
D14*
X97850000Y10300000D03*
D22*
X123900000Y-14350000D03*
D22*
X123900000Y-13250000D03*
D14*
X84450000Y-2700000D03*
D14*
X85950000Y-2700000D03*
D23*
X134900000Y16350000D03*
D23*
X134900000Y12250000D03*
D11*
X-7700000Y89950000D03*
D11*
X-7700000Y90850000D03*
D12*
X-17900000Y62450000D03*
D12*
X-17900000Y61350000D03*
D12*
X28100000Y99850000D03*
D12*
X28100000Y98750000D03*
D21*
X17499992Y102700056D03*
D21*
X17499992Y104700056D03*
D14*
X84450000Y-3900000D03*
D14*
X85950000Y-3900000D03*
D14*
X100950000Y21300000D03*
D14*
X102450000Y21300000D03*
D12*
X22100000Y116750000D03*
D12*
X22100000Y115650000D03*
D16*
X-108400000Y30950000D03*
D16*
X-108400000Y29450000D03*
D14*
X47950000Y-83700000D03*
D14*
X49450000Y-83700000D03*
D22*
X14800000Y103150000D03*
D22*
X14800000Y104250000D03*
D11*
X-114000000Y26050000D03*
D11*
X-114000000Y26950000D03*
D16*
X143200000Y14950000D03*
D16*
X143200000Y13450000D03*
D11*
X-6600000Y89950000D03*
D11*
X-6600000Y90850000D03*
D64*
X-122120000Y70880000D03*
D65*
X-119820000Y76980000D03*
D64*
X-119820000Y70880000D03*
D64*
X-117520000Y70880000D03*
D24*
X-15800000Y51750000D03*
D24*
X-15800000Y53250000D03*
D15*
X18699996Y56849994D03*
D15*
X18699996Y55949994D03*
D12*
X23000000Y88150000D03*
D12*
X23000000Y87050000D03*
D20*
X90750000Y11600000D03*
D20*
X91850000Y11600000D03*
D14*
X90550000Y-7100000D03*
D14*
X92050000Y-7100000D03*
D14*
X91550000Y52700000D03*
D14*
X93050000Y52700000D03*
D11*
X85800000Y65850000D03*
D11*
X85800000Y66750000D03*
D20*
X91750000Y55200000D03*
D20*
X92850000Y55200000D03*
D12*
X30100000Y99850000D03*
D12*
X30100000Y98750000D03*
D11*
X-91700000Y72850000D03*
D11*
X-91700000Y73750000D03*
D12*
X35100000Y99850000D03*
D12*
X35100000Y98750000D03*
D12*
X19700000Y54750000D03*
D12*
X19700000Y53650000D03*
D11*
X-93600000Y40350000D03*
D11*
X-93600000Y41250000D03*
D14*
X91550000Y53900000D03*
D14*
X93050000Y53900000D03*
D12*
X21100000Y124750000D03*
D12*
X21100000Y123650000D03*
D11*
X83600000Y65850000D03*
D11*
X83600000Y66750000D03*
D29*
X-144300000Y27950000D03*
D29*
X-144300000Y29450000D03*
D11*
X32000000Y-30350000D03*
D11*
X32000000Y-29450000D03*
D13*
X86250000Y13500000D03*
D13*
X85350000Y13500000D03*
D11*
X-134500000Y7750000D03*
D11*
X-134500000Y8650000D03*
D11*
X-17600000Y89950000D03*
D11*
X-17600000Y90850000D03*
D14*
X96250000Y-3300000D03*
D14*
X97750000Y-3300000D03*
D20*
X96550000Y12500000D03*
D20*
X97650000Y12500000D03*
D12*
X-150400000Y29250000D03*
D12*
X-150400000Y28150000D03*
D12*
X20000000Y88150000D03*
D12*
X20000000Y87050000D03*
D28*
X-14400000Y-22300000D03*
D28*
X-14400000Y-20700000D03*
D11*
X32500000Y21350000D03*
D11*
X32500000Y22250000D03*
D12*
X22100000Y108550000D03*
D12*
X22100000Y107450000D03*
D43*
X-41300000Y-24800000D03*
D43*
X-39300000Y-22800000D03*
D43*
X-39300000Y-24800000D03*
D43*
X-41300000Y-22800000D03*
D43*
X-39300000Y-28800000D03*
D43*
X-41300000Y-20800000D03*
D43*
X-39300000Y-20800000D03*
D43*
X-39300000Y-18800000D03*
D43*
X-39300000Y-32800000D03*
D43*
X-41300000Y-30800000D03*
D43*
X-41300000Y-18800000D03*
D43*
X-39300000Y-26800000D03*
D43*
X-41300000Y-32800000D03*
D43*
X-41300000Y-26800000D03*
D43*
X-39300000Y-30800000D03*
D43*
X-41300000Y-28800000D03*
D23*
X92300000Y50850000D03*
D23*
X92300000Y46750000D03*
D66*
X-56835000Y13860000D03*
D67*
X-56835000Y12590000D03*
D68*
X-56835000Y8780000D03*
D66*
X-58105000Y13860000D03*
D69*
X-58105000Y11320000D03*
D68*
X-58105000Y10050000D03*
D66*
X-56835000Y10050000D03*
D68*
X-56835000Y11320000D03*
D69*
X-58105000Y8780000D03*
D70*
X-58105000Y12590000D03*
D12*
X34100000Y99850000D03*
D12*
X34100000Y98750000D03*
D12*
X19000000Y95950000D03*
D12*
X19000000Y94850000D03*
D11*
X87200000Y21550000D03*
D11*
X87200000Y22450000D03*
D23*
X91320000Y7200000D03*
D23*
X91320000Y3100000D03*
D22*
X121900000Y40050000D03*
D22*
X121900000Y41150000D03*
D12*
X24000000Y88150000D03*
D12*
X24000000Y87050000D03*
D12*
X15100000Y95950000D03*
D12*
X15100000Y94850000D03*
D12*
X-53100000Y67050000D03*
D12*
X-53100000Y65950000D03*
D22*
X120700000Y-14350000D03*
D22*
X120700000Y-13250000D03*
D44*
X4700000Y26250000D03*
D51*
X19500000Y27500000D03*
D46*
X23500000Y25000000D03*
D44*
X13850000Y26250000D03*
D53*
X12500000Y29500000D03*
D49*
X18500000Y23000000D03*
D71*
X6500000Y23000000D03*
D54*
X10500000Y23000000D03*
D46*
X9500000Y25000000D03*
D71*
X11500000Y25000000D03*
D48*
X22500000Y23000000D03*
D72*
X21500000Y25000000D03*
D45*
X8500000Y29500000D03*
D51*
X25500000Y27500000D03*
D53*
X21500000Y27500000D03*
D72*
X15500000Y25000000D03*
D48*
X25500000Y25000000D03*
D52*
X24500000Y29500000D03*
D47*
X10500000Y29500000D03*
D46*
X12500000Y23000000D03*
D50*
X22500000Y29500000D03*
D47*
X18500000Y29500000D03*
D53*
X6500000Y29500000D03*
D53*
X15500000Y27500000D03*
D46*
X8500000Y23000000D03*
D47*
X16500000Y29500000D03*
D53*
X17500000Y27500000D03*
D45*
X11500000Y27500000D03*
D50*
X9500000Y27500000D03*
D72*
X7500000Y25000000D03*
D47*
X7500000Y27500000D03*
D51*
X23500000Y27500000D03*
D54*
X16500000Y23000000D03*
D48*
X24500000Y23000000D03*
D53*
X20500000Y29500000D03*
D48*
X20500000Y23000000D03*
D46*
X17500000Y25000000D03*
D48*
X19500000Y25000000D03*
D14*
X90550000Y-3500000D03*
D14*
X92050000Y-3500000D03*
D11*
X-127000000Y25150000D03*
D11*
X-127000000Y26050000D03*
D12*
X38100000Y99850000D03*
D12*
X38100000Y98750000D03*
D11*
X-142400000Y25250000D03*
D11*
X-142400000Y26150000D03*
D13*
X103550000Y-10600000D03*
D13*
X102650000Y-10600000D03*
D14*
X90550000Y-1100000D03*
D14*
X92050000Y-1100000D03*
D13*
X-55350000Y78500000D03*
D13*
X-56250000Y78500000D03*
D12*
X23100000Y116750000D03*
D12*
X23100000Y115650000D03*
D20*
X102450000Y11300000D03*
D20*
X103550000Y11300000D03*
D16*
X-112300000Y30950000D03*
D16*
X-112300000Y29450000D03*
D14*
X47950000Y-80500000D03*
D14*
X49450000Y-80500000D03*
D14*
X84450000Y-6300000D03*
D14*
X85950000Y-6300000D03*
D11*
X-147000000Y30750000D03*
D11*
X-147000000Y31650000D03*
D14*
X90550000Y10400000D03*
D14*
X92050000Y10400000D03*
D12*
X24100000Y116750000D03*
D12*
X24100000Y115650000D03*
D22*
X122200000Y14050000D03*
D22*
X122200000Y15150000D03*
D28*
X-15700000Y-22300000D03*
D28*
X-15700000Y-20700000D03*
D13*
X98950000Y35100000D03*
D13*
X98050000Y35100000D03*
D12*
X21000000Y88150000D03*
D12*
X21000000Y87050000D03*
D20*
X97860000Y56430000D03*
D20*
X98960000Y56430000D03*
D12*
X20100000Y128750000D03*
D12*
X20100000Y127650000D03*
D11*
X-55100000Y66150000D03*
D11*
X-55100000Y67050000D03*
D12*
X32100000Y99850000D03*
D12*
X32100000Y98750000D03*
D12*
X33100000Y99850000D03*
D12*
X33100000Y98750000D03*
D13*
X92650000Y35300000D03*
D13*
X91750000Y35300000D03*
D16*
X-20200000Y62650000D03*
D16*
X-20200000Y61150000D03*
D13*
X92750000Y57300000D03*
D13*
X91850000Y57300000D03*
D12*
X-138600000Y44250000D03*
D12*
X-138600000Y43150000D03*
D12*
X86800000Y62450000D03*
D12*
X86800000Y61350000D03*
D24*
X90000000Y21350000D03*
D24*
X90000000Y22850000D03*
D12*
X87300000Y18350000D03*
D12*
X87300000Y17250000D03*
D12*
X16100000Y95950000D03*
D12*
X16100000Y94850000D03*
D12*
X22000000Y91950000D03*
D12*
X22000000Y90850000D03*
D20*
X84650000Y-10900000D03*
D20*
X85750000Y-10900000D03*
D11*
X-18700000Y88150000D03*
D11*
X-18700000Y89050000D03*
D12*
X-116400000Y56850000D03*
D12*
X-116400000Y55750000D03*
D15*
X20899996Y56849994D03*
D15*
X20899996Y55949994D03*
D73*
X18830000Y65660000D03*
M02*
