%FSLAX46Y46*%
%MOMM*%
%AMPS22*
1,1,0.250000,0.000000,0.000000*
%
%ADD22PS22*%
%AMPS46*
1,1,0.400000,0.000000,0.000000*
%
%ADD46PS46*%
%AMPS30*
1,1,0.350000,0.000000,0.000000*
%
%ADD30PS30*%
%AMPS45*
21,1,0.890000,1.650000,0.000000,0.000000,90.000000*
%
%ADD45PS45*%
%AMPS44*
21,1,0.890000,1.650000,0.000000,0.000000,270.000000*
%
%ADD44PS44*%
%AMPS50*
21,1,0.450000,1.050000,0.000000,0.000000,0.000000*
%
%ADD50PS50*%
%AMPS51*
21,1,0.450000,1.050000,0.000000,0.000000,180.000000*
%
%ADD51PS51*%
%AMPS52*
21,1,0.600000,0.500000,0.000000,0.000000,0.000000*
%
%ADD52PS52*%
%AMPS43*
21,1,0.600000,0.500000,0.000000,0.000000,180.000000*
%
%ADD43PS43*%
%AMPS10*
21,1,0.650000,1.450000,0.000000,0.000000,90.000000*
%
%ADD10PS10*%
%AMPS11*
21,1,0.650000,1.450000,0.000000,0.000000,270.000000*
%
%ADD11PS11*%
%AMPS12*
21,1,0.690000,0.320000,0.000000,0.000000,0.000000*
%
%ADD12PS12*%
%AMPS37*
21,1,0.690000,0.320000,0.000000,0.000000,180.000000*
%
%ADD37PS37*%
%AMPS40*
21,1,0.890000,1.600000,0.000000,0.000000,90.000000*
%
%ADD40PS40*%
%AMPS39*
21,1,0.890000,1.600000,0.000000,0.000000,270.000000*
%
%ADD39PS39*%
%AMPS42*
21,1,0.220000,0.700000,0.000000,0.000000,0.000000*
%
%ADD42PS42*%
%AMPS48*
21,1,0.600000,1.500000,0.000000,0.000000,90.000000*
%
%ADD48PS48*%
%AMPS47*
21,1,0.600000,1.500000,0.000000,0.000000,270.000000*
%
%ADD47PS47*%
%AMPS41*
21,1,0.220000,0.450000,0.000000,0.000000,270.000000*
%
%ADD41PS41*%
%AMPS24*
21,1,0.700000,0.220000,0.000000,0.000000,180.000000*
%
%ADD24PS24*%
%AMPS23*
21,1,0.700000,0.220000,0.000000,0.000000,270.000000*
%
%ADD23PS23*%
%AMPS13*
21,1,0.690000,0.220000,0.000000,0.000000,0.000000*
%
%ADD13PS13*%
%AMPS15*
21,1,0.690000,0.220000,0.000000,0.000000,90.000000*
%
%ADD15PS15*%
%AMPS16*
21,1,0.690000,0.220000,0.000000,0.000000,180.000000*
%
%ADD16PS16*%
%AMPS14*
21,1,0.690000,0.220000,0.000000,0.000000,270.000000*
%
%ADD14PS14*%
%AMPS38*
21,1,0.320000,0.700000,0.000000,0.000000,90.000000*
%
%ADD38PS38*%
%AMPS27*
4,1,4,
0.150000,0.150000,
0.150000,1.250000,
1.250000,1.250000,
1.250000,0.150000,
0.150000,0.150000,
0
*
4,1,4,
0.150000,1.550000,
0.150000,2.650000,
1.250000,2.650000,
1.250000,1.550000,
0.150000,1.550000,
0
*
4,1,4,
1.550000,0.150000,
1.550000,1.250000,
2.650000,1.250000,
2.650000,0.150000,
1.550000,0.150000,
0
*
4,1,4,
0.150000,-2.650000,
0.150000,-1.550000,
1.250000,-1.550000,
1.250000,-2.650000,
0.150000,-2.650000,
0
*
4,1,4,
-1.250000,1.550000,
-1.250000,2.650000,
-0.150000,2.650000,
-0.150000,1.550000,
-1.250000,1.550000,
0
*
4,1,4,
1.550000,-2.650000,
1.550000,-1.550000,
2.650000,-1.550000,
2.650000,-2.650000,
1.550000,-2.650000,
0
*
4,1,4,
-2.650000,-1.250000,
-2.650000,-0.150000,
-1.550000,-0.150000,
-1.550000,-1.250000,
-2.650000,-1.250000,
0
*
4,1,4,
-2.650000,0.150000,
-2.650000,1.250000,
-1.550000,1.250000,
-1.550000,0.150000,
-2.650000,0.150000,
0
*
4,1,4,
-1.250000,-1.250000,
-1.250000,-0.150000,
-0.150000,-0.150000,
-0.150000,-1.250000,
-1.250000,-1.250000,
0
*
4,1,4,
1.550000,-1.250000,
1.550000,-0.150000,
2.650000,-0.150000,
2.650000,-1.250000,
1.550000,-1.250000,
0
*
4,1,4,
0.150000,-1.250000,
0.150000,-0.150000,
1.250000,-0.150000,
1.250000,-1.250000,
0.150000,-1.250000,
0
*
4,1,4,
-1.250000,0.150000,
-1.250000,1.250000,
-0.150000,1.250000,
-0.150000,0.150000,
-1.250000,0.150000,
0
*
4,1,4,
-2.650000,1.550000,
-2.650000,2.650000,
-1.550000,2.650000,
-1.550000,1.550000,
-2.650000,1.550000,
0
*
4,1,4,
-2.650000,-2.650000,
-2.650000,-1.550000,
-1.550000,-1.550000,
-1.550000,-2.650000,
-2.650000,-2.650000,
0
*
4,1,4,
-1.250000,-2.650000,
-1.250000,-1.550000,
-0.150000,-1.550000,
-0.150000,-2.650000,
-1.250000,-2.650000,
0
*
4,1,4,
1.550000,1.550000,
1.550000,2.650000,
2.650000,2.650000,
2.650000,1.550000,
1.550000,1.550000,
0
*
%
%ADD27PS27*%
%AMPS31*
1,1,0.100000,-0.200000,-0.050000*
1,1,0.100000,-0.200000,0.050000*
21,1,0.500000,0.100000,0.000000,0.000000,0.000000*
21,1,0.400000,0.200000,0.000000,0.000000,0.000000*
1,1,0.100000,0.200000,-0.050000*
1,1,0.100000,0.200000,0.050000*
%
%ADD31PS31*%
%AMPS32*
1,1,0.100000,0.200000,0.050000*
1,1,0.100000,0.200000,-0.050000*
21,1,0.500000,0.100000,0.000000,0.000000,180.000000*
21,1,0.400000,0.200000,0.000000,0.000000,180.000000*
1,1,0.100000,-0.200000,0.050000*
1,1,0.100000,-0.200000,-0.050000*
%
%ADD32PS32*%
%AMPS36*
1,1,0.200000,-0.900000,1.150000*
1,1,0.200000,0.900000,1.150000*
21,1,2.500000,1.800000,0.000000,0.000000,270.000000*
21,1,2.300000,2.000000,0.000000,0.000000,270.000000*
1,1,0.200000,-0.900000,-1.150000*
1,1,0.200000,0.900000,-1.150000*
%
%ADD36PS36*%
%AMPS21*
1,1,0.100000,-1.300000,-1.300000*
1,1,0.100000,-1.300000,1.300000*
21,1,2.700000,2.600000,0.000000,0.000000,0.000000*
21,1,2.600000,2.700000,0.000000,0.000000,0.000000*
1,1,0.100000,1.300000,-1.300000*
1,1,0.100000,1.300000,1.300000*
%
%ADD21PS21*%
%AMPS28*
1,1,0.100000,0.232500,0.050000*
1,1,0.100000,0.232500,-0.050000*
21,1,0.565000,0.100000,0.000000,0.000000,180.000000*
21,1,0.465000,0.200000,0.000000,0.000000,180.000000*
1,1,0.100000,-0.232500,0.050000*
1,1,0.100000,-0.232500,-0.050000*
%
%ADD28PS28*%
%AMPS33*
1,1,0.100000,0.400000,0.700000*
1,1,0.100000,0.400000,-0.700000*
21,1,0.900000,1.400000,0.000000,0.000000,180.000000*
21,1,0.800000,1.500000,0.000000,0.000000,180.000000*
1,1,0.100000,-0.400000,0.700000*
1,1,0.100000,-0.400000,-0.700000*
%
%ADD33PS33*%
%AMPS49*
1,1,0.200000,-0.400000,-0.275000*
1,1,0.200000,-0.400000,0.275000*
21,1,1.000000,0.550000,0.000000,0.000000,0.000000*
21,1,0.800000,0.750000,0.000000,0.000000,0.000000*
1,1,0.200000,0.400000,-0.275000*
1,1,0.200000,0.400000,0.275000*
%
%ADD49PS49*%
%AMPS29*
1,1,0.100000,0.232500,0.150000*
1,1,0.100000,0.232500,-0.150000*
21,1,0.565000,0.300000,0.000000,0.000000,180.000000*
21,1,0.465000,0.400000,0.000000,0.000000,180.000000*
1,1,0.100000,-0.232500,0.150000*
1,1,0.100000,-0.232500,-0.150000*
%
%ADD29PS29*%
%AMPS34*
1,1,0.200000,1.150000,-0.075000*
1,1,0.200000,-1.150000,-0.075000*
21,1,0.350000,2.300000,0.000000,0.000000,90.000000*
21,1,0.150000,2.500000,0.000000,0.000000,90.000000*
1,1,0.200000,1.150000,0.075000*
1,1,0.200000,-1.150000,0.075000*
%
%ADD34PS34*%
%AMPS35*
1,1,0.200000,-1.150000,0.075000*
1,1,0.200000,1.150000,0.075000*
21,1,0.350000,2.300000,0.000000,0.000000,270.000000*
21,1,0.150000,2.500000,0.000000,0.000000,270.000000*
1,1,0.200000,-1.150000,-0.075000*
1,1,0.200000,1.150000,-0.075000*
%
%ADD35PS35*%
%AMPS19*
1,1,0.350000,0.000000,-0.225000*
1,1,0.350000,0.000000,0.225000*
21,1,0.350000,0.450000,0.000000,0.000000,0.000000*
21,1,0.000000,0.800000,0.000000,0.000000,0.000000*
1,1,0.350000,0.000000,-0.225000*
1,1,0.350000,0.000000,0.225000*
%
%ADD19PS19*%
%AMPS17*
1,1,0.350000,0.225000,0.000000*
1,1,0.350000,-0.225000,0.000000*
21,1,0.350000,0.450000,0.000000,0.000000,90.000000*
21,1,0.000000,0.800000,0.000000,0.000000,90.000000*
1,1,0.350000,0.225000,0.000000*
1,1,0.350000,-0.225000,0.000000*
%
%ADD17PS17*%
%AMPS20*
1,1,0.350000,0.000000,0.225000*
1,1,0.350000,0.000000,-0.225000*
21,1,0.350000,0.450000,0.000000,0.000000,180.000000*
21,1,0.000000,0.800000,0.000000,0.000000,180.000000*
1,1,0.350000,0.000000,0.225000*
1,1,0.350000,0.000000,-0.225000*
%
%ADD20PS20*%
%AMPS18*
1,1,0.350000,-0.225000,0.000000*
1,1,0.350000,0.225000,0.000000*
21,1,0.350000,0.450000,0.000000,0.000000,270.000000*
21,1,0.000000,0.800000,0.000000,0.000000,270.000000*
1,1,0.350000,-0.225000,0.000000*
1,1,0.350000,0.225000,0.000000*
%
%ADD18PS18*%
%AMPS26*
4,1,4,
0.010000,0.005000,
0.010000,0.215000,
0.690000,0.215000,
0.690000,0.005000,
0.010000,0.005000,
0
*
4,1,4,
0.010000,0.405000,
0.010000,0.615000,
0.690000,0.615000,
0.690000,0.405000,
0.010000,0.405000,
0
*
%
%ADD26PS26*%
%AMPS25*
4,1,4,
-0.010000,-0.005000,
-0.010000,-0.215000,
-0.690000,-0.215000,
-0.690000,-0.005000,
-0.010000,-0.005000,
0
*
4,1,4,
-0.010000,-0.405000,
-0.010000,-0.615000,
-0.690000,-0.615000,
-0.690000,-0.405000,
-0.010000,-0.405000,
0
*
4,1,4,
-0.010000,-0.805000,
-0.010000,-1.015000,
-0.690000,-1.015000,
-0.690000,-0.805000,
-0.010000,-0.805000,
0
*
%
%ADD25PS25*%
G01*
G01*
%LPD*%
G75*
D10*
X128140000Y-14840000D03*
D11*
X128140000Y-12940000D03*
D11*
X126240000Y-14840000D03*
D11*
X126240000Y-12940000D03*
D11*
X126240000Y-13890000D03*
D10*
X128140000Y-13890000D03*
D12*
X-139955000Y42915000D03*
D13*
X-139955000Y43715000D03*
D14*
X-140610000Y42910000D03*
D15*
X-140610000Y44520000D03*
D16*
X-141265000Y43715000D03*
D16*
X-141265000Y44115000D03*
D16*
X-141265000Y44515000D03*
D16*
X-141265000Y42915000D03*
D13*
X-139955000Y43315000D03*
D16*
X-141265000Y43315000D03*
D13*
X-139955000Y44515000D03*
D13*
X-139955000Y44115000D03*
D17*
X56500000Y60425000D03*
D18*
X60500000Y59775000D03*
D17*
X56500000Y59775000D03*
D19*
X58825000Y62100000D03*
D19*
X57525000Y62100000D03*
D18*
X60500000Y61075000D03*
D17*
X56500000Y61075000D03*
D20*
X58175000Y58100000D03*
D19*
X58175000Y62100000D03*
D21*
X58500000Y60100000D03*
D18*
X60500000Y59125000D03*
D19*
X59475000Y62100000D03*
D17*
X56500000Y59125000D03*
D20*
X59475000Y58100000D03*
D20*
X58825000Y58100000D03*
D20*
X57525000Y58100000D03*
D18*
X60500000Y60425000D03*
D22*
X-129400000Y29500000D03*
D22*
X-129400000Y30000000D03*
D22*
X-128900000Y29000000D03*
D22*
X-128900000Y29500000D03*
D22*
X-129400000Y29000000D03*
D22*
X-128900000Y30000000D03*
D23*
X94500000Y60760000D03*
D23*
X93700000Y67640000D03*
D23*
X93700000Y60760000D03*
D24*
X98540000Y62800000D03*
D25*
X92010000Y62510000D03*
D23*
X95300000Y60760000D03*
D24*
X98540000Y65200000D03*
D23*
X95700000Y67640000D03*
D24*
X98540000Y66400000D03*
D23*
X97300000Y67640000D03*
D23*
X94100000Y67640000D03*
D23*
X95300000Y67640000D03*
D23*
X92900000Y67640000D03*
D23*
X92900000Y60760000D03*
D24*
X98540000Y63200000D03*
D26*
X98190000Y64290000D03*
D26*
X98190000Y63490000D03*
D23*
X94900000Y60760000D03*
D23*
X96100000Y67640000D03*
D23*
X95700000Y60760000D03*
D23*
X97700000Y60760000D03*
D23*
X92500000Y67640000D03*
D23*
X96500000Y60760000D03*
D24*
X98540000Y66800000D03*
D23*
X96900000Y67640000D03*
D23*
X96900000Y60760000D03*
D23*
X96500000Y67640000D03*
D24*
X98540000Y62000000D03*
D24*
X98540000Y66000000D03*
D23*
X94900000Y67640000D03*
D24*
X98540000Y65600000D03*
D25*
X92010000Y64110000D03*
D23*
X97700000Y67640000D03*
D23*
X94100000Y60760000D03*
D23*
X97300000Y60760000D03*
D24*
X98540000Y62400000D03*
D23*
X94500000Y67640000D03*
D23*
X92500000Y60760000D03*
D27*
X95100000Y64200000D03*
D23*
X93300000Y60760000D03*
D25*
X92010000Y65310000D03*
D24*
X98540000Y61600000D03*
D24*
X91660000Y65600000D03*
D25*
X92010000Y66910000D03*
D24*
X91660000Y62800000D03*
D23*
X93300000Y67640000D03*
D23*
X96100000Y60760000D03*
D28*
X34282500Y-28300000D03*
D28*
X35117500Y-26300000D03*
D28*
X35117500Y-27800000D03*
D29*
X34282500Y-27300000D03*
D28*
X34282500Y-26300000D03*
D28*
X35117500Y-26800000D03*
D28*
X34282500Y-26800000D03*
D28*
X35117500Y-28300000D03*
D29*
X35117500Y-27300000D03*
D28*
X34282500Y-27800000D03*
D30*
X18440000Y70080000D03*
D30*
X20840000Y75680000D03*
D30*
X32840000Y66880000D03*
D30*
X29640000Y66080000D03*
D30*
X20040000Y67680000D03*
D30*
X32040000Y71680000D03*
D30*
X28040000Y71680000D03*
D30*
X29640000Y72480000D03*
D30*
X28040000Y78880000D03*
D30*
X24040000Y72480000D03*
D30*
X24840000Y70080000D03*
D30*
X23240000Y69280000D03*
D30*
X26440000Y71680000D03*
D30*
X32040000Y75680000D03*
D30*
X23240000Y67680000D03*
D30*
X22440000Y71680000D03*
D30*
X23240000Y66880000D03*
D30*
X33640000Y66880000D03*
D30*
X22440000Y72480000D03*
D30*
X30440000Y64480000D03*
D30*
X18440000Y67680000D03*
D30*
X25640000Y65280000D03*
D30*
X22440000Y77280000D03*
D30*
X18440000Y65280000D03*
D30*
X32040000Y67680000D03*
D30*
X33640000Y78080000D03*
D30*
X28840000Y67680000D03*
D30*
X18440000Y76480000D03*
D30*
X32840000Y77280000D03*
D30*
X21640000Y66080000D03*
D30*
X20040000Y70880000D03*
D30*
X19240000Y75680000D03*
D30*
X32840000Y76480000D03*
D30*
X19240000Y78880000D03*
D30*
X26440000Y74080000D03*
D30*
X21640000Y76480000D03*
D30*
X21640000Y67680000D03*
D30*
X27240000Y66880000D03*
D30*
X22440000Y66880000D03*
D30*
X25640000Y70080000D03*
D30*
X32840000Y79680000D03*
D30*
X21640000Y74080000D03*
D30*
X32840000Y74080000D03*
D30*
X29640000Y73280000D03*
D30*
X19240000Y64480000D03*
D30*
X28040000Y75680000D03*
D30*
X28840000Y64480000D03*
D30*
X20840000Y70080000D03*
D30*
X20040000Y74880000D03*
D30*
X28040000Y79680000D03*
D30*
X29640000Y75680000D03*
D30*
X23240000Y78080000D03*
D30*
X25640000Y74080000D03*
D30*
X31240000Y71680000D03*
D30*
X22440000Y67680000D03*
D30*
X20840000Y65280000D03*
D30*
X33640000Y74880000D03*
D30*
X28840000Y65280000D03*
D30*
X33640000Y76480000D03*
D30*
X23240000Y70080000D03*
D30*
X28040000Y67680000D03*
D30*
X20840000Y79680000D03*
D30*
X23240000Y66080000D03*
D30*
X29640000Y66880000D03*
D30*
X24840000Y76480000D03*
D30*
X18440000Y70880000D03*
D30*
X29640000Y71680000D03*
D30*
X24840000Y65280000D03*
D30*
X27240000Y72480000D03*
D30*
X24840000Y67680000D03*
D30*
X20040000Y77280000D03*
D30*
X18440000Y74080000D03*
D30*
X25640000Y67680000D03*
D30*
X28840000Y66880000D03*
D30*
X26440000Y76480000D03*
D30*
X27240000Y70080000D03*
D30*
X24040000Y73280000D03*
D30*
X24040000Y67680000D03*
D30*
X32840000Y73280000D03*
D30*
X29640000Y78880000D03*
D30*
X27240000Y69280000D03*
D30*
X20040000Y69280000D03*
D30*
X30440000Y66080000D03*
D30*
X33640000Y67680000D03*
D30*
X24840000Y70880000D03*
D30*
X20840000Y69280000D03*
D30*
X32840000Y71680000D03*
D30*
X18440000Y71680000D03*
D30*
X24040000Y78880000D03*
D30*
X31240000Y74880000D03*
D30*
X29640000Y65280000D03*
D30*
X27240000Y71680000D03*
D30*
X28840000Y79680000D03*
D30*
X26440000Y72480000D03*
D30*
X29640000Y77280000D03*
D30*
X33640000Y68480000D03*
D30*
X28840000Y74880000D03*
D30*
X25640000Y70880000D03*
D30*
X26440000Y69280000D03*
D30*
X32840000Y75680000D03*
D30*
X27240000Y76480000D03*
D30*
X21640000Y70080000D03*
D30*
X20840000Y78080000D03*
D30*
X25640000Y74880000D03*
D30*
X30440000Y75680000D03*
D30*
X25640000Y73280000D03*
D30*
X23240000Y75680000D03*
D30*
X19240000Y73280000D03*
D30*
X21640000Y78880000D03*
D30*
X28040000Y74880000D03*
D30*
X19240000Y79680000D03*
D30*
X18440000Y66080000D03*
D30*
X24040000Y75680000D03*
D30*
X22440000Y78880000D03*
D30*
X18440000Y74880000D03*
D30*
X32040000Y66880000D03*
D30*
X26440000Y70080000D03*
D30*
X31240000Y70880000D03*
D30*
X32840000Y65280000D03*
D30*
X27240000Y70880000D03*
D30*
X28040000Y72480000D03*
D30*
X20840000Y74880000D03*
D30*
X32840000Y67680000D03*
D30*
X24840000Y78880000D03*
D30*
X22440000Y69280000D03*
D30*
X22440000Y65280000D03*
D30*
X23240000Y76480000D03*
D30*
X20040000Y71680000D03*
D30*
X18440000Y69280000D03*
D30*
X32040000Y70880000D03*
D30*
X23240000Y73280000D03*
D30*
X18440000Y77280000D03*
D30*
X28840000Y77280000D03*
D30*
X24840000Y74080000D03*
D30*
X31240000Y66080000D03*
D30*
X30440000Y78080000D03*
D30*
X26440000Y73280000D03*
D30*
X33640000Y74080000D03*
D30*
X26440000Y78080000D03*
D30*
X22440000Y76480000D03*
D30*
X31240000Y76480000D03*
D30*
X32040000Y76480000D03*
D30*
X24840000Y75680000D03*
D30*
X32040000Y74080000D03*
D30*
X20040000Y78880000D03*
D30*
X21640000Y71680000D03*
D30*
X33640000Y78880000D03*
D30*
X29640000Y74080000D03*
D30*
X32040000Y66080000D03*
D30*
X19240000Y70080000D03*
D30*
X23240000Y71680000D03*
D30*
X18440000Y78880000D03*
D30*
X26440000Y75680000D03*
D30*
X25640000Y71680000D03*
D30*
X32040000Y78080000D03*
D30*
X19240000Y74080000D03*
D30*
X30440000Y78880000D03*
D30*
X28040000Y70080000D03*
D30*
X24840000Y74880000D03*
D30*
X32040000Y69280000D03*
D30*
X26440000Y64480000D03*
D30*
X29640000Y64480000D03*
D30*
X22440000Y79680000D03*
D30*
X32840000Y78880000D03*
D30*
X24040000Y76480000D03*
D30*
X24840000Y71680000D03*
D30*
X19240000Y67680000D03*
D30*
X18440000Y73280000D03*
D30*
X20840000Y71680000D03*
D30*
X25640000Y79680000D03*
D30*
X24040000Y74880000D03*
D30*
X20040000Y66080000D03*
D30*
X25640000Y78080000D03*
D30*
X21640000Y79680000D03*
D30*
X24040000Y71680000D03*
D30*
X32840000Y74880000D03*
D30*
X26440000Y78880000D03*
D30*
X32840000Y70880000D03*
D30*
X20040000Y73280000D03*
D30*
X18440000Y68480000D03*
D30*
X24840000Y79680000D03*
D30*
X28840000Y73280000D03*
D30*
X24040000Y77280000D03*
D30*
X28840000Y76480000D03*
D30*
X32840000Y64480000D03*
D30*
X32840000Y78080000D03*
D30*
X18440000Y66880000D03*
D30*
X22440000Y64480000D03*
D30*
X19240000Y66880000D03*
D30*
X27240000Y73280000D03*
D30*
X24840000Y77280000D03*
D30*
X27240000Y67680000D03*
D30*
X30440000Y70880000D03*
D30*
X28040000Y78080000D03*
D30*
X30440000Y69280000D03*
D30*
X27240000Y78080000D03*
D30*
X30440000Y66880000D03*
D30*
X32040000Y77280000D03*
D30*
X28040000Y69280000D03*
D30*
X30440000Y74080000D03*
D30*
X27240000Y79680000D03*
D30*
X27240000Y65280000D03*
D30*
X23240000Y79680000D03*
D30*
X21640000Y66880000D03*
D30*
X28840000Y72480000D03*
D30*
X21640000Y65280000D03*
D30*
X19240000Y71680000D03*
D30*
X20840000Y76480000D03*
D30*
X31240000Y67680000D03*
D30*
X30440000Y76480000D03*
D30*
X33640000Y69280000D03*
D30*
X20040000Y75680000D03*
D30*
X31240000Y66880000D03*
D30*
X30440000Y68480000D03*
D30*
X23240000Y74880000D03*
D30*
X20040000Y78080000D03*
D30*
X20840000Y74080000D03*
D30*
X19240000Y65280000D03*
D30*
X28040000Y73280000D03*
D30*
X20840000Y70880000D03*
D30*
X27240000Y78880000D03*
D30*
X24040000Y66080000D03*
D30*
X31240000Y65280000D03*
D30*
X24840000Y66880000D03*
D30*
X28840000Y78080000D03*
D30*
X33640000Y70880000D03*
D30*
X24840000Y72480000D03*
D30*
X25640000Y72480000D03*
D30*
X26440000Y77280000D03*
D30*
X23240000Y78880000D03*
D30*
X22440000Y70080000D03*
D30*
X20040000Y76480000D03*
D30*
X28040000Y74080000D03*
D30*
X23240000Y70880000D03*
D30*
X31240000Y70080000D03*
D30*
X19240000Y76480000D03*
D30*
X31240000Y79680000D03*
D30*
X28840000Y75680000D03*
D30*
X31240000Y74080000D03*
D30*
X24040000Y74080000D03*
D30*
X28840000Y78880000D03*
D30*
X21640000Y74880000D03*
D30*
X24040000Y79680000D03*
D30*
X31240000Y64480000D03*
D30*
X20040000Y66880000D03*
D30*
X28840000Y74080000D03*
D30*
X28040000Y65280000D03*
D30*
X19240000Y78080000D03*
D30*
X20040000Y70080000D03*
D30*
X20840000Y68480000D03*
D30*
X31240000Y75680000D03*
D30*
X28840000Y71680000D03*
D30*
X32040000Y68480000D03*
D30*
X25640000Y75680000D03*
D30*
X19240000Y68480000D03*
D30*
X24040000Y69280000D03*
D30*
X32040000Y65280000D03*
D30*
X26440000Y66880000D03*
D30*
X33640000Y73280000D03*
D30*
X31240000Y77280000D03*
D30*
X32840000Y69280000D03*
D30*
X20840000Y66880000D03*
D30*
X29640000Y74880000D03*
D30*
X29640000Y67680000D03*
D30*
X21640000Y64480000D03*
D30*
X21640000Y73280000D03*
D30*
X26440000Y65280000D03*
D30*
X31240000Y73280000D03*
D30*
X29640000Y76480000D03*
D30*
X31240000Y72480000D03*
D30*
X22440000Y74880000D03*
D30*
X32840000Y68480000D03*
D30*
X20840000Y77280000D03*
D30*
X27240000Y75680000D03*
D30*
X20040000Y74080000D03*
D30*
X20040000Y79680000D03*
D30*
X25640000Y78880000D03*
D30*
X24840000Y69280000D03*
D30*
X30440000Y72480000D03*
D30*
X24840000Y73280000D03*
D30*
X31240000Y78880000D03*
D30*
X23240000Y64480000D03*
D30*
X27240000Y74880000D03*
D30*
X25640000Y66080000D03*
D30*
X20840000Y73280000D03*
D30*
X19240000Y74880000D03*
D30*
X29640000Y69280000D03*
D30*
X22440000Y74080000D03*
D30*
X24840000Y78080000D03*
D30*
X21640000Y69280000D03*
D30*
X23240000Y74080000D03*
D30*
X27240000Y64480000D03*
D30*
X24040000Y66880000D03*
D30*
X21640000Y68480000D03*
D30*
X28040000Y76480000D03*
D30*
X19240000Y72480000D03*
D30*
X33640000Y71680000D03*
D30*
X19240000Y77280000D03*
D30*
X18440000Y72480000D03*
D30*
X33640000Y66080000D03*
D30*
X19240000Y69280000D03*
D30*
X20040000Y72480000D03*
D30*
X21640000Y70880000D03*
D30*
X33640000Y77280000D03*
D30*
X22440000Y70880000D03*
D30*
X25640000Y76480000D03*
D30*
X30440000Y65280000D03*
D30*
X32040000Y70080000D03*
D30*
X28040000Y77280000D03*
D30*
X30440000Y79680000D03*
D30*
X22440000Y66080000D03*
D30*
X19240000Y66080000D03*
D30*
X30440000Y71680000D03*
D30*
X33640000Y75680000D03*
D30*
X30440000Y77280000D03*
D30*
X26440000Y74880000D03*
D30*
X25640000Y66880000D03*
D30*
X21640000Y72480000D03*
D30*
X29640000Y70880000D03*
D30*
X30440000Y67680000D03*
D30*
X24040000Y64480000D03*
D30*
X32040000Y78880000D03*
D30*
X32840000Y70080000D03*
D30*
X33640000Y70080000D03*
D30*
X18440000Y78080000D03*
D30*
X28840000Y70080000D03*
D30*
X32840000Y72480000D03*
D30*
X29640000Y79680000D03*
D30*
X22440000Y73280000D03*
D30*
X27240000Y66080000D03*
D30*
X20040000Y68480000D03*
D30*
X23240000Y77280000D03*
D30*
X28040000Y66880000D03*
D30*
X24040000Y70880000D03*
D30*
X28040000Y70880000D03*
D30*
X25640000Y77280000D03*
D30*
X31240000Y68480000D03*
D30*
X20840000Y67680000D03*
D30*
X20840000Y78880000D03*
D30*
X28840000Y66080000D03*
D30*
X26440000Y67680000D03*
D30*
X23240000Y65280000D03*
D30*
X20040000Y65280000D03*
D30*
X18440000Y75680000D03*
D30*
X24040000Y65280000D03*
D30*
X26440000Y79680000D03*
D30*
X24040000Y70080000D03*
D30*
X24840000Y66080000D03*
D30*
X30440000Y70080000D03*
D30*
X22440000Y75680000D03*
D30*
X22440000Y78080000D03*
D30*
X30440000Y74880000D03*
D30*
X32040000Y79680000D03*
D30*
X27240000Y74080000D03*
D30*
X19240000Y70880000D03*
D30*
X32040000Y74880000D03*
D30*
X21640000Y77280000D03*
D30*
X30440000Y73280000D03*
D30*
X28040000Y66080000D03*
D30*
X26440000Y70880000D03*
D30*
X33640000Y72480000D03*
D30*
X32040000Y72480000D03*
D30*
X29640000Y78080000D03*
D30*
X24040000Y78080000D03*
D30*
X28840000Y69280000D03*
D30*
X23240000Y72480000D03*
D30*
X20840000Y66080000D03*
D30*
X20840000Y72480000D03*
D30*
X29640000Y70080000D03*
D30*
X31240000Y78080000D03*
D30*
X26440000Y66080000D03*
D30*
X25640000Y69280000D03*
D30*
X31240000Y69280000D03*
D30*
X20040000Y64480000D03*
D30*
X28840000Y70880000D03*
D30*
X32840000Y66080000D03*
D30*
X21640000Y78080000D03*
D30*
X33640000Y65280000D03*
D30*
X32040000Y73280000D03*
D30*
X27240000Y77280000D03*
D30*
X21640000Y75680000D03*
D10*
X129100000Y13740000D03*
D11*
X129100000Y15640000D03*
D11*
X127200000Y13740000D03*
D11*
X127200000Y15640000D03*
D11*
X127200000Y14690000D03*
D10*
X129100000Y14690000D03*
D31*
X-136390000Y74650000D03*
D32*
X-134490000Y73850000D03*
D31*
X-136390000Y75050000D03*
D33*
X-135440000Y74250000D03*
D32*
X-134490000Y73450000D03*
D32*
X-134490000Y74250000D03*
D31*
X-136390000Y73850000D03*
D31*
X-136390000Y74250000D03*
D32*
X-134490000Y74650000D03*
D32*
X-134490000Y75050000D03*
D31*
X-136390000Y73450000D03*
D17*
X56400000Y76325000D03*
D18*
X60400000Y75675000D03*
D17*
X56400000Y75675000D03*
D19*
X58725000Y78000000D03*
D19*
X57425000Y78000000D03*
D18*
X60400000Y76975000D03*
D17*
X56400000Y76975000D03*
D20*
X58075000Y74000000D03*
D19*
X58075000Y78000000D03*
D21*
X58400000Y76000000D03*
D18*
X60400000Y75025000D03*
D19*
X59375000Y78000000D03*
D17*
X56400000Y75025000D03*
D20*
X59375000Y74000000D03*
D20*
X58725000Y74000000D03*
D20*
X57425000Y74000000D03*
D18*
X60400000Y76325000D03*
D34*
X35889997Y-86547513D03*
D35*
X31189997Y-81467513D03*
D35*
X31189997Y-92262513D03*
D34*
X35889997Y-83372513D03*
D35*
X31189997Y-90992513D03*
D36*
X33540000Y-77765000D03*
D35*
X31189997Y-89087513D03*
D34*
X35889997Y-92262513D03*
D34*
X35889997Y-87817513D03*
D35*
X31189997Y-84007513D03*
D35*
X31189997Y-85277513D03*
D35*
X31189997Y-87182513D03*
D35*
X31189997Y-93532513D03*
D34*
X35889997Y-81467513D03*
D35*
X31189997Y-84642513D03*
D35*
X31189997Y-90357513D03*
D35*
X31189997Y-89722513D03*
D35*
X31189997Y-92897513D03*
D34*
X35889997Y-82102513D03*
D34*
X35889997Y-90992513D03*
D34*
X35889997Y-90357513D03*
D34*
X35889997Y-93532513D03*
D34*
X35889997Y-91627513D03*
D34*
X35889997Y-89722513D03*
D34*
X35889997Y-88452513D03*
D35*
X31189997Y-82102513D03*
D35*
X31189997Y-87817513D03*
D34*
X35889997Y-85277513D03*
D35*
X31189997Y-88452513D03*
D34*
X35889997Y-84007513D03*
D35*
X31189997Y-85912513D03*
D34*
X35889997Y-92897513D03*
D35*
X31189997Y-91627513D03*
D36*
X33540000Y-97235000D03*
D34*
X35889997Y-85912513D03*
D34*
X35889997Y-84642513D03*
D34*
X35889997Y-87182513D03*
D35*
X31189997Y-83372513D03*
D34*
X35889997Y-89087513D03*
D35*
X31189997Y-82737513D03*
D35*
X31189997Y-86547513D03*
D34*
X35889997Y-82737513D03*
D37*
X-114400000Y44300000D03*
D16*
X-114400000Y43500000D03*
D15*
X-113745000Y44305000D03*
D14*
X-113745000Y42695000D03*
D13*
X-113090000Y43500000D03*
D13*
X-113090000Y43100000D03*
D13*
X-113090000Y42700000D03*
D13*
X-113090000Y44300000D03*
D16*
X-114400000Y43900000D03*
D13*
X-113090000Y43900000D03*
D16*
X-114400000Y42700000D03*
D16*
X-114400000Y43100000D03*
D22*
X-114110000Y30260000D03*
D22*
X-114110000Y30760000D03*
D22*
X-113610000Y29760000D03*
D22*
X-113610000Y30260000D03*
D22*
X-114110000Y29760000D03*
D22*
X-113610000Y30760000D03*
D38*
X36990000Y-26650002D03*
D38*
X36990000Y-24650002D03*
D38*
X36990000Y-27150002D03*
D38*
X36990000Y-25150002D03*
D38*
X36990000Y-23150002D03*
D38*
X36990000Y-28150002D03*
D38*
X36990000Y-28650002D03*
D38*
X36990000Y-27650002D03*
D38*
X36990000Y-24150002D03*
D38*
X36990000Y-26150002D03*
D38*
X36990000Y-23650002D03*
D38*
X36990000Y-25650002D03*
D28*
X33882500Y27300000D03*
D28*
X34717500Y29300000D03*
D28*
X34717500Y27800000D03*
D29*
X33882500Y28300000D03*
D28*
X33882500Y29300000D03*
D28*
X34717500Y28800000D03*
D28*
X33882500Y28800000D03*
D28*
X34717500Y27300000D03*
D29*
X34717500Y28300000D03*
D28*
X33882500Y27800000D03*
D39*
X-96000000Y73300000D03*
D40*
X-93400000Y72030000D03*
D40*
X-93400000Y73300000D03*
D39*
X-96000000Y74570000D03*
D39*
X-96000000Y72030000D03*
D40*
X-93400000Y74570000D03*
D41*
X-112695000Y56090000D03*
D41*
X-114145000Y55690000D03*
D41*
X-112695000Y56490000D03*
D41*
X-112695000Y56890000D03*
D42*
X-113620000Y56890000D03*
D41*
X-114145000Y56490000D03*
D41*
X-114145000Y56090000D03*
D41*
X-114145000Y56890000D03*
D42*
X-113220000Y56890000D03*
D42*
X-113220000Y55690000D03*
D42*
X-113620000Y55690000D03*
D41*
X-112695000Y55690000D03*
D43*
X32100000Y-21500000D03*
D43*
X33100000Y-21500000D03*
D44*
X-42874995Y-36599999D03*
D45*
X-37724995Y-46599999D03*
D45*
X-37724995Y-38599999D03*
D45*
X-37724995Y-40599999D03*
D44*
X-42874995Y-44599999D03*
D45*
X-37724995Y-42599999D03*
D44*
X-42874995Y-46599999D03*
D45*
X-37724995Y-34599999D03*
D45*
X-37724995Y-48599999D03*
D45*
X-37724995Y-36599999D03*
D44*
X-42874995Y-38599999D03*
D44*
X-42874995Y-34599999D03*
D44*
X-42874995Y-40599999D03*
D44*
X-42874995Y-48599999D03*
D45*
X-37724995Y-44599999D03*
D44*
X-42874995Y-42599999D03*
D23*
X94660000Y16120000D03*
D23*
X93860000Y23000000D03*
D23*
X93860000Y16120000D03*
D24*
X98700000Y18160000D03*
D25*
X92170000Y17870000D03*
D23*
X95460000Y16120000D03*
D24*
X98700000Y20560000D03*
D23*
X95860000Y23000000D03*
D24*
X98700000Y21760000D03*
D23*
X97460000Y23000000D03*
D23*
X94260000Y23000000D03*
D23*
X95460000Y23000000D03*
D23*
X93060000Y23000000D03*
D23*
X93060000Y16120000D03*
D24*
X98700000Y18560000D03*
D26*
X98350000Y19650000D03*
D26*
X98350000Y18850000D03*
D23*
X95060000Y16120000D03*
D23*
X96260000Y23000000D03*
D23*
X95860000Y16120000D03*
D23*
X97860000Y16120000D03*
D23*
X92660000Y23000000D03*
D23*
X96660000Y16120000D03*
D24*
X98700000Y22160000D03*
D23*
X97060000Y23000000D03*
D23*
X97060000Y16120000D03*
D23*
X96660000Y23000000D03*
D24*
X98700000Y17360000D03*
D24*
X98700000Y21360000D03*
D23*
X95060000Y23000000D03*
D24*
X98700000Y20960000D03*
D25*
X92170000Y19470000D03*
D23*
X97860000Y23000000D03*
D23*
X94260000Y16120000D03*
D23*
X97460000Y16120000D03*
D24*
X98700000Y17760000D03*
D23*
X94660000Y23000000D03*
D23*
X92660000Y16120000D03*
D27*
X95260000Y19560000D03*
D23*
X93460000Y16120000D03*
D25*
X92170000Y20670000D03*
D24*
X98700000Y16960000D03*
D24*
X91820000Y20960000D03*
D25*
X92170000Y22270000D03*
D24*
X91820000Y18160000D03*
D23*
X93460000Y23000000D03*
D23*
X96260000Y16120000D03*
D38*
X36990000Y25349998D03*
D38*
X36990000Y27349998D03*
D38*
X36990000Y24849998D03*
D38*
X36990000Y26849998D03*
D38*
X36990000Y28849998D03*
D38*
X36990000Y23849998D03*
D38*
X36990000Y23349998D03*
D38*
X36990000Y24349998D03*
D38*
X36990000Y27849998D03*
D38*
X36990000Y25849998D03*
D38*
X36990000Y28349998D03*
D38*
X36990000Y26349998D03*
D46*
X-12620000Y75010000D03*
D46*
X-11820000Y68610000D03*
D46*
X-11020000Y78210000D03*
D46*
X-11020000Y70210000D03*
D46*
X-15820000Y79010000D03*
D46*
X-11020000Y69410000D03*
D46*
X-16620000Y67010000D03*
D46*
X-11020000Y67010000D03*
D46*
X-17420000Y71010000D03*
D46*
X-15820000Y67010000D03*
D46*
X-16620000Y73410000D03*
D46*
X-11820000Y75010000D03*
D46*
X-11020000Y73410000D03*
D46*
X-11820000Y78210000D03*
D46*
X-12620000Y69410000D03*
D46*
X-16620000Y79010000D03*
D46*
X-12620000Y75810000D03*
D46*
X-17420000Y70210000D03*
D46*
X-12620000Y72610000D03*
D46*
X-12620000Y74210000D03*
D46*
X-12620000Y73410000D03*
D46*
X-15820000Y71810000D03*
D46*
X-16620000Y76610000D03*
D46*
X-15820000Y75010000D03*
D46*
X-16620000Y74210000D03*
D46*
X-16620000Y75810000D03*
D46*
X-16620000Y67810000D03*
D46*
X-11020000Y68610000D03*
D46*
X-12620000Y70210000D03*
D46*
X-11020000Y67810000D03*
D46*
X-11820000Y71810000D03*
D46*
X-15820000Y76610000D03*
D46*
X-16620000Y71010000D03*
D46*
X-11020000Y71810000D03*
D46*
X-11020000Y75810000D03*
D46*
X-11820000Y75810000D03*
D46*
X-15820000Y75810000D03*
D46*
X-11820000Y76610000D03*
D46*
X-11820000Y67010000D03*
D46*
X-16620000Y78210000D03*
D46*
X-12620000Y77410000D03*
D46*
X-11820000Y69410000D03*
D46*
X-11820000Y71010000D03*
D46*
X-11020000Y75010000D03*
D46*
X-16620000Y68610000D03*
D46*
X-17420000Y67010000D03*
D46*
X-12620000Y76610000D03*
D46*
X-17420000Y78210000D03*
D46*
X-11820000Y67810000D03*
D46*
X-12620000Y78210000D03*
D46*
X-17420000Y67810000D03*
D46*
X-11020000Y77410000D03*
D46*
X-12620000Y79010000D03*
D46*
X-11020000Y76610000D03*
D46*
X-11820000Y72610000D03*
D46*
X-11820000Y74210000D03*
D46*
X-11020000Y71010000D03*
D46*
X-17420000Y69410000D03*
D46*
X-15820000Y72610000D03*
D46*
X-15820000Y71010000D03*
D46*
X-11820000Y70210000D03*
D46*
X-16620000Y75010000D03*
D46*
X-15820000Y77410000D03*
D46*
X-16620000Y69410000D03*
D46*
X-16620000Y77410000D03*
D46*
X-15820000Y69410000D03*
D46*
X-11020000Y79010000D03*
D46*
X-11820000Y73410000D03*
D46*
X-15820000Y74210000D03*
D46*
X-17420000Y73410000D03*
D46*
X-17420000Y77410000D03*
D46*
X-12620000Y67810000D03*
D46*
X-12620000Y68610000D03*
D46*
X-15820000Y67810000D03*
D46*
X-15820000Y78210000D03*
D46*
X-17420000Y75010000D03*
D46*
X-17420000Y71810000D03*
D46*
X-11820000Y77410000D03*
D46*
X-17420000Y68610000D03*
D46*
X-11020000Y74210000D03*
D46*
X-15820000Y68610000D03*
D46*
X-17420000Y75810000D03*
D46*
X-17420000Y74210000D03*
D46*
X-11820000Y79010000D03*
D46*
X-12620000Y71010000D03*
D46*
X-12620000Y71810000D03*
D46*
X-17420000Y76610000D03*
D46*
X-16620000Y70210000D03*
D46*
X-17420000Y79010000D03*
D46*
X-16620000Y71810000D03*
D46*
X-15820000Y70210000D03*
D46*
X-15820000Y73410000D03*
D46*
X-17420000Y72610000D03*
D46*
X-12620000Y67010000D03*
D46*
X-11020000Y72610000D03*
D46*
X-16620000Y72610000D03*
D47*
X-95820000Y45175000D03*
D47*
X-95820000Y42635000D03*
D48*
X-90420000Y45175000D03*
D47*
X-95820000Y46445000D03*
D47*
X-95820000Y43905000D03*
D48*
X-90420000Y42635000D03*
D48*
X-90420000Y43905000D03*
D48*
X-90420000Y46445000D03*
D49*
X-60320000Y21805000D03*
D49*
X-54320000Y25555000D03*
D49*
X-54320000Y21805000D03*
D49*
X-60320000Y25555000D03*
D50*
X-57345000Y69355000D03*
D50*
X-57995000Y69355000D03*
D51*
X-55395000Y74905000D03*
D50*
X-53445000Y69355000D03*
D51*
X-56695000Y74905000D03*
D50*
X-55395000Y69355000D03*
D51*
X-50845000Y74905000D03*
D50*
X-54095000Y69355000D03*
D51*
X-51495000Y74905000D03*
D51*
X-57995000Y74905000D03*
D50*
X-56695000Y69355000D03*
D51*
X-57345000Y74905000D03*
D51*
X-53445000Y74905000D03*
D50*
X-54745000Y69355000D03*
D51*
X-52795000Y74905000D03*
D50*
X-52795000Y69355000D03*
D51*
X-52145000Y74905000D03*
D51*
X-54745000Y74905000D03*
D50*
X-51495000Y69355000D03*
D50*
X-52145000Y69355000D03*
D50*
X-56045000Y69355000D03*
D50*
X-50845000Y69355000D03*
D51*
X-54095000Y74905000D03*
D51*
X-56045000Y74905000D03*
D28*
X34282500Y-25200000D03*
D28*
X35117500Y-23200000D03*
D28*
X35117500Y-24700000D03*
D29*
X34282500Y-24200000D03*
D28*
X34282500Y-23200000D03*
D28*
X35117500Y-23700000D03*
D28*
X34282500Y-23700000D03*
D28*
X35117500Y-25200000D03*
D29*
X35117500Y-24200000D03*
D28*
X34282500Y-24700000D03*
D52*
X33800000Y30300000D03*
D52*
X32800000Y30300000D03*
D28*
X33882500Y24200000D03*
D28*
X34717500Y26200000D03*
D28*
X34717500Y24700000D03*
D29*
X33882500Y25200000D03*
D28*
X33882500Y26200000D03*
D28*
X34717500Y25700000D03*
D28*
X33882500Y25700000D03*
D28*
X34717500Y24200000D03*
D29*
X34717500Y25200000D03*
D28*
X33882500Y24700000D03*
D28*
X32082500Y25800000D03*
D28*
X32917500Y27800000D03*
D28*
X32917500Y26300000D03*
D29*
X32082500Y26800000D03*
D28*
X32082500Y27800000D03*
D28*
X32917500Y27300000D03*
D28*
X32082500Y27300000D03*
D28*
X32917500Y25800000D03*
D29*
X32917500Y26800000D03*
D28*
X32082500Y26300000D03*
D34*
X-37870003Y19792487D03*
D35*
X-42570003Y24872487D03*
D35*
X-42570003Y14077487D03*
D34*
X-37870003Y22967487D03*
D35*
X-42570003Y15347487D03*
D36*
X-40220000Y28575000D03*
D35*
X-42570003Y17252487D03*
D34*
X-37870003Y14077487D03*
D34*
X-37870003Y18522487D03*
D35*
X-42570003Y22332487D03*
D35*
X-42570003Y21062487D03*
D35*
X-42570003Y19157487D03*
D35*
X-42570003Y12807487D03*
D34*
X-37870003Y24872487D03*
D35*
X-42570003Y21697487D03*
D35*
X-42570003Y15982487D03*
D35*
X-42570003Y16617487D03*
D35*
X-42570003Y13442487D03*
D34*
X-37870003Y24237487D03*
D34*
X-37870003Y15347487D03*
D34*
X-37870003Y15982487D03*
D34*
X-37870003Y12807487D03*
D34*
X-37870003Y14712487D03*
D34*
X-37870003Y16617487D03*
D34*
X-37870003Y17887487D03*
D35*
X-42570003Y24237487D03*
D35*
X-42570003Y18522487D03*
D34*
X-37870003Y21062487D03*
D35*
X-42570003Y17887487D03*
D34*
X-37870003Y22332487D03*
D35*
X-42570003Y20427487D03*
D34*
X-37870003Y13442487D03*
D35*
X-42570003Y14712487D03*
D36*
X-40220000Y9105000D03*
D34*
X-37870003Y20427487D03*
D34*
X-37870003Y21697487D03*
D34*
X-37870003Y19157487D03*
D35*
X-42570003Y22967487D03*
D34*
X-37870003Y17252487D03*
D35*
X-42570003Y23602487D03*
D35*
X-42570003Y19792487D03*
D34*
X-37870003Y23602487D03*
D41*
X-125975000Y56025000D03*
D41*
X-127425000Y55625000D03*
D41*
X-125975000Y56425000D03*
D41*
X-125975000Y56825000D03*
D42*
X-126900000Y56825000D03*
D41*
X-127425000Y56425000D03*
D41*
X-127425000Y56025000D03*
D41*
X-127425000Y56825000D03*
D42*
X-126500000Y56825000D03*
D42*
X-126500000Y55625000D03*
D42*
X-126900000Y55625000D03*
D41*
X-125975000Y55625000D03*
D10*
X129030000Y39710000D03*
D11*
X129030000Y41610000D03*
D11*
X127130000Y39710000D03*
D11*
X127130000Y41610000D03*
D11*
X127130000Y40660000D03*
D10*
X129030000Y40660000D03*
D28*
X32382500Y-27000000D03*
D28*
X33217500Y-25000000D03*
D28*
X33217500Y-26500000D03*
D29*
X32382500Y-26000000D03*
D28*
X32382500Y-25000000D03*
D28*
X33217500Y-25500000D03*
D28*
X32382500Y-25500000D03*
D28*
X33217500Y-27000000D03*
D29*
X33217500Y-26000000D03*
D28*
X32382500Y-26500000D03*
D44*
X-42874995Y-20799999D03*
D45*
X-37724995Y-30799999D03*
D45*
X-37724995Y-22799999D03*
D45*
X-37724995Y-24799999D03*
D44*
X-42874995Y-28799999D03*
D45*
X-37724995Y-26799999D03*
D44*
X-42874995Y-30799999D03*
D45*
X-37724995Y-18799999D03*
D45*
X-37724995Y-32799999D03*
D45*
X-37724995Y-20799999D03*
D44*
X-42874995Y-22799999D03*
D44*
X-42874995Y-18799999D03*
D44*
X-42874995Y-24799999D03*
D44*
X-42874995Y-32799999D03*
D45*
X-37724995Y-28799999D03*
D44*
X-42874995Y-26799999D03*
D37*
X-128275000Y44620000D03*
D16*
X-128275000Y43820000D03*
D15*
X-127620000Y44625000D03*
D14*
X-127620000Y43015000D03*
D13*
X-126965000Y43820000D03*
D13*
X-126965000Y43420000D03*
D13*
X-126965000Y43020000D03*
D13*
X-126965000Y44620000D03*
D16*
X-128275000Y44220000D03*
D13*
X-126965000Y44220000D03*
D16*
X-128275000Y43020000D03*
D16*
X-128275000Y43420000D03*
D22*
X-147550000Y28700000D03*
D22*
X-147550000Y29200000D03*
D22*
X-147050000Y28200000D03*
D22*
X-147050000Y28700000D03*
D22*
X-147550000Y28200000D03*
D22*
X-147050000Y29200000D03*
M02*
