M48
FMAT,2
METRIC,TZ
T10C0.200
T5C0.400
T4C0.600
T2C0.700
T9C0.737
T6C0.850
T3C0.900
T7C1.000
T1C1.016
T8C2.350
%
G90
G05
M71
T10
X18.830Y65.660
T5
X38.300Y-26.300
X39.000Y-26.700
X39.000Y-28.300
X39.000Y-25.100
X38.300Y-25.500
X38.300Y-27.100
X39.000Y-23.500
X38.300Y-24.700
X39.000Y-27.500
X39.000Y-24.300
X38.300Y-23.100
X38.300Y-28.700
X38.300Y25.700
X39.000Y25.300
X39.000Y23.700
X39.000Y26.900
X38.300Y26.500
X38.300Y24.900
X39.000Y28.500
X38.300Y27.300
X39.000Y24.500
X39.000Y27.700
X38.300Y28.900
X38.300Y23.300
T4
X43.900Y-21.570G85X43.400Y-21.570
X39.150Y-30.230G85X38.650Y-30.230
X38.650Y-30.230G85X38.650Y-29.580
X39.150Y-21.570G85X38.650Y-21.570
X38.650Y-22.220G85X38.650Y-21.570
X43.900Y-30.230G85X43.400Y-30.230
X43.900Y30.430G85X43.400Y30.430
X39.150Y21.770G85X38.650Y21.770
X38.650Y21.770G85X38.650Y22.420
X39.150Y30.430G85X38.650Y30.430
X38.650Y29.780G85X38.650Y30.430
X43.900Y21.770G85X43.400Y21.770
T2
X33.540Y-95.185
X-9.500Y27.500
X-5.500Y25.000
X-16.500Y29.500
X-10.500Y23.000
X-22.500Y23.000
X-18.500Y23.000
X-19.500Y25.000
X-17.500Y25.000
X-6.500Y23.000
X-7.500Y25.000
X-20.500Y29.500
X-3.500Y27.500
X-7.500Y27.500
X-13.500Y25.000
X-3.500Y25.000
X-4.500Y29.500
X-18.500Y29.500
X-16.500Y23.000
X-6.500Y29.500
X-10.500Y29.500
X-22.500Y29.500
X-13.500Y27.500
X-20.500Y23.000
X-12.500Y29.500
X-11.500Y27.500
X-17.500Y27.500
X-19.500Y27.500
X-21.500Y25.000
X-21.500Y27.500
X-5.500Y27.500
X-12.500Y23.000
X-4.500Y23.000
X-8.500Y29.500
X-8.500Y23.000
X-11.500Y25.000
X-9.500Y25.000
X-40.220Y11.155
X19.500Y27.500
X23.500Y25.000
X12.500Y29.500
X18.500Y23.000
X6.500Y23.000
X10.500Y23.000
X9.500Y25.000
X11.500Y25.000
X22.500Y23.000
X21.500Y25.000
X8.500Y29.500
X25.500Y27.500
X21.500Y27.500
X15.500Y25.000
X25.500Y25.000
X24.500Y29.500
X10.500Y29.500
X12.500Y23.000
X22.500Y29.500
X18.500Y29.500
X6.500Y29.500
X15.500Y27.500
X8.500Y23.000
X16.500Y29.500
X17.500Y27.500
X11.500Y27.500
X9.500Y27.500
X7.500Y25.000
X7.500Y27.500
X23.500Y27.500
X16.500Y23.000
X24.500Y23.000
X20.500Y29.500
X20.500Y23.000
X17.500Y25.000
X19.500Y25.000
T9
X-56.835Y13.860
X-56.835Y12.590
X-56.835Y8.780
X-58.105Y13.860
X-58.105Y11.320
X-58.105Y10.050
X-56.835Y10.050
X-56.835Y11.320
X-58.105Y8.780
X-58.105Y12.590
T6
X37.650Y-29.500
X37.650Y22.500
X37.650Y-22.150G85X37.650Y-22.450
X37.650Y29.850G85X37.650Y29.550
T3
X33.540Y-79.815
X-40.220Y26.525
T7
X-41.300Y-40.600
X-39.300Y-38.600
X-39.300Y-40.600
X-41.300Y-38.600
X-39.300Y-44.600
X-41.300Y-36.600
X-39.300Y-36.600
X-39.300Y-34.600
X-39.300Y-48.600
X-41.300Y-46.600
X-41.300Y-34.600
X-39.300Y-42.600
X-41.300Y-48.600
X-41.300Y-42.600
X-39.300Y-46.600
X-41.300Y-44.600
X-57.750Y-7.810
X-57.750Y-0.190
X-57.750Y-2.730
X-57.750Y-5.270
X-57.840Y-20.260
X-57.840Y-12.640
X-57.840Y-15.180
X-57.840Y-17.720
X-41.300Y-24.800
X-39.300Y-22.800
X-39.300Y-24.800
X-41.300Y-22.800
X-39.300Y-28.800
X-41.300Y-20.800
X-39.300Y-20.800
X-39.300Y-18.800
X-39.300Y-32.800
X-41.300Y-30.800
X-41.300Y-18.800
X-39.300Y-26.800
X-41.300Y-32.800
X-41.300Y-26.800
X-39.300Y-30.800
X-41.300Y-28.800
T1
X42.532Y-15.741
X42.532Y17.741
T8
X-24.300Y26.250
X-15.150Y26.250
X4.700Y26.250
X13.850Y26.250
M30
