%FSLAX46Y46*%
%MOMM*%
%ADD11C,0.127000*%
%ADD10C,0.150000*%
G01*
G01*
%LPD*%
D10*
X56300000Y57900000D02*
X56300000Y58700000D01*
D10*
X60700000Y58700000D02*
X60700000Y57900000D01*
D10*
X60700000Y57900000D02*
X59900000Y57900000D01*
D10*
X59900000Y62300000D02*
X60700000Y62300000D01*
D10*
X60700000Y62300000D02*
X60700000Y61500000D01*
D10*
X57100000Y57900000D02*
X56300000Y57900000D01*
D10*
X57100000Y62300000D02*
X56300000Y62300000D01*
D10*
X61340476Y62559524D02*
X61340476Y63273808D01*
D10*
X61388096Y62416668D02*
X61340476Y62559524D01*
D10*
X61483332Y62321428D02*
X61388096Y62416668D01*
D10*
X61626192Y62273808D02*
X61483332Y62321428D01*
D10*
X61721428Y62273808D02*
X61626192Y62273808D01*
D10*
X61864284Y62321428D02*
X61721428Y62273808D01*
D10*
X61959524Y62416668D02*
X61864284Y62321428D01*
D10*
X62007144Y62559524D02*
X61959524Y62416668D01*
D10*
X62007144Y63273808D02*
X62007144Y62559524D01*
D10*
X62435716Y63226192D02*
X62578572Y63273808D01*
D10*
X62388096Y63130952D02*
X62435716Y63226192D01*
D10*
X62388096Y63035716D02*
X62388096Y63130952D01*
D10*
X62435716Y62940476D02*
X62388096Y63035716D01*
D10*
X62530952Y62892856D02*
X62435716Y62940476D01*
D10*
X62721428Y62845240D02*
X62530952Y62892856D01*
D10*
X62864284Y62797620D02*
X62721428Y62845240D01*
D10*
X62959524Y62702380D02*
X62864284Y62797620D01*
D10*
X63007144Y62607144D02*
X62959524Y62702380D01*
D10*
X63007144Y62464284D02*
X63007144Y62607144D01*
D10*
X62959524Y62369048D02*
X63007144Y62464284D01*
D10*
X62911904Y62321428D02*
X62959524Y62369048D01*
D10*
X62769048Y62273808D02*
X62911904Y62321428D01*
D10*
X62578572Y62273808D02*
X62769048Y62273808D01*
D10*
X62435716Y62321428D02*
X62578572Y62273808D01*
D10*
X62388096Y62369048D02*
X62435716Y62321428D01*
D10*
X62340476Y62464284D02*
X62388096Y62369048D01*
D10*
X62340476Y62607144D02*
X62340476Y62464284D01*
D10*
X62388096Y62702380D02*
X62340476Y62607144D01*
D10*
X62483332Y62797620D02*
X62388096Y62702380D01*
D10*
X62626192Y62845240D02*
X62483332Y62797620D01*
D10*
X62816668Y62892856D02*
X62626192Y62845240D01*
D10*
X62911904Y62940476D02*
X62816668Y62892856D01*
D10*
X62959524Y63035716D02*
X62911904Y62940476D01*
D10*
X62959524Y63130952D02*
X62959524Y63035716D01*
D10*
X62911904Y63226192D02*
X62959524Y63130952D01*
D10*
X62769048Y63273808D02*
X62911904Y63226192D01*
D10*
X62578572Y63273808D02*
X62769048Y63273808D01*
D10*
X63435716Y63226192D02*
X63578572Y63273808D01*
D10*
X63340476Y63083332D02*
X63435716Y63226192D01*
D10*
X63292856Y62845240D02*
X63340476Y63083332D01*
D10*
X63292856Y62702380D02*
X63292856Y62845240D01*
D10*
X63340476Y62464284D02*
X63292856Y62702380D01*
D10*
X63435716Y62321428D02*
X63340476Y62464284D01*
D10*
X63578572Y62273808D02*
X63435716Y62321428D01*
D10*
X63673808Y62273808D02*
X63578572Y62273808D01*
D10*
X63816668Y62321428D02*
X63673808Y62273808D01*
D10*
X63911904Y62464284D02*
X63816668Y62321428D01*
D10*
X63959524Y62702380D02*
X63911904Y62464284D01*
D10*
X63959524Y62845240D02*
X63959524Y62702380D01*
D10*
X63911904Y63083332D02*
X63959524Y62845240D01*
D10*
X63816668Y63226192D02*
X63911904Y63083332D01*
D10*
X63673808Y63273808D02*
X63816668Y63226192D01*
D10*
X63578572Y63273808D02*
X63673808Y63273808D01*
D10*
X64816668Y63226192D02*
X64864284Y63130952D01*
D10*
X64673808Y63273808D02*
X64816668Y63226192D01*
D10*
X64578572Y63273808D02*
X64673808Y63273808D01*
D10*
X64435716Y63226192D02*
X64578572Y63273808D01*
D10*
X64340476Y63083332D02*
X64435716Y63226192D01*
D10*
X64292856Y62845240D02*
X64340476Y63083332D01*
D10*
X64292856Y62607144D02*
X64292856Y62845240D01*
D10*
X64340476Y62416668D02*
X64292856Y62607144D01*
D10*
X64435716Y62321428D02*
X64340476Y62416668D01*
D10*
X64578572Y62273808D02*
X64435716Y62321428D01*
D10*
X64626192Y62273808D02*
X64578572Y62273808D01*
D10*
X64769048Y62321428D02*
X64626192Y62273808D01*
D10*
X64864284Y62416668D02*
X64769048Y62321428D01*
D10*
X64911904Y62559524D02*
X64864284Y62416668D01*
D10*
X64911904Y62607144D02*
X64911904Y62559524D01*
D10*
X64864284Y62750000D02*
X64911904Y62607144D01*
D10*
X64769048Y62845240D02*
X64864284Y62750000D01*
D10*
X64626192Y62892856D02*
X64769048Y62845240D01*
D10*
X64578572Y62892856D02*
X64626192Y62892856D01*
D10*
X64435716Y62845240D02*
X64578572Y62892856D01*
D10*
X64340476Y62750000D02*
X64435716Y62845240D01*
D10*
X64292856Y62607144D02*
X64340476Y62750000D01*
D10*
X-128500000Y29000000D02*
X-128500000Y29000000D01*
D10*
X-128750000Y30425000D02*
X-129550000Y30425000D01*
D10*
X-129550000Y28575000D02*
X-129550000Y28575000D01*
D10*
X-129550000Y28575000D02*
X-129550000Y28575000D01*
D10*
X-129550000Y28575000D02*
X-129550000Y28575000D01*
D10*
X-128750000Y28575000D02*
X-129550000Y28575000D01*
D10*
X-128100000Y29250000D02*
X-128500000Y29000000D01*
D10*
X-128500000Y29000000D02*
X-128500000Y29000000D01*
D10*
X-128500000Y29000000D02*
X-128100000Y28750000D01*
D10*
X-128100000Y28750000D02*
X-128100000Y29250000D01*
D10*
X-129550000Y28575000D02*
X-129550000Y28575000D01*
D10*
X-129550000Y28575000D02*
X-129550000Y28575000D01*
D10*
X-130584520Y31209524D02*
X-130584520Y31923810D01*
D10*
X-130536904Y31066666D02*
X-130584520Y31209524D01*
D10*
X-130441664Y30971428D02*
X-130536904Y31066666D01*
D10*
X-130298808Y30923810D02*
X-130441664Y30971428D01*
D10*
X-130203568Y30923810D02*
X-130298808Y30923810D01*
D10*
X-130060712Y30971428D02*
X-130203568Y30923810D01*
D10*
X-129965480Y31066666D02*
X-130060712Y30971428D01*
D10*
X-129917856Y31209524D02*
X-129965480Y31066666D01*
D10*
X-129917856Y31923810D02*
X-129917856Y31209524D01*
D10*
X-129394048Y30923810D02*
X-128917856Y31923810D01*
D10*
X-128917856Y31923810D02*
X-129584520Y31923810D01*
D10*
X-128489288Y31876190D02*
X-128346432Y31923810D01*
D10*
X-128584520Y31733334D02*
X-128489288Y31876190D01*
D10*
X-128632144Y31495238D02*
X-128584520Y31733334D01*
D10*
X-128632144Y31352380D02*
X-128632144Y31495238D01*
D10*
X-128584520Y31114286D02*
X-128632144Y31352380D01*
D10*
X-128489288Y30971428D02*
X-128584520Y31114286D01*
D10*
X-128346432Y30923810D02*
X-128489288Y30971428D01*
D10*
X-128251192Y30923810D02*
X-128346432Y30923810D01*
D10*
X-128108336Y30971428D02*
X-128251192Y30923810D01*
D10*
X-128013096Y31114286D02*
X-128108336Y30971428D01*
D10*
X-127965480Y31352380D02*
X-128013096Y31114286D01*
D10*
X-127965480Y31495238D02*
X-127965480Y31352380D01*
D10*
X-128013096Y31733334D02*
X-127965480Y31495238D01*
D10*
X-128108336Y31876190D02*
X-128013096Y31733334D01*
D10*
X-128251192Y31923810D02*
X-128108336Y31876190D01*
D10*
X-128346432Y31923810D02*
X-128251192Y31923810D01*
D10*
X-127584520Y31923810D02*
X-127108336Y31923810D01*
D10*
X-127632144Y31495238D02*
X-127584520Y31923810D01*
D10*
X-127584520Y31542858D02*
X-127632144Y31495238D01*
D10*
X-127441664Y31590476D02*
X-127584520Y31542858D01*
D10*
X-127298808Y31590476D02*
X-127441664Y31590476D01*
D10*
X-127155952Y31542858D02*
X-127298808Y31590476D01*
D10*
X-127060712Y31447620D02*
X-127155952Y31542858D01*
D10*
X-127013096Y31304762D02*
X-127060712Y31447620D01*
D10*
X-127013096Y31209524D02*
X-127013096Y31304762D01*
D10*
X-127060712Y31066666D02*
X-127013096Y31209524D01*
D10*
X-127155952Y30971428D02*
X-127060712Y31066666D01*
D10*
X-127298808Y30923810D02*
X-127155952Y30971428D01*
D10*
X-127441664Y30923810D02*
X-127298808Y30923810D01*
D10*
X-127584520Y30971428D02*
X-127441664Y30923810D01*
D10*
X-127632144Y31019048D02*
X-127584520Y30971428D01*
D10*
X-127679760Y31114286D02*
X-127632144Y31019048D01*
D10*
X92190000Y60500000D02*
X91400000Y60500000D01*
D10*
X91400000Y60500000D02*
X91400000Y61290000D01*
D10*
X98010000Y67900000D02*
X98800000Y67900000D01*
D10*
X98800000Y67900000D02*
X98800000Y67110000D01*
D10*
X92190000Y67900000D02*
X91400000Y67900000D01*
D10*
X98800000Y60500000D02*
X98800000Y61290000D01*
D10*
X98010000Y60500000D02*
X98800000Y60500000D01*
D10*
X35050000Y-25850000D02*
X34350000Y-25850000D01*
D10*
X34350000Y-28750000D02*
X35350000Y-28750000D01*
D10*
X32633334Y-30176190D02*
X32633334Y-29176190D01*
D10*
X32966666Y-29176190D02*
X32633334Y-29176190D01*
D10*
X33109524Y-29223810D02*
X32966666Y-29176190D01*
D10*
X33204762Y-29319048D02*
X33109524Y-29223810D01*
D10*
X33252380Y-29414286D02*
X33204762Y-29319048D01*
D10*
X33300000Y-29557142D02*
X33252380Y-29414286D01*
D10*
X33300000Y-29795238D02*
X33300000Y-29557142D01*
D10*
X33252380Y-29938096D02*
X33300000Y-29795238D01*
D10*
X33204762Y-30033334D02*
X33252380Y-29938096D01*
D10*
X33109524Y-30128572D02*
X33204762Y-30033334D01*
D10*
X32966666Y-30176190D02*
X33109524Y-30128572D01*
D10*
X32633334Y-30176190D02*
X32966666Y-30176190D01*
D10*
X33776192Y-30176190D02*
X34252380Y-29176190D01*
D10*
X34252380Y-29176190D02*
X33585716Y-29176190D01*
D10*
X34680952Y-29223810D02*
X34823808Y-29176190D01*
D10*
X34585716Y-29366666D02*
X34680952Y-29223810D01*
D10*
X34538096Y-29604762D02*
X34585716Y-29366666D01*
D10*
X34538096Y-29747620D02*
X34538096Y-29604762D01*
D10*
X34585716Y-29985714D02*
X34538096Y-29747620D01*
D10*
X34680952Y-30128572D02*
X34585716Y-29985714D01*
D10*
X34823808Y-30176190D02*
X34680952Y-30128572D01*
D10*
X34919048Y-30176190D02*
X34823808Y-30176190D01*
D10*
X35061904Y-30128572D02*
X34919048Y-30176190D01*
D10*
X35157144Y-29985714D02*
X35061904Y-30128572D01*
D10*
X35204760Y-29747620D02*
X35157144Y-29985714D01*
D10*
X35204760Y-29604762D02*
X35204760Y-29747620D01*
D10*
X35157144Y-29366666D02*
X35204760Y-29604762D01*
D10*
X35061904Y-29223810D02*
X35157144Y-29366666D01*
D10*
X34919048Y-29176190D02*
X35061904Y-29223810D01*
D10*
X34823808Y-29176190D02*
X34919048Y-29176190D01*
D10*
X36109524Y-29176190D02*
X35585716Y-29176190D01*
D10*
X35823808Y-29557142D02*
X36109524Y-29176190D01*
D10*
X35966668Y-29557142D02*
X35823808Y-29557142D01*
D10*
X36061904Y-29604762D02*
X35966668Y-29557142D01*
D10*
X36109524Y-29652380D02*
X36061904Y-29604762D01*
D10*
X36157144Y-29795238D02*
X36109524Y-29652380D01*
D10*
X36157144Y-29890476D02*
X36157144Y-29795238D01*
D10*
X36109524Y-30033334D02*
X36157144Y-29890476D01*
D10*
X36014284Y-30128572D02*
X36109524Y-30033334D01*
D10*
X35871428Y-30176190D02*
X36014284Y-30128572D01*
D10*
X35728572Y-30176190D02*
X35871428Y-30176190D01*
D10*
X35585716Y-30128572D02*
X35728572Y-30176190D01*
D10*
X35538096Y-30080952D02*
X35585716Y-30128572D01*
D10*
X35490476Y-29985714D02*
X35538096Y-30080952D01*
D10*
X34815000Y63305000D02*
X31240000Y63305000D01*
D10*
X34815000Y80855000D02*
X34815000Y77280000D01*
D10*
X17265000Y80855000D02*
X20840000Y80855000D01*
D10*
X34815000Y80855000D02*
X31240000Y80855000D01*
D10*
X17265000Y63305000D02*
X20840000Y63305000D01*
D10*
X17265000Y63305000D02*
X17265000Y66880000D01*
D10*
X34815000Y63305000D02*
X34815000Y66880000D01*
D10*
X25005476Y62139524D02*
X25005476Y62853808D01*
D10*
X25053096Y61996668D02*
X25005476Y62139524D01*
D10*
X25148334Y61901428D02*
X25053096Y61996668D01*
D10*
X25291190Y61853808D02*
X25148334Y61901428D01*
D10*
X25386428Y61853808D02*
X25291190Y61853808D01*
D10*
X25529286Y61901428D02*
X25386428Y61853808D01*
D10*
X25624524Y61996668D02*
X25529286Y61901428D01*
D10*
X25672142Y62139524D02*
X25624524Y61996668D01*
D10*
X25672142Y62853808D02*
X25672142Y62139524D01*
D10*
X26053096Y62663332D02*
X26053096Y62615716D01*
D10*
X26100714Y62758572D02*
X26053096Y62663332D01*
D10*
X26148334Y62806192D02*
X26100714Y62758572D01*
D10*
X26243572Y62853808D02*
X26148334Y62806192D01*
D10*
X26434048Y62853808D02*
X26243572Y62853808D01*
D10*
X26529286Y62806192D02*
X26434048Y62853808D01*
D10*
X26576904Y62758572D02*
X26529286Y62806192D01*
D10*
X26624524Y62663332D02*
X26576904Y62758572D01*
D10*
X26624524Y62568096D02*
X26624524Y62663332D01*
D10*
X26576904Y62472856D02*
X26624524Y62568096D01*
D10*
X26481666Y62330000D02*
X26576904Y62472856D01*
D10*
X26005476Y61853808D02*
X26481666Y62330000D01*
D10*
X26672142Y61853808D02*
X26005476Y61853808D01*
D10*
X27100714Y62806192D02*
X27243572Y62853808D01*
D10*
X27005476Y62663332D02*
X27100714Y62806192D01*
D10*
X26957856Y62425240D02*
X27005476Y62663332D01*
D10*
X26957856Y62282380D02*
X26957856Y62425240D01*
D10*
X27005476Y62044284D02*
X26957856Y62282380D01*
D10*
X27100714Y61901428D02*
X27005476Y62044284D01*
D10*
X27243572Y61853808D02*
X27100714Y61901428D01*
D10*
X27338810Y61853808D02*
X27243572Y61853808D01*
D10*
X27481666Y61901428D02*
X27338810Y61853808D01*
D10*
X27576904Y62044284D02*
X27481666Y61901428D01*
D10*
X27624524Y62282380D02*
X27576904Y62044284D01*
D10*
X27624524Y62425240D02*
X27624524Y62282380D01*
D10*
X27576904Y62663332D02*
X27624524Y62425240D01*
D10*
X27481666Y62806192D02*
X27576904Y62663332D01*
D10*
X27338810Y62853808D02*
X27481666Y62806192D01*
D10*
X27243572Y62853808D02*
X27338810Y62853808D01*
D10*
X28148334Y62710952D02*
X28053096Y62663332D01*
D10*
X28291190Y62853808D02*
X28148334Y62710952D01*
D10*
X28291190Y61853808D02*
X28291190Y62853808D01*
D10*
X-12761905Y-10147619D02*
X-13523810Y-10147619D01*
D10*
X-12619048Y-10195238D02*
X-12761905Y-10147619D01*
D10*
X-12571429Y-10242857D02*
X-12619048Y-10195238D01*
D10*
X-12523810Y-10338095D02*
X-12571429Y-10242857D01*
D10*
X-12523810Y-10433334D02*
X-12523810Y-10338095D01*
D10*
X-12571429Y-10528572D02*
X-12523810Y-10433334D01*
D10*
X-12619048Y-10576190D02*
X-12571429Y-10528572D01*
D10*
X-12761905Y-10623810D02*
X-12619048Y-10576190D01*
D10*
X-12857143Y-10623810D02*
X-12761905Y-10623810D01*
D10*
X-12523810Y-9766666D02*
X-13523810Y-9766666D01*
D10*
X-13523810Y-9338095D02*
X-13523810Y-9766666D01*
D10*
X-13476190Y-9195238D02*
X-13523810Y-9338095D01*
D10*
X-13428571Y-9147619D02*
X-13476190Y-9195238D01*
D10*
X-13333333Y-9100000D02*
X-13428571Y-9147619D01*
D10*
X-13190476Y-9100000D02*
X-13333333Y-9100000D01*
D10*
X-13095238Y-9147619D02*
X-13190476Y-9100000D01*
D10*
X-13047619Y-9195238D02*
X-13095238Y-9147619D01*
D10*
X-13000000Y-9338095D02*
X-13047619Y-9195238D01*
D10*
X-13000000Y-9766666D02*
X-13000000Y-9338095D01*
D10*
X-13523810Y-8195238D02*
X-13523810Y-8719048D01*
D10*
X-13142857Y-8480952D02*
X-13523810Y-8195238D01*
D10*
X-13142857Y-8338095D02*
X-13142857Y-8480952D01*
D10*
X-13095238Y-8242857D02*
X-13142857Y-8338095D01*
D10*
X-13047619Y-8195238D02*
X-13095238Y-8242857D01*
D10*
X-12904762Y-8147619D02*
X-13047619Y-8195238D01*
D10*
X-12809524Y-8147619D02*
X-12904762Y-8147619D01*
D10*
X-12666667Y-8195238D02*
X-12809524Y-8147619D01*
D10*
X-12571429Y-8290476D02*
X-12666667Y-8195238D01*
D10*
X-12523810Y-8433333D02*
X-12571429Y-8290476D01*
D10*
X-12523810Y-8576190D02*
X-12523810Y-8433333D01*
D10*
X-12571429Y-8719048D02*
X-12523810Y-8576190D01*
D10*
X-12619048Y-8766666D02*
X-12571429Y-8719048D01*
D10*
X-12714286Y-8814286D02*
X-12619048Y-8766666D01*
D10*
X-13476190Y-7719047D02*
X-13523810Y-7576190D01*
D10*
X-13333333Y-7814286D02*
X-13476190Y-7719047D01*
D10*
X-13095238Y-7861905D02*
X-13333333Y-7814286D01*
D10*
X-12952381Y-7861905D02*
X-13095238Y-7861905D01*
D10*
X-12714286Y-7814286D02*
X-12952381Y-7861905D01*
D10*
X-12571429Y-7719047D02*
X-12714286Y-7814286D01*
D10*
X-12523810Y-7576190D02*
X-12571429Y-7719047D01*
D10*
X-12523810Y-7480952D02*
X-12523810Y-7576190D01*
D10*
X-12571429Y-7338095D02*
X-12523810Y-7480952D01*
D10*
X-12714286Y-7242857D02*
X-12571429Y-7338095D01*
D10*
X-12952381Y-7195238D02*
X-12714286Y-7242857D01*
D10*
X-13095238Y-7195238D02*
X-12952381Y-7195238D01*
D10*
X-13333333Y-7242857D02*
X-13095238Y-7195238D01*
D10*
X-13476190Y-7338095D02*
X-13333333Y-7242857D01*
D10*
X-13523810Y-7480952D02*
X-13476190Y-7338095D01*
D10*
X-13523810Y-7576190D02*
X-13523810Y-7480952D01*
D10*
X-13523810Y-6290476D02*
X-13523810Y-6814285D01*
D10*
X-13142857Y-6576190D02*
X-13523810Y-6290476D01*
D10*
X-13142857Y-6433333D02*
X-13142857Y-6576190D01*
D10*
X-13095238Y-6338095D02*
X-13142857Y-6433333D01*
D10*
X-13047619Y-6290476D02*
X-13095238Y-6338095D01*
D10*
X-12904762Y-6242857D02*
X-13047619Y-6290476D01*
D10*
X-12809524Y-6242857D02*
X-12904762Y-6242857D01*
D10*
X-12666667Y-6290476D02*
X-12809524Y-6242857D01*
D10*
X-12571429Y-6385714D02*
X-12666667Y-6290476D01*
D10*
X-12523810Y-6528571D02*
X-12571429Y-6385714D01*
D10*
X-12523810Y-6671428D02*
X-12523810Y-6528571D01*
D10*
X-12571429Y-6814285D02*
X-12523810Y-6671428D01*
D10*
X-12619048Y-6861905D02*
X-12571429Y-6814285D01*
D10*
X-12714286Y-6909524D02*
X-12619048Y-6861905D01*
D10*
X-134890000Y75400000D02*
X-135990000Y75400000D01*
D10*
X-135990000Y75400000D02*
X-136490000Y75400000D01*
D10*
X-135990000Y73100000D02*
X-134890000Y73100000D01*
D10*
X-135699520Y76109520D02*
X-135699520Y76823808D01*
D10*
X-135651904Y75966664D02*
X-135699520Y76109520D01*
D10*
X-135556672Y75871432D02*
X-135651904Y75966664D01*
D10*
X-135413808Y75823808D02*
X-135556672Y75871432D01*
D10*
X-135318576Y75823808D02*
X-135413808Y75823808D01*
D10*
X-135175712Y75871432D02*
X-135318576Y75823808D01*
D10*
X-135080480Y75966664D02*
X-135175712Y75871432D01*
D10*
X-135032864Y76109520D02*
X-135080480Y75966664D01*
D10*
X-135032864Y76823808D02*
X-135032864Y76109520D01*
D10*
X-134604288Y76776192D02*
X-134461424Y76823808D01*
D10*
X-134651904Y76680952D02*
X-134604288Y76776192D01*
D10*
X-134651904Y76585712D02*
X-134651904Y76680952D01*
D10*
X-134604288Y76490480D02*
X-134651904Y76585712D01*
D10*
X-134509040Y76442856D02*
X-134604288Y76490480D01*
D10*
X-134318576Y76395240D02*
X-134509040Y76442856D01*
D10*
X-134175712Y76347616D02*
X-134318576Y76395240D01*
D10*
X-134080480Y76252384D02*
X-134175712Y76347616D01*
D10*
X-134032856Y76157144D02*
X-134080480Y76252384D01*
D10*
X-134032856Y76014288D02*
X-134032856Y76157144D01*
D10*
X-134080480Y75919048D02*
X-134032856Y76014288D01*
D10*
X-134128096Y75871432D02*
X-134080480Y75919048D01*
D10*
X-134270960Y75823808D02*
X-134128096Y75871432D01*
D10*
X-134461424Y75823808D02*
X-134270960Y75823808D01*
D10*
X-134604288Y75871432D02*
X-134461424Y75823808D01*
D10*
X-134651904Y75919048D02*
X-134604288Y75871432D01*
D10*
X-134699520Y76014288D02*
X-134651904Y75919048D01*
D10*
X-134699520Y76157144D02*
X-134699520Y76014288D01*
D10*
X-134651904Y76252384D02*
X-134699520Y76157144D01*
D10*
X-134556672Y76347616D02*
X-134651904Y76252384D01*
D10*
X-134413808Y76395240D02*
X-134556672Y76347616D01*
D10*
X-134223328Y76442856D02*
X-134413808Y76395240D01*
D10*
X-134128096Y76490480D02*
X-134223328Y76442856D01*
D10*
X-134080480Y76585712D02*
X-134128096Y76490480D01*
D10*
X-134080480Y76680952D02*
X-134080480Y76585712D01*
D10*
X-134128096Y76776192D02*
X-134080480Y76680952D01*
D10*
X-134270960Y76823808D02*
X-134128096Y76776192D01*
D10*
X-134461424Y76823808D02*
X-134270960Y76823808D01*
D10*
X-133604288Y76776192D02*
X-133461432Y76823808D01*
D10*
X-133699520Y76633336D02*
X-133604288Y76776192D01*
D10*
X-133747144Y76395240D02*
X-133699520Y76633336D01*
D10*
X-133747144Y76252384D02*
X-133747144Y76395240D01*
D10*
X-133699520Y76014288D02*
X-133747144Y76252384D01*
D10*
X-133604288Y75871432D02*
X-133699520Y76014288D01*
D10*
X-133461432Y75823808D02*
X-133604288Y75871432D01*
D10*
X-133366192Y75823808D02*
X-133461432Y75823808D01*
D10*
X-133223336Y75871432D02*
X-133366192Y75823808D01*
D10*
X-133128096Y76014288D02*
X-133223336Y75871432D01*
D10*
X-133080480Y76252384D02*
X-133128096Y76014288D01*
D10*
X-133080480Y76395240D02*
X-133080480Y76252384D01*
D10*
X-133128096Y76633336D02*
X-133080480Y76395240D01*
D10*
X-133223336Y76776192D02*
X-133128096Y76633336D01*
D10*
X-133366192Y76823808D02*
X-133223336Y76776192D01*
D10*
X-133461432Y76823808D02*
X-133366192Y76823808D01*
D10*
X-132747144Y76633336D02*
X-132747144Y76585712D01*
D10*
X-132699520Y76728568D02*
X-132747144Y76633336D01*
D10*
X-132651904Y76776192D02*
X-132699520Y76728568D01*
D10*
X-132556664Y76823808D02*
X-132651904Y76776192D01*
D10*
X-132366192Y76823808D02*
X-132556664Y76823808D01*
D10*
X-132270952Y76776192D02*
X-132366192Y76823808D01*
D10*
X-132223336Y76728568D02*
X-132270952Y76776192D01*
D10*
X-132175712Y76633336D02*
X-132223336Y76728568D01*
D10*
X-132175712Y76538096D02*
X-132175712Y76633336D01*
D10*
X-132223336Y76442856D02*
X-132175712Y76538096D01*
D10*
X-132318568Y76300000D02*
X-132223336Y76442856D01*
D10*
X-132794760Y75823808D02*
X-132318568Y76300000D01*
D10*
X-132128096Y75823808D02*
X-132794760Y75823808D01*
D10*
X56200000Y73800000D02*
X56200000Y74600000D01*
D10*
X60600000Y74600000D02*
X60600000Y73800000D01*
D10*
X60600000Y73800000D02*
X59800000Y73800000D01*
D10*
X59800000Y78200000D02*
X60600000Y78200000D01*
D10*
X60600000Y78200000D02*
X60600000Y77400000D01*
D10*
X57000000Y73800000D02*
X56200000Y73800000D01*
D10*
X57000000Y78200000D02*
X56200000Y78200000D01*
D10*
X61240476Y78459520D02*
X61240476Y79173808D01*
D10*
X61288096Y78316664D02*
X61240476Y78459520D01*
D10*
X61383332Y78221432D02*
X61288096Y78316664D01*
D10*
X61526192Y78173808D02*
X61383332Y78221432D01*
D10*
X61621428Y78173808D02*
X61526192Y78173808D01*
D10*
X61764284Y78221432D02*
X61621428Y78173808D01*
D10*
X61859524Y78316664D02*
X61764284Y78221432D01*
D10*
X61907144Y78459520D02*
X61859524Y78316664D01*
D10*
X61907144Y79173808D02*
X61907144Y78459520D01*
D10*
X62335716Y79126192D02*
X62478572Y79173808D01*
D10*
X62288096Y79030952D02*
X62335716Y79126192D01*
D10*
X62288096Y78935712D02*
X62288096Y79030952D01*
D10*
X62335716Y78840480D02*
X62288096Y78935712D01*
D10*
X62430952Y78792856D02*
X62335716Y78840480D01*
D10*
X62621428Y78745240D02*
X62430952Y78792856D01*
D10*
X62764284Y78697616D02*
X62621428Y78745240D01*
D10*
X62859524Y78602384D02*
X62764284Y78697616D01*
D10*
X62907144Y78507144D02*
X62859524Y78602384D01*
D10*
X62907144Y78364288D02*
X62907144Y78507144D01*
D10*
X62859524Y78269048D02*
X62907144Y78364288D01*
D10*
X62811904Y78221432D02*
X62859524Y78269048D01*
D10*
X62669048Y78173808D02*
X62811904Y78221432D01*
D10*
X62478572Y78173808D02*
X62669048Y78173808D01*
D10*
X62335716Y78221432D02*
X62478572Y78173808D01*
D10*
X62288096Y78269048D02*
X62335716Y78221432D01*
D10*
X62240476Y78364288D02*
X62288096Y78269048D01*
D10*
X62240476Y78507144D02*
X62240476Y78364288D01*
D10*
X62288096Y78602384D02*
X62240476Y78507144D01*
D10*
X62383332Y78697616D02*
X62288096Y78602384D01*
D10*
X62526192Y78745240D02*
X62383332Y78697616D01*
D10*
X62716668Y78792856D02*
X62526192Y78745240D01*
D10*
X62811904Y78840480D02*
X62716668Y78792856D01*
D10*
X62859524Y78935712D02*
X62811904Y78840480D01*
D10*
X62859524Y79030952D02*
X62859524Y78935712D01*
D10*
X62811904Y79126192D02*
X62859524Y79030952D01*
D10*
X62669048Y79173808D02*
X62811904Y79126192D01*
D10*
X62478572Y79173808D02*
X62669048Y79173808D01*
D10*
X63335716Y79126192D02*
X63478572Y79173808D01*
D10*
X63240476Y78983336D02*
X63335716Y79126192D01*
D10*
X63192856Y78745240D02*
X63240476Y78983336D01*
D10*
X63192856Y78602384D02*
X63192856Y78745240D01*
D10*
X63240476Y78364288D02*
X63192856Y78602384D01*
D10*
X63335716Y78221432D02*
X63240476Y78364288D01*
D10*
X63478572Y78173808D02*
X63335716Y78221432D01*
D10*
X63573808Y78173808D02*
X63478572Y78173808D01*
D10*
X63716668Y78221432D02*
X63573808Y78173808D01*
D10*
X63811904Y78364288D02*
X63716668Y78221432D01*
D10*
X63859524Y78602384D02*
X63811904Y78364288D01*
D10*
X63859524Y78745240D02*
X63859524Y78602384D01*
D10*
X63811904Y78983336D02*
X63859524Y78745240D01*
D10*
X63716668Y79126192D02*
X63811904Y78983336D01*
D10*
X63573808Y79173808D02*
X63716668Y79126192D01*
D10*
X63478572Y79173808D02*
X63573808Y79173808D01*
D10*
X64145240Y78507144D02*
X64621428Y79173808D01*
D10*
X64859524Y78507144D02*
X64145240Y78507144D01*
D10*
X64621428Y78173808D02*
X64621428Y79173808D01*
D10*
X36940000Y-98000000D02*
X34740000Y-98000000D01*
D10*
X36940000Y-77000000D02*
X34740000Y-77000000D01*
D10*
X32340000Y-77000000D02*
X30140000Y-77000000D01*
D10*
X32340000Y-98000000D02*
X30140000Y-98000000D01*
D10*
X30140000Y-98000000D02*
X30140000Y-93900000D01*
D10*
X36940000Y-81100000D02*
X36940000Y-77000000D01*
D10*
X34740000Y-98000000D02*
X34740000Y-98000000D01*
D10*
X34740000Y-98000000D02*
X34740000Y-98000000D01*
D10*
X34740000Y-98000000D02*
X34740000Y-98000000D01*
D10*
X36940000Y-93900000D02*
X36940000Y-98000000D01*
D10*
X34016192Y-90719048D02*
X33016190Y-90338096D01*
D10*
X34016192Y-89957144D02*
X33016190Y-90338096D01*
D10*
X33682856Y-90100000D02*
X33682856Y-90576192D01*
D10*
X33159048Y-89528568D02*
X33206666Y-89623808D01*
D10*
X33016190Y-89385712D02*
X33159048Y-89528568D01*
D10*
X34016192Y-89385712D02*
X33016190Y-89385712D01*
D10*
X33159048Y-88576192D02*
X33206666Y-88671432D01*
D10*
X33016190Y-88433336D02*
X33159048Y-88576192D01*
D10*
X34016192Y-88433336D02*
X33016190Y-88433336D01*
D10*
X33063810Y-87719048D02*
X33016190Y-87576192D01*
D10*
X33206666Y-87814288D02*
X33063810Y-87719048D01*
D10*
X33444762Y-87861904D02*
X33206666Y-87814288D01*
D10*
X33587620Y-87861904D02*
X33444762Y-87861904D01*
D10*
X33825716Y-87814288D02*
X33587620Y-87861904D01*
D10*
X33968572Y-87719048D02*
X33825716Y-87814288D01*
D10*
X34016192Y-87576192D02*
X33968572Y-87719048D01*
D10*
X34016192Y-87480952D02*
X34016192Y-87576192D01*
D10*
X33968572Y-87338096D02*
X34016192Y-87480952D01*
D10*
X33825716Y-87242856D02*
X33968572Y-87338096D01*
D10*
X33587620Y-87195240D02*
X33825716Y-87242856D01*
D10*
X33444762Y-87195240D02*
X33587620Y-87195240D01*
D10*
X33206666Y-87242856D02*
X33444762Y-87195240D01*
D10*
X33063810Y-87338096D02*
X33206666Y-87242856D01*
D10*
X33016190Y-87480952D02*
X33063810Y-87338096D01*
D10*
X33016190Y-87576192D02*
X33016190Y-87480952D01*
D10*
X33206666Y-86861904D02*
X33254286Y-86861904D01*
D10*
X33111428Y-86814288D02*
X33206666Y-86861904D01*
D10*
X33063810Y-86766664D02*
X33111428Y-86814288D01*
D10*
X33016190Y-86671432D02*
X33063810Y-86766664D01*
D10*
X33016190Y-86480952D02*
X33016190Y-86671432D01*
D10*
X33063810Y-86385712D02*
X33016190Y-86480952D01*
D10*
X33111428Y-86338096D02*
X33063810Y-86385712D01*
D10*
X33206666Y-86290480D02*
X33111428Y-86338096D01*
D10*
X33301904Y-86290480D02*
X33206666Y-86290480D01*
D10*
X33397142Y-86338096D02*
X33301904Y-86290480D01*
D10*
X33540000Y-86433336D02*
X33397142Y-86338096D01*
D10*
X34016192Y-86909520D02*
X33540000Y-86433336D01*
D10*
X34016192Y-86242856D02*
X34016192Y-86909520D01*
D10*
X-113210000Y29760000D02*
X-113210000Y29760000D01*
D10*
X-113460000Y31185000D02*
X-114260000Y31185000D01*
D10*
X-114260000Y29335000D02*
X-114260000Y29335000D01*
D10*
X-114260000Y29335000D02*
X-114260000Y29335000D01*
D10*
X-114260000Y29335000D02*
X-114260000Y29335000D01*
D10*
X-113460000Y29335000D02*
X-114260000Y29335000D01*
D10*
X-112810000Y30010000D02*
X-113210000Y29760000D01*
D10*
X-113210000Y29760000D02*
X-113210000Y29760000D01*
D10*
X-113210000Y29760000D02*
X-112810000Y29510000D01*
D10*
X-112810000Y29510000D02*
X-112810000Y30010000D01*
D10*
X-114260000Y29335000D02*
X-114260000Y29335000D01*
D10*
X-114260000Y29335000D02*
X-114260000Y29335000D01*
D10*
X-115294520Y31969524D02*
X-115294520Y32683810D01*
D10*
X-115246904Y31826666D02*
X-115294520Y31969524D01*
D10*
X-115151664Y31731428D02*
X-115246904Y31826666D01*
D10*
X-115008808Y31683810D02*
X-115151664Y31731428D01*
D10*
X-114913568Y31683810D02*
X-115008808Y31683810D01*
D10*
X-114770712Y31731428D02*
X-114913568Y31683810D01*
D10*
X-114675480Y31826666D02*
X-114770712Y31731428D01*
D10*
X-114627856Y31969524D02*
X-114675480Y31826666D01*
D10*
X-114627856Y32683810D02*
X-114627856Y31969524D01*
D10*
X-114104048Y31683810D02*
X-113627856Y32683810D01*
D10*
X-113627856Y32683810D02*
X-114294520Y32683810D01*
D10*
X-113199288Y32636190D02*
X-113056432Y32683810D01*
D10*
X-113294520Y32493334D02*
X-113199288Y32636190D01*
D10*
X-113342144Y32255238D02*
X-113294520Y32493334D01*
D10*
X-113342144Y32112380D02*
X-113342144Y32255238D01*
D10*
X-113294520Y31874286D02*
X-113342144Y32112380D01*
D10*
X-113199288Y31731428D02*
X-113294520Y31874286D01*
D10*
X-113056432Y31683810D02*
X-113199288Y31731428D01*
D10*
X-112961192Y31683810D02*
X-113056432Y31683810D01*
D10*
X-112818336Y31731428D02*
X-112961192Y31683810D01*
D10*
X-112723096Y31874286D02*
X-112818336Y31731428D01*
D10*
X-112675480Y32112380D02*
X-112723096Y31874286D01*
D10*
X-112675480Y32255238D02*
X-112675480Y32112380D01*
D10*
X-112723096Y32493334D02*
X-112675480Y32255238D01*
D10*
X-112818336Y32636190D02*
X-112723096Y32493334D01*
D10*
X-112961192Y32683810D02*
X-112818336Y32636190D01*
D10*
X-113056432Y32683810D02*
X-112961192Y32683810D01*
D10*
X-111770712Y32683810D02*
X-112294520Y32683810D01*
D10*
X-112056432Y32302858D02*
X-111770712Y32683810D01*
D10*
X-111913568Y32302858D02*
X-112056432Y32302858D01*
D10*
X-111818336Y32255238D02*
X-111913568Y32302858D01*
D10*
X-111770712Y32207620D02*
X-111818336Y32255238D01*
D10*
X-111723096Y32064762D02*
X-111770712Y32207620D01*
D10*
X-111723096Y31969524D02*
X-111723096Y32064762D01*
D10*
X-111770712Y31826666D02*
X-111723096Y31969524D01*
D10*
X-111865952Y31731428D02*
X-111770712Y31826666D01*
D10*
X-112008808Y31683810D02*
X-111865952Y31731428D01*
D10*
X-112151664Y31683810D02*
X-112008808Y31683810D01*
D10*
X-112294520Y31731428D02*
X-112151664Y31683810D01*
D10*
X-112342144Y31779048D02*
X-112294520Y31731428D01*
D10*
X-112389760Y31874286D02*
X-112342144Y31779048D01*
D10*
X34650000Y29750000D02*
X33950000Y29750000D01*
D10*
X33950000Y26850000D02*
X34950000Y26850000D01*
D10*
X32233334Y25423810D02*
X32233334Y26423810D01*
D10*
X32566666Y26423810D02*
X32233334Y26423810D01*
D10*
X32709524Y26376190D02*
X32566666Y26423810D01*
D10*
X32804762Y26280952D02*
X32709524Y26376190D01*
D10*
X32852380Y26185714D02*
X32804762Y26280952D01*
D10*
X32900000Y26042858D02*
X32852380Y26185714D01*
D10*
X32900000Y25804762D02*
X32900000Y26042858D01*
D10*
X32852380Y25661904D02*
X32900000Y25804762D01*
D10*
X32804762Y25566666D02*
X32852380Y25661904D01*
D10*
X32709524Y25471428D02*
X32804762Y25566666D01*
D10*
X32566666Y25423810D02*
X32709524Y25471428D01*
D10*
X32233334Y25423810D02*
X32566666Y25423810D01*
D10*
X33376190Y25423810D02*
X33852380Y26423810D01*
D10*
X33852380Y26423810D02*
X33185714Y26423810D01*
D10*
X34280952Y26376190D02*
X34423808Y26423810D01*
D10*
X34185716Y26233334D02*
X34280952Y26376190D01*
D10*
X34138096Y25995238D02*
X34185716Y26233334D01*
D10*
X34138096Y25852380D02*
X34138096Y25995238D01*
D10*
X34185716Y25614286D02*
X34138096Y25852380D01*
D10*
X34280952Y25471428D02*
X34185716Y25614286D01*
D10*
X34423808Y25423810D02*
X34280952Y25471428D01*
D10*
X34519048Y25423810D02*
X34423808Y25423810D01*
D10*
X34661904Y25471428D02*
X34519048Y25423810D01*
D10*
X34757144Y25614286D02*
X34661904Y25471428D01*
D10*
X34804760Y25852380D02*
X34757144Y25614286D01*
D10*
X34804760Y25995238D02*
X34804760Y25852380D01*
D10*
X34757144Y26233334D02*
X34804760Y25995238D01*
D10*
X34661904Y26376190D02*
X34757144Y26233334D01*
D10*
X34519048Y26423810D02*
X34661904Y26376190D01*
D10*
X34423808Y26423810D02*
X34519048Y26423810D01*
D10*
X35185716Y26423810D02*
X35661904Y26423810D01*
D10*
X35138096Y25995238D02*
X35185716Y26423810D01*
D10*
X35185716Y26042858D02*
X35138096Y25995238D01*
D10*
X35328572Y26090476D02*
X35185716Y26042858D01*
D10*
X35471428Y26090476D02*
X35328572Y26090476D01*
D10*
X35614284Y26042858D02*
X35471428Y26090476D01*
D10*
X35709524Y25947620D02*
X35614284Y26042858D01*
D10*
X35757144Y25804762D02*
X35709524Y25947620D01*
D10*
X35757144Y25709524D02*
X35757144Y25804762D01*
D10*
X35709524Y25566666D02*
X35757144Y25709524D01*
D10*
X35614284Y25471428D02*
X35709524Y25566666D01*
D10*
X35471428Y25423810D02*
X35614284Y25471428D01*
D10*
X35328572Y25423810D02*
X35471428Y25423810D01*
D10*
X35185716Y25471428D02*
X35328572Y25423810D01*
D10*
X35138096Y25519048D02*
X35185716Y25471428D01*
D10*
X35090476Y25614286D02*
X35138096Y25519048D01*
D10*
X-96500000Y70600000D02*
X-95900000Y70600000D01*
D10*
X-96500000Y70600000D02*
X-96500000Y71200000D01*
D10*
X-92900000Y70600000D02*
X-92900000Y71200000D01*
D10*
X-96500000Y76000000D02*
X-95900000Y76000000D01*
D10*
X-92900000Y76000000D02*
X-93500000Y76000000D01*
D10*
X-92900000Y70600000D02*
X-93500000Y70600000D01*
D10*
X-92900000Y76000000D02*
X-92900000Y75400000D01*
D10*
X-96109520Y76809520D02*
X-96109520Y77523808D01*
D10*
X-96061904Y76666664D02*
X-96109520Y76809520D01*
D10*
X-95966664Y76571432D02*
X-96061904Y76666664D01*
D10*
X-95823808Y76523808D02*
X-95966664Y76571432D01*
D10*
X-95728568Y76523808D02*
X-95823808Y76523808D01*
D10*
X-95585712Y76571432D02*
X-95728568Y76523808D01*
D10*
X-95490480Y76666664D02*
X-95585712Y76571432D01*
D10*
X-95442856Y76809520D02*
X-95490480Y76666664D01*
D10*
X-95442856Y77523808D02*
X-95442856Y76809520D01*
D10*
X-95061904Y77333336D02*
X-95061904Y77285712D01*
D10*
X-95014288Y77428568D02*
X-95061904Y77333336D01*
D10*
X-94966664Y77476192D02*
X-95014288Y77428568D01*
D10*
X-94871432Y77523808D02*
X-94966664Y77476192D01*
D10*
X-94680952Y77523808D02*
X-94871432Y77523808D01*
D10*
X-94585712Y77476192D02*
X-94680952Y77523808D01*
D10*
X-94538096Y77428568D02*
X-94585712Y77476192D01*
D10*
X-94490480Y77333336D02*
X-94538096Y77428568D01*
D10*
X-94490480Y77238096D02*
X-94490480Y77333336D01*
D10*
X-94538096Y77142856D02*
X-94490480Y77238096D01*
D10*
X-94633336Y77000000D02*
X-94538096Y77142856D01*
D10*
X-95109520Y76523808D02*
X-94633336Y77000000D01*
D10*
X-94442856Y76523808D02*
X-95109520Y76523808D01*
D10*
X-94014288Y77476192D02*
X-93871432Y77523808D01*
D10*
X-94109520Y77333336D02*
X-94014288Y77476192D01*
D10*
X-94157144Y77095240D02*
X-94109520Y77333336D01*
D10*
X-94157144Y76952384D02*
X-94157144Y77095240D01*
D10*
X-94109520Y76714288D02*
X-94157144Y76952384D01*
D10*
X-94014288Y76571432D02*
X-94109520Y76714288D01*
D10*
X-93871432Y76523808D02*
X-94014288Y76571432D01*
D10*
X-93776192Y76523808D02*
X-93871432Y76523808D01*
D10*
X-93633336Y76571432D02*
X-93776192Y76523808D01*
D10*
X-93538096Y76714288D02*
X-93633336Y76571432D01*
D10*
X-93490480Y76952384D02*
X-93538096Y76714288D01*
D10*
X-93490480Y77095240D02*
X-93490480Y76952384D01*
D10*
X-93538096Y77333336D02*
X-93490480Y77095240D01*
D10*
X-93633336Y77476192D02*
X-93538096Y77333336D01*
D10*
X-93776192Y77523808D02*
X-93633336Y77476192D01*
D10*
X-93871432Y77523808D02*
X-93776192Y77523808D01*
D10*
X-93157144Y77333336D02*
X-93157144Y77285712D01*
D10*
X-93109520Y77428568D02*
X-93157144Y77333336D01*
D10*
X-93061904Y77476192D02*
X-93109520Y77428568D01*
D10*
X-92966664Y77523808D02*
X-93061904Y77476192D01*
D10*
X-92776192Y77523808D02*
X-92966664Y77523808D01*
D10*
X-92680952Y77476192D02*
X-92776192Y77523808D01*
D10*
X-92633336Y77428568D02*
X-92680952Y77476192D01*
D10*
X-92585712Y77333336D02*
X-92633336Y77428568D01*
D10*
X-92585712Y77238096D02*
X-92585712Y77333336D01*
D10*
X-92633336Y77142856D02*
X-92585712Y77238096D01*
D10*
X-92728568Y77000000D02*
X-92633336Y77142856D01*
D10*
X-93204760Y76523808D02*
X-92728568Y77000000D01*
D10*
X-92538096Y76523808D02*
X-93204760Y76523808D01*
D10*
X-14161905Y-10147619D02*
X-14923810Y-10147619D01*
D10*
X-14019048Y-10195238D02*
X-14161905Y-10147619D01*
D10*
X-13971429Y-10242857D02*
X-14019048Y-10195238D01*
D10*
X-13923810Y-10338095D02*
X-13971429Y-10242857D01*
D10*
X-13923810Y-10433334D02*
X-13923810Y-10338095D01*
D10*
X-13971429Y-10528572D02*
X-13923810Y-10433334D01*
D10*
X-14019048Y-10576190D02*
X-13971429Y-10528572D01*
D10*
X-14161905Y-10623810D02*
X-14019048Y-10576190D01*
D10*
X-14257143Y-10623810D02*
X-14161905Y-10623810D01*
D10*
X-13923810Y-9766666D02*
X-14923810Y-9766666D01*
D10*
X-14923810Y-9338095D02*
X-14923810Y-9766666D01*
D10*
X-14876190Y-9195238D02*
X-14923810Y-9338095D01*
D10*
X-14828571Y-9147619D02*
X-14876190Y-9195238D01*
D10*
X-14733333Y-9100000D02*
X-14828571Y-9147619D01*
D10*
X-14590476Y-9100000D02*
X-14733333Y-9100000D01*
D10*
X-14495238Y-9147619D02*
X-14590476Y-9100000D01*
D10*
X-14447619Y-9195238D02*
X-14495238Y-9147619D01*
D10*
X-14400000Y-9338095D02*
X-14447619Y-9195238D01*
D10*
X-14400000Y-9766666D02*
X-14400000Y-9338095D01*
D10*
X-14923810Y-8195238D02*
X-14923810Y-8719048D01*
D10*
X-14542857Y-8480952D02*
X-14923810Y-8195238D01*
D10*
X-14542857Y-8338095D02*
X-14542857Y-8480952D01*
D10*
X-14495238Y-8242857D02*
X-14542857Y-8338095D01*
D10*
X-14447619Y-8195238D02*
X-14495238Y-8242857D01*
D10*
X-14304762Y-8147619D02*
X-14447619Y-8195238D01*
D10*
X-14209524Y-8147619D02*
X-14304762Y-8147619D01*
D10*
X-14066667Y-8195238D02*
X-14209524Y-8147619D01*
D10*
X-13971429Y-8290476D02*
X-14066667Y-8195238D01*
D10*
X-13923810Y-8433333D02*
X-13971429Y-8290476D01*
D10*
X-13923810Y-8576190D02*
X-13923810Y-8433333D01*
D10*
X-13971429Y-8719048D02*
X-13923810Y-8576190D01*
D10*
X-14019048Y-8766666D02*
X-13971429Y-8719048D01*
D10*
X-14114286Y-8814286D02*
X-14019048Y-8766666D01*
D10*
X-14876190Y-7719047D02*
X-14923810Y-7576190D01*
D10*
X-14733333Y-7814286D02*
X-14876190Y-7719047D01*
D10*
X-14495238Y-7861905D02*
X-14733333Y-7814286D01*
D10*
X-14352381Y-7861905D02*
X-14495238Y-7861905D01*
D10*
X-14114286Y-7814286D02*
X-14352381Y-7861905D01*
D10*
X-13971429Y-7719047D02*
X-14114286Y-7814286D01*
D10*
X-13923810Y-7576190D02*
X-13971429Y-7719047D01*
D10*
X-13923810Y-7480952D02*
X-13923810Y-7576190D01*
D10*
X-13971429Y-7338095D02*
X-13923810Y-7480952D01*
D10*
X-14114286Y-7242857D02*
X-13971429Y-7338095D01*
D10*
X-14352381Y-7195238D02*
X-14114286Y-7242857D01*
D10*
X-14495238Y-7195238D02*
X-14352381Y-7195238D01*
D10*
X-14733333Y-7242857D02*
X-14495238Y-7195238D01*
D10*
X-14876190Y-7338095D02*
X-14733333Y-7242857D01*
D10*
X-14923810Y-7480952D02*
X-14876190Y-7338095D01*
D10*
X-14923810Y-7576190D02*
X-14923810Y-7480952D01*
D10*
X-14733333Y-6861905D02*
X-14685714Y-6861905D01*
D10*
X-14828571Y-6814285D02*
X-14733333Y-6861905D01*
D10*
X-14876190Y-6766666D02*
X-14828571Y-6814285D01*
D10*
X-14923810Y-6671428D02*
X-14876190Y-6766666D01*
D10*
X-14923810Y-6480952D02*
X-14923810Y-6671428D01*
D10*
X-14876190Y-6385714D02*
X-14923810Y-6480952D01*
D10*
X-14828571Y-6338095D02*
X-14876190Y-6385714D01*
D10*
X-14733333Y-6290476D02*
X-14828571Y-6338095D01*
D10*
X-14638095Y-6290476D02*
X-14733333Y-6290476D01*
D10*
X-14542857Y-6338095D02*
X-14638095Y-6290476D01*
D10*
X-14400000Y-6433333D02*
X-14542857Y-6338095D01*
D10*
X-13923810Y-6909524D02*
X-14400000Y-6433333D01*
D10*
X-13923810Y-6242857D02*
X-13923810Y-6909524D01*
D10*
X-114570000Y56890000D02*
X-114570000Y55690000D01*
D10*
X-112270000Y55690000D02*
X-112270000Y57280000D01*
D10*
X-111139520Y53475716D02*
X-111853808Y53475716D01*
D10*
X-110996664Y53523332D02*
X-111139520Y53475716D01*
D10*
X-110901432Y53618572D02*
X-110996664Y53523332D01*
D10*
X-110853808Y53761428D02*
X-110901432Y53618572D01*
D10*
X-110853808Y53856668D02*
X-110853808Y53761428D01*
D10*
X-110901432Y53999524D02*
X-110853808Y53856668D01*
D10*
X-110996664Y54094760D02*
X-110901432Y53999524D01*
D10*
X-111139520Y54142380D02*
X-110996664Y54094760D01*
D10*
X-111853808Y54142380D02*
X-111139520Y54142380D01*
D10*
X-110853808Y54666192D02*
X-111853808Y55142380D01*
D10*
X-111853808Y55142380D02*
X-111853808Y54475716D01*
D10*
X-111806192Y55570952D02*
X-111853808Y55713808D01*
D10*
X-111663336Y55475716D02*
X-111806192Y55570952D01*
D10*
X-111425240Y55428096D02*
X-111663336Y55475716D01*
D10*
X-111282384Y55428096D02*
X-111425240Y55428096D01*
D10*
X-111044288Y55475716D02*
X-111282384Y55428096D01*
D10*
X-110901432Y55570952D02*
X-111044288Y55475716D01*
D10*
X-110853808Y55713808D02*
X-110901432Y55570952D01*
D10*
X-110853808Y55809048D02*
X-110853808Y55713808D01*
D10*
X-110901432Y55951904D02*
X-110853808Y55809048D01*
D10*
X-111044288Y56047144D02*
X-110901432Y55951904D01*
D10*
X-111282384Y56094760D02*
X-111044288Y56047144D01*
D10*
X-111425240Y56094760D02*
X-111282384Y56094760D01*
D10*
X-111663336Y56047144D02*
X-111425240Y56094760D01*
D10*
X-111806192Y55951904D02*
X-111663336Y56047144D01*
D10*
X-111853808Y55809048D02*
X-111806192Y55951904D01*
D10*
X-111853808Y55713808D02*
X-111853808Y55809048D01*
D10*
X-111710952Y56618572D02*
X-111663336Y56523332D01*
D10*
X-111853808Y56761428D02*
X-111710952Y56618572D01*
D10*
X-110853808Y56761428D02*
X-111853808Y56761428D01*
D10*
X29733334Y-23176190D02*
X29733334Y-22176190D01*
D10*
X30066666Y-22176190D02*
X29733334Y-22176190D01*
D10*
X30209524Y-22223810D02*
X30066666Y-22176190D01*
D10*
X30304762Y-22319048D02*
X30209524Y-22223810D01*
D10*
X30352380Y-22414286D02*
X30304762Y-22319048D01*
D10*
X30400000Y-22557142D02*
X30352380Y-22414286D01*
D10*
X30400000Y-22795238D02*
X30400000Y-22557142D01*
D10*
X30352380Y-22938096D02*
X30400000Y-22795238D01*
D10*
X30304762Y-23033334D02*
X30352380Y-22938096D01*
D10*
X30209524Y-23128572D02*
X30304762Y-23033334D01*
D10*
X30066666Y-23176190D02*
X30209524Y-23128572D01*
D10*
X29733334Y-23176190D02*
X30066666Y-23176190D01*
D10*
X30876190Y-23176190D02*
X31352380Y-22176190D01*
D10*
X31352380Y-22176190D02*
X30685714Y-22176190D01*
D10*
X31780952Y-22223810D02*
X31923810Y-22176190D01*
D10*
X31685714Y-22366666D02*
X31780952Y-22223810D01*
D10*
X31638096Y-22604762D02*
X31685714Y-22366666D01*
D10*
X31638096Y-22747620D02*
X31638096Y-22604762D01*
D10*
X31685714Y-22985714D02*
X31638096Y-22747620D01*
D10*
X31780952Y-23128572D02*
X31685714Y-22985714D01*
D10*
X31923810Y-23176190D02*
X31780952Y-23128572D01*
D10*
X32019048Y-23176190D02*
X31923810Y-23176190D01*
D10*
X32161904Y-23128572D02*
X32019048Y-23176190D01*
D10*
X32257142Y-22985714D02*
X32161904Y-23128572D01*
D10*
X32304762Y-22747620D02*
X32257142Y-22985714D01*
D10*
X32304762Y-22604762D02*
X32304762Y-22747620D01*
D10*
X32257142Y-22366666D02*
X32304762Y-22604762D01*
D10*
X32161904Y-22223810D02*
X32257142Y-22366666D01*
D10*
X32019048Y-22176190D02*
X32161904Y-22223810D01*
D10*
X31923810Y-22176190D02*
X32019048Y-22176190D01*
D10*
X32780952Y-23176190D02*
X33257142Y-22176190D01*
D10*
X33257142Y-22176190D02*
X32590476Y-22176190D01*
D10*
X-45100000Y-34100000D02*
X-45100000Y-35100000D01*
D10*
X-44400000Y-34600000D02*
X-45100000Y-34100000D01*
D10*
X-45100000Y-35100000D02*
X-44400000Y-34600000D01*
D10*
X-44623808Y-43766668D02*
X-45623808Y-43385716D01*
D10*
X-44623808Y-43004760D02*
X-45623808Y-43385716D01*
D10*
X-44957144Y-43147620D02*
X-44957144Y-43623808D01*
D10*
X-45576192Y-42242856D02*
X-45480952Y-42195240D01*
D10*
X-45623808Y-42385716D02*
X-45576192Y-42242856D01*
D10*
X-45623808Y-42480952D02*
X-45623808Y-42385716D01*
D10*
X-45576192Y-42623808D02*
X-45623808Y-42480952D01*
D10*
X-45433332Y-42719048D02*
X-45576192Y-42623808D01*
D10*
X-45195240Y-42766668D02*
X-45433332Y-42719048D01*
D10*
X-44957144Y-42766668D02*
X-45195240Y-42766668D01*
D10*
X-44766668Y-42719048D02*
X-44957144Y-42766668D01*
D10*
X-44671428Y-42623808D02*
X-44766668Y-42719048D01*
D10*
X-44623808Y-42480952D02*
X-44671428Y-42623808D01*
D10*
X-44623808Y-42433332D02*
X-44623808Y-42480952D01*
D10*
X-44671428Y-42290476D02*
X-44623808Y-42433332D01*
D10*
X-44766668Y-42195240D02*
X-44671428Y-42290476D01*
D10*
X-44909524Y-42147620D02*
X-44766668Y-42195240D01*
D10*
X-44957144Y-42147620D02*
X-44909524Y-42147620D01*
D10*
X-45100000Y-42195240D02*
X-44957144Y-42147620D01*
D10*
X-45195240Y-42290476D02*
X-45100000Y-42195240D01*
D10*
X-45242856Y-42433332D02*
X-45195240Y-42290476D01*
D10*
X-45242856Y-42480952D02*
X-45242856Y-42433332D01*
D10*
X-45195240Y-42623808D02*
X-45242856Y-42480952D01*
D10*
X-45100000Y-42719048D02*
X-45195240Y-42623808D01*
D10*
X-44957144Y-42766668D02*
X-45100000Y-42719048D01*
D10*
X-45576192Y-41719048D02*
X-45623808Y-41576192D01*
D10*
X-45433332Y-41814284D02*
X-45576192Y-41719048D01*
D10*
X-45195240Y-41861904D02*
X-45433332Y-41814284D01*
D10*
X-45052380Y-41861904D02*
X-45195240Y-41861904D01*
D10*
X-44814284Y-41814284D02*
X-45052380Y-41861904D01*
D10*
X-44671428Y-41719048D02*
X-44814284Y-41814284D01*
D10*
X-44623808Y-41576192D02*
X-44671428Y-41719048D01*
D10*
X-44623808Y-41480952D02*
X-44623808Y-41576192D01*
D10*
X-44671428Y-41338096D02*
X-44623808Y-41480952D01*
D10*
X-44814284Y-41242856D02*
X-44671428Y-41338096D01*
D10*
X-45052380Y-41195240D02*
X-44814284Y-41242856D01*
D10*
X-45195240Y-41195240D02*
X-45052380Y-41195240D01*
D10*
X-45433332Y-41242856D02*
X-45195240Y-41195240D01*
D10*
X-45576192Y-41338096D02*
X-45433332Y-41242856D01*
D10*
X-45623808Y-41480952D02*
X-45576192Y-41338096D01*
D10*
X-45623808Y-41576192D02*
X-45623808Y-41480952D01*
D10*
X-44957144Y-40909524D02*
X-45623808Y-40433332D01*
D10*
X-44957144Y-40195240D02*
X-44957144Y-40909524D01*
D10*
X-44623808Y-40433332D02*
X-45623808Y-40433332D01*
D10*
X92350000Y15860000D02*
X91560000Y15860000D01*
D10*
X91560000Y15860000D02*
X91560000Y16650000D01*
D10*
X98170000Y23260000D02*
X98960000Y23260000D01*
D10*
X98960000Y23260000D02*
X98960000Y22470000D01*
D10*
X92350000Y23260000D02*
X91560000Y23260000D01*
D10*
X98960000Y15860000D02*
X98960000Y16650000D01*
D10*
X98170000Y15860000D02*
X98960000Y15860000D01*
D10*
X-275000Y22025000D02*
X-26325000Y22025000D01*
D10*
X-26325000Y31675000D02*
X-275000Y31675000D01*
D10*
X-275000Y31675000D02*
X-275000Y22025000D01*
D10*
X-26325000Y22025000D02*
X-26325000Y31675000D01*
D10*
X-3127381Y32048810D02*
X-2746428Y33048810D01*
D10*
X-2365476Y32048810D02*
X-2746428Y33048810D01*
D10*
X-2508333Y32382142D02*
X-2984523Y32382142D01*
D10*
X-1603571Y33001190D02*
X-1555952Y32905952D01*
D10*
X-1746428Y33048810D02*
X-1603571Y33001190D01*
D10*
X-1841666Y33048810D02*
X-1746428Y33048810D01*
D10*
X-1984523Y33001190D02*
X-1841666Y33048810D01*
D10*
X-2079761Y32858334D02*
X-1984523Y33001190D01*
D10*
X-2127381Y32620238D02*
X-2079761Y32858334D01*
D10*
X-2127381Y32382142D02*
X-2127381Y32620238D01*
D10*
X-2079761Y32191666D02*
X-2127381Y32382142D01*
D10*
X-1984523Y32096428D02*
X-2079761Y32191666D01*
D10*
X-1841666Y32048810D02*
X-1984523Y32096428D01*
D10*
X-1794047Y32048810D02*
X-1841666Y32048810D01*
D10*
X-1651190Y32096428D02*
X-1794047Y32048810D01*
D10*
X-1555952Y32191666D02*
X-1651190Y32096428D01*
D10*
X-1508333Y32334524D02*
X-1555952Y32191666D01*
D10*
X-1508333Y32382142D02*
X-1508333Y32334524D01*
D10*
X-1555952Y32525000D02*
X-1508333Y32382142D01*
D10*
X-1651190Y32620238D02*
X-1555952Y32525000D01*
D10*
X-1794047Y32667858D02*
X-1651190Y32620238D01*
D10*
X-1841666Y32667858D02*
X-1794047Y32667858D01*
D10*
X-1984523Y32620238D02*
X-1841666Y32667858D01*
D10*
X-2079761Y32525000D02*
X-1984523Y32620238D01*
D10*
X-2127381Y32382142D02*
X-2079761Y32525000D01*
D10*
X-1079762Y33001190D02*
X-936904Y33048810D01*
D10*
X-1175000Y32858334D02*
X-1079762Y33001190D01*
D10*
X-1222619Y32620238D02*
X-1175000Y32858334D01*
D10*
X-1222619Y32477380D02*
X-1222619Y32620238D01*
D10*
X-1175000Y32239286D02*
X-1222619Y32477380D01*
D10*
X-1079762Y32096428D02*
X-1175000Y32239286D01*
D10*
X-936904Y32048810D02*
X-1079762Y32096428D01*
D10*
X-841666Y32048810D02*
X-936904Y32048810D01*
D10*
X-698809Y32096428D02*
X-841666Y32048810D01*
D10*
X-603571Y32239286D02*
X-698809Y32096428D01*
D10*
X-555952Y32477380D02*
X-603571Y32239286D01*
D10*
X-555952Y32620238D02*
X-555952Y32477380D01*
D10*
X-603571Y32858334D02*
X-555952Y32620238D01*
D10*
X-698809Y33001190D02*
X-603571Y32858334D01*
D10*
X-841666Y33048810D02*
X-698809Y33001190D01*
D10*
X-936904Y33048810D02*
X-841666Y33048810D01*
D10*
X-222619Y32858334D02*
X-222619Y32810714D01*
D10*
X-175000Y32953572D02*
X-222619Y32858334D01*
D10*
X-127381Y33001190D02*
X-175000Y32953572D01*
D10*
X-32143Y33048810D02*
X-127381Y33001190D01*
D10*
X158333Y33048810D02*
X-32143Y33048810D01*
D10*
X253571Y33001190D02*
X158333Y33048810D01*
D10*
X301190Y32953572D02*
X253571Y33001190D01*
D10*
X348809Y32858334D02*
X301190Y32953572D01*
D10*
X348809Y32763096D02*
X348809Y32858334D01*
D10*
X301190Y32667858D02*
X348809Y32763096D01*
D10*
X205952Y32525000D02*
X301190Y32667858D01*
D10*
X-270238Y32048810D02*
X205952Y32525000D01*
D10*
X396428Y32048810D02*
X-270238Y32048810D01*
D10*
X-59020000Y-9080000D02*
X-59020000Y1080000D01*
D10*
X-56480000Y1080000D02*
X-56480000Y-9080000D01*
D10*
X-60270000Y185000D02*
X-59520000Y-190000D01*
D10*
X-59520000Y-190000D02*
X-60270000Y-565000D01*
D10*
X-56480000Y-9080000D02*
X-59020000Y-9080000D01*
D10*
X-60270000Y-565000D02*
X-60270000Y185000D01*
D10*
X-59020000Y1080000D02*
X-56480000Y1080000D01*
D10*
X-58448572Y2111904D02*
X-58448572Y2873809D01*
D10*
X-58496192Y1969047D02*
X-58448572Y2111904D01*
D10*
X-58543808Y1921428D02*
X-58496192Y1969047D01*
D10*
X-58639048Y1873809D02*
X-58543808Y1921428D01*
D10*
X-58734284Y1873809D02*
X-58639048Y1873809D01*
D10*
X-58829524Y1921428D02*
X-58734284Y1873809D01*
D10*
X-58877144Y1969047D02*
X-58829524Y1921428D01*
D10*
X-58924760Y2111904D02*
X-58877144Y1969047D01*
D10*
X-58924760Y2207142D02*
X-58924760Y2111904D01*
D10*
X-57496192Y2873809D02*
X-58020000Y2873809D01*
D10*
X-57781904Y2492857D02*
X-57496192Y2873809D01*
D10*
X-57639048Y2492857D02*
X-57781904Y2492857D01*
D10*
X-57543808Y2445238D02*
X-57639048Y2492857D01*
D10*
X-57496192Y2397619D02*
X-57543808Y2445238D01*
D10*
X-57448572Y2254762D02*
X-57496192Y2397619D01*
D10*
X-57448572Y2159523D02*
X-57448572Y2254762D01*
D10*
X-57496192Y2016666D02*
X-57448572Y2159523D01*
D10*
X-57591428Y1921428D02*
X-57496192Y2016666D01*
D10*
X-57734284Y1873809D02*
X-57591428Y1921428D01*
D10*
X-57877144Y1873809D02*
X-57734284Y1873809D01*
D10*
X-58020000Y1921428D02*
X-57877144Y1873809D01*
D10*
X-58067620Y1969047D02*
X-58020000Y1921428D01*
D10*
X-58115240Y2064285D02*
X-58067620Y1969047D01*
D10*
X-57020000Y2826190D02*
X-56877144Y2873809D01*
D10*
X-57115240Y2683333D02*
X-57020000Y2826190D01*
D10*
X-57162856Y2445238D02*
X-57115240Y2683333D01*
D10*
X-57162856Y2302381D02*
X-57162856Y2445238D01*
D10*
X-57115240Y2064285D02*
X-57162856Y2302381D01*
D10*
X-57020000Y1921428D02*
X-57115240Y2064285D01*
D10*
X-56877144Y1873809D02*
X-57020000Y1921428D01*
D10*
X-56781904Y1873809D02*
X-56877144Y1873809D01*
D10*
X-56639048Y1921428D02*
X-56781904Y1873809D01*
D10*
X-56543808Y2064285D02*
X-56639048Y1921428D01*
D10*
X-56496192Y2302381D02*
X-56543808Y2064285D01*
D10*
X-56496192Y2445238D02*
X-56496192Y2302381D01*
D10*
X-56543808Y2683333D02*
X-56496192Y2445238D01*
D10*
X-56639048Y2826190D02*
X-56543808Y2683333D01*
D10*
X-56781904Y2873809D02*
X-56639048Y2826190D01*
D10*
X-56877144Y2873809D02*
X-56781904Y2873809D01*
D10*
X-55972380Y2730952D02*
X-56067620Y2683333D01*
D10*
X-55829524Y2873809D02*
X-55972380Y2730952D01*
D10*
X-55829524Y1873809D02*
X-55829524Y2873809D01*
D10*
X-9950000Y80285000D02*
X-11825000Y80285000D01*
D10*
X-9947500Y80285000D02*
X-9947500Y78410000D01*
D10*
X-18492500Y65735000D02*
X-16617500Y65735000D01*
D10*
X-9945000Y65737500D02*
X-9945000Y67612500D01*
D10*
X-18495000Y65735000D02*
X-18495000Y67610000D01*
D10*
X-16620000Y80285000D02*
X-18495000Y80285000D01*
D10*
X-9945000Y65735000D02*
X-11820000Y65735000D01*
D10*
X-13979524Y70820712D02*
X-14693810Y70820712D01*
D10*
X-13836667Y70868336D02*
X-13979524Y70820712D01*
D10*
X-13741429Y70963568D02*
X-13836667Y70868336D01*
D10*
X-13693810Y71106432D02*
X-13741429Y70963568D01*
D10*
X-13693810Y71201664D02*
X-13693810Y71106432D01*
D10*
X-13741429Y71344520D02*
X-13693810Y71201664D01*
D10*
X-13836667Y71439760D02*
X-13741429Y71344520D01*
D10*
X-13979524Y71487384D02*
X-13836667Y71439760D01*
D10*
X-14693810Y71487384D02*
X-13979524Y71487384D01*
D10*
X-14693810Y71915952D02*
X-14693810Y72392144D01*
D10*
X-14265238Y71868336D02*
X-14693810Y71915952D01*
D10*
X-14312857Y71915952D02*
X-14265238Y71868336D01*
D10*
X-14360476Y72058808D02*
X-14312857Y71915952D01*
D10*
X-14360476Y72201664D02*
X-14360476Y72058808D01*
D10*
X-14312857Y72344520D02*
X-14360476Y72201664D01*
D10*
X-14217619Y72439760D02*
X-14312857Y72344520D01*
D10*
X-14074762Y72487384D02*
X-14217619Y72439760D01*
D10*
X-13979524Y72487384D02*
X-14074762Y72487384D01*
D10*
X-13836667Y72439760D02*
X-13979524Y72487384D01*
D10*
X-13741429Y72344520D02*
X-13836667Y72439760D01*
D10*
X-13693810Y72201664D02*
X-13741429Y72344520D01*
D10*
X-13693810Y72058808D02*
X-13693810Y72201664D01*
D10*
X-13741429Y71915952D02*
X-13693810Y72058808D01*
D10*
X-13789048Y71868336D02*
X-13741429Y71915952D01*
D10*
X-13884286Y71820712D02*
X-13789048Y71868336D01*
D10*
X-14646190Y72915952D02*
X-14693810Y73058808D01*
D10*
X-14503333Y72820712D02*
X-14646190Y72915952D01*
D10*
X-14265238Y72773096D02*
X-14503333Y72820712D01*
D10*
X-14122381Y72773096D02*
X-14265238Y72773096D01*
D10*
X-13884286Y72820712D02*
X-14122381Y72773096D01*
D10*
X-13741429Y72915952D02*
X-13884286Y72820712D01*
D10*
X-13693810Y73058808D02*
X-13741429Y72915952D01*
D10*
X-13693810Y73154048D02*
X-13693810Y73058808D01*
D10*
X-13741429Y73296904D02*
X-13693810Y73154048D01*
D10*
X-13884286Y73392144D02*
X-13741429Y73296904D01*
D10*
X-14122381Y73439760D02*
X-13884286Y73392144D01*
D10*
X-14265238Y73439760D02*
X-14122381Y73439760D01*
D10*
X-14503333Y73392144D02*
X-14265238Y73439760D01*
D10*
X-14646190Y73296904D02*
X-14503333Y73392144D01*
D10*
X-14693810Y73154048D02*
X-14646190Y73296904D01*
D10*
X-14693810Y73058808D02*
X-14693810Y73154048D01*
D10*
X-14550952Y73963568D02*
X-14503333Y73868336D01*
D10*
X-14693810Y74106432D02*
X-14550952Y73963568D01*
D10*
X-13693810Y74106432D02*
X-14693810Y74106432D01*
D10*
X-59110000Y-21530000D02*
X-59110000Y-11370000D01*
D10*
X-56570000Y-11370000D02*
X-56570000Y-21530000D01*
D10*
X-60360000Y-12265000D02*
X-59610000Y-12640000D01*
D10*
X-59610000Y-12640000D02*
X-60360000Y-13015000D01*
D10*
X-56570000Y-21530000D02*
X-59110000Y-21530000D01*
D10*
X-60360000Y-13015000D02*
X-60360000Y-12265000D01*
D10*
X-59110000Y-11370000D02*
X-56570000Y-11370000D01*
D10*
X-58538572Y-10338095D02*
X-58538572Y-9576190D01*
D10*
X-58586192Y-10480952D02*
X-58538572Y-10338095D01*
D10*
X-58633808Y-10528571D02*
X-58586192Y-10480952D01*
D10*
X-58729048Y-10576190D02*
X-58633808Y-10528571D01*
D10*
X-58824284Y-10576190D02*
X-58729048Y-10576190D01*
D10*
X-58919524Y-10528571D02*
X-58824284Y-10576190D01*
D10*
X-58967144Y-10480952D02*
X-58919524Y-10528571D01*
D10*
X-59014760Y-10338095D02*
X-58967144Y-10480952D01*
D10*
X-59014760Y-10242857D02*
X-59014760Y-10338095D01*
D10*
X-57967144Y-9719048D02*
X-58062380Y-9766667D01*
D10*
X-57824284Y-9576190D02*
X-57967144Y-9719048D01*
D10*
X-57824284Y-10576190D02*
X-57824284Y-9576190D01*
D10*
X-57205240Y-9766667D02*
X-57205240Y-9814286D01*
D10*
X-57157620Y-9671429D02*
X-57205240Y-9766667D01*
D10*
X-57110000Y-9623810D02*
X-57157620Y-9671429D01*
D10*
X-57014760Y-9576190D02*
X-57110000Y-9623810D01*
D10*
X-56824284Y-9576190D02*
X-57014760Y-9576190D01*
D10*
X-56729048Y-9623810D02*
X-56824284Y-9576190D01*
D10*
X-56681428Y-9671429D02*
X-56729048Y-9623810D01*
D10*
X-56633808Y-9766667D02*
X-56681428Y-9671429D01*
D10*
X-56633808Y-9861905D02*
X-56633808Y-9766667D01*
D10*
X-56681428Y-9957143D02*
X-56633808Y-9861905D01*
D10*
X-56776668Y-10100000D02*
X-56681428Y-9957143D01*
D10*
X-57252856Y-10576190D02*
X-56776668Y-10100000D01*
D10*
X-56586192Y-10576190D02*
X-57252856Y-10576190D01*
D10*
X-56157620Y-9623810D02*
X-56014760Y-9576190D01*
D10*
X-56252856Y-9766667D02*
X-56157620Y-9623810D01*
D10*
X-56300476Y-10004762D02*
X-56252856Y-9766667D01*
D10*
X-56300476Y-10147619D02*
X-56300476Y-10004762D01*
D10*
X-56252856Y-10385714D02*
X-56300476Y-10147619D01*
D10*
X-56157620Y-10528571D02*
X-56252856Y-10385714D01*
D10*
X-56014760Y-10576190D02*
X-56157620Y-10528571D01*
D10*
X-55919524Y-10576190D02*
X-56014760Y-10576190D01*
D10*
X-55776668Y-10528571D02*
X-55919524Y-10576190D01*
D10*
X-55681428Y-10385714D02*
X-55776668Y-10528571D01*
D10*
X-55633808Y-10147619D02*
X-55681428Y-10385714D01*
D10*
X-55633808Y-10004762D02*
X-55633808Y-10147619D01*
D10*
X-55681428Y-9766667D02*
X-55633808Y-10004762D01*
D10*
X-55776668Y-9623810D02*
X-55681428Y-9766667D01*
D10*
X-55919524Y-9576190D02*
X-55776668Y-9623810D01*
D10*
X-56014760Y-9576190D02*
X-55919524Y-9576190D01*
D10*
X-55110000Y-9719048D02*
X-55205240Y-9766667D01*
D10*
X-54967144Y-9576190D02*
X-55110000Y-9719048D01*
D10*
X-54967144Y-10576190D02*
X-54967144Y-9576190D01*
D10*
X-95220000Y47040000D02*
X-96520000Y47040000D01*
D10*
X-95069999Y41940000D02*
X-91170001Y41940000D01*
D10*
X-95220000Y47140000D02*
X-95220000Y47040000D01*
D10*
X-95220000Y47140000D02*
X-91170000Y47140000D01*
D10*
X-96329520Y47849524D02*
X-96329520Y48563808D01*
D10*
X-96281904Y47706668D02*
X-96329520Y47849524D01*
D10*
X-96186664Y47611428D02*
X-96281904Y47706668D01*
D10*
X-96043808Y47563808D02*
X-96186664Y47611428D01*
D10*
X-95948568Y47563808D02*
X-96043808Y47563808D01*
D10*
X-95805712Y47611428D02*
X-95948568Y47563808D01*
D10*
X-95710480Y47706668D02*
X-95805712Y47611428D01*
D10*
X-95662856Y47849524D02*
X-95710480Y47706668D01*
D10*
X-95662856Y48563808D02*
X-95662856Y47849524D01*
D10*
X-94710480Y48563808D02*
X-95234288Y48563808D01*
D10*
X-94996192Y48182856D02*
X-94710480Y48563808D01*
D10*
X-94853336Y48182856D02*
X-94996192Y48182856D01*
D10*
X-94758096Y48135240D02*
X-94853336Y48182856D01*
D10*
X-94710480Y48087620D02*
X-94758096Y48135240D01*
D10*
X-94662856Y47944760D02*
X-94710480Y48087620D01*
D10*
X-94662856Y47849524D02*
X-94662856Y47944760D01*
D10*
X-94710480Y47706668D02*
X-94662856Y47849524D01*
D10*
X-94805712Y47611428D02*
X-94710480Y47706668D01*
D10*
X-94948568Y47563808D02*
X-94805712Y47611428D01*
D10*
X-95091432Y47563808D02*
X-94948568Y47563808D01*
D10*
X-95234288Y47611428D02*
X-95091432Y47563808D01*
D10*
X-95281904Y47659048D02*
X-95234288Y47611428D01*
D10*
X-95329520Y47754284D02*
X-95281904Y47659048D01*
D10*
X-94234288Y48516192D02*
X-94091432Y48563808D01*
D10*
X-94329520Y48373332D02*
X-94234288Y48516192D01*
D10*
X-94377144Y48135240D02*
X-94329520Y48373332D01*
D10*
X-94377144Y47992380D02*
X-94377144Y48135240D01*
D10*
X-94329520Y47754284D02*
X-94377144Y47992380D01*
D10*
X-94234288Y47611428D02*
X-94329520Y47754284D01*
D10*
X-94091432Y47563808D02*
X-94234288Y47611428D01*
D10*
X-93996192Y47563808D02*
X-94091432Y47563808D01*
D10*
X-93853336Y47611428D02*
X-93996192Y47563808D01*
D10*
X-93758096Y47754284D02*
X-93853336Y47611428D01*
D10*
X-93710480Y47992380D02*
X-93758096Y47754284D01*
D10*
X-93710480Y48135240D02*
X-93710480Y47992380D01*
D10*
X-93758096Y48373332D02*
X-93710480Y48135240D01*
D10*
X-93853336Y48516192D02*
X-93758096Y48373332D01*
D10*
X-93996192Y48563808D02*
X-93853336Y48516192D01*
D10*
X-94091432Y48563808D02*
X-93996192Y48563808D01*
D10*
X-93186664Y48420952D02*
X-93281904Y48373332D01*
D10*
X-93043808Y48563808D02*
X-93186664Y48420952D01*
D10*
X-93043808Y47563808D02*
X-93043808Y48563808D01*
D10*
X-50420000Y75380000D02*
X-50420000Y74630000D01*
D10*
X-50220000Y74630000D02*
X-50220000Y69880000D01*
D10*
X-50420000Y74630000D02*
X-50220000Y74630000D01*
D10*
X-58620000Y74380000D02*
X-58620000Y69880000D01*
D10*
X-49229524Y70713336D02*
X-49943808Y70713336D01*
D10*
X-49086668Y70760952D02*
X-49229524Y70713336D01*
D10*
X-48991428Y70856192D02*
X-49086668Y70760952D01*
D10*
X-48943808Y70999048D02*
X-48991428Y70856192D01*
D10*
X-48943808Y71094288D02*
X-48943808Y70999048D01*
D10*
X-48991428Y71237144D02*
X-48943808Y71094288D01*
D10*
X-49086668Y71332384D02*
X-48991428Y71237144D01*
D10*
X-49229524Y71380000D02*
X-49086668Y71332384D01*
D10*
X-49943808Y71380000D02*
X-49229524Y71380000D01*
D10*
X-49800952Y71951432D02*
X-49753332Y71856192D01*
D10*
X-49943808Y72094288D02*
X-49800952Y71951432D01*
D10*
X-48943808Y72094288D02*
X-49943808Y72094288D01*
D10*
X-49753332Y72713336D02*
X-49705716Y72713336D01*
D10*
X-49848572Y72760952D02*
X-49753332Y72713336D01*
D10*
X-49896192Y72808568D02*
X-49848572Y72760952D01*
D10*
X-49943808Y72903808D02*
X-49896192Y72808568D01*
D10*
X-49943808Y73094288D02*
X-49943808Y72903808D01*
D10*
X-49896192Y73189520D02*
X-49943808Y73094288D01*
D10*
X-49848572Y73237144D02*
X-49896192Y73189520D01*
D10*
X-49753332Y73284760D02*
X-49848572Y73237144D01*
D10*
X-49658096Y73284760D02*
X-49753332Y73284760D01*
D10*
X-49562856Y73237144D02*
X-49658096Y73284760D01*
D10*
X-49420000Y73141904D02*
X-49562856Y73237144D01*
D10*
X-48943808Y72665712D02*
X-49420000Y73141904D01*
D10*
X-48943808Y73332384D02*
X-48943808Y72665712D01*
D10*
X-49896192Y73760952D02*
X-49943808Y73903808D01*
D10*
X-49753332Y73665712D02*
X-49896192Y73760952D01*
D10*
X-49515240Y73618096D02*
X-49753332Y73665712D01*
D10*
X-49372380Y73618096D02*
X-49515240Y73618096D01*
D10*
X-49134284Y73665712D02*
X-49372380Y73618096D01*
D10*
X-48991428Y73760952D02*
X-49134284Y73665712D01*
D10*
X-48943808Y73903808D02*
X-48991428Y73760952D01*
D10*
X-48943808Y73999048D02*
X-48943808Y73903808D01*
D10*
X-48991428Y74141904D02*
X-48943808Y73999048D01*
D10*
X-49134284Y74237144D02*
X-48991428Y74141904D01*
D10*
X-49372380Y74284760D02*
X-49134284Y74237144D01*
D10*
X-49515240Y74284760D02*
X-49372380Y74284760D01*
D10*
X-49753332Y74237144D02*
X-49515240Y74284760D01*
D10*
X-49896192Y74141904D02*
X-49753332Y74237144D01*
D10*
X-49943808Y73999048D02*
X-49896192Y74141904D01*
D10*
X-49943808Y73903808D02*
X-49943808Y73999048D01*
D10*
X-49800952Y74808568D02*
X-49753332Y74713336D01*
D10*
X-49943808Y74951432D02*
X-49800952Y74808568D01*
D10*
X-48943808Y74951432D02*
X-49943808Y74951432D01*
D10*
X35050000Y-22750000D02*
X34350000Y-22750000D01*
D10*
X34350000Y-25650000D02*
X35350000Y-25650000D01*
D10*
X32633334Y-27076190D02*
X32633334Y-26076190D01*
D10*
X32966666Y-26076190D02*
X32633334Y-26076190D01*
D10*
X33109524Y-26123810D02*
X32966666Y-26076190D01*
D10*
X33204762Y-26219048D02*
X33109524Y-26123810D01*
D10*
X33252380Y-26314286D02*
X33204762Y-26219048D01*
D10*
X33300000Y-26457142D02*
X33252380Y-26314286D01*
D10*
X33300000Y-26695238D02*
X33300000Y-26457142D01*
D10*
X33252380Y-26838096D02*
X33300000Y-26695238D01*
D10*
X33204762Y-26933334D02*
X33252380Y-26838096D01*
D10*
X33109524Y-27028572D02*
X33204762Y-26933334D01*
D10*
X32966666Y-27076190D02*
X33109524Y-27028572D01*
D10*
X32633334Y-27076190D02*
X32966666Y-27076190D01*
D10*
X33776192Y-27076190D02*
X34252380Y-26076190D01*
D10*
X34252380Y-26076190D02*
X33585716Y-26076190D01*
D10*
X34680952Y-26123810D02*
X34823808Y-26076190D01*
D10*
X34585716Y-26266666D02*
X34680952Y-26123810D01*
D10*
X34538096Y-26504762D02*
X34585716Y-26266666D01*
D10*
X34538096Y-26647620D02*
X34538096Y-26504762D01*
D10*
X34585716Y-26885714D02*
X34538096Y-26647620D01*
D10*
X34680952Y-27028572D02*
X34585716Y-26885714D01*
D10*
X34823808Y-27076190D02*
X34680952Y-27028572D01*
D10*
X34919048Y-27076190D02*
X34823808Y-27076190D01*
D10*
X35061904Y-27028572D02*
X34919048Y-27076190D01*
D10*
X35157144Y-26885714D02*
X35061904Y-27028572D01*
D10*
X35204760Y-26647620D02*
X35157144Y-26885714D01*
D10*
X35204760Y-26504762D02*
X35204760Y-26647620D01*
D10*
X35157144Y-26266666D02*
X35204760Y-26504762D01*
D10*
X35061904Y-26123810D02*
X35157144Y-26266666D01*
D10*
X34919048Y-26076190D02*
X35061904Y-26123810D01*
D10*
X34823808Y-26076190D02*
X34919048Y-26076190D01*
D10*
X35728572Y-26219048D02*
X35633332Y-26266666D01*
D10*
X35871428Y-26076190D02*
X35728572Y-26219048D01*
D10*
X35871428Y-27076190D02*
X35871428Y-26076190D01*
D10*
X32690476Y31023810D02*
X32690476Y32023810D01*
D10*
X33023810Y32023810D02*
X32690476Y32023810D01*
D10*
X33166666Y31976190D02*
X33023810Y32023810D01*
D10*
X33261904Y31880952D02*
X33166666Y31976190D01*
D10*
X33309524Y31785714D02*
X33261904Y31880952D01*
D10*
X33357142Y31642858D02*
X33309524Y31785714D01*
D10*
X33357142Y31404762D02*
X33357142Y31642858D01*
D10*
X33309524Y31261904D02*
X33357142Y31404762D01*
D10*
X33261904Y31166666D02*
X33309524Y31261904D01*
D10*
X33166666Y31071428D02*
X33261904Y31166666D01*
D10*
X33023810Y31023810D02*
X33166666Y31071428D01*
D10*
X32690476Y31023810D02*
X33023810Y31023810D01*
D10*
X33833332Y31023810D02*
X34309524Y32023810D01*
D10*
X34309524Y32023810D02*
X33642856Y32023810D01*
D10*
X34738096Y31976190D02*
X34880952Y32023810D01*
D10*
X34642856Y31833334D02*
X34738096Y31976190D01*
D10*
X34595240Y31595238D02*
X34642856Y31833334D01*
D10*
X34595240Y31452380D02*
X34595240Y31595238D01*
D10*
X34642856Y31214286D02*
X34595240Y31452380D01*
D10*
X34738096Y31071428D02*
X34642856Y31214286D01*
D10*
X34880952Y31023810D02*
X34738096Y31071428D01*
D10*
X34976192Y31023810D02*
X34880952Y31023810D01*
D10*
X35119048Y31071428D02*
X34976192Y31023810D01*
D10*
X35214284Y31214286D02*
X35119048Y31071428D01*
D10*
X35261904Y31452380D02*
X35214284Y31214286D01*
D10*
X35261904Y31595238D02*
X35261904Y31452380D01*
D10*
X35214284Y31833334D02*
X35261904Y31595238D01*
D10*
X35119048Y31976190D02*
X35214284Y31833334D01*
D10*
X34976192Y32023810D02*
X35119048Y31976190D01*
D10*
X34880952Y32023810D02*
X34976192Y32023810D01*
D10*
X35642856Y31976190D02*
X35785716Y32023810D01*
D10*
X35595240Y31880952D02*
X35642856Y31976190D01*
D10*
X35595240Y31785714D02*
X35595240Y31880952D01*
D10*
X35642856Y31690476D02*
X35595240Y31785714D01*
D10*
X35738096Y31642858D02*
X35642856Y31690476D01*
D10*
X35928572Y31595238D02*
X35738096Y31642858D01*
D10*
X36071428Y31547620D02*
X35928572Y31595238D01*
D10*
X36166668Y31452380D02*
X36071428Y31547620D01*
D10*
X36214284Y31357142D02*
X36166668Y31452380D01*
D10*
X36214284Y31214286D02*
X36214284Y31357142D01*
D10*
X36166668Y31119048D02*
X36214284Y31214286D01*
D10*
X36119048Y31071428D02*
X36166668Y31119048D01*
D10*
X35976192Y31023810D02*
X36119048Y31071428D01*
D10*
X35785716Y31023810D02*
X35976192Y31023810D01*
D10*
X35642856Y31071428D02*
X35785716Y31023810D01*
D10*
X35595240Y31119048D02*
X35642856Y31071428D01*
D10*
X35547620Y31214286D02*
X35595240Y31119048D01*
D10*
X35547620Y31357142D02*
X35547620Y31214286D01*
D10*
X35595240Y31452380D02*
X35547620Y31357142D01*
D10*
X35690476Y31547620D02*
X35595240Y31452380D01*
D10*
X35833332Y31595238D02*
X35690476Y31547620D01*
D10*
X36023808Y31642858D02*
X35833332Y31595238D01*
D10*
X36119048Y31690476D02*
X36023808Y31642858D01*
D10*
X36166668Y31785714D02*
X36119048Y31690476D01*
D10*
X36166668Y31880952D02*
X36166668Y31785714D01*
D10*
X36119048Y31976190D02*
X36166668Y31880952D01*
D10*
X35976192Y32023810D02*
X36119048Y31976190D01*
D10*
X35785716Y32023810D02*
X35976192Y32023810D01*
D10*
X34650000Y26650000D02*
X33950000Y26650000D01*
D10*
X33950000Y23750000D02*
X34950000Y23750000D01*
D10*
X32233334Y22323810D02*
X32233334Y23323810D01*
D10*
X32566666Y23323810D02*
X32233334Y23323810D01*
D10*
X32709524Y23276190D02*
X32566666Y23323810D01*
D10*
X32804762Y23180952D02*
X32709524Y23276190D01*
D10*
X32852380Y23085714D02*
X32804762Y23180952D01*
D10*
X32900000Y22942858D02*
X32852380Y23085714D01*
D10*
X32900000Y22704762D02*
X32900000Y22942858D01*
D10*
X32852380Y22561904D02*
X32900000Y22704762D01*
D10*
X32804762Y22466666D02*
X32852380Y22561904D01*
D10*
X32709524Y22371428D02*
X32804762Y22466666D01*
D10*
X32566666Y22323810D02*
X32709524Y22371428D01*
D10*
X32233334Y22323810D02*
X32566666Y22323810D01*
D10*
X33376190Y22323810D02*
X33852380Y23323810D01*
D10*
X33852380Y23323810D02*
X33185714Y23323810D01*
D10*
X34280952Y23276190D02*
X34423808Y23323810D01*
D10*
X34185716Y23133334D02*
X34280952Y23276190D01*
D10*
X34138096Y22895238D02*
X34185716Y23133334D01*
D10*
X34138096Y22752380D02*
X34138096Y22895238D01*
D10*
X34185716Y22514286D02*
X34138096Y22752380D01*
D10*
X34280952Y22371428D02*
X34185716Y22514286D01*
D10*
X34423808Y22323810D02*
X34280952Y22371428D01*
D10*
X34519048Y22323810D02*
X34423808Y22323810D01*
D10*
X34661904Y22371428D02*
X34519048Y22323810D01*
D10*
X34757144Y22514286D02*
X34661904Y22371428D01*
D10*
X34804760Y22752380D02*
X34757144Y22514286D01*
D10*
X34804760Y22895238D02*
X34804760Y22752380D01*
D10*
X34757144Y23133334D02*
X34804760Y22895238D01*
D10*
X34661904Y23276190D02*
X34757144Y23133334D01*
D10*
X34519048Y23323810D02*
X34661904Y23276190D01*
D10*
X34423808Y23323810D02*
X34519048Y23323810D01*
D10*
X35661904Y23276190D02*
X35709524Y23180952D01*
D10*
X35519048Y23323810D02*
X35661904Y23276190D01*
D10*
X35423808Y23323810D02*
X35519048Y23323810D01*
D10*
X35280952Y23276190D02*
X35423808Y23323810D01*
D10*
X35185716Y23133334D02*
X35280952Y23276190D01*
D10*
X35138096Y22895238D02*
X35185716Y23133334D01*
D10*
X35138096Y22657142D02*
X35138096Y22895238D01*
D10*
X35185716Y22466666D02*
X35138096Y22657142D01*
D10*
X35280952Y22371428D02*
X35185716Y22466666D01*
D10*
X35423808Y22323810D02*
X35280952Y22371428D01*
D10*
X35471428Y22323810D02*
X35423808Y22323810D01*
D10*
X35614284Y22371428D02*
X35471428Y22323810D01*
D10*
X35709524Y22466666D02*
X35614284Y22371428D01*
D10*
X35757144Y22609524D02*
X35709524Y22466666D01*
D10*
X35757144Y22657142D02*
X35757144Y22609524D01*
D10*
X35709524Y22800000D02*
X35757144Y22657142D01*
D10*
X35614284Y22895238D02*
X35709524Y22800000D01*
D10*
X35471428Y22942858D02*
X35614284Y22895238D01*
D10*
X35423808Y22942858D02*
X35471428Y22942858D01*
D10*
X35280952Y22895238D02*
X35423808Y22942858D01*
D10*
X35185716Y22800000D02*
X35280952Y22895238D01*
D10*
X35138096Y22657142D02*
X35185716Y22800000D01*
D10*
X32850000Y28250000D02*
X32150000Y28250000D01*
D10*
X32150000Y25350000D02*
X33150000Y25350000D01*
D10*
X30433334Y23923810D02*
X30433334Y24923810D01*
D10*
X30766666Y24923810D02*
X30433334Y24923810D01*
D10*
X30909524Y24876190D02*
X30766666Y24923810D01*
D10*
X31004762Y24780952D02*
X30909524Y24876190D01*
D10*
X31052380Y24685714D02*
X31004762Y24780952D01*
D10*
X31100000Y24542858D02*
X31052380Y24685714D01*
D10*
X31100000Y24304762D02*
X31100000Y24542858D01*
D10*
X31052380Y24161904D02*
X31100000Y24304762D01*
D10*
X31004762Y24066666D02*
X31052380Y24161904D01*
D10*
X30909524Y23971428D02*
X31004762Y24066666D01*
D10*
X30766666Y23923810D02*
X30909524Y23971428D01*
D10*
X30433334Y23923810D02*
X30766666Y23923810D01*
D10*
X31576190Y23923810D02*
X32052380Y24923810D01*
D10*
X32052380Y24923810D02*
X31385714Y24923810D01*
D10*
X32480952Y24876190D02*
X32623810Y24923810D01*
D10*
X32385714Y24733334D02*
X32480952Y24876190D01*
D10*
X32338096Y24495238D02*
X32385714Y24733334D01*
D10*
X32338096Y24352380D02*
X32338096Y24495238D01*
D10*
X32385714Y24114286D02*
X32338096Y24352380D01*
D10*
X32480952Y23971428D02*
X32385714Y24114286D01*
D10*
X32623810Y23923810D02*
X32480952Y23971428D01*
D10*
X32719048Y23923810D02*
X32623810Y23923810D01*
D10*
X32861904Y23971428D02*
X32719048Y23923810D01*
D10*
X32957142Y24114286D02*
X32861904Y23971428D01*
D10*
X33004762Y24352380D02*
X32957142Y24114286D01*
D10*
X33004762Y24495238D02*
X33004762Y24352380D01*
D10*
X32957142Y24733334D02*
X33004762Y24495238D01*
D10*
X32861904Y24876190D02*
X32957142Y24733334D01*
D10*
X32719048Y24923810D02*
X32861904Y24876190D01*
D10*
X32623810Y24923810D02*
X32719048Y24923810D01*
D10*
X33290476Y24257142D02*
X33766668Y24923810D01*
D10*
X34004760Y24257142D02*
X33290476Y24257142D01*
D10*
X33766668Y23923810D02*
X33766668Y24923810D01*
D10*
X-36820000Y8340000D02*
X-39020000Y8340000D01*
D10*
X-36820000Y29340000D02*
X-39020000Y29340000D01*
D10*
X-41420000Y29340000D02*
X-43620000Y29340000D01*
D10*
X-41420000Y8340000D02*
X-43620000Y8340000D01*
D10*
X-43620000Y8340000D02*
X-43620000Y12440000D01*
D10*
X-36820000Y25240000D02*
X-36820000Y29340000D01*
D10*
X-39020000Y8340000D02*
X-39020000Y8340000D01*
D10*
X-39020000Y8340000D02*
X-39020000Y8340000D01*
D10*
X-39020000Y8340000D02*
X-39020000Y8340000D01*
D10*
X-36820000Y12440000D02*
X-36820000Y8340000D01*
D10*
X-39743808Y15620952D02*
X-40743808Y16001905D01*
D10*
X-39743808Y16382857D02*
X-40743808Y16001905D01*
D10*
X-40077144Y16240000D02*
X-40077144Y15763810D01*
D10*
X-40600952Y16811428D02*
X-40553332Y16716190D01*
D10*
X-40743808Y16954286D02*
X-40600952Y16811428D01*
D10*
X-39743808Y16954286D02*
X-40743808Y16954286D01*
D10*
X-40600952Y17763810D02*
X-40553332Y17668572D01*
D10*
X-40743808Y17906666D02*
X-40600952Y17763810D01*
D10*
X-39743808Y17906666D02*
X-40743808Y17906666D01*
D10*
X-40696192Y18620952D02*
X-40743808Y18763810D01*
D10*
X-40553332Y18525714D02*
X-40696192Y18620952D01*
D10*
X-40315240Y18478096D02*
X-40553332Y18525714D01*
D10*
X-40172380Y18478096D02*
X-40315240Y18478096D01*
D10*
X-39934284Y18525714D02*
X-40172380Y18478096D01*
D10*
X-39791428Y18620952D02*
X-39934284Y18525714D01*
D10*
X-39743808Y18763810D02*
X-39791428Y18620952D01*
D10*
X-39743808Y18859048D02*
X-39743808Y18763810D01*
D10*
X-39791428Y19001904D02*
X-39743808Y18859048D01*
D10*
X-39934284Y19097142D02*
X-39791428Y19001904D01*
D10*
X-40172380Y19144762D02*
X-39934284Y19097142D01*
D10*
X-40315240Y19144762D02*
X-40172380Y19144762D01*
D10*
X-40553332Y19097142D02*
X-40315240Y19144762D01*
D10*
X-40696192Y19001904D02*
X-40553332Y19097142D01*
D10*
X-40743808Y18859048D02*
X-40696192Y19001904D01*
D10*
X-40743808Y18763810D02*
X-40743808Y18859048D01*
D10*
X-40600952Y19668572D02*
X-40553332Y19573334D01*
D10*
X-40743808Y19811428D02*
X-40600952Y19668572D01*
D10*
X-39743808Y19811428D02*
X-40743808Y19811428D01*
D10*
X-127850000Y56825000D02*
X-127850000Y55625000D01*
D10*
X-125550000Y55625000D02*
X-125550000Y57215000D01*
D10*
X-124419520Y53410716D02*
X-125133808Y53410716D01*
D10*
X-124276664Y53458332D02*
X-124419520Y53410716D01*
D10*
X-124181432Y53553572D02*
X-124276664Y53458332D01*
D10*
X-124133808Y53696428D02*
X-124181432Y53553572D01*
D10*
X-124133808Y53791668D02*
X-124133808Y53696428D01*
D10*
X-124181432Y53934524D02*
X-124133808Y53791668D01*
D10*
X-124276664Y54029760D02*
X-124181432Y53934524D01*
D10*
X-124419520Y54077380D02*
X-124276664Y54029760D01*
D10*
X-125133808Y54077380D02*
X-124419520Y54077380D01*
D10*
X-124133808Y54601192D02*
X-125133808Y55077380D01*
D10*
X-125133808Y55077380D02*
X-125133808Y54410716D01*
D10*
X-125086192Y55505952D02*
X-125133808Y55648808D01*
D10*
X-124943336Y55410716D02*
X-125086192Y55505952D01*
D10*
X-124705240Y55363096D02*
X-124943336Y55410716D01*
D10*
X-124562384Y55363096D02*
X-124705240Y55363096D01*
D10*
X-124324288Y55410716D02*
X-124562384Y55363096D01*
D10*
X-124181432Y55505952D02*
X-124324288Y55410716D01*
D10*
X-124133808Y55648808D02*
X-124181432Y55505952D01*
D10*
X-124133808Y55744048D02*
X-124133808Y55648808D01*
D10*
X-124181432Y55886904D02*
X-124133808Y55744048D01*
D10*
X-124324288Y55982144D02*
X-124181432Y55886904D01*
D10*
X-124562384Y56029760D02*
X-124324288Y55982144D01*
D10*
X-124705240Y56029760D02*
X-124562384Y56029760D01*
D10*
X-124943336Y55982144D02*
X-124705240Y56029760D01*
D10*
X-125086192Y55886904D02*
X-124943336Y55982144D01*
D10*
X-125133808Y55744048D02*
X-125086192Y55886904D01*
D10*
X-125133808Y55648808D02*
X-125133808Y55744048D01*
D10*
X-124943336Y56363096D02*
X-124895712Y56363096D01*
D10*
X-125038568Y56410716D02*
X-124943336Y56363096D01*
D10*
X-125086192Y56458332D02*
X-125038568Y56410716D01*
D10*
X-125133808Y56553572D02*
X-125086192Y56458332D01*
D10*
X-125133808Y56744048D02*
X-125133808Y56553572D01*
D10*
X-125086192Y56839284D02*
X-125133808Y56744048D01*
D10*
X-125038568Y56886904D02*
X-125086192Y56839284D01*
D10*
X-124943336Y56934524D02*
X-125038568Y56886904D01*
D10*
X-124848096Y56934524D02*
X-124943336Y56934524D01*
D10*
X-124752856Y56886904D02*
X-124848096Y56934524D01*
D10*
X-124610000Y56791668D02*
X-124752856Y56886904D01*
D10*
X-124133808Y56315476D02*
X-124610000Y56791668D01*
D10*
X-124133808Y56982144D02*
X-124133808Y56315476D01*
D10*
X-15561905Y-10147619D02*
X-16323810Y-10147619D01*
D10*
X-15419048Y-10195238D02*
X-15561905Y-10147619D01*
D10*
X-15371429Y-10242857D02*
X-15419048Y-10195238D01*
D10*
X-15323810Y-10338095D02*
X-15371429Y-10242857D01*
D10*
X-15323810Y-10433334D02*
X-15323810Y-10338095D01*
D10*
X-15371429Y-10528572D02*
X-15323810Y-10433334D01*
D10*
X-15419048Y-10576190D02*
X-15371429Y-10528572D01*
D10*
X-15561905Y-10623810D02*
X-15419048Y-10576190D01*
D10*
X-15657143Y-10623810D02*
X-15561905Y-10623810D01*
D10*
X-15323810Y-9766666D02*
X-16323810Y-9766666D01*
D10*
X-16323810Y-9338095D02*
X-16323810Y-9766666D01*
D10*
X-16276190Y-9195238D02*
X-16323810Y-9338095D01*
D10*
X-16228571Y-9147619D02*
X-16276190Y-9195238D01*
D10*
X-16133333Y-9100000D02*
X-16228571Y-9147619D01*
D10*
X-15990476Y-9100000D02*
X-16133333Y-9100000D01*
D10*
X-15895238Y-9147619D02*
X-15990476Y-9100000D01*
D10*
X-15847619Y-9195238D02*
X-15895238Y-9147619D01*
D10*
X-15800000Y-9338095D02*
X-15847619Y-9195238D01*
D10*
X-15800000Y-9766666D02*
X-15800000Y-9338095D01*
D10*
X-16323810Y-8195238D02*
X-16323810Y-8719048D01*
D10*
X-15942857Y-8480952D02*
X-16323810Y-8195238D01*
D10*
X-15942857Y-8338095D02*
X-15942857Y-8480952D01*
D10*
X-15895238Y-8242857D02*
X-15942857Y-8338095D01*
D10*
X-15847619Y-8195238D02*
X-15895238Y-8242857D01*
D10*
X-15704762Y-8147619D02*
X-15847619Y-8195238D01*
D10*
X-15609524Y-8147619D02*
X-15704762Y-8147619D01*
D10*
X-15466667Y-8195238D02*
X-15609524Y-8147619D01*
D10*
X-15371429Y-8290476D02*
X-15466667Y-8195238D01*
D10*
X-15323810Y-8433333D02*
X-15371429Y-8290476D01*
D10*
X-15323810Y-8576190D02*
X-15323810Y-8433333D01*
D10*
X-15371429Y-8719048D02*
X-15323810Y-8576190D01*
D10*
X-15419048Y-8766666D02*
X-15371429Y-8719048D01*
D10*
X-15514286Y-8814286D02*
X-15419048Y-8766666D01*
D10*
X-16276190Y-7719047D02*
X-16323810Y-7576190D01*
D10*
X-16133333Y-7814286D02*
X-16276190Y-7719047D01*
D10*
X-15895238Y-7861905D02*
X-16133333Y-7814286D01*
D10*
X-15752381Y-7861905D02*
X-15895238Y-7861905D01*
D10*
X-15514286Y-7814286D02*
X-15752381Y-7861905D01*
D10*
X-15371429Y-7719047D02*
X-15514286Y-7814286D01*
D10*
X-15323810Y-7576190D02*
X-15371429Y-7719047D01*
D10*
X-15323810Y-7480952D02*
X-15323810Y-7576190D01*
D10*
X-15371429Y-7338095D02*
X-15323810Y-7480952D01*
D10*
X-15514286Y-7242857D02*
X-15371429Y-7338095D01*
D10*
X-15752381Y-7195238D02*
X-15514286Y-7242857D01*
D10*
X-15895238Y-7195238D02*
X-15752381Y-7195238D01*
D10*
X-16133333Y-7242857D02*
X-15895238Y-7195238D01*
D10*
X-16276190Y-7338095D02*
X-16133333Y-7242857D01*
D10*
X-16323810Y-7480952D02*
X-16276190Y-7338095D01*
D10*
X-16323810Y-7576190D02*
X-16323810Y-7480952D01*
D10*
X-16180952Y-6671428D02*
X-16133333Y-6766666D01*
D10*
X-16323810Y-6528571D02*
X-16180952Y-6671428D01*
D10*
X-15323810Y-6528571D02*
X-16323810Y-6528571D01*
D10*
X33150000Y-24550000D02*
X32450000Y-24550000D01*
D10*
X32450000Y-27450000D02*
X33450000Y-27450000D01*
D10*
X30733334Y-28876190D02*
X30733334Y-27876190D01*
D10*
X31066666Y-27876190D02*
X30733334Y-27876190D01*
D10*
X31209524Y-27923810D02*
X31066666Y-27876190D01*
D10*
X31304762Y-28019048D02*
X31209524Y-27923810D01*
D10*
X31352380Y-28114286D02*
X31304762Y-28019048D01*
D10*
X31400000Y-28257142D02*
X31352380Y-28114286D01*
D10*
X31400000Y-28495238D02*
X31400000Y-28257142D01*
D10*
X31352380Y-28638096D02*
X31400000Y-28495238D01*
D10*
X31304762Y-28733334D02*
X31352380Y-28638096D01*
D10*
X31209524Y-28828572D02*
X31304762Y-28733334D01*
D10*
X31066666Y-28876190D02*
X31209524Y-28828572D01*
D10*
X30733334Y-28876190D02*
X31066666Y-28876190D01*
D10*
X31876190Y-28876190D02*
X32352380Y-27876190D01*
D10*
X32352380Y-27876190D02*
X31685714Y-27876190D01*
D10*
X32780952Y-27923810D02*
X32923810Y-27876190D01*
D10*
X32685714Y-28066666D02*
X32780952Y-27923810D01*
D10*
X32638096Y-28304762D02*
X32685714Y-28066666D01*
D10*
X32638096Y-28447620D02*
X32638096Y-28304762D01*
D10*
X32685714Y-28685714D02*
X32638096Y-28447620D01*
D10*
X32780952Y-28828572D02*
X32685714Y-28685714D01*
D10*
X32923810Y-28876190D02*
X32780952Y-28828572D01*
D10*
X33019048Y-28876190D02*
X32923810Y-28876190D01*
D10*
X33161904Y-28828572D02*
X33019048Y-28876190D01*
D10*
X33257142Y-28685714D02*
X33161904Y-28828572D01*
D10*
X33304762Y-28447620D02*
X33257142Y-28685714D01*
D10*
X33304762Y-28304762D02*
X33304762Y-28447620D01*
D10*
X33257142Y-28066666D02*
X33304762Y-28304762D01*
D10*
X33161904Y-27923810D02*
X33257142Y-28066666D01*
D10*
X33019048Y-27876190D02*
X33161904Y-27923810D01*
D10*
X32923810Y-27876190D02*
X33019048Y-27876190D01*
D10*
X33638096Y-28066666D02*
X33638096Y-28114286D01*
D10*
X33685716Y-27971428D02*
X33638096Y-28066666D01*
D10*
X33733332Y-27923810D02*
X33685716Y-27971428D01*
D10*
X33828572Y-27876190D02*
X33733332Y-27923810D01*
D10*
X34019048Y-27876190D02*
X33828572Y-27876190D01*
D10*
X34114284Y-27923810D02*
X34019048Y-27876190D01*
D10*
X34161904Y-27971428D02*
X34114284Y-27923810D01*
D10*
X34209524Y-28066666D02*
X34161904Y-27971428D01*
D10*
X34209524Y-28161904D02*
X34209524Y-28066666D01*
D10*
X34161904Y-28257142D02*
X34209524Y-28161904D01*
D10*
X34066668Y-28400000D02*
X34161904Y-28257142D01*
D10*
X33590476Y-28876190D02*
X34066668Y-28400000D01*
D10*
X34257144Y-28876190D02*
X33590476Y-28876190D01*
D10*
X-45100000Y-18300000D02*
X-45100000Y-19300000D01*
D10*
X-44400000Y-18800000D02*
X-45100000Y-18300000D01*
D10*
X-45100000Y-19300000D02*
X-44400000Y-18800000D01*
D10*
X-44623808Y-27966666D02*
X-45623808Y-27585714D01*
D10*
X-44623808Y-27204762D02*
X-45623808Y-27585714D01*
D10*
X-44957144Y-27347620D02*
X-44957144Y-27823810D01*
D10*
X-45576192Y-26442856D02*
X-45480952Y-26395238D01*
D10*
X-45623808Y-26585714D02*
X-45576192Y-26442856D01*
D10*
X-45623808Y-26680952D02*
X-45623808Y-26585714D01*
D10*
X-45576192Y-26823810D02*
X-45623808Y-26680952D01*
D10*
X-45433332Y-26919048D02*
X-45576192Y-26823810D01*
D10*
X-45195240Y-26966666D02*
X-45433332Y-26919048D01*
D10*
X-44957144Y-26966666D02*
X-45195240Y-26966666D01*
D10*
X-44766668Y-26919048D02*
X-44957144Y-26966666D01*
D10*
X-44671428Y-26823810D02*
X-44766668Y-26919048D01*
D10*
X-44623808Y-26680952D02*
X-44671428Y-26823810D01*
D10*
X-44623808Y-26633334D02*
X-44623808Y-26680952D01*
D10*
X-44671428Y-26490476D02*
X-44623808Y-26633334D01*
D10*
X-44766668Y-26395238D02*
X-44671428Y-26490476D01*
D10*
X-44909524Y-26347620D02*
X-44766668Y-26395238D01*
D10*
X-44957144Y-26347620D02*
X-44909524Y-26347620D01*
D10*
X-45100000Y-26395238D02*
X-44957144Y-26347620D01*
D10*
X-45195240Y-26490476D02*
X-45100000Y-26395238D01*
D10*
X-45242856Y-26633334D02*
X-45195240Y-26490476D01*
D10*
X-45242856Y-26680952D02*
X-45242856Y-26633334D01*
D10*
X-45195240Y-26823810D02*
X-45242856Y-26680952D01*
D10*
X-45100000Y-26919048D02*
X-45195240Y-26823810D01*
D10*
X-44957144Y-26966666D02*
X-45100000Y-26919048D01*
D10*
X-45576192Y-25919048D02*
X-45623808Y-25776190D01*
D10*
X-45433332Y-26014286D02*
X-45576192Y-25919048D01*
D10*
X-45195240Y-26061904D02*
X-45433332Y-26014286D01*
D10*
X-45052380Y-26061904D02*
X-45195240Y-26061904D01*
D10*
X-44814284Y-26014286D02*
X-45052380Y-26061904D01*
D10*
X-44671428Y-25919048D02*
X-44814284Y-26014286D01*
D10*
X-44623808Y-25776190D02*
X-44671428Y-25919048D01*
D10*
X-44623808Y-25680952D02*
X-44623808Y-25776190D01*
D10*
X-44671428Y-25538096D02*
X-44623808Y-25680952D01*
D10*
X-44814284Y-25442858D02*
X-44671428Y-25538096D01*
D10*
X-45052380Y-25395238D02*
X-44814284Y-25442858D01*
D10*
X-45195240Y-25395238D02*
X-45052380Y-25395238D01*
D10*
X-45433332Y-25442858D02*
X-45195240Y-25395238D01*
D10*
X-45576192Y-25538096D02*
X-45433332Y-25442858D01*
D10*
X-45623808Y-25680952D02*
X-45576192Y-25538096D01*
D10*
X-45623808Y-25776190D02*
X-45623808Y-25680952D01*
D10*
X-45623808Y-24490476D02*
X-45623808Y-25014286D01*
D10*
X-45242856Y-24776190D02*
X-45623808Y-24490476D01*
D10*
X-45242856Y-24633334D02*
X-45242856Y-24776190D01*
D10*
X-45195240Y-24538096D02*
X-45242856Y-24633334D01*
D10*
X-45147620Y-24490476D02*
X-45195240Y-24538096D01*
D10*
X-45004760Y-24442858D02*
X-45147620Y-24490476D01*
D10*
X-44909524Y-24442858D02*
X-45004760Y-24442858D01*
D10*
X-44766668Y-24490476D02*
X-44909524Y-24442858D01*
D10*
X-44671428Y-24585714D02*
X-44766668Y-24490476D01*
D10*
X-44623808Y-24728572D02*
X-44671428Y-24585714D01*
D10*
X-44623808Y-24871428D02*
X-44623808Y-24728572D01*
D10*
X-44671428Y-25014286D02*
X-44623808Y-24871428D01*
D10*
X-44719048Y-25061904D02*
X-44671428Y-25014286D01*
D10*
X-44814284Y-25109524D02*
X-44719048Y-25061904D01*
D11*
X-53914000Y9542000D02*
X-54422000Y9542000D01*
D11*
X-53914000Y16222200D02*
X-54422000Y16222200D01*
D11*
X-53914000Y6417800D02*
X-53914000Y4462000D01*
D11*
X-54422000Y16222200D02*
X-54422000Y13098000D01*
D11*
X-54422000Y6417800D02*
X-53914000Y6417800D01*
D11*
X-53914000Y4462000D02*
X-60518000Y4462000D01*
D11*
X-54422000Y9542000D02*
X-54422000Y6417800D01*
D11*
X-54422000Y13098000D02*
X-53914000Y13098000D01*
D11*
X-60518000Y18178000D02*
X-53914000Y18178000D01*
D11*
X-53914000Y13098000D02*
X-53914000Y9542000D01*
D11*
X-60518000Y4462000D02*
X-60518000Y18178000D01*
D11*
X-53914000Y18178000D02*
X-53914000Y16222200D01*
D10*
X-61331904Y9672381D02*
X-62093808Y9672381D01*
D10*
X-61189048Y9624762D02*
X-61331904Y9672381D01*
D10*
X-61141428Y9577143D02*
X-61189048Y9624762D01*
D10*
X-61093808Y9481905D02*
X-61141428Y9577143D01*
D10*
X-61093808Y9386667D02*
X-61093808Y9481905D01*
D10*
X-61141428Y9291428D02*
X-61093808Y9386667D01*
D10*
X-61189048Y9243810D02*
X-61141428Y9291428D01*
D10*
X-61331904Y9196190D02*
X-61189048Y9243810D01*
D10*
X-61427144Y9196190D02*
X-61331904Y9196190D01*
D10*
X-62093808Y10624762D02*
X-62093808Y10100952D01*
D10*
X-61712856Y10339048D02*
X-62093808Y10624762D01*
D10*
X-61712856Y10481905D02*
X-61712856Y10339048D01*
D10*
X-61665240Y10577143D02*
X-61712856Y10481905D01*
D10*
X-61617620Y10624762D02*
X-61665240Y10577143D01*
D10*
X-61474760Y10672381D02*
X-61617620Y10624762D01*
D10*
X-61379524Y10672381D02*
X-61474760Y10672381D01*
D10*
X-61236668Y10624762D02*
X-61379524Y10672381D01*
D10*
X-61141428Y10529524D02*
X-61236668Y10624762D01*
D10*
X-61093808Y10386667D02*
X-61141428Y10529524D01*
D10*
X-61093808Y10243810D02*
X-61093808Y10386667D01*
D10*
X-61141428Y10100952D02*
X-61093808Y10243810D01*
D10*
X-61189048Y10053334D02*
X-61141428Y10100952D01*
D10*
X-61284284Y10005714D02*
X-61189048Y10053334D01*
D10*
X-62046192Y11100952D02*
X-62093808Y11243810D01*
D10*
X-61903332Y11005714D02*
X-62046192Y11100952D01*
D10*
X-61665240Y10958095D02*
X-61903332Y11005714D01*
D10*
X-61522380Y10958095D02*
X-61665240Y10958095D01*
D10*
X-61284284Y11005714D02*
X-61522380Y10958095D01*
D10*
X-61141428Y11100952D02*
X-61284284Y11005714D01*
D10*
X-61093808Y11243810D02*
X-61141428Y11100952D01*
D10*
X-61093808Y11339048D02*
X-61093808Y11243810D01*
D10*
X-61141428Y11481905D02*
X-61093808Y11339048D01*
D10*
X-61284284Y11577143D02*
X-61141428Y11481905D01*
D10*
X-61522380Y11624762D02*
X-61284284Y11577143D01*
D10*
X-61665240Y11624762D02*
X-61522380Y11624762D01*
D10*
X-61903332Y11577143D02*
X-61665240Y11624762D01*
D10*
X-62046192Y11481905D02*
X-61903332Y11577143D01*
D10*
X-62093808Y11339048D02*
X-62046192Y11481905D01*
D10*
X-62093808Y11243810D02*
X-62093808Y11339048D01*
D10*
X-61903332Y11958095D02*
X-61855716Y11958095D01*
D10*
X-61998572Y12005714D02*
X-61903332Y11958095D01*
D10*
X-62046192Y12053333D02*
X-61998572Y12005714D01*
D10*
X-62093808Y12148571D02*
X-62046192Y12053333D01*
D10*
X-62093808Y12339048D02*
X-62093808Y12148571D01*
D10*
X-62046192Y12434286D02*
X-62093808Y12339048D01*
D10*
X-61998572Y12481905D02*
X-62046192Y12434286D01*
D10*
X-61903332Y12529524D02*
X-61998572Y12481905D01*
D10*
X-61808096Y12529524D02*
X-61903332Y12529524D01*
D10*
X-61712856Y12481905D02*
X-61808096Y12529524D01*
D10*
X-61570000Y12386667D02*
X-61712856Y12481905D01*
D10*
X-61093808Y11910476D02*
X-61570000Y12386667D01*
D10*
X-61093808Y12577143D02*
X-61093808Y11910476D01*
D10*
X28725000Y22025000D02*
X2675000Y22025000D01*
D10*
X2675000Y31675000D02*
X28725000Y31675000D01*
D10*
X28725000Y31675000D02*
X28725000Y22025000D01*
D10*
X2675000Y22025000D02*
X2675000Y31675000D01*
D10*
X25872620Y32048810D02*
X26253572Y33048810D01*
D10*
X26634524Y32048810D02*
X26253572Y33048810D01*
D10*
X26491666Y32382142D02*
X26015476Y32382142D01*
D10*
X27396428Y33001190D02*
X27444048Y32905952D01*
D10*
X27253572Y33048810D02*
X27396428Y33001190D01*
D10*
X27158334Y33048810D02*
X27253572Y33048810D01*
D10*
X27015476Y33001190D02*
X27158334Y33048810D01*
D10*
X26920238Y32858334D02*
X27015476Y33001190D01*
D10*
X26872620Y32620238D02*
X26920238Y32858334D01*
D10*
X26872620Y32382142D02*
X26872620Y32620238D01*
D10*
X26920238Y32191666D02*
X26872620Y32382142D01*
D10*
X27015476Y32096428D02*
X26920238Y32191666D01*
D10*
X27158334Y32048810D02*
X27015476Y32096428D01*
D10*
X27205952Y32048810D02*
X27158334Y32048810D01*
D10*
X27348810Y32096428D02*
X27205952Y32048810D01*
D10*
X27444048Y32191666D02*
X27348810Y32096428D01*
D10*
X27491666Y32334524D02*
X27444048Y32191666D01*
D10*
X27491666Y32382142D02*
X27491666Y32334524D01*
D10*
X27444048Y32525000D02*
X27491666Y32382142D01*
D10*
X27348810Y32620238D02*
X27444048Y32525000D01*
D10*
X27205952Y32667858D02*
X27348810Y32620238D01*
D10*
X27158334Y32667858D02*
X27205952Y32667858D01*
D10*
X27015476Y32620238D02*
X27158334Y32667858D01*
D10*
X26920238Y32525000D02*
X27015476Y32620238D01*
D10*
X26872620Y32382142D02*
X26920238Y32525000D01*
D10*
X27920238Y33001190D02*
X28063096Y33048810D01*
D10*
X27825000Y32858334D02*
X27920238Y33001190D01*
D10*
X27777380Y32620238D02*
X27825000Y32858334D01*
D10*
X27777380Y32477380D02*
X27777380Y32620238D01*
D10*
X27825000Y32239286D02*
X27777380Y32477380D01*
D10*
X27920238Y32096428D02*
X27825000Y32239286D01*
D10*
X28063096Y32048810D02*
X27920238Y32096428D01*
D10*
X28158334Y32048810D02*
X28063096Y32048810D01*
D10*
X28301190Y32096428D02*
X28158334Y32048810D01*
D10*
X28396428Y32239286D02*
X28301190Y32096428D01*
D10*
X28444048Y32477380D02*
X28396428Y32239286D01*
D10*
X28444048Y32620238D02*
X28444048Y32477380D01*
D10*
X28396428Y32858334D02*
X28444048Y32620238D01*
D10*
X28301190Y33001190D02*
X28396428Y32858334D01*
D10*
X28158334Y33048810D02*
X28301190Y33001190D01*
D10*
X28063096Y33048810D02*
X28158334Y33048810D01*
D10*
X28967856Y32905952D02*
X28872620Y32858334D01*
D10*
X29110714Y33048810D02*
X28967856Y32905952D01*
D10*
X29110714Y32048810D02*
X29110714Y33048810D01*
D10*
X-146650000Y28200000D02*
X-146650000Y28200000D01*
D10*
X-146900000Y29625000D02*
X-147700000Y29625000D01*
D10*
X-147700000Y27775000D02*
X-147700000Y27775000D01*
D10*
X-147700000Y27775000D02*
X-147700000Y27775000D01*
D10*
X-147700000Y27775000D02*
X-147700000Y27775000D01*
D10*
X-146900000Y27775000D02*
X-147700000Y27775000D01*
D10*
X-146250000Y28450000D02*
X-146650000Y28200000D01*
D10*
X-146650000Y28200000D02*
X-146650000Y28200000D01*
D10*
X-146650000Y28200000D02*
X-146250000Y27950000D01*
D10*
X-146250000Y27950000D02*
X-146250000Y28450000D01*
D10*
X-147700000Y27775000D02*
X-147700000Y27775000D01*
D10*
X-147700000Y27775000D02*
X-147700000Y27775000D01*
D10*
X-148734512Y30409524D02*
X-148734512Y31123810D01*
D10*
X-148686896Y30266666D02*
X-148734512Y30409524D01*
D10*
X-148591664Y30171428D02*
X-148686896Y30266666D01*
D10*
X-148448800Y30123810D02*
X-148591664Y30171428D01*
D10*
X-148353568Y30123810D02*
X-148448800Y30123810D01*
D10*
X-148210704Y30171428D02*
X-148353568Y30123810D01*
D10*
X-148115472Y30266666D02*
X-148210704Y30171428D01*
D10*
X-148067856Y30409524D02*
X-148115472Y30266666D01*
D10*
X-148067856Y31123810D02*
X-148067856Y30409524D01*
D10*
X-147496416Y30980952D02*
X-147591664Y30933334D01*
D10*
X-147353568Y31123810D02*
X-147496416Y30980952D01*
D10*
X-147353568Y30123810D02*
X-147353568Y31123810D01*
D10*
X-146639280Y31076190D02*
X-146496416Y31123810D01*
D10*
X-146734512Y30933334D02*
X-146639280Y31076190D01*
D10*
X-146782128Y30695238D02*
X-146734512Y30933334D01*
D10*
X-146782128Y30552380D02*
X-146782128Y30695238D01*
D10*
X-146734512Y30314286D02*
X-146782128Y30552380D01*
D10*
X-146639280Y30171428D02*
X-146734512Y30314286D01*
D10*
X-146496416Y30123810D02*
X-146639280Y30171428D01*
D10*
X-146401184Y30123810D02*
X-146496416Y30123810D01*
D10*
X-146258320Y30171428D02*
X-146401184Y30123810D01*
D10*
X-146163088Y30314286D02*
X-146258320Y30171428D01*
D10*
X-146115472Y30552380D02*
X-146163088Y30314286D01*
D10*
X-146115472Y30695238D02*
X-146115472Y30552380D01*
D10*
X-146163088Y30933334D02*
X-146115472Y30695238D01*
D10*
X-146258320Y31076190D02*
X-146163088Y30933334D01*
D10*
X-146401184Y31123810D02*
X-146258320Y31076190D01*
D10*
X-146496416Y31123810D02*
X-146401184Y31123810D01*
D10*
X-145782128Y30933334D02*
X-145782128Y30885714D01*
D10*
X-145734512Y31028572D02*
X-145782128Y30933334D01*
D10*
X-145686896Y31076190D02*
X-145734512Y31028572D01*
D10*
X-145591664Y31123810D02*
X-145686896Y31076190D01*
D10*
X-145401184Y31123810D02*
X-145591664Y31123810D01*
D10*
X-145305952Y31076190D02*
X-145401184Y31123810D01*
D10*
X-145258320Y31028572D02*
X-145305952Y31076190D01*
D10*
X-145210704Y30933334D02*
X-145258320Y31028572D01*
D10*
X-145210704Y30838096D02*
X-145210704Y30933334D01*
D10*
X-145258320Y30742858D02*
X-145210704Y30838096D01*
D10*
X-145353568Y30600000D02*
X-145258320Y30742858D01*
D10*
X-145829760Y30123810D02*
X-145353568Y30600000D01*
D10*
X-145163088Y30123810D02*
X-145829760Y30123810D01*
G75*
M02*
