G75*
%MOIN*%
%OFA0B0*%
%FSLAX25Y25*%
%IPPOS*%
%LPD*%
%AMOC8*
5,1,8,0,0,1.08239X$1,22.5*
%
%ADD10C,0.01300*%
%ADD11C,0.01600*%
%ADD12C,0.01200*%
D10*
X0004517Y0034583D02*
X0004517Y0038236D01*
X0005734Y0039454D01*
X0006952Y0039454D01*
X0008170Y0038236D01*
X0008170Y0034583D01*
X0011823Y0034583D02*
X0011823Y0038236D01*
X0010605Y0039454D01*
X0009387Y0039454D01*
X0008170Y0038236D01*
X0010605Y0042502D02*
X0005734Y0042502D01*
X0004517Y0043720D01*
X0004517Y0046155D01*
X0005734Y0047373D01*
X0010605Y0047373D01*
X0011823Y0046155D01*
X0011823Y0043720D01*
X0010605Y0042502D01*
X0011823Y0050421D02*
X0011823Y0055291D01*
X0011823Y0052856D02*
X0004517Y0052856D01*
X0004517Y0060775D02*
X0011823Y0060775D01*
X0011823Y0063210D02*
X0011823Y0058339D01*
X0010605Y0066258D02*
X0005734Y0066258D01*
X0004517Y0067476D01*
X0004517Y0069911D01*
X0005734Y0071129D01*
X0010605Y0071129D01*
X0011823Y0069911D01*
X0011823Y0067476D01*
X0010605Y0066258D01*
X0011823Y0074177D02*
X0009387Y0076612D01*
X0011823Y0079048D01*
X0004517Y0079048D01*
X0004517Y0074177D02*
X0011823Y0074177D01*
X0017417Y0079456D02*
X0017417Y0083109D01*
X0018634Y0084327D01*
X0019852Y0084327D01*
X0021070Y0083109D01*
X0021070Y0079456D01*
X0017417Y0079456D02*
X0024723Y0079456D01*
X0024723Y0083109D01*
X0023505Y0084327D01*
X0022287Y0084327D01*
X0021070Y0083109D01*
X0021070Y0087375D02*
X0021070Y0089810D01*
X0024723Y0087375D02*
X0017417Y0087375D01*
X0017417Y0092246D01*
X0017417Y0097729D02*
X0024723Y0097729D01*
X0024723Y0095294D02*
X0024723Y0100164D01*
X0022287Y0103212D02*
X0024723Y0105648D01*
X0022287Y0108083D01*
X0017417Y0108083D01*
X0021070Y0108083D02*
X0021070Y0103212D01*
X0022287Y0103212D02*
X0017417Y0103212D01*
X0011823Y0103212D02*
X0011823Y0106865D01*
X0010605Y0108083D01*
X0005734Y0108083D01*
X0004517Y0106865D01*
X0004517Y0103212D01*
X0011823Y0103212D01*
X0011823Y0100369D02*
X0011823Y0097933D01*
X0011823Y0099151D02*
X0004517Y0099151D01*
X0004517Y0097933D02*
X0004517Y0100369D01*
X0005734Y0094885D02*
X0004517Y0093668D01*
X0004517Y0091232D01*
X0005734Y0090014D01*
X0008170Y0091232D02*
X0008170Y0093668D01*
X0006952Y0094885D01*
X0005734Y0094885D01*
X0008170Y0091232D02*
X0009387Y0090014D01*
X0010605Y0090014D01*
X0011823Y0091232D01*
X0011823Y0093668D01*
X0010605Y0094885D01*
X0011823Y0111131D02*
X0004517Y0111131D01*
X0004517Y0116002D01*
X0008170Y0113567D02*
X0008170Y0111131D01*
X0011823Y0111131D02*
X0011823Y0116002D01*
X0017417Y0119050D02*
X0024723Y0119050D01*
X0024723Y0123921D02*
X0017417Y0123921D01*
X0017417Y0126969D02*
X0017417Y0130622D01*
X0018634Y0131839D01*
X0023505Y0131839D01*
X0024723Y0130622D01*
X0024723Y0126969D01*
X0017417Y0126969D01*
X0021070Y0123921D02*
X0021070Y0119050D01*
X0017417Y0134887D02*
X0024723Y0134887D01*
X0022287Y0137323D01*
X0024723Y0139758D01*
X0017417Y0139758D01*
X0017417Y0142806D02*
X0017417Y0145242D01*
X0017417Y0144024D02*
X0024723Y0144024D01*
X0024723Y0142806D02*
X0024723Y0145242D01*
X0023505Y0156004D02*
X0022287Y0156004D01*
X0021070Y0157222D01*
X0021070Y0159657D01*
X0019852Y0160875D01*
X0018634Y0160875D01*
X0017417Y0159657D01*
X0017417Y0157222D01*
X0018634Y0156004D01*
X0023505Y0156004D02*
X0024723Y0157222D01*
X0024723Y0159657D01*
X0023505Y0160875D01*
X0024723Y0163923D02*
X0017417Y0163923D01*
X0021070Y0163923D02*
X0021070Y0168794D01*
X0024723Y0168794D02*
X0017417Y0168794D01*
X0017417Y0171842D02*
X0017417Y0174277D01*
X0017417Y0173059D02*
X0024723Y0173059D01*
X0024723Y0171842D02*
X0024723Y0174277D01*
X0024723Y0177121D02*
X0017417Y0177121D01*
X0017417Y0181992D01*
X0017417Y0185040D02*
X0017417Y0189910D01*
X0017417Y0192958D02*
X0017417Y0196611D01*
X0018634Y0197829D01*
X0023505Y0197829D01*
X0024723Y0196611D01*
X0024723Y0192958D01*
X0017417Y0192958D01*
X0017417Y0185040D02*
X0024723Y0185040D01*
X0024723Y0181992D02*
X0024723Y0177121D01*
X0021070Y0177121D02*
X0021070Y0179556D01*
X0011823Y0180876D02*
X0004517Y0180876D01*
X0004517Y0178441D02*
X0004517Y0183311D01*
X0004517Y0186359D02*
X0004517Y0187577D01*
X0005734Y0187577D01*
X0005734Y0186359D01*
X0004517Y0186359D01*
X0005734Y0190319D02*
X0004517Y0191536D01*
X0004517Y0193972D01*
X0005734Y0195190D01*
X0010605Y0195190D01*
X0005734Y0190319D01*
X0010605Y0190319D01*
X0011823Y0191536D01*
X0011823Y0193972D01*
X0010605Y0195190D01*
X0011823Y0180876D02*
X0009387Y0178441D01*
X0008170Y0175393D02*
X0006952Y0174175D01*
X0006952Y0170522D01*
X0006952Y0172957D02*
X0004517Y0175393D01*
X0004517Y0170522D02*
X0011823Y0170522D01*
X0011823Y0174175D01*
X0010605Y0175393D01*
X0008170Y0175393D01*
X0009387Y0159555D02*
X0010605Y0159555D01*
X0011823Y0158337D01*
X0011823Y0155902D01*
X0010605Y0154684D01*
X0009387Y0159555D02*
X0004517Y0154684D01*
X0004517Y0159555D01*
X0004517Y0151943D02*
X0004517Y0150725D01*
X0005734Y0150725D01*
X0005734Y0151943D01*
X0004517Y0151943D01*
X0005734Y0147677D02*
X0004517Y0146459D01*
X0004517Y0144024D01*
X0005734Y0142806D01*
X0010605Y0147677D01*
X0005734Y0147677D01*
X0005734Y0142806D02*
X0010605Y0142806D01*
X0011823Y0144024D01*
X0011823Y0146459D01*
X0010605Y0147677D01*
X0011823Y0139758D02*
X0006952Y0139758D01*
X0004517Y0137323D01*
X0006952Y0134887D01*
X0011823Y0134887D01*
X0024723Y0092246D02*
X0024723Y0087375D01*
X0024723Y0068489D02*
X0017417Y0068489D01*
X0017417Y0063619D02*
X0024723Y0063619D01*
X0022287Y0066054D01*
X0024723Y0068489D01*
X0023505Y0060571D02*
X0024723Y0059353D01*
X0024723Y0056917D01*
X0023505Y0055700D01*
X0018634Y0055700D01*
X0017417Y0056917D01*
X0017417Y0059353D01*
X0018634Y0060571D01*
X0023505Y0060571D01*
X0024723Y0052856D02*
X0024723Y0050421D01*
X0024723Y0051638D02*
X0017417Y0051638D01*
X0017417Y0050421D02*
X0017417Y0052856D01*
X0017417Y0047373D02*
X0024723Y0042502D01*
X0022287Y0039454D02*
X0017417Y0039454D01*
X0017417Y0042502D02*
X0024723Y0047373D01*
X0022287Y0039454D02*
X0024723Y0037019D01*
X0022287Y0034583D01*
X0017417Y0034583D01*
X0021070Y0034583D02*
X0021070Y0039454D01*
X0011823Y0034583D02*
X0004517Y0034583D01*
X0017417Y0209583D02*
X0017417Y0213236D01*
X0018634Y0214454D01*
X0019852Y0214454D01*
X0021070Y0213236D01*
X0021070Y0209583D01*
X0021070Y0213236D02*
X0022287Y0214454D01*
X0023505Y0214454D01*
X0024723Y0213236D01*
X0024723Y0209583D01*
X0017417Y0209583D01*
X0018634Y0217502D02*
X0017417Y0218720D01*
X0017417Y0221155D01*
X0018634Y0217502D02*
X0021070Y0217502D01*
X0022287Y0218720D01*
X0022287Y0221155D01*
X0021070Y0222373D01*
X0019852Y0222373D01*
X0019852Y0217502D01*
X0022287Y0225421D02*
X0022287Y0227856D01*
X0023505Y0226638D02*
X0018634Y0226638D01*
X0017417Y0227856D01*
X0018634Y0230700D02*
X0019852Y0231917D01*
X0019852Y0235571D01*
X0021070Y0235571D02*
X0017417Y0235571D01*
X0017417Y0231917D01*
X0018634Y0230700D01*
X0022287Y0231917D02*
X0022287Y0234353D01*
X0021070Y0235571D01*
D11*
X0024867Y0203933D02*
X0004867Y0203933D01*
D12*
X0032867Y0246433D02*
X0032867Y0021433D01*
X0117867Y0021433D01*
X0117867Y0246433D01*
X0032867Y0246433D01*
M02*
