%
M48
M72
T01C0.0080
T02C0.0100
T03C0.0130
T04C0.0472
T05C0.1250
%
T01
X3608Y3551
X3608Y4338
X3608Y5126
X3608Y5913
X3608Y6700
X4198Y6700
X4198Y5913
X4198Y5322
X4493Y4830
X4789Y5322
X4789Y5913
X4789Y6700
X4789Y7488
X4789Y8275
X4690Y9161
X4887Y9850
X4789Y10637
X4789Y11425
X4198Y11425
X4198Y10637
X4198Y9850
X3608Y9850
X3608Y9063
X3608Y8275
X3608Y7488
X4198Y7488
X4198Y8275
X5281Y8570
X5576Y9161
X6068Y8570
X6856Y8472
X7643Y8472
X8430Y8472
X9218Y6989
X9218Y6405
X9218Y5421
X8824Y4437
X8430Y5421
X8135Y5027
X7643Y5421
X7643Y6405
X6856Y6405
X6856Y5421
X6659Y4437
X7151Y4437
X7545Y4437
X7545Y3551
X8037Y2393
X9037Y2393
X10005Y5421
X10005Y6405
X10005Y6989
X10793Y6405
X10793Y5421
X11537Y5893
X11537Y4893
X11537Y6893
X11537Y7893
X11537Y8893
X11412Y11518
X11412Y12768
X10596Y13590
X10202Y13590
X9611Y12606
X9415Y12212
X9611Y11819
X9415Y11425
X9037Y11917
X9415Y13000
X9415Y13590
X9415Y14181
X9028Y14476
X9028Y15067
X9415Y15362
X9415Y14771
X9028Y13885
X9028Y13295
X7879Y13748
X7879Y14023
X7682Y14181
X7485Y14338
X7485Y14614
X7682Y14771
X7879Y14929
X7879Y15204
X7682Y15362
X6875Y15165
X6482Y14771
X6482Y14378
X6482Y13984
X6088Y13984
X6088Y14378
X6088Y14771
X5694Y14771
X5694Y14378
X5694Y13984
X5300Y13984
X5300Y14378
X5300Y13590
X5694Y13590
X6088Y13590
X5596Y12803
X5596Y12409
X5989Y12409
X6383Y12409
X6678Y12803
X7269Y12803
X7485Y13157
X7682Y13000
X7485Y13433
X7682Y13590
X7643Y11425
X8037Y10643
X8037Y10393
X8037Y10143
X7052Y9752
X7052Y10539
X6777Y11425
X5970Y10539
X5970Y10145
X5478Y11031
X5596Y11425
X4789Y12409
X4198Y12409
X3608Y12409
X3608Y11425
X3608Y10637
X3608Y13393
X3608Y14181
X3608Y14968
X4198Y14968
X4198Y15952
X3608Y15952
X3608Y16937
X3608Y17724
X3608Y18511
X3608Y19299
X3608Y20086
X3608Y20874
X3608Y21661
X4198Y21464
X4493Y21956
X4789Y21464
X5084Y22153
X5281Y21464
X5674Y21956
X6068Y21464
X6912Y22137
X6912Y22649
X7037Y24393
X6037Y24393
X5037Y24393
X3608Y23236
X3608Y22448
X4198Y20874
X4198Y20086
X4198Y19299
X4198Y18511
X4789Y18511
X4789Y17724
X4887Y16937
X5281Y17330
X5674Y17724
X5281Y18216
X4789Y19299
X4789Y20086
X4789Y20874
X5674Y19889
X6068Y18216
X6560Y16622
X6363Y15952
X6757Y15952
X5596Y15952
X5399Y15756
X4789Y15952
X4198Y16937
X4198Y13393
X4907Y13196
X8430Y18315
X9218Y18315
X10005Y18315
X10793Y18293
X11537Y17893
X11537Y18893
X11537Y19893
X11537Y20893
X11537Y21893
X10793Y21393
X10005Y19889
X9218Y19889
X8430Y19889
X8162Y22137
X8162Y22649
X8037Y24393
X9037Y24393
X11412Y15268
X10596Y14968
X10202Y14968
X11412Y14018
X8430Y6897
X6068Y5322
X5674Y4830
X5478Y4437
X5084Y4633
X5281Y5322
X6167Y4437
X6167Y3551
X5970Y3354
X6037Y2393
X7037Y2393
X5037Y2393
X4198Y4141
X5674Y6897
T02
X6777Y11045
X6383Y12803
X6875Y13196
X5202Y15559
X4907Y15165
X10793Y8472
T03
X8787Y9518
X7052Y10145
T04
X8834Y10539
X10763Y10303
X8834Y16248
X10763Y16484
T05
X10287Y23143
X10287Y3643
M30
