G75*
%MOIN*%
%OFA0B0*%
%FSLAX25Y25*%
%IPPOS*%
%LPD*%
%AMOC8*
5,1,8,0,0,1.08239X$1,22.5*
%
%ADD10C,0.07087*%
%ADD11C,0.16500*%
%ADD12C,0.00600*%
%ADD13C,0.01600*%
%ADD14C,0.01800*%
%ADD15C,0.02100*%
%ADD16C,0.01600*%
%ADD17C,0.02400*%
%ADD18C,0.01200*%
D10*
X0088339Y0105390D03*
X0107630Y0103028D03*
X0088339Y0162476D03*
X0107630Y0164839D03*
D11*
X0102867Y0231433D03*
X0102867Y0036433D03*
D12*
X0034467Y0023033D02*
X0034467Y0244833D01*
X0116267Y0244833D01*
X0116267Y0023033D01*
X0034467Y0023033D01*
X0034467Y0023209D02*
X0116267Y0023209D01*
X0116267Y0023807D02*
X0034467Y0023807D01*
X0034467Y0024406D02*
X0116267Y0024406D01*
X0116267Y0025004D02*
X0034467Y0025004D01*
X0034467Y0025603D02*
X0116267Y0025603D01*
X0116267Y0026201D02*
X0034467Y0026201D01*
X0034467Y0026800D02*
X0116267Y0026800D01*
X0116267Y0027398D02*
X0034467Y0027398D01*
X0034467Y0027997D02*
X0116267Y0027997D01*
X0116267Y0028595D02*
X0034467Y0028595D01*
X0034467Y0029194D02*
X0116267Y0029194D01*
X0116267Y0029792D02*
X0034467Y0029792D01*
X0034467Y0030391D02*
X0116267Y0030391D01*
X0116267Y0030989D02*
X0034467Y0030989D01*
X0034467Y0031588D02*
X0116267Y0031588D01*
X0116267Y0032186D02*
X0060748Y0032186D01*
X0060402Y0031839D02*
X0061397Y0032835D01*
X0061397Y0033808D01*
X0062370Y0033808D01*
X0063366Y0034804D01*
X0063366Y0036212D01*
X0062370Y0037208D01*
X0060962Y0037208D01*
X0059966Y0036212D01*
X0059966Y0035239D01*
X0058993Y0035239D01*
X0057997Y0034244D01*
X0057997Y0032835D01*
X0058993Y0031839D01*
X0060402Y0031839D01*
X0061347Y0032785D02*
X0116267Y0032785D01*
X0116267Y0033383D02*
X0061397Y0033383D01*
X0062544Y0033982D02*
X0074567Y0033982D01*
X0074741Y0033808D02*
X0076150Y0033808D01*
X0077145Y0034804D01*
X0077145Y0036212D01*
X0076150Y0037208D01*
X0074741Y0037208D01*
X0073745Y0036212D01*
X0073745Y0034804D01*
X0074741Y0033808D01*
X0073969Y0034580D02*
X0063142Y0034580D01*
X0063366Y0035179D02*
X0073745Y0035179D01*
X0073745Y0035777D02*
X0063366Y0035777D01*
X0063202Y0036376D02*
X0073909Y0036376D01*
X0074508Y0036974D02*
X0062604Y0036974D01*
X0060728Y0036974D02*
X0034467Y0036974D01*
X0034467Y0036376D02*
X0060130Y0036376D01*
X0059966Y0035777D02*
X0034467Y0035777D01*
X0034467Y0035179D02*
X0058933Y0035179D01*
X0058334Y0034580D02*
X0034467Y0034580D01*
X0034467Y0033982D02*
X0057997Y0033982D01*
X0057997Y0033383D02*
X0034467Y0033383D01*
X0034467Y0032785D02*
X0058048Y0032785D01*
X0058646Y0032186D02*
X0034467Y0032186D01*
X0034467Y0037573D02*
X0116267Y0037573D01*
X0116267Y0038171D02*
X0088104Y0038171D01*
X0087878Y0037945D02*
X0098705Y0048772D01*
X0104610Y0048772D01*
X0108347Y0052509D01*
X0108630Y0052509D01*
X0109626Y0053505D01*
X0109626Y0054913D01*
X0108630Y0055909D01*
X0107222Y0055909D01*
X0106226Y0054913D01*
X0106226Y0054630D01*
X0103367Y0051772D01*
X0097462Y0051772D01*
X0096583Y0050893D01*
X0086635Y0040945D01*
X0077051Y0040945D01*
X0075330Y0042666D01*
X0076150Y0042666D01*
X0077145Y0043662D01*
X0077145Y0045070D01*
X0076150Y0046066D01*
X0074741Y0046066D01*
X0073745Y0045070D01*
X0073745Y0044250D01*
X0073208Y0044787D01*
X0073208Y0045070D01*
X0072213Y0046066D01*
X0070804Y0046066D01*
X0069808Y0045070D01*
X0069808Y0043662D01*
X0070804Y0042666D01*
X0071087Y0042666D01*
X0073945Y0039808D01*
X0073945Y0038824D01*
X0074824Y0037945D01*
X0087878Y0037945D01*
X0088703Y0038770D02*
X0116267Y0038770D01*
X0116267Y0039368D02*
X0089301Y0039368D01*
X0089900Y0039967D02*
X0116267Y0039967D01*
X0116267Y0040565D02*
X0090498Y0040565D01*
X0091097Y0041164D02*
X0116267Y0041164D01*
X0116267Y0041762D02*
X0091695Y0041762D01*
X0092294Y0042361D02*
X0116267Y0042361D01*
X0116267Y0042959D02*
X0092892Y0042959D01*
X0093491Y0043558D02*
X0116267Y0043558D01*
X0116267Y0044156D02*
X0094089Y0044156D01*
X0094688Y0044755D02*
X0116267Y0044755D01*
X0116267Y0045353D02*
X0095286Y0045353D01*
X0095885Y0045952D02*
X0116267Y0045952D01*
X0116267Y0046550D02*
X0096483Y0046550D01*
X0097082Y0047149D02*
X0116267Y0047149D01*
X0116267Y0047747D02*
X0097680Y0047747D01*
X0098279Y0048346D02*
X0116267Y0048346D01*
X0116267Y0048944D02*
X0104783Y0048944D01*
X0105381Y0049543D02*
X0116267Y0049543D01*
X0116267Y0050142D02*
X0105980Y0050142D01*
X0106578Y0050740D02*
X0116267Y0050740D01*
X0116267Y0051339D02*
X0107177Y0051339D01*
X0107775Y0051937D02*
X0116267Y0051937D01*
X0116267Y0052536D02*
X0108657Y0052536D01*
X0109255Y0053134D02*
X0116267Y0053134D01*
X0116267Y0053733D02*
X0109626Y0053733D01*
X0109626Y0054331D02*
X0116267Y0054331D01*
X0116267Y0054930D02*
X0109609Y0054930D01*
X0109010Y0055528D02*
X0116267Y0055528D01*
X0116267Y0056127D02*
X0090311Y0056127D01*
X0089741Y0055556D02*
X0091815Y0057630D01*
X0101657Y0057630D01*
X0102536Y0058509D01*
X0105489Y0061461D01*
X0105489Y0064414D01*
X0109426Y0068351D01*
X0109426Y0083675D01*
X0109726Y0083975D01*
X0109726Y0085466D01*
X0108671Y0086520D01*
X0107180Y0086520D01*
X0106126Y0085466D01*
X0106126Y0083975D01*
X0106426Y0083675D01*
X0106426Y0069594D01*
X0103367Y0066535D01*
X0102489Y0065657D01*
X0102489Y0062704D01*
X0100415Y0060630D01*
X0090572Y0060630D01*
X0087619Y0057677D01*
X0086741Y0056799D01*
X0086741Y0053846D01*
X0084667Y0051772D01*
X0082255Y0051772D01*
X0082055Y0051972D01*
X0080647Y0051972D01*
X0080447Y0051772D01*
X0062029Y0051772D01*
X0061150Y0050893D01*
X0056123Y0045866D01*
X0055680Y0045866D01*
X0055480Y0046066D01*
X0054072Y0046066D01*
X0053076Y0045070D01*
X0053076Y0043662D01*
X0054072Y0042666D01*
X0055480Y0042666D01*
X0055680Y0042866D01*
X0057366Y0042866D01*
X0063271Y0048772D01*
X0080447Y0048772D01*
X0080647Y0048572D01*
X0082055Y0048572D01*
X0082255Y0048772D01*
X0085909Y0048772D01*
X0086788Y0049650D01*
X0089741Y0052603D01*
X0089741Y0055556D01*
X0089741Y0055528D02*
X0091093Y0055528D01*
X0091474Y0055909D02*
X0090478Y0054913D01*
X0090478Y0053505D01*
X0091474Y0052509D01*
X0092882Y0052509D01*
X0093878Y0053505D01*
X0093878Y0054913D01*
X0092882Y0055909D01*
X0091474Y0055909D01*
X0090910Y0056725D02*
X0116267Y0056725D01*
X0116267Y0057324D02*
X0091508Y0057324D01*
X0093262Y0055528D02*
X0098967Y0055528D01*
X0099348Y0055909D02*
X0098352Y0054913D01*
X0098352Y0053505D01*
X0099348Y0052509D01*
X0100756Y0052509D01*
X0101752Y0053505D01*
X0101752Y0054913D01*
X0100756Y0055909D01*
X0099348Y0055909D01*
X0098368Y0054930D02*
X0093861Y0054930D01*
X0093878Y0054331D02*
X0098352Y0054331D01*
X0098352Y0053733D02*
X0093878Y0053733D01*
X0093507Y0053134D02*
X0098722Y0053134D01*
X0099321Y0052536D02*
X0092909Y0052536D01*
X0091447Y0052536D02*
X0089673Y0052536D01*
X0089741Y0053134D02*
X0090848Y0053134D01*
X0090478Y0053733D02*
X0089741Y0053733D01*
X0089741Y0054331D02*
X0090478Y0054331D01*
X0090494Y0054930D02*
X0089741Y0054930D01*
X0087864Y0057922D02*
X0034467Y0057922D01*
X0034467Y0057324D02*
X0087266Y0057324D01*
X0086741Y0056725D02*
X0034467Y0056725D01*
X0034467Y0056127D02*
X0086741Y0056127D01*
X0086741Y0055528D02*
X0077514Y0055528D01*
X0077134Y0055909D02*
X0075725Y0055909D01*
X0074730Y0054913D01*
X0074730Y0053505D01*
X0075725Y0052509D01*
X0077134Y0052509D01*
X0078130Y0053505D01*
X0078130Y0054913D01*
X0077134Y0055909D01*
X0078113Y0054930D02*
X0086741Y0054930D01*
X0086741Y0054331D02*
X0078130Y0054331D01*
X0078130Y0053733D02*
X0086627Y0053733D01*
X0086029Y0053134D02*
X0077759Y0053134D01*
X0077161Y0052536D02*
X0085430Y0052536D01*
X0084832Y0051937D02*
X0082090Y0051937D01*
X0080612Y0051937D02*
X0034467Y0051937D01*
X0034467Y0051339D02*
X0061596Y0051339D01*
X0061150Y0050893D02*
X0061150Y0050893D01*
X0060997Y0050740D02*
X0034467Y0050740D01*
X0034467Y0050142D02*
X0060399Y0050142D01*
X0059800Y0049543D02*
X0034467Y0049543D01*
X0034467Y0048944D02*
X0059202Y0048944D01*
X0058603Y0048346D02*
X0034467Y0048346D01*
X0034467Y0047747D02*
X0058005Y0047747D01*
X0057406Y0047149D02*
X0034467Y0047149D01*
X0034467Y0046550D02*
X0056808Y0046550D01*
X0056209Y0045952D02*
X0055594Y0045952D01*
X0053958Y0045952D02*
X0034467Y0045952D01*
X0034467Y0045353D02*
X0053359Y0045353D01*
X0053076Y0044755D02*
X0034467Y0044755D01*
X0034467Y0044156D02*
X0053076Y0044156D01*
X0053180Y0043558D02*
X0034467Y0043558D01*
X0034467Y0042959D02*
X0041123Y0042959D01*
X0041277Y0043113D02*
X0040281Y0042118D01*
X0040281Y0040709D01*
X0041277Y0039713D01*
X0041559Y0039713D01*
X0042449Y0038824D01*
X0043328Y0037945D01*
X0057366Y0037945D01*
X0062087Y0042666D01*
X0062370Y0042666D01*
X0063366Y0043662D01*
X0063366Y0045070D01*
X0062370Y0046066D01*
X0060962Y0046066D01*
X0059966Y0045070D01*
X0059966Y0044787D01*
X0056123Y0040945D01*
X0044571Y0040945D01*
X0043681Y0041835D01*
X0043681Y0042118D01*
X0042685Y0043113D01*
X0041277Y0043113D01*
X0040524Y0042361D02*
X0034467Y0042361D01*
X0034467Y0041762D02*
X0040281Y0041762D01*
X0040281Y0041164D02*
X0034467Y0041164D01*
X0034467Y0040565D02*
X0040425Y0040565D01*
X0041023Y0039967D02*
X0034467Y0039967D01*
X0034467Y0039368D02*
X0041905Y0039368D01*
X0042503Y0038770D02*
X0034467Y0038770D01*
X0034467Y0038171D02*
X0043102Y0038171D01*
X0044352Y0041164D02*
X0056342Y0041164D01*
X0056941Y0041762D02*
X0043753Y0041762D01*
X0043438Y0042361D02*
X0057539Y0042361D01*
X0057459Y0042959D02*
X0058138Y0042959D01*
X0058058Y0043558D02*
X0058736Y0043558D01*
X0058656Y0044156D02*
X0059335Y0044156D01*
X0059255Y0044755D02*
X0059933Y0044755D01*
X0059853Y0045353D02*
X0060249Y0045353D01*
X0060452Y0045952D02*
X0060847Y0045952D01*
X0061050Y0046550D02*
X0092241Y0046550D01*
X0091642Y0045952D02*
X0076264Y0045952D01*
X0076862Y0045353D02*
X0091044Y0045353D01*
X0090445Y0044755D02*
X0077145Y0044755D01*
X0077145Y0044156D02*
X0089847Y0044156D01*
X0089248Y0043558D02*
X0077041Y0043558D01*
X0076443Y0042959D02*
X0088650Y0042959D01*
X0088051Y0042361D02*
X0075635Y0042361D01*
X0076234Y0041762D02*
X0087453Y0041762D01*
X0086854Y0041164D02*
X0076832Y0041164D01*
X0073945Y0039368D02*
X0058789Y0039368D01*
X0058191Y0038770D02*
X0073999Y0038770D01*
X0074598Y0038171D02*
X0057592Y0038171D01*
X0059388Y0039967D02*
X0073786Y0039967D01*
X0073188Y0040565D02*
X0059986Y0040565D01*
X0060585Y0041164D02*
X0072589Y0041164D01*
X0071991Y0041762D02*
X0061183Y0041762D01*
X0061782Y0042361D02*
X0071392Y0042361D01*
X0070511Y0042959D02*
X0062663Y0042959D01*
X0063262Y0043558D02*
X0069913Y0043558D01*
X0069808Y0044156D02*
X0063366Y0044156D01*
X0063366Y0044755D02*
X0069808Y0044755D01*
X0070091Y0045353D02*
X0063083Y0045353D01*
X0062484Y0045952D02*
X0070690Y0045952D01*
X0072327Y0045952D02*
X0074627Y0045952D01*
X0074028Y0045353D02*
X0072925Y0045353D01*
X0073241Y0044755D02*
X0073745Y0044755D01*
X0076383Y0036974D02*
X0116267Y0036974D01*
X0116267Y0036376D02*
X0076982Y0036376D01*
X0077145Y0035777D02*
X0116267Y0035777D01*
X0116267Y0035179D02*
X0077145Y0035179D01*
X0076922Y0034580D02*
X0116267Y0034580D01*
X0116267Y0033982D02*
X0076323Y0033982D01*
X0086082Y0048944D02*
X0094635Y0048944D01*
X0094036Y0048346D02*
X0062846Y0048346D01*
X0062247Y0047747D02*
X0093438Y0047747D01*
X0092839Y0047149D02*
X0061649Y0047149D01*
X0067226Y0053134D02*
X0034467Y0053134D01*
X0034467Y0052536D02*
X0067825Y0052536D01*
X0067851Y0052509D02*
X0066856Y0053505D01*
X0066856Y0054913D01*
X0067851Y0055909D01*
X0069260Y0055909D01*
X0070256Y0054913D01*
X0070256Y0053505D01*
X0069260Y0052509D01*
X0067851Y0052509D01*
X0069287Y0052536D02*
X0075699Y0052536D01*
X0075100Y0053134D02*
X0069885Y0053134D01*
X0070256Y0053733D02*
X0074730Y0053733D01*
X0074730Y0054331D02*
X0070256Y0054331D01*
X0070239Y0054930D02*
X0074746Y0054930D01*
X0075345Y0055528D02*
X0069640Y0055528D01*
X0067471Y0055528D02*
X0034467Y0055528D01*
X0034467Y0054930D02*
X0066872Y0054930D01*
X0066856Y0054331D02*
X0034467Y0054331D01*
X0034467Y0053733D02*
X0066856Y0053733D01*
X0067851Y0062351D02*
X0066856Y0063347D01*
X0066856Y0064755D01*
X0067851Y0065751D01*
X0069260Y0065751D01*
X0070256Y0064755D01*
X0070256Y0063347D01*
X0069260Y0062351D01*
X0067851Y0062351D01*
X0067492Y0062710D02*
X0034467Y0062710D01*
X0034467Y0062112D02*
X0101896Y0062112D01*
X0102489Y0062710D02*
X0101115Y0062710D01*
X0100756Y0062351D02*
X0101752Y0063347D01*
X0101752Y0064755D01*
X0100756Y0065751D01*
X0099348Y0065751D01*
X0098352Y0064755D01*
X0098352Y0063347D01*
X0099348Y0062351D01*
X0100756Y0062351D01*
X0101298Y0061513D02*
X0034467Y0061513D01*
X0034467Y0060915D02*
X0100699Y0060915D01*
X0098988Y0062710D02*
X0093241Y0062710D01*
X0092882Y0062351D02*
X0093878Y0063347D01*
X0093878Y0064755D01*
X0092882Y0065751D01*
X0091474Y0065751D01*
X0090478Y0064755D01*
X0090478Y0063347D01*
X0091474Y0062351D01*
X0092882Y0062351D01*
X0093839Y0063309D02*
X0098390Y0063309D01*
X0098352Y0063907D02*
X0093878Y0063907D01*
X0093878Y0064506D02*
X0098352Y0064506D01*
X0098701Y0065104D02*
X0093529Y0065104D01*
X0092930Y0065703D02*
X0099299Y0065703D01*
X0100804Y0065703D02*
X0102535Y0065703D01*
X0102489Y0065104D02*
X0101403Y0065104D01*
X0101752Y0064506D02*
X0102489Y0064506D01*
X0102489Y0063907D02*
X0101752Y0063907D01*
X0101713Y0063309D02*
X0102489Y0063309D01*
X0103133Y0066301D02*
X0034467Y0066301D01*
X0034467Y0065703D02*
X0067803Y0065703D01*
X0067205Y0065104D02*
X0034467Y0065104D01*
X0034467Y0064506D02*
X0066856Y0064506D01*
X0066856Y0063907D02*
X0034467Y0063907D01*
X0034467Y0063309D02*
X0066894Y0063309D01*
X0069308Y0065703D02*
X0075677Y0065703D01*
X0075725Y0065751D02*
X0074730Y0064755D01*
X0074730Y0063347D01*
X0075725Y0062351D01*
X0077134Y0062351D01*
X0078130Y0063347D01*
X0078130Y0064755D01*
X0077134Y0065751D01*
X0075725Y0065751D01*
X0075079Y0065104D02*
X0069907Y0065104D01*
X0070256Y0064506D02*
X0074730Y0064506D01*
X0074730Y0063907D02*
X0070256Y0063907D01*
X0070217Y0063309D02*
X0074768Y0063309D01*
X0075366Y0062710D02*
X0069619Y0062710D01*
X0077493Y0062710D02*
X0091114Y0062710D01*
X0090516Y0063309D02*
X0078091Y0063309D01*
X0078130Y0063907D02*
X0090478Y0063907D01*
X0090478Y0064506D02*
X0078130Y0064506D01*
X0077781Y0065104D02*
X0090827Y0065104D01*
X0091425Y0065703D02*
X0077182Y0065703D01*
X0082604Y0068268D02*
X0083599Y0067272D01*
X0085008Y0067272D01*
X0086004Y0068268D01*
X0086004Y0069677D01*
X0085008Y0070672D01*
X0083599Y0070672D01*
X0082604Y0069677D01*
X0082604Y0068268D01*
X0082775Y0068097D02*
X0034467Y0068097D01*
X0034467Y0068695D02*
X0082604Y0068695D01*
X0082604Y0069294D02*
X0034467Y0069294D01*
X0034467Y0069892D02*
X0082819Y0069892D01*
X0083418Y0070491D02*
X0034467Y0070491D01*
X0034467Y0071089D02*
X0090969Y0071089D01*
X0090478Y0070598D02*
X0090478Y0069190D01*
X0091474Y0068194D01*
X0092882Y0068194D01*
X0093878Y0069190D01*
X0093878Y0070598D01*
X0092882Y0071594D01*
X0091474Y0071594D01*
X0090478Y0070598D01*
X0090478Y0070491D02*
X0085189Y0070491D01*
X0085788Y0069892D02*
X0090478Y0069892D01*
X0090478Y0069294D02*
X0086004Y0069294D01*
X0086004Y0068695D02*
X0090972Y0068695D01*
X0093383Y0068695D02*
X0098846Y0068695D01*
X0098352Y0069190D02*
X0099348Y0068194D01*
X0100756Y0068194D01*
X0101752Y0069190D01*
X0101752Y0070598D01*
X0100756Y0071594D01*
X0099348Y0071594D01*
X0098352Y0070598D01*
X0098352Y0069190D01*
X0098352Y0069294D02*
X0093878Y0069294D01*
X0093878Y0069892D02*
X0098352Y0069892D01*
X0098352Y0070491D02*
X0093878Y0070491D01*
X0093386Y0071089D02*
X0098843Y0071089D01*
X0101260Y0071089D02*
X0106426Y0071089D01*
X0106426Y0070491D02*
X0101752Y0070491D01*
X0101752Y0069892D02*
X0106426Y0069892D01*
X0106126Y0069294D02*
X0101752Y0069294D01*
X0101257Y0068695D02*
X0105527Y0068695D01*
X0104929Y0068097D02*
X0085832Y0068097D01*
X0085234Y0067498D02*
X0104330Y0067498D01*
X0103732Y0066900D02*
X0034467Y0066900D01*
X0034467Y0067498D02*
X0083374Y0067498D01*
X0090258Y0060316D02*
X0034467Y0060316D01*
X0034467Y0059718D02*
X0089660Y0059718D01*
X0089061Y0059119D02*
X0034467Y0059119D01*
X0034467Y0058521D02*
X0088463Y0058521D01*
X0089075Y0051937D02*
X0103533Y0051937D01*
X0104131Y0052536D02*
X0100783Y0052536D01*
X0101381Y0053134D02*
X0104730Y0053134D01*
X0105328Y0053733D02*
X0101752Y0053733D01*
X0101752Y0054331D02*
X0105927Y0054331D01*
X0106242Y0054930D02*
X0101735Y0054930D01*
X0101136Y0055528D02*
X0106841Y0055528D01*
X0103147Y0059119D02*
X0116267Y0059119D01*
X0116267Y0058521D02*
X0102548Y0058521D01*
X0101949Y0057922D02*
X0116267Y0057922D01*
X0116267Y0059718D02*
X0103745Y0059718D01*
X0104344Y0060316D02*
X0116267Y0060316D01*
X0116267Y0060915D02*
X0104942Y0060915D01*
X0105489Y0061513D02*
X0116267Y0061513D01*
X0116267Y0062112D02*
X0105489Y0062112D01*
X0105489Y0062710D02*
X0106862Y0062710D01*
X0107222Y0062351D02*
X0106226Y0063347D01*
X0106226Y0064755D01*
X0107222Y0065751D01*
X0108630Y0065751D01*
X0109626Y0064755D01*
X0109626Y0063347D01*
X0108630Y0062351D01*
X0107222Y0062351D01*
X0106264Y0063309D02*
X0105489Y0063309D01*
X0105489Y0063907D02*
X0106226Y0063907D01*
X0106226Y0064506D02*
X0105580Y0064506D01*
X0106179Y0065104D02*
X0106575Y0065104D01*
X0106777Y0065703D02*
X0107173Y0065703D01*
X0107376Y0066301D02*
X0116267Y0066301D01*
X0116267Y0065703D02*
X0108678Y0065703D01*
X0109277Y0065104D02*
X0116267Y0065104D01*
X0116267Y0064506D02*
X0109626Y0064506D01*
X0109626Y0063907D02*
X0116267Y0063907D01*
X0116267Y0063309D02*
X0109587Y0063309D01*
X0108989Y0062710D02*
X0116267Y0062710D01*
X0116267Y0066900D02*
X0107974Y0066900D01*
X0108573Y0067498D02*
X0116267Y0067498D01*
X0116267Y0068097D02*
X0109171Y0068097D01*
X0109426Y0068695D02*
X0116267Y0068695D01*
X0116267Y0069294D02*
X0109426Y0069294D01*
X0109426Y0069892D02*
X0116267Y0069892D01*
X0116267Y0070491D02*
X0109426Y0070491D01*
X0109426Y0071089D02*
X0116267Y0071089D01*
X0116267Y0071688D02*
X0109426Y0071688D01*
X0109426Y0072286D02*
X0116267Y0072286D01*
X0116267Y0072885D02*
X0109426Y0072885D01*
X0109426Y0073483D02*
X0116267Y0073483D01*
X0116267Y0074082D02*
X0109426Y0074082D01*
X0109426Y0074680D02*
X0116267Y0074680D01*
X0116267Y0075279D02*
X0109426Y0075279D01*
X0109426Y0075877D02*
X0116267Y0075877D01*
X0116267Y0076476D02*
X0109426Y0076476D01*
X0109426Y0077075D02*
X0116267Y0077075D01*
X0116267Y0077673D02*
X0109426Y0077673D01*
X0109426Y0078272D02*
X0116267Y0078272D01*
X0116267Y0078870D02*
X0109426Y0078870D01*
X0109426Y0079469D02*
X0116267Y0079469D01*
X0116267Y0080067D02*
X0109426Y0080067D01*
X0109426Y0080666D02*
X0116267Y0080666D01*
X0116267Y0081264D02*
X0109426Y0081264D01*
X0109426Y0081863D02*
X0116267Y0081863D01*
X0116267Y0082461D02*
X0109426Y0082461D01*
X0109426Y0083060D02*
X0116267Y0083060D01*
X0116267Y0083658D02*
X0109426Y0083658D01*
X0109726Y0084257D02*
X0116267Y0084257D01*
X0116267Y0084855D02*
X0109726Y0084855D01*
X0109726Y0085454D02*
X0116267Y0085454D01*
X0116267Y0086052D02*
X0109140Y0086052D01*
X0106712Y0086052D02*
X0085376Y0086052D01*
X0085008Y0086420D02*
X0083599Y0086420D01*
X0082604Y0085425D01*
X0082604Y0084016D01*
X0083599Y0083020D01*
X0085008Y0083020D01*
X0086004Y0084016D01*
X0086004Y0085425D01*
X0085008Y0086420D01*
X0085975Y0085454D02*
X0106126Y0085454D01*
X0106126Y0084855D02*
X0086004Y0084855D01*
X0086004Y0084257D02*
X0106126Y0084257D01*
X0106426Y0083658D02*
X0085645Y0083658D01*
X0085047Y0083060D02*
X0106426Y0083060D01*
X0106426Y0082461D02*
X0034467Y0082461D01*
X0034467Y0081863D02*
X0106426Y0081863D01*
X0106426Y0081264D02*
X0034467Y0081264D01*
X0034467Y0080666D02*
X0106426Y0080666D01*
X0106426Y0080067D02*
X0034467Y0080067D01*
X0034467Y0079469D02*
X0106426Y0079469D01*
X0106426Y0078870D02*
X0034467Y0078870D01*
X0034467Y0078272D02*
X0106426Y0078272D01*
X0106426Y0077673D02*
X0034467Y0077673D01*
X0034467Y0077075D02*
X0106426Y0077075D01*
X0106426Y0076476D02*
X0034467Y0076476D01*
X0034467Y0075877D02*
X0106426Y0075877D01*
X0106426Y0075279D02*
X0034467Y0075279D01*
X0034467Y0074680D02*
X0106426Y0074680D01*
X0106426Y0074082D02*
X0034467Y0074082D01*
X0034467Y0073483D02*
X0106426Y0073483D01*
X0106426Y0072885D02*
X0034467Y0072885D01*
X0034467Y0072286D02*
X0106426Y0072286D01*
X0106426Y0071688D02*
X0034467Y0071688D01*
X0034467Y0083060D02*
X0067812Y0083060D01*
X0067851Y0083020D02*
X0066856Y0084016D01*
X0066856Y0085425D01*
X0067851Y0086420D01*
X0069260Y0086420D01*
X0070256Y0085425D01*
X0070256Y0084016D01*
X0069260Y0083020D01*
X0067851Y0083020D01*
X0067214Y0083658D02*
X0034467Y0083658D01*
X0034467Y0084257D02*
X0066856Y0084257D01*
X0066856Y0084855D02*
X0034467Y0084855D01*
X0034467Y0085454D02*
X0066885Y0085454D01*
X0067483Y0086052D02*
X0034467Y0086052D01*
X0034467Y0086651D02*
X0116267Y0086651D01*
X0116267Y0087249D02*
X0034467Y0087249D01*
X0034467Y0087848D02*
X0116267Y0087848D01*
X0116267Y0088446D02*
X0034467Y0088446D01*
X0034467Y0089045D02*
X0116267Y0089045D01*
X0116267Y0089643D02*
X0034467Y0089643D01*
X0034467Y0090242D02*
X0116267Y0090242D01*
X0116267Y0090840D02*
X0034467Y0090840D01*
X0034467Y0091439D02*
X0116267Y0091439D01*
X0116267Y0092037D02*
X0034467Y0092037D01*
X0034467Y0092636D02*
X0116267Y0092636D01*
X0116267Y0093234D02*
X0088888Y0093234D01*
X0088737Y0093083D02*
X0089967Y0094313D01*
X0089967Y0096053D01*
X0088737Y0097283D01*
X0077664Y0097283D01*
X0073299Y0101648D01*
X0073299Y0104509D01*
X0072596Y0105212D01*
X0072224Y0105212D01*
X0072224Y0105590D01*
X0072905Y0106271D01*
X0072905Y0116320D01*
X0072202Y0117023D01*
X0070552Y0117023D01*
X0070928Y0167169D01*
X0074193Y0170434D01*
X0074193Y0213938D01*
X0077067Y0216812D01*
X0077067Y0223819D01*
X0078039Y0224792D01*
X0082321Y0224792D01*
X0083317Y0225788D01*
X0083317Y0227196D01*
X0082321Y0228192D01*
X0076631Y0228192D01*
X0074662Y0226224D01*
X0073667Y0225228D01*
X0073667Y0218220D01*
X0071788Y0216342D01*
X0070793Y0215346D01*
X0070793Y0171842D01*
X0068533Y0169582D01*
X0063605Y0169582D01*
X0063494Y0169656D01*
X0063165Y0169590D01*
X0062912Y0169641D01*
X0062824Y0169582D01*
X0062744Y0169582D01*
X0062650Y0169488D01*
X0062444Y0169447D01*
X0062421Y0169412D01*
X0062380Y0169404D01*
X0062236Y0169189D01*
X0062022Y0169046D01*
X0062013Y0169005D01*
X0061979Y0168982D01*
X0061938Y0168776D01*
X0061844Y0168682D01*
X0061844Y0168602D01*
X0061785Y0168514D01*
X0061835Y0168260D01*
X0061770Y0167932D01*
X0061844Y0167821D01*
X0061844Y0157771D01*
X0055689Y0157771D01*
X0055689Y0157824D01*
X0056661Y0157824D01*
X0057657Y0158819D01*
X0057657Y0160228D01*
X0056661Y0161224D01*
X0055253Y0161224D01*
X0054257Y0160228D01*
X0054257Y0159255D01*
X0053285Y0159255D01*
X0052289Y0158259D01*
X0052289Y0157771D01*
X0047389Y0157771D01*
X0046686Y0157068D01*
X0046686Y0125562D01*
X0047389Y0124859D01*
X0054322Y0124859D01*
X0054257Y0124795D01*
X0054257Y0123386D01*
X0055253Y0122391D01*
X0056661Y0122391D01*
X0057657Y0123386D01*
X0057657Y0124795D01*
X0057593Y0124859D01*
X0058259Y0124859D01*
X0058194Y0124795D01*
X0058194Y0123386D01*
X0059190Y0122391D01*
X0060598Y0122391D01*
X0061594Y0123386D01*
X0061594Y0124795D01*
X0061530Y0124859D01*
X0062196Y0124859D01*
X0062131Y0124795D01*
X0062131Y0123386D01*
X0063127Y0122391D01*
X0064535Y0122391D01*
X0064600Y0122455D01*
X0064600Y0098830D01*
X0065303Y0098127D01*
X0068824Y0098127D01*
X0068824Y0096812D01*
X0069820Y0095816D01*
X0071228Y0095816D01*
X0072210Y0096797D01*
X0074694Y0094313D01*
X0075924Y0093083D01*
X0088737Y0093083D01*
X0089486Y0093833D02*
X0116267Y0093833D01*
X0116267Y0094431D02*
X0089967Y0094431D01*
X0089967Y0095030D02*
X0116267Y0095030D01*
X0116267Y0095628D02*
X0089967Y0095628D01*
X0089793Y0096227D02*
X0116267Y0096227D01*
X0116267Y0096825D02*
X0089194Y0096825D01*
X0089223Y0100946D02*
X0087455Y0100946D01*
X0085822Y0101623D01*
X0084572Y0102873D01*
X0083896Y0104506D01*
X0083896Y0106274D01*
X0084572Y0107907D01*
X0085822Y0109157D01*
X0087455Y0109833D01*
X0089223Y0109833D01*
X0090856Y0109157D01*
X0092106Y0107907D01*
X0092782Y0106274D01*
X0092782Y0104506D01*
X0092106Y0102873D01*
X0090856Y0101623D01*
X0089223Y0100946D01*
X0089388Y0101015D02*
X0103655Y0101015D01*
X0103864Y0100511D02*
X0105113Y0099261D01*
X0106747Y0098584D01*
X0108514Y0098584D01*
X0110147Y0099261D01*
X0111397Y0100511D01*
X0112074Y0102144D01*
X0112074Y0103911D01*
X0111397Y0105545D01*
X0110147Y0106794D01*
X0108514Y0107471D01*
X0106747Y0107471D01*
X0105113Y0106794D01*
X0103864Y0105545D01*
X0103187Y0103911D01*
X0103187Y0102144D01*
X0103864Y0100511D01*
X0103958Y0100416D02*
X0074530Y0100416D01*
X0075129Y0099818D02*
X0104556Y0099818D01*
X0105213Y0099219D02*
X0075727Y0099219D01*
X0076326Y0098621D02*
X0106658Y0098621D01*
X0108603Y0098621D02*
X0116267Y0098621D01*
X0116267Y0099219D02*
X0110048Y0099219D01*
X0110705Y0099818D02*
X0116267Y0099818D01*
X0116267Y0100416D02*
X0111303Y0100416D01*
X0111606Y0101015D02*
X0116267Y0101015D01*
X0116267Y0101613D02*
X0111854Y0101613D01*
X0112074Y0102212D02*
X0116267Y0102212D01*
X0116267Y0102811D02*
X0112074Y0102811D01*
X0112074Y0103409D02*
X0116267Y0103409D01*
X0116267Y0104008D02*
X0112034Y0104008D01*
X0111786Y0104606D02*
X0116267Y0104606D01*
X0116267Y0105205D02*
X0111538Y0105205D01*
X0111139Y0105803D02*
X0116267Y0105803D01*
X0116267Y0106402D02*
X0110540Y0106402D01*
X0109651Y0107000D02*
X0116267Y0107000D01*
X0116267Y0107599D02*
X0092234Y0107599D01*
X0092481Y0107000D02*
X0105610Y0107000D01*
X0104721Y0106402D02*
X0092729Y0106402D01*
X0092782Y0105803D02*
X0104122Y0105803D01*
X0103723Y0105205D02*
X0092782Y0105205D01*
X0092782Y0104606D02*
X0103475Y0104606D01*
X0103227Y0104008D02*
X0092576Y0104008D01*
X0092328Y0103409D02*
X0103187Y0103409D01*
X0103187Y0102811D02*
X0092044Y0102811D01*
X0091445Y0102212D02*
X0103187Y0102212D01*
X0103407Y0101613D02*
X0090833Y0101613D01*
X0087290Y0101015D02*
X0073932Y0101015D01*
X0073333Y0101613D02*
X0085845Y0101613D01*
X0085233Y0102212D02*
X0073299Y0102212D01*
X0073299Y0102811D02*
X0084635Y0102811D01*
X0084350Y0103409D02*
X0073299Y0103409D01*
X0073299Y0104008D02*
X0084102Y0104008D01*
X0083896Y0104606D02*
X0073202Y0104606D01*
X0072603Y0105205D02*
X0083896Y0105205D01*
X0083896Y0105803D02*
X0072438Y0105803D01*
X0072905Y0106402D02*
X0083949Y0106402D01*
X0084197Y0107000D02*
X0072905Y0107000D01*
X0072905Y0107599D02*
X0084445Y0107599D01*
X0084863Y0108197D02*
X0072905Y0108197D01*
X0072905Y0108796D02*
X0085461Y0108796D01*
X0086396Y0109394D02*
X0072905Y0109394D01*
X0072905Y0109993D02*
X0116267Y0109993D01*
X0116267Y0110591D02*
X0072905Y0110591D01*
X0072905Y0111190D02*
X0116267Y0111190D01*
X0116267Y0111788D02*
X0072905Y0111788D01*
X0072905Y0112387D02*
X0116267Y0112387D01*
X0116267Y0112985D02*
X0077571Y0112985D01*
X0077134Y0112548D02*
X0078130Y0113544D01*
X0078130Y0114952D01*
X0077134Y0115948D01*
X0075725Y0115948D01*
X0074730Y0114952D01*
X0074730Y0113544D01*
X0075725Y0112548D01*
X0077134Y0112548D01*
X0078130Y0113584D02*
X0116267Y0113584D01*
X0116267Y0114182D02*
X0078130Y0114182D01*
X0078130Y0114781D02*
X0116267Y0114781D01*
X0116267Y0115379D02*
X0077703Y0115379D01*
X0075157Y0115379D02*
X0072905Y0115379D01*
X0072905Y0114781D02*
X0074730Y0114781D01*
X0074730Y0114182D02*
X0072905Y0114182D01*
X0072905Y0113584D02*
X0074730Y0113584D01*
X0075288Y0112985D02*
X0072905Y0112985D01*
X0071705Y0112985D02*
X0065800Y0112985D01*
X0065800Y0112387D02*
X0071705Y0112387D01*
X0071705Y0111788D02*
X0068974Y0111788D01*
X0068514Y0112249D02*
X0067023Y0112249D01*
X0065968Y0111194D01*
X0065968Y0109703D01*
X0067023Y0108649D01*
X0068514Y0108649D01*
X0069568Y0109703D01*
X0069568Y0111194D01*
X0068514Y0112249D01*
X0069568Y0111190D02*
X0071705Y0111190D01*
X0071705Y0110591D02*
X0069568Y0110591D01*
X0069568Y0109993D02*
X0071705Y0109993D01*
X0071705Y0109394D02*
X0069259Y0109394D01*
X0068661Y0108796D02*
X0071705Y0108796D01*
X0071705Y0108197D02*
X0065800Y0108197D01*
X0065800Y0107599D02*
X0071705Y0107599D01*
X0071705Y0107000D02*
X0071318Y0107000D01*
X0071228Y0107090D02*
X0071550Y0106768D01*
X0071705Y0106768D01*
X0071705Y0115823D01*
X0069343Y0115823D01*
X0069600Y0150093D01*
X0069457Y0149950D01*
X0068048Y0149950D01*
X0067052Y0150945D01*
X0067052Y0152354D01*
X0068048Y0153350D01*
X0069457Y0153350D01*
X0069623Y0153183D01*
X0069737Y0168382D01*
X0063241Y0168382D01*
X0063165Y0168367D01*
X0063101Y0168324D01*
X0063059Y0168260D01*
X0063044Y0168185D01*
X0063044Y0161224D01*
X0064339Y0161224D01*
X0065334Y0160228D01*
X0065334Y0158819D01*
X0064339Y0157824D01*
X0063044Y0157824D01*
X0063044Y0156571D01*
X0055409Y0156571D01*
X0054693Y0155855D01*
X0053285Y0155855D01*
X0052569Y0156571D01*
X0047886Y0156571D01*
X0047886Y0133188D01*
X0048363Y0133665D01*
X0049772Y0133665D01*
X0050767Y0132669D01*
X0050767Y0131260D01*
X0049772Y0130265D01*
X0048363Y0130265D01*
X0047886Y0130742D01*
X0047886Y0126059D01*
X0065800Y0126059D01*
X0065800Y0099327D01*
X0072099Y0099327D01*
X0072099Y0104012D01*
X0071550Y0104012D01*
X0071228Y0103690D01*
X0069820Y0103690D01*
X0069498Y0104012D01*
X0069343Y0104012D01*
X0069343Y0104167D01*
X0068824Y0104686D01*
X0068824Y0106094D01*
X0069343Y0106613D01*
X0069343Y0106768D01*
X0069498Y0106768D01*
X0069820Y0107090D01*
X0071228Y0107090D01*
X0069730Y0107000D02*
X0065800Y0107000D01*
X0065800Y0106402D02*
X0069132Y0106402D01*
X0068824Y0105803D02*
X0065800Y0105803D01*
X0065800Y0105205D02*
X0068824Y0105205D01*
X0068904Y0104606D02*
X0065800Y0104606D01*
X0065800Y0104008D02*
X0069502Y0104008D01*
X0071546Y0104008D02*
X0072099Y0104008D01*
X0072099Y0103409D02*
X0065800Y0103409D01*
X0065800Y0102811D02*
X0072099Y0102811D01*
X0072099Y0102212D02*
X0065800Y0102212D01*
X0065800Y0101613D02*
X0072099Y0101613D01*
X0072099Y0101015D02*
X0065800Y0101015D01*
X0065800Y0100416D02*
X0072099Y0100416D01*
X0072099Y0099818D02*
X0065800Y0099818D01*
X0064600Y0099818D02*
X0034467Y0099818D01*
X0034467Y0100416D02*
X0064600Y0100416D01*
X0064600Y0101015D02*
X0034467Y0101015D01*
X0034467Y0101613D02*
X0064600Y0101613D01*
X0064600Y0102212D02*
X0034467Y0102212D01*
X0034467Y0102811D02*
X0064600Y0102811D01*
X0064600Y0103409D02*
X0034467Y0103409D01*
X0034467Y0104008D02*
X0058675Y0104008D01*
X0058993Y0103690D02*
X0057997Y0104686D01*
X0057997Y0106094D01*
X0058993Y0107090D01*
X0060402Y0107090D01*
X0061397Y0106094D01*
X0061397Y0104686D01*
X0060402Y0103690D01*
X0058993Y0103690D01*
X0058077Y0104606D02*
X0034467Y0104606D01*
X0034467Y0105205D02*
X0057997Y0105205D01*
X0057997Y0105803D02*
X0034467Y0105803D01*
X0034467Y0106402D02*
X0058305Y0106402D01*
X0058904Y0107000D02*
X0034467Y0107000D01*
X0034467Y0107599D02*
X0064600Y0107599D01*
X0064600Y0108197D02*
X0034467Y0108197D01*
X0034467Y0108796D02*
X0053887Y0108796D01*
X0054072Y0108611D02*
X0055480Y0108611D01*
X0056476Y0109607D01*
X0056476Y0111015D01*
X0055480Y0112011D01*
X0054072Y0112011D01*
X0053076Y0111015D01*
X0053076Y0109607D01*
X0054072Y0108611D01*
X0053289Y0109394D02*
X0034467Y0109394D01*
X0034467Y0109993D02*
X0053076Y0109993D01*
X0053076Y0110591D02*
X0034467Y0110591D01*
X0034467Y0111190D02*
X0053251Y0111190D01*
X0053849Y0111788D02*
X0034467Y0111788D01*
X0034467Y0112387D02*
X0064600Y0112387D01*
X0064600Y0112985D02*
X0034467Y0112985D01*
X0034467Y0113584D02*
X0064600Y0113584D01*
X0064600Y0114182D02*
X0034467Y0114182D01*
X0034467Y0114781D02*
X0064600Y0114781D01*
X0064600Y0115379D02*
X0034467Y0115379D01*
X0034467Y0115978D02*
X0064600Y0115978D01*
X0064600Y0116576D02*
X0034467Y0116576D01*
X0034467Y0117175D02*
X0064600Y0117175D01*
X0064600Y0117773D02*
X0034467Y0117773D01*
X0034467Y0118372D02*
X0064600Y0118372D01*
X0064600Y0118970D02*
X0034467Y0118970D01*
X0034467Y0119569D02*
X0064600Y0119569D01*
X0064600Y0120167D02*
X0034467Y0120167D01*
X0034467Y0120766D02*
X0064600Y0120766D01*
X0064600Y0121364D02*
X0034467Y0121364D01*
X0034467Y0121963D02*
X0064600Y0121963D01*
X0065800Y0121963D02*
X0069389Y0121963D01*
X0069394Y0122561D02*
X0065800Y0122561D01*
X0065800Y0123160D02*
X0069398Y0123160D01*
X0069402Y0123758D02*
X0065800Y0123758D01*
X0065800Y0124357D02*
X0069407Y0124357D01*
X0069411Y0124955D02*
X0065800Y0124955D01*
X0065800Y0125554D02*
X0069416Y0125554D01*
X0069420Y0126152D02*
X0047886Y0126152D01*
X0047886Y0126751D02*
X0054830Y0126751D01*
X0055253Y0126328D02*
X0056661Y0126328D01*
X0057657Y0127323D01*
X0057657Y0128732D01*
X0056661Y0129728D01*
X0055253Y0129728D01*
X0054257Y0128732D01*
X0054257Y0127323D01*
X0055253Y0126328D01*
X0054257Y0127349D02*
X0047886Y0127349D01*
X0047886Y0127948D02*
X0054257Y0127948D01*
X0054257Y0128546D02*
X0047886Y0128546D01*
X0047886Y0129145D02*
X0054670Y0129145D01*
X0057244Y0129145D02*
X0065497Y0129145D01*
X0065084Y0128732D02*
X0065084Y0127323D01*
X0066080Y0126328D01*
X0067488Y0126328D01*
X0068484Y0127323D01*
X0068484Y0128732D01*
X0067488Y0129728D01*
X0066080Y0129728D01*
X0065084Y0128732D01*
X0065084Y0128546D02*
X0057657Y0128546D01*
X0057657Y0127948D02*
X0065084Y0127948D01*
X0065084Y0127349D02*
X0057657Y0127349D01*
X0057085Y0126751D02*
X0065656Y0126751D01*
X0067912Y0126751D02*
X0069425Y0126751D01*
X0069429Y0127349D02*
X0068484Y0127349D01*
X0068484Y0127948D02*
X0069434Y0127948D01*
X0069438Y0128546D02*
X0068484Y0128546D01*
X0068071Y0129145D02*
X0069443Y0129145D01*
X0069447Y0129744D02*
X0047886Y0129744D01*
X0047886Y0130342D02*
X0048286Y0130342D01*
X0049849Y0130342D02*
X0069452Y0130342D01*
X0069456Y0130941D02*
X0050448Y0130941D01*
X0050767Y0131539D02*
X0069461Y0131539D01*
X0069465Y0132138D02*
X0050767Y0132138D01*
X0050700Y0132736D02*
X0069470Y0132736D01*
X0069474Y0133335D02*
X0050102Y0133335D01*
X0051372Y0135130D02*
X0047886Y0135130D01*
X0047886Y0134532D02*
X0051970Y0134532D01*
X0052300Y0134202D02*
X0051304Y0135197D01*
X0051304Y0136606D01*
X0052300Y0137602D01*
X0053709Y0137602D01*
X0054704Y0136606D01*
X0054704Y0135197D01*
X0053709Y0134202D01*
X0052300Y0134202D01*
X0054039Y0134532D02*
X0055907Y0134532D01*
X0056237Y0134202D02*
X0057646Y0134202D01*
X0058641Y0135197D01*
X0058641Y0136606D01*
X0057646Y0137602D01*
X0056237Y0137602D01*
X0055241Y0136606D01*
X0055241Y0135197D01*
X0056237Y0134202D01*
X0055309Y0135130D02*
X0054637Y0135130D01*
X0054704Y0135729D02*
X0055241Y0135729D01*
X0055241Y0136327D02*
X0054704Y0136327D01*
X0054385Y0136926D02*
X0055561Y0136926D01*
X0056160Y0137524D02*
X0053786Y0137524D01*
X0053709Y0138139D02*
X0054704Y0139134D01*
X0054704Y0140543D01*
X0053709Y0141539D01*
X0052300Y0141539D01*
X0051304Y0140543D01*
X0051304Y0139134D01*
X0052300Y0138139D01*
X0053709Y0138139D01*
X0054291Y0138721D02*
X0055655Y0138721D01*
X0055241Y0139134D02*
X0056237Y0138139D01*
X0057646Y0138139D01*
X0058641Y0139134D01*
X0058641Y0140543D01*
X0057646Y0141539D01*
X0056237Y0141539D01*
X0055241Y0140543D01*
X0055241Y0139134D01*
X0055241Y0139320D02*
X0054704Y0139320D01*
X0054704Y0139918D02*
X0055241Y0139918D01*
X0055241Y0140517D02*
X0054704Y0140517D01*
X0054132Y0141115D02*
X0055814Y0141115D01*
X0056237Y0142076D02*
X0055241Y0143071D01*
X0055241Y0144480D01*
X0056237Y0145476D01*
X0057646Y0145476D01*
X0058641Y0144480D01*
X0058641Y0143071D01*
X0057646Y0142076D01*
X0056237Y0142076D01*
X0056001Y0142312D02*
X0053945Y0142312D01*
X0053709Y0142076D02*
X0054704Y0143071D01*
X0054704Y0144480D01*
X0053709Y0145476D01*
X0052300Y0145476D01*
X0051304Y0144480D01*
X0051304Y0143071D01*
X0052300Y0142076D01*
X0053709Y0142076D01*
X0054544Y0142911D02*
X0055402Y0142911D01*
X0055241Y0143509D02*
X0054704Y0143509D01*
X0054704Y0144108D02*
X0055241Y0144108D01*
X0055468Y0144706D02*
X0054478Y0144706D01*
X0053879Y0145305D02*
X0056066Y0145305D01*
X0056237Y0146013D02*
X0057646Y0146013D01*
X0058641Y0147008D01*
X0058641Y0148417D01*
X0057646Y0149413D01*
X0056237Y0149413D01*
X0055241Y0148417D01*
X0055241Y0147008D01*
X0056237Y0146013D01*
X0055748Y0146502D02*
X0047886Y0146502D01*
X0047886Y0147100D02*
X0055241Y0147100D01*
X0055241Y0147699D02*
X0047886Y0147699D01*
X0047886Y0148297D02*
X0055241Y0148297D01*
X0055721Y0148896D02*
X0047886Y0148896D01*
X0047886Y0149494D02*
X0069595Y0149494D01*
X0069591Y0148896D02*
X0066036Y0148896D01*
X0066515Y0148417D02*
X0065520Y0149413D01*
X0064111Y0149413D01*
X0063115Y0148417D01*
X0063115Y0147008D01*
X0064111Y0146013D01*
X0065520Y0146013D01*
X0066515Y0147008D01*
X0066515Y0148417D01*
X0066515Y0148297D02*
X0069586Y0148297D01*
X0069582Y0147699D02*
X0066515Y0147699D01*
X0066515Y0147100D02*
X0069577Y0147100D01*
X0069573Y0146502D02*
X0066009Y0146502D01*
X0065520Y0145476D02*
X0064111Y0145476D01*
X0063115Y0144480D01*
X0063115Y0143071D01*
X0064111Y0142076D01*
X0065520Y0142076D01*
X0066515Y0143071D01*
X0066515Y0144480D01*
X0065520Y0145476D01*
X0065690Y0145305D02*
X0069564Y0145305D01*
X0069568Y0145903D02*
X0047886Y0145903D01*
X0047886Y0145305D02*
X0052129Y0145305D01*
X0051531Y0144706D02*
X0047886Y0144706D01*
X0047886Y0144108D02*
X0051304Y0144108D01*
X0051304Y0143509D02*
X0047886Y0143509D01*
X0047886Y0142911D02*
X0051465Y0142911D01*
X0052064Y0142312D02*
X0047886Y0142312D01*
X0047886Y0141714D02*
X0069537Y0141714D01*
X0069541Y0142312D02*
X0065756Y0142312D01*
X0065520Y0141539D02*
X0064111Y0141539D01*
X0063115Y0140543D01*
X0063115Y0139134D01*
X0064111Y0138139D01*
X0065520Y0138139D01*
X0066515Y0139134D01*
X0066515Y0140543D01*
X0065520Y0141539D01*
X0065943Y0141115D02*
X0069532Y0141115D01*
X0069528Y0140517D02*
X0066515Y0140517D01*
X0066515Y0139918D02*
X0069524Y0139918D01*
X0069519Y0139320D02*
X0066515Y0139320D01*
X0066102Y0138721D02*
X0069515Y0138721D01*
X0069510Y0138123D02*
X0047886Y0138123D01*
X0047886Y0138721D02*
X0051718Y0138721D01*
X0051304Y0139320D02*
X0047886Y0139320D01*
X0047886Y0139918D02*
X0051304Y0139918D01*
X0051304Y0140517D02*
X0047886Y0140517D01*
X0047886Y0141115D02*
X0051877Y0141115D01*
X0052223Y0137524D02*
X0047886Y0137524D01*
X0047886Y0136926D02*
X0051624Y0136926D01*
X0051304Y0136327D02*
X0047886Y0136327D01*
X0047886Y0135729D02*
X0051304Y0135729D01*
X0047886Y0133933D02*
X0069479Y0133933D01*
X0069483Y0134532D02*
X0061913Y0134532D01*
X0061583Y0134202D02*
X0062578Y0135197D01*
X0062578Y0136606D01*
X0061583Y0137602D01*
X0060174Y0137602D01*
X0059178Y0136606D01*
X0059178Y0135197D01*
X0060174Y0134202D01*
X0061583Y0134202D01*
X0062511Y0135130D02*
X0069488Y0135130D01*
X0069492Y0135729D02*
X0062578Y0135729D01*
X0062578Y0136327D02*
X0069497Y0136327D01*
X0069501Y0136926D02*
X0062259Y0136926D01*
X0061660Y0137524D02*
X0069506Y0137524D01*
X0070706Y0137524D02*
X0077092Y0137524D01*
X0077092Y0136926D02*
X0070701Y0136926D01*
X0070697Y0136327D02*
X0077537Y0136327D01*
X0077092Y0136772D02*
X0078088Y0135776D01*
X0079496Y0135776D01*
X0080014Y0136294D01*
X0080014Y0134099D01*
X0080336Y0133777D01*
X0080791Y0133777D01*
X0088468Y0133777D01*
X0088791Y0134099D01*
X0088791Y0137704D01*
X0088468Y0138026D01*
X0080492Y0138026D01*
X0080492Y0138181D01*
X0079818Y0138854D01*
X0080492Y0139528D01*
X0080492Y0139682D01*
X0088468Y0139682D01*
X0088791Y0140004D01*
X0088791Y0143610D01*
X0088468Y0143932D01*
X0080336Y0143932D01*
X0080014Y0143610D01*
X0080014Y0141415D01*
X0079496Y0141932D01*
X0078088Y0141932D01*
X0077092Y0140936D01*
X0077092Y0139528D01*
X0077766Y0138854D01*
X0077092Y0138181D01*
X0077092Y0136772D01*
X0077092Y0138123D02*
X0070710Y0138123D01*
X0070715Y0138721D02*
X0077632Y0138721D01*
X0077300Y0139320D02*
X0070719Y0139320D01*
X0070724Y0139918D02*
X0077092Y0139918D01*
X0077092Y0140517D02*
X0070728Y0140517D01*
X0070733Y0141115D02*
X0077271Y0141115D01*
X0077869Y0141714D02*
X0075591Y0141714D01*
X0075559Y0141682D02*
X0076555Y0142678D01*
X0076555Y0144086D01*
X0075881Y0144760D01*
X0076555Y0145434D01*
X0076555Y0146842D01*
X0075559Y0147838D01*
X0074151Y0147838D01*
X0073155Y0146842D01*
X0073155Y0145434D01*
X0073829Y0144760D01*
X0073155Y0144086D01*
X0073155Y0142678D01*
X0074151Y0141682D01*
X0075559Y0141682D01*
X0076189Y0142312D02*
X0080014Y0142312D01*
X0080014Y0141714D02*
X0079715Y0141714D01*
X0080014Y0142911D02*
X0076555Y0142911D01*
X0076555Y0143509D02*
X0080014Y0143509D01*
X0080336Y0145588D02*
X0088468Y0145588D01*
X0088791Y0145910D01*
X0088791Y0149515D01*
X0088468Y0149837D01*
X0080492Y0149837D01*
X0080492Y0149992D01*
X0079818Y0150665D01*
X0080492Y0151339D01*
X0080492Y0151493D01*
X0080791Y0151493D01*
X0088468Y0151493D01*
X0088791Y0151816D01*
X0088791Y0153452D01*
X0088468Y0153774D01*
X0080336Y0153774D01*
X0080014Y0153452D01*
X0080014Y0153226D01*
X0079496Y0153743D01*
X0078088Y0153743D01*
X0077092Y0152747D01*
X0077092Y0151339D01*
X0077766Y0150665D01*
X0077092Y0149992D01*
X0077092Y0148583D01*
X0078088Y0147587D01*
X0079496Y0147587D01*
X0080014Y0148105D01*
X0080014Y0145910D01*
X0080336Y0145588D01*
X0080020Y0145903D02*
X0076555Y0145903D01*
X0076555Y0146502D02*
X0080014Y0146502D01*
X0080014Y0147100D02*
X0076296Y0147100D01*
X0075698Y0147699D02*
X0077976Y0147699D01*
X0077378Y0148297D02*
X0070786Y0148297D01*
X0070782Y0147699D02*
X0074012Y0147699D01*
X0073413Y0147100D02*
X0070777Y0147100D01*
X0070773Y0146502D02*
X0073155Y0146502D01*
X0073155Y0145903D02*
X0070768Y0145903D01*
X0070764Y0145305D02*
X0073284Y0145305D01*
X0073775Y0144706D02*
X0070759Y0144706D01*
X0070755Y0144108D02*
X0073177Y0144108D01*
X0073155Y0143509D02*
X0070750Y0143509D01*
X0070746Y0142911D02*
X0073155Y0142911D01*
X0073520Y0142312D02*
X0070741Y0142312D01*
X0070737Y0141714D02*
X0074119Y0141714D01*
X0076533Y0144108D02*
X0116267Y0144108D01*
X0116267Y0144706D02*
X0075935Y0144706D01*
X0076426Y0145305D02*
X0116267Y0145305D01*
X0116267Y0145903D02*
X0088784Y0145903D01*
X0088791Y0146502D02*
X0116267Y0146502D01*
X0116267Y0147100D02*
X0088791Y0147100D01*
X0088791Y0147699D02*
X0116267Y0147699D01*
X0116267Y0148297D02*
X0106978Y0148297D01*
X0106661Y0147981D02*
X0107657Y0148977D01*
X0107657Y0150385D01*
X0106661Y0151381D01*
X0105253Y0151381D01*
X0104257Y0150385D01*
X0104257Y0148977D01*
X0105253Y0147981D01*
X0106661Y0147981D01*
X0107576Y0148896D02*
X0116267Y0148896D01*
X0116267Y0149494D02*
X0107657Y0149494D01*
X0107657Y0150093D02*
X0116267Y0150093D01*
X0116267Y0150691D02*
X0107351Y0150691D01*
X0106753Y0151290D02*
X0116267Y0151290D01*
X0116267Y0151888D02*
X0088791Y0151888D01*
X0088791Y0152487D02*
X0116267Y0152487D01*
X0116267Y0153085D02*
X0088791Y0153085D01*
X0088559Y0153684D02*
X0116267Y0153684D01*
X0116267Y0154282D02*
X0070831Y0154282D01*
X0070827Y0153684D02*
X0078028Y0153684D01*
X0077430Y0153085D02*
X0070822Y0153085D01*
X0070818Y0152487D02*
X0077092Y0152487D01*
X0077092Y0151888D02*
X0070813Y0151888D01*
X0070809Y0151290D02*
X0077141Y0151290D01*
X0077740Y0150691D02*
X0070804Y0150691D01*
X0070800Y0150093D02*
X0077193Y0150093D01*
X0077092Y0149494D02*
X0070795Y0149494D01*
X0070791Y0148896D02*
X0077092Y0148896D01*
X0079607Y0147699D02*
X0080014Y0147699D01*
X0080391Y0150093D02*
X0100320Y0150093D01*
X0100320Y0150385D02*
X0100320Y0148977D01*
X0101316Y0147981D01*
X0102724Y0147981D01*
X0103720Y0148977D01*
X0103720Y0150385D01*
X0102724Y0151381D01*
X0101316Y0151381D01*
X0100320Y0150385D01*
X0100626Y0150691D02*
X0079844Y0150691D01*
X0080443Y0151290D02*
X0101225Y0151290D01*
X0102816Y0151290D02*
X0105162Y0151290D01*
X0104563Y0150691D02*
X0103414Y0150691D01*
X0103720Y0150093D02*
X0104257Y0150093D01*
X0104257Y0149494D02*
X0103720Y0149494D01*
X0103639Y0148896D02*
X0104338Y0148896D01*
X0104937Y0148297D02*
X0103041Y0148297D01*
X0101000Y0148297D02*
X0088791Y0148297D01*
X0088791Y0148896D02*
X0100401Y0148896D01*
X0100320Y0149494D02*
X0088791Y0149494D01*
X0088791Y0143509D02*
X0116267Y0143509D01*
X0116267Y0142911D02*
X0088791Y0142911D01*
X0088791Y0142312D02*
X0116267Y0142312D01*
X0116267Y0141714D02*
X0088791Y0141714D01*
X0088791Y0141115D02*
X0116267Y0141115D01*
X0116267Y0140517D02*
X0088791Y0140517D01*
X0088704Y0139918D02*
X0116267Y0139918D01*
X0116267Y0139320D02*
X0080283Y0139320D01*
X0079951Y0138721D02*
X0116267Y0138721D01*
X0116267Y0138123D02*
X0080492Y0138123D01*
X0080014Y0135729D02*
X0075857Y0135729D01*
X0075559Y0136027D02*
X0074151Y0136027D01*
X0073155Y0135031D01*
X0073155Y0133623D01*
X0073829Y0132949D01*
X0073155Y0132275D01*
X0073155Y0130867D01*
X0074151Y0129871D01*
X0075559Y0129871D01*
X0076555Y0130867D01*
X0076555Y0132275D01*
X0075881Y0132949D01*
X0076555Y0133623D01*
X0076555Y0135031D01*
X0075559Y0136027D01*
X0076456Y0135130D02*
X0080014Y0135130D01*
X0080014Y0134532D02*
X0076555Y0134532D01*
X0076555Y0133933D02*
X0080179Y0133933D01*
X0080336Y0132121D02*
X0080014Y0131799D01*
X0080014Y0130162D01*
X0080336Y0129840D01*
X0080791Y0129840D01*
X0088468Y0129840D01*
X0088791Y0130162D01*
X0088791Y0131799D01*
X0088468Y0132121D01*
X0080336Y0132121D01*
X0080014Y0131539D02*
X0076555Y0131539D01*
X0076555Y0130941D02*
X0080014Y0130941D01*
X0080014Y0130342D02*
X0076030Y0130342D01*
X0076555Y0132138D02*
X0116267Y0132138D01*
X0116267Y0132736D02*
X0076094Y0132736D01*
X0076267Y0133335D02*
X0116267Y0133335D01*
X0116267Y0133933D02*
X0088625Y0133933D01*
X0088791Y0134532D02*
X0100986Y0134532D01*
X0101316Y0134202D02*
X0100320Y0135197D01*
X0100320Y0136606D01*
X0101316Y0137602D01*
X0102724Y0137602D01*
X0103720Y0136606D01*
X0103720Y0135197D01*
X0102724Y0134202D01*
X0101316Y0134202D01*
X0100388Y0135130D02*
X0088791Y0135130D01*
X0088791Y0135729D02*
X0100320Y0135729D01*
X0100320Y0136327D02*
X0088791Y0136327D01*
X0088791Y0136926D02*
X0100640Y0136926D01*
X0101239Y0137524D02*
X0088791Y0137524D01*
X0088791Y0131539D02*
X0116267Y0131539D01*
X0116267Y0130941D02*
X0088791Y0130941D01*
X0088791Y0130342D02*
X0116267Y0130342D01*
X0116267Y0129744D02*
X0070647Y0129744D01*
X0070652Y0130342D02*
X0073680Y0130342D01*
X0073394Y0129728D02*
X0071985Y0129728D01*
X0070989Y0128732D01*
X0070989Y0127323D01*
X0071985Y0126328D01*
X0073394Y0126328D01*
X0074389Y0127323D01*
X0074389Y0128732D01*
X0073394Y0129728D01*
X0073976Y0129145D02*
X0116267Y0129145D01*
X0116267Y0128546D02*
X0074389Y0128546D01*
X0074389Y0127948D02*
X0116267Y0127948D01*
X0116267Y0127349D02*
X0097228Y0127349D01*
X0096819Y0127759D02*
X0095411Y0127759D01*
X0094415Y0126763D01*
X0094415Y0125355D01*
X0095411Y0124359D01*
X0096819Y0124359D01*
X0097815Y0125355D01*
X0097815Y0126763D01*
X0096819Y0127759D01*
X0097815Y0126751D02*
X0116267Y0126751D01*
X0116267Y0126152D02*
X0097815Y0126152D01*
X0097815Y0125554D02*
X0116267Y0125554D01*
X0116267Y0124955D02*
X0097415Y0124955D01*
X0095001Y0127349D02*
X0074389Y0127349D01*
X0073817Y0126751D02*
X0094415Y0126751D01*
X0094415Y0126152D02*
X0070620Y0126152D01*
X0070616Y0125554D02*
X0094415Y0125554D01*
X0094814Y0124955D02*
X0070611Y0124955D01*
X0070607Y0124357D02*
X0116267Y0124357D01*
X0116267Y0123758D02*
X0070602Y0123758D01*
X0070598Y0123160D02*
X0116267Y0123160D01*
X0116267Y0122561D02*
X0070594Y0122561D01*
X0070589Y0121963D02*
X0116267Y0121963D01*
X0116267Y0121364D02*
X0070585Y0121364D01*
X0070580Y0120766D02*
X0089559Y0120766D01*
X0089662Y0120869D02*
X0088667Y0119873D01*
X0088667Y0118465D01*
X0089662Y0117469D01*
X0091071Y0117469D01*
X0092067Y0118465D01*
X0092067Y0119873D01*
X0091071Y0120869D01*
X0089662Y0120869D01*
X0088961Y0120167D02*
X0070576Y0120167D01*
X0070571Y0119569D02*
X0088667Y0119569D01*
X0088667Y0118970D02*
X0070567Y0118970D01*
X0070562Y0118372D02*
X0088760Y0118372D01*
X0089359Y0117773D02*
X0070558Y0117773D01*
X0070553Y0117175D02*
X0094721Y0117175D01*
X0094415Y0117481D02*
X0095411Y0116485D01*
X0096819Y0116485D01*
X0097815Y0117481D01*
X0097815Y0118889D01*
X0096819Y0119885D01*
X0095411Y0119885D01*
X0094415Y0118889D01*
X0094415Y0117481D01*
X0094415Y0117773D02*
X0091375Y0117773D01*
X0091973Y0118372D02*
X0094415Y0118372D01*
X0094496Y0118970D02*
X0092067Y0118970D01*
X0092067Y0119569D02*
X0095094Y0119569D01*
X0097135Y0119569D02*
X0116267Y0119569D01*
X0116267Y0120167D02*
X0091773Y0120167D01*
X0091174Y0120766D02*
X0116267Y0120766D01*
X0116267Y0118970D02*
X0097734Y0118970D01*
X0097815Y0118372D02*
X0116267Y0118372D01*
X0116267Y0117773D02*
X0097815Y0117773D01*
X0097509Y0117175D02*
X0116267Y0117175D01*
X0116267Y0116576D02*
X0096910Y0116576D01*
X0095319Y0116576D02*
X0072649Y0116576D01*
X0072905Y0115978D02*
X0116267Y0115978D01*
X0116267Y0109394D02*
X0090283Y0109394D01*
X0091217Y0108796D02*
X0116267Y0108796D01*
X0116267Y0108197D02*
X0091816Y0108197D01*
X0077523Y0097424D02*
X0116267Y0097424D01*
X0116267Y0098022D02*
X0076924Y0098022D01*
X0073977Y0095030D02*
X0034467Y0095030D01*
X0034467Y0095628D02*
X0073379Y0095628D01*
X0072780Y0096227D02*
X0071639Y0096227D01*
X0069409Y0096227D02*
X0034467Y0096227D01*
X0034467Y0096825D02*
X0068824Y0096825D01*
X0068824Y0097424D02*
X0034467Y0097424D01*
X0034467Y0098022D02*
X0068824Y0098022D01*
X0064809Y0098621D02*
X0034467Y0098621D01*
X0034467Y0099219D02*
X0064600Y0099219D01*
X0064600Y0104008D02*
X0060719Y0104008D01*
X0061318Y0104606D02*
X0064600Y0104606D01*
X0064600Y0105205D02*
X0061397Y0105205D01*
X0061397Y0105803D02*
X0064600Y0105803D01*
X0064600Y0106402D02*
X0061090Y0106402D01*
X0060491Y0107000D02*
X0064600Y0107000D01*
X0064600Y0108796D02*
X0055665Y0108796D01*
X0056263Y0109394D02*
X0064600Y0109394D01*
X0064600Y0109993D02*
X0056476Y0109993D01*
X0056476Y0110591D02*
X0064600Y0110591D01*
X0064600Y0111190D02*
X0056302Y0111190D01*
X0055703Y0111788D02*
X0064600Y0111788D01*
X0065800Y0111788D02*
X0066562Y0111788D01*
X0065968Y0111190D02*
X0065800Y0111190D01*
X0065800Y0110591D02*
X0065968Y0110591D01*
X0065968Y0109993D02*
X0065800Y0109993D01*
X0065800Y0109394D02*
X0066277Y0109394D01*
X0065800Y0108796D02*
X0066876Y0108796D01*
X0065800Y0113584D02*
X0071705Y0113584D01*
X0071705Y0114182D02*
X0065800Y0114182D01*
X0065800Y0114781D02*
X0071705Y0114781D01*
X0071705Y0115379D02*
X0065800Y0115379D01*
X0065800Y0115978D02*
X0069344Y0115978D01*
X0069349Y0116576D02*
X0065800Y0116576D01*
X0065800Y0117175D02*
X0069353Y0117175D01*
X0069358Y0117773D02*
X0065800Y0117773D01*
X0065800Y0118372D02*
X0069362Y0118372D01*
X0069367Y0118970D02*
X0065800Y0118970D01*
X0065800Y0119569D02*
X0069371Y0119569D01*
X0069376Y0120167D02*
X0065800Y0120167D01*
X0065800Y0120766D02*
X0069380Y0120766D01*
X0069385Y0121364D02*
X0065800Y0121364D01*
X0062956Y0122561D02*
X0060769Y0122561D01*
X0061368Y0123160D02*
X0062358Y0123160D01*
X0062131Y0123758D02*
X0061594Y0123758D01*
X0061594Y0124357D02*
X0062131Y0124357D01*
X0059019Y0122561D02*
X0056832Y0122561D01*
X0057431Y0123160D02*
X0058421Y0123160D01*
X0058194Y0123758D02*
X0057657Y0123758D01*
X0057657Y0124357D02*
X0058194Y0124357D01*
X0055082Y0122561D02*
X0034467Y0122561D01*
X0034467Y0123160D02*
X0054484Y0123160D01*
X0054257Y0123758D02*
X0034467Y0123758D01*
X0034467Y0124357D02*
X0054257Y0124357D01*
X0047293Y0124955D02*
X0034467Y0124955D01*
X0034467Y0125554D02*
X0046694Y0125554D01*
X0046686Y0126152D02*
X0034467Y0126152D01*
X0034467Y0126751D02*
X0046686Y0126751D01*
X0046686Y0127349D02*
X0034467Y0127349D01*
X0034467Y0127948D02*
X0046686Y0127948D01*
X0046686Y0128546D02*
X0034467Y0128546D01*
X0034467Y0129145D02*
X0046686Y0129145D01*
X0046686Y0129744D02*
X0034467Y0129744D01*
X0034467Y0130342D02*
X0046686Y0130342D01*
X0046686Y0130941D02*
X0034467Y0130941D01*
X0034467Y0131539D02*
X0046686Y0131539D01*
X0046686Y0132138D02*
X0034467Y0132138D01*
X0034467Y0132736D02*
X0046686Y0132736D01*
X0046686Y0133335D02*
X0034467Y0133335D01*
X0034467Y0133933D02*
X0046686Y0133933D01*
X0046686Y0134532D02*
X0034467Y0134532D01*
X0034467Y0135130D02*
X0046686Y0135130D01*
X0046686Y0135729D02*
X0034467Y0135729D01*
X0034467Y0136327D02*
X0046686Y0136327D01*
X0046686Y0136926D02*
X0034467Y0136926D01*
X0034467Y0137524D02*
X0046686Y0137524D01*
X0046686Y0138123D02*
X0034467Y0138123D01*
X0034467Y0138721D02*
X0046686Y0138721D01*
X0046686Y0139320D02*
X0034467Y0139320D01*
X0034467Y0139918D02*
X0046686Y0139918D01*
X0046686Y0140517D02*
X0034467Y0140517D01*
X0034467Y0141115D02*
X0046686Y0141115D01*
X0046686Y0141714D02*
X0034467Y0141714D01*
X0034467Y0142312D02*
X0046686Y0142312D01*
X0046686Y0142911D02*
X0034467Y0142911D01*
X0034467Y0143509D02*
X0046686Y0143509D01*
X0046686Y0144108D02*
X0034467Y0144108D01*
X0034467Y0144706D02*
X0046686Y0144706D01*
X0046686Y0145305D02*
X0034467Y0145305D01*
X0034467Y0145903D02*
X0046686Y0145903D01*
X0046686Y0146502D02*
X0034467Y0146502D01*
X0034467Y0147100D02*
X0046686Y0147100D01*
X0046686Y0147699D02*
X0034467Y0147699D01*
X0034467Y0148297D02*
X0046686Y0148297D01*
X0046686Y0148896D02*
X0034467Y0148896D01*
X0034467Y0149494D02*
X0046686Y0149494D01*
X0046686Y0150093D02*
X0034467Y0150093D01*
X0034467Y0150691D02*
X0046686Y0150691D01*
X0046686Y0151290D02*
X0034467Y0151290D01*
X0034467Y0151888D02*
X0046686Y0151888D01*
X0046686Y0152487D02*
X0034467Y0152487D01*
X0034467Y0153085D02*
X0046686Y0153085D01*
X0046686Y0153684D02*
X0034467Y0153684D01*
X0034467Y0154282D02*
X0046686Y0154282D01*
X0046686Y0154881D02*
X0034467Y0154881D01*
X0034467Y0155480D02*
X0046686Y0155480D01*
X0046686Y0156078D02*
X0034467Y0156078D01*
X0034467Y0156677D02*
X0046686Y0156677D01*
X0046893Y0157275D02*
X0034467Y0157275D01*
X0034467Y0157874D02*
X0052289Y0157874D01*
X0052501Y0158472D02*
X0034467Y0158472D01*
X0034467Y0159071D02*
X0053100Y0159071D01*
X0054257Y0159669D02*
X0034467Y0159669D01*
X0034467Y0160268D02*
X0054297Y0160268D01*
X0054896Y0160866D02*
X0034467Y0160866D01*
X0034467Y0161465D02*
X0061844Y0161465D01*
X0061844Y0162063D02*
X0034467Y0162063D01*
X0034467Y0162662D02*
X0061844Y0162662D01*
X0061844Y0163260D02*
X0034467Y0163260D01*
X0034467Y0163859D02*
X0061844Y0163859D01*
X0061844Y0164457D02*
X0034467Y0164457D01*
X0034467Y0165056D02*
X0061844Y0165056D01*
X0061844Y0165654D02*
X0034467Y0165654D01*
X0034467Y0166253D02*
X0061844Y0166253D01*
X0061844Y0166851D02*
X0034467Y0166851D01*
X0034467Y0167450D02*
X0061844Y0167450D01*
X0061793Y0168048D02*
X0034467Y0168048D01*
X0034467Y0168647D02*
X0061844Y0168647D01*
X0062274Y0169245D02*
X0034467Y0169245D01*
X0034467Y0169844D02*
X0068794Y0169844D01*
X0069393Y0170442D02*
X0034467Y0170442D01*
X0034467Y0171041D02*
X0069991Y0171041D01*
X0070590Y0171639D02*
X0034467Y0171639D01*
X0034467Y0172238D02*
X0070793Y0172238D01*
X0070793Y0172836D02*
X0034467Y0172836D01*
X0034467Y0173435D02*
X0070793Y0173435D01*
X0070793Y0174033D02*
X0034467Y0174033D01*
X0034467Y0174632D02*
X0070793Y0174632D01*
X0070793Y0175230D02*
X0034467Y0175230D01*
X0034467Y0175829D02*
X0070793Y0175829D01*
X0070793Y0176427D02*
X0034467Y0176427D01*
X0034467Y0177026D02*
X0070793Y0177026D01*
X0070793Y0177624D02*
X0034467Y0177624D01*
X0034467Y0178223D02*
X0070793Y0178223D01*
X0070793Y0178821D02*
X0034467Y0178821D01*
X0034467Y0179420D02*
X0070793Y0179420D01*
X0070793Y0180018D02*
X0034467Y0180018D01*
X0034467Y0180617D02*
X0070793Y0180617D01*
X0070793Y0181215D02*
X0034467Y0181215D01*
X0034467Y0181814D02*
X0070793Y0181814D01*
X0070793Y0182413D02*
X0034467Y0182413D01*
X0034467Y0183011D02*
X0070793Y0183011D01*
X0070793Y0183610D02*
X0034467Y0183610D01*
X0034467Y0184208D02*
X0070793Y0184208D01*
X0070793Y0184807D02*
X0034467Y0184807D01*
X0034467Y0185405D02*
X0070793Y0185405D01*
X0070793Y0186004D02*
X0034467Y0186004D01*
X0034467Y0186602D02*
X0070793Y0186602D01*
X0070793Y0187201D02*
X0034467Y0187201D01*
X0034467Y0187799D02*
X0070793Y0187799D01*
X0070793Y0188398D02*
X0034467Y0188398D01*
X0034467Y0188996D02*
X0070793Y0188996D01*
X0070793Y0189595D02*
X0034467Y0189595D01*
X0034467Y0190193D02*
X0070793Y0190193D01*
X0070793Y0190792D02*
X0034467Y0190792D01*
X0034467Y0191390D02*
X0070793Y0191390D01*
X0070793Y0191989D02*
X0034467Y0191989D01*
X0034467Y0192587D02*
X0070793Y0192587D01*
X0070793Y0193186D02*
X0034467Y0193186D01*
X0034467Y0193784D02*
X0070793Y0193784D01*
X0070793Y0194383D02*
X0034467Y0194383D01*
X0034467Y0194981D02*
X0070793Y0194981D01*
X0070793Y0195580D02*
X0034467Y0195580D01*
X0034467Y0196178D02*
X0070793Y0196178D01*
X0070793Y0196777D02*
X0034467Y0196777D01*
X0034467Y0197375D02*
X0070793Y0197375D01*
X0070793Y0197974D02*
X0034467Y0197974D01*
X0034467Y0198572D02*
X0070793Y0198572D01*
X0070793Y0199171D02*
X0034467Y0199171D01*
X0034467Y0199769D02*
X0070793Y0199769D01*
X0070793Y0200368D02*
X0034467Y0200368D01*
X0034467Y0200966D02*
X0070793Y0200966D01*
X0070793Y0201565D02*
X0034467Y0201565D01*
X0034467Y0202163D02*
X0070793Y0202163D01*
X0070793Y0202762D02*
X0034467Y0202762D01*
X0034467Y0203360D02*
X0070793Y0203360D01*
X0070793Y0203959D02*
X0034467Y0203959D01*
X0034467Y0204557D02*
X0070793Y0204557D01*
X0070793Y0205156D02*
X0034467Y0205156D01*
X0034467Y0205754D02*
X0070793Y0205754D01*
X0070793Y0206353D02*
X0034467Y0206353D01*
X0034467Y0206951D02*
X0070793Y0206951D01*
X0070793Y0207550D02*
X0034467Y0207550D01*
X0034467Y0208148D02*
X0070793Y0208148D01*
X0070793Y0208747D02*
X0034467Y0208747D01*
X0034467Y0209346D02*
X0070793Y0209346D01*
X0070793Y0209944D02*
X0034467Y0209944D01*
X0034467Y0210543D02*
X0070793Y0210543D01*
X0070793Y0211141D02*
X0034467Y0211141D01*
X0034467Y0211740D02*
X0070793Y0211740D01*
X0070793Y0212338D02*
X0034467Y0212338D01*
X0034467Y0212937D02*
X0070793Y0212937D01*
X0070793Y0213535D02*
X0034467Y0213535D01*
X0034467Y0214134D02*
X0070793Y0214134D01*
X0070793Y0214732D02*
X0034467Y0214732D01*
X0034467Y0215331D02*
X0070793Y0215331D01*
X0071376Y0215929D02*
X0034467Y0215929D01*
X0034467Y0216528D02*
X0071974Y0216528D01*
X0072573Y0217126D02*
X0034467Y0217126D01*
X0034467Y0217725D02*
X0073171Y0217725D01*
X0073667Y0218323D02*
X0034467Y0218323D01*
X0034467Y0218922D02*
X0073667Y0218922D01*
X0073667Y0219520D02*
X0034467Y0219520D01*
X0034467Y0220119D02*
X0067968Y0220119D01*
X0068412Y0219674D02*
X0069821Y0219674D01*
X0070817Y0220670D01*
X0070817Y0222078D01*
X0069821Y0223074D01*
X0068412Y0223074D01*
X0067417Y0222078D01*
X0067417Y0220670D01*
X0068412Y0219674D01*
X0067417Y0220717D02*
X0034467Y0220717D01*
X0034467Y0221316D02*
X0067417Y0221316D01*
X0067417Y0221914D02*
X0034467Y0221914D01*
X0034467Y0222513D02*
X0067851Y0222513D01*
X0070382Y0222513D02*
X0073667Y0222513D01*
X0073667Y0223111D02*
X0034467Y0223111D01*
X0034467Y0223710D02*
X0073667Y0223710D01*
X0073667Y0224308D02*
X0034467Y0224308D01*
X0034467Y0224907D02*
X0073667Y0224907D01*
X0073944Y0225505D02*
X0034467Y0225505D01*
X0034467Y0226104D02*
X0074543Y0226104D01*
X0075141Y0226702D02*
X0034467Y0226702D01*
X0034467Y0227301D02*
X0075740Y0227301D01*
X0076338Y0227899D02*
X0034467Y0227899D01*
X0034467Y0228498D02*
X0116267Y0228498D01*
X0116267Y0229096D02*
X0034467Y0229096D01*
X0034467Y0229695D02*
X0116267Y0229695D01*
X0116267Y0230293D02*
X0034467Y0230293D01*
X0034467Y0230892D02*
X0116267Y0230892D01*
X0116267Y0231490D02*
X0034467Y0231490D01*
X0034467Y0232089D02*
X0116267Y0232089D01*
X0116267Y0232687D02*
X0034467Y0232687D01*
X0034467Y0233286D02*
X0116267Y0233286D01*
X0116267Y0233884D02*
X0034467Y0233884D01*
X0034467Y0234483D02*
X0116267Y0234483D01*
X0116267Y0235082D02*
X0034467Y0235082D01*
X0034467Y0235680D02*
X0116267Y0235680D01*
X0116267Y0236279D02*
X0034467Y0236279D01*
X0034467Y0236877D02*
X0116267Y0236877D01*
X0116267Y0237476D02*
X0034467Y0237476D01*
X0034467Y0238074D02*
X0116267Y0238074D01*
X0116267Y0238673D02*
X0034467Y0238673D01*
X0034467Y0239271D02*
X0116267Y0239271D01*
X0116267Y0239870D02*
X0034467Y0239870D01*
X0034467Y0240468D02*
X0116267Y0240468D01*
X0116267Y0241067D02*
X0034467Y0241067D01*
X0034467Y0241665D02*
X0116267Y0241665D01*
X0116267Y0242264D02*
X0034467Y0242264D01*
X0034467Y0242862D02*
X0116267Y0242862D01*
X0116267Y0243461D02*
X0034467Y0243461D01*
X0034467Y0244059D02*
X0116267Y0244059D01*
X0116267Y0244658D02*
X0034467Y0244658D01*
X0070817Y0221914D02*
X0073667Y0221914D01*
X0073667Y0221316D02*
X0070817Y0221316D01*
X0070817Y0220717D02*
X0073667Y0220717D01*
X0073667Y0220119D02*
X0070266Y0220119D01*
X0074987Y0214732D02*
X0116267Y0214732D01*
X0116267Y0214134D02*
X0074389Y0214134D01*
X0074193Y0213535D02*
X0116267Y0213535D01*
X0116267Y0212937D02*
X0074193Y0212937D01*
X0074193Y0212338D02*
X0116267Y0212338D01*
X0116267Y0211740D02*
X0074193Y0211740D01*
X0074193Y0211141D02*
X0116267Y0211141D01*
X0116267Y0210543D02*
X0074193Y0210543D01*
X0074193Y0209944D02*
X0116267Y0209944D01*
X0116267Y0209346D02*
X0074193Y0209346D01*
X0074193Y0208747D02*
X0116267Y0208747D01*
X0116267Y0208148D02*
X0074193Y0208148D01*
X0074193Y0207550D02*
X0116267Y0207550D01*
X0116267Y0206951D02*
X0074193Y0206951D01*
X0074193Y0206353D02*
X0116267Y0206353D01*
X0116267Y0205754D02*
X0074193Y0205754D01*
X0074193Y0205156D02*
X0116267Y0205156D01*
X0116267Y0204557D02*
X0074193Y0204557D01*
X0074193Y0203959D02*
X0116267Y0203959D01*
X0116267Y0203360D02*
X0074193Y0203360D01*
X0074193Y0202762D02*
X0116267Y0202762D01*
X0116267Y0202163D02*
X0074193Y0202163D01*
X0074193Y0201565D02*
X0116267Y0201565D01*
X0116267Y0200966D02*
X0074193Y0200966D01*
X0074193Y0200368D02*
X0083374Y0200368D01*
X0083599Y0200594D02*
X0082604Y0199598D01*
X0082604Y0198190D01*
X0083599Y0197194D01*
X0085008Y0197194D01*
X0086004Y0198190D01*
X0086004Y0199598D01*
X0085008Y0200594D01*
X0083599Y0200594D01*
X0082775Y0199769D02*
X0074193Y0199769D01*
X0074193Y0199171D02*
X0082604Y0199171D01*
X0082604Y0198572D02*
X0074193Y0198572D01*
X0074193Y0197974D02*
X0082819Y0197974D01*
X0083418Y0197375D02*
X0074193Y0197375D01*
X0074193Y0196777D02*
X0116267Y0196777D01*
X0116267Y0197375D02*
X0100937Y0197375D01*
X0100756Y0197194D02*
X0101752Y0198190D01*
X0101752Y0199598D01*
X0100756Y0200594D01*
X0099348Y0200594D01*
X0098352Y0199598D01*
X0098352Y0198190D01*
X0099348Y0197194D01*
X0100756Y0197194D01*
X0101536Y0197974D02*
X0116267Y0197974D01*
X0116267Y0198572D02*
X0101752Y0198572D01*
X0101752Y0199171D02*
X0116267Y0199171D01*
X0116267Y0199769D02*
X0101580Y0199769D01*
X0100982Y0200368D02*
X0116267Y0200368D01*
X0116267Y0196178D02*
X0074193Y0196178D01*
X0074193Y0195580D02*
X0116267Y0195580D01*
X0116267Y0194981D02*
X0074193Y0194981D01*
X0074193Y0194383D02*
X0116267Y0194383D01*
X0116267Y0193784D02*
X0074193Y0193784D01*
X0074193Y0193186D02*
X0116267Y0193186D01*
X0116267Y0192587D02*
X0074193Y0192587D01*
X0074193Y0191989D02*
X0116267Y0191989D01*
X0116267Y0191390D02*
X0074193Y0191390D01*
X0074193Y0190792D02*
X0116267Y0190792D01*
X0116267Y0190193D02*
X0074193Y0190193D01*
X0074193Y0189595D02*
X0116267Y0189595D01*
X0116267Y0188996D02*
X0074193Y0188996D01*
X0074193Y0188398D02*
X0116267Y0188398D01*
X0116267Y0187799D02*
X0074193Y0187799D01*
X0074193Y0187201D02*
X0116267Y0187201D01*
X0116267Y0186602D02*
X0074193Y0186602D01*
X0074193Y0186004D02*
X0116267Y0186004D01*
X0116267Y0185405D02*
X0074193Y0185405D01*
X0074193Y0184807D02*
X0083560Y0184807D01*
X0083599Y0184846D02*
X0082604Y0183850D01*
X0082604Y0182442D01*
X0083599Y0181446D01*
X0085008Y0181446D01*
X0086004Y0182442D01*
X0086004Y0183850D01*
X0085008Y0184846D01*
X0083599Y0184846D01*
X0082962Y0184208D02*
X0074193Y0184208D01*
X0074193Y0183610D02*
X0082604Y0183610D01*
X0082604Y0183011D02*
X0074193Y0183011D01*
X0074193Y0182413D02*
X0082633Y0182413D01*
X0083231Y0181814D02*
X0074193Y0181814D01*
X0074193Y0181215D02*
X0116267Y0181215D01*
X0116267Y0180617D02*
X0074193Y0180617D01*
X0074193Y0180018D02*
X0116267Y0180018D01*
X0116267Y0179420D02*
X0074193Y0179420D01*
X0074193Y0178821D02*
X0116267Y0178821D01*
X0116267Y0178223D02*
X0074193Y0178223D01*
X0074193Y0177624D02*
X0116267Y0177624D01*
X0116267Y0177026D02*
X0074193Y0177026D01*
X0074193Y0176427D02*
X0116267Y0176427D01*
X0116267Y0175829D02*
X0074193Y0175829D01*
X0074193Y0175230D02*
X0116267Y0175230D01*
X0116267Y0174632D02*
X0074193Y0174632D01*
X0074193Y0174033D02*
X0116267Y0174033D01*
X0116267Y0173435D02*
X0074193Y0173435D01*
X0074193Y0172836D02*
X0116267Y0172836D01*
X0116267Y0172238D02*
X0074193Y0172238D01*
X0074193Y0171639D02*
X0116267Y0171639D01*
X0116267Y0171041D02*
X0074193Y0171041D01*
X0074193Y0170442D02*
X0116267Y0170442D01*
X0116267Y0169844D02*
X0073603Y0169844D01*
X0073004Y0169245D02*
X0106658Y0169245D01*
X0106747Y0169282D02*
X0105113Y0168605D01*
X0103864Y0167356D01*
X0103187Y0165722D01*
X0103187Y0163955D01*
X0103864Y0162322D01*
X0105113Y0161072D01*
X0106747Y0160395D01*
X0108514Y0160395D01*
X0110147Y0161072D01*
X0111397Y0162322D01*
X0112074Y0163955D01*
X0112074Y0165722D01*
X0111397Y0167356D01*
X0110147Y0168605D01*
X0108514Y0169282D01*
X0106747Y0169282D01*
X0105213Y0168647D02*
X0072406Y0168647D01*
X0071807Y0168048D02*
X0104556Y0168048D01*
X0103958Y0167450D02*
X0071209Y0167450D01*
X0070925Y0166851D02*
X0087290Y0166851D01*
X0087455Y0166920D02*
X0085822Y0166243D01*
X0084572Y0164993D01*
X0083896Y0163360D01*
X0083896Y0161593D01*
X0084572Y0159959D01*
X0085822Y0158710D01*
X0087455Y0158033D01*
X0089223Y0158033D01*
X0090856Y0158710D01*
X0092106Y0159959D01*
X0092782Y0161593D01*
X0092782Y0163360D01*
X0092106Y0164993D01*
X0090856Y0166243D01*
X0089223Y0166920D01*
X0087455Y0166920D01*
X0089388Y0166851D02*
X0103655Y0166851D01*
X0103407Y0166253D02*
X0090833Y0166253D01*
X0091445Y0165654D02*
X0103187Y0165654D01*
X0103187Y0165056D02*
X0092044Y0165056D01*
X0092328Y0164457D02*
X0103187Y0164457D01*
X0103227Y0163859D02*
X0092576Y0163859D01*
X0092782Y0163260D02*
X0103475Y0163260D01*
X0103723Y0162662D02*
X0092782Y0162662D01*
X0092782Y0162063D02*
X0104122Y0162063D01*
X0104721Y0161465D02*
X0092729Y0161465D01*
X0092481Y0160866D02*
X0105610Y0160866D01*
X0109651Y0160866D02*
X0116267Y0160866D01*
X0116267Y0160268D02*
X0092234Y0160268D01*
X0091816Y0159669D02*
X0116267Y0159669D01*
X0116267Y0159071D02*
X0091217Y0159071D01*
X0090283Y0158472D02*
X0116267Y0158472D01*
X0116267Y0157874D02*
X0070858Y0157874D01*
X0070863Y0158472D02*
X0086395Y0158472D01*
X0085461Y0159071D02*
X0070867Y0159071D01*
X0070871Y0159669D02*
X0084863Y0159669D01*
X0084445Y0160268D02*
X0070876Y0160268D01*
X0070880Y0160866D02*
X0084197Y0160866D01*
X0083949Y0161465D02*
X0070885Y0161465D01*
X0070889Y0162063D02*
X0083896Y0162063D01*
X0083896Y0162662D02*
X0070894Y0162662D01*
X0070898Y0163260D02*
X0083896Y0163260D01*
X0084102Y0163859D02*
X0070903Y0163859D01*
X0070907Y0164457D02*
X0084350Y0164457D01*
X0084635Y0165056D02*
X0070912Y0165056D01*
X0070916Y0165654D02*
X0085233Y0165654D01*
X0085845Y0166253D02*
X0070921Y0166253D01*
X0069721Y0166253D02*
X0063044Y0166253D01*
X0063044Y0166851D02*
X0069725Y0166851D01*
X0069730Y0167450D02*
X0063044Y0167450D01*
X0063044Y0168048D02*
X0069734Y0168048D01*
X0069716Y0165654D02*
X0063044Y0165654D01*
X0063044Y0165056D02*
X0069712Y0165056D01*
X0069707Y0164457D02*
X0063044Y0164457D01*
X0063044Y0163859D02*
X0069703Y0163859D01*
X0069698Y0163260D02*
X0063044Y0163260D01*
X0063044Y0162662D02*
X0069694Y0162662D01*
X0069689Y0162063D02*
X0063044Y0162063D01*
X0063044Y0161465D02*
X0069685Y0161465D01*
X0069680Y0160866D02*
X0068633Y0160866D01*
X0068276Y0161224D02*
X0066867Y0161224D01*
X0065871Y0160228D01*
X0065871Y0158819D01*
X0066867Y0157824D01*
X0068276Y0157824D01*
X0069271Y0158819D01*
X0069271Y0160228D01*
X0068276Y0161224D01*
X0069232Y0160268D02*
X0069676Y0160268D01*
X0069671Y0159669D02*
X0069271Y0159669D01*
X0069271Y0159071D02*
X0069667Y0159071D01*
X0069663Y0158472D02*
X0068924Y0158472D01*
X0068325Y0157874D02*
X0069658Y0157874D01*
X0069654Y0157275D02*
X0063044Y0157275D01*
X0063044Y0156677D02*
X0069649Y0156677D01*
X0069645Y0156078D02*
X0054916Y0156078D01*
X0053062Y0156078D02*
X0047886Y0156078D01*
X0047886Y0155480D02*
X0069640Y0155480D01*
X0069636Y0154881D02*
X0047886Y0154881D01*
X0047886Y0154282D02*
X0069631Y0154282D01*
X0069627Y0153684D02*
X0047886Y0153684D01*
X0047886Y0153085D02*
X0067784Y0153085D01*
X0067186Y0152487D02*
X0047886Y0152487D01*
X0047886Y0151888D02*
X0067052Y0151888D01*
X0067052Y0151290D02*
X0047886Y0151290D01*
X0047886Y0150691D02*
X0067307Y0150691D01*
X0067905Y0150093D02*
X0047886Y0150093D01*
X0056711Y0157874D02*
X0061844Y0157874D01*
X0061844Y0158472D02*
X0057310Y0158472D01*
X0057657Y0159071D02*
X0061844Y0159071D01*
X0061844Y0159669D02*
X0057657Y0159669D01*
X0057617Y0160268D02*
X0061844Y0160268D01*
X0061844Y0160866D02*
X0057019Y0160866D01*
X0060174Y0149413D02*
X0059178Y0148417D01*
X0059178Y0147008D01*
X0060174Y0146013D01*
X0061583Y0146013D01*
X0062578Y0147008D01*
X0062578Y0148417D01*
X0061583Y0149413D01*
X0060174Y0149413D01*
X0059658Y0148896D02*
X0058162Y0148896D01*
X0058641Y0148297D02*
X0059178Y0148297D01*
X0059178Y0147699D02*
X0058641Y0147699D01*
X0058641Y0147100D02*
X0059178Y0147100D01*
X0059685Y0146502D02*
X0058135Y0146502D01*
X0057816Y0145305D02*
X0060004Y0145305D01*
X0060174Y0145476D02*
X0059178Y0144480D01*
X0059178Y0143071D01*
X0060174Y0142076D01*
X0061583Y0142076D01*
X0062578Y0143071D01*
X0062578Y0144480D01*
X0061583Y0145476D01*
X0060174Y0145476D01*
X0059405Y0144706D02*
X0058415Y0144706D01*
X0058641Y0144108D02*
X0059178Y0144108D01*
X0059178Y0143509D02*
X0058641Y0143509D01*
X0058481Y0142911D02*
X0059339Y0142911D01*
X0059938Y0142312D02*
X0057882Y0142312D01*
X0058069Y0141115D02*
X0059751Y0141115D01*
X0060174Y0141539D02*
X0059178Y0140543D01*
X0059178Y0139134D01*
X0060174Y0138139D01*
X0061583Y0138139D01*
X0062578Y0139134D01*
X0062578Y0140543D01*
X0061583Y0141539D01*
X0060174Y0141539D01*
X0059178Y0140517D02*
X0058641Y0140517D01*
X0058641Y0139918D02*
X0059178Y0139918D01*
X0059178Y0139320D02*
X0058641Y0139320D01*
X0058228Y0138721D02*
X0059592Y0138721D01*
X0060097Y0137524D02*
X0057723Y0137524D01*
X0058322Y0136926D02*
X0059498Y0136926D01*
X0059178Y0136327D02*
X0058641Y0136327D01*
X0058641Y0135729D02*
X0059178Y0135729D01*
X0059246Y0135130D02*
X0058574Y0135130D01*
X0057976Y0134532D02*
X0059844Y0134532D01*
X0062165Y0138721D02*
X0063529Y0138721D01*
X0063115Y0139320D02*
X0062578Y0139320D01*
X0062578Y0139918D02*
X0063115Y0139918D01*
X0063115Y0140517D02*
X0062578Y0140517D01*
X0062006Y0141115D02*
X0063688Y0141115D01*
X0063875Y0142312D02*
X0061819Y0142312D01*
X0062418Y0142911D02*
X0063276Y0142911D01*
X0063115Y0143509D02*
X0062578Y0143509D01*
X0062578Y0144108D02*
X0063115Y0144108D01*
X0063342Y0144706D02*
X0062352Y0144706D01*
X0061753Y0145305D02*
X0063941Y0145305D01*
X0063622Y0146502D02*
X0062072Y0146502D01*
X0062578Y0147100D02*
X0063115Y0147100D01*
X0063115Y0147699D02*
X0062578Y0147699D01*
X0062578Y0148297D02*
X0063115Y0148297D01*
X0063595Y0148896D02*
X0062099Y0148896D01*
X0066289Y0144706D02*
X0069559Y0144706D01*
X0069555Y0144108D02*
X0066515Y0144108D01*
X0066515Y0143509D02*
X0069550Y0143509D01*
X0069546Y0142911D02*
X0066355Y0142911D01*
X0070692Y0135729D02*
X0073853Y0135729D01*
X0073254Y0135130D02*
X0070688Y0135130D01*
X0070683Y0134532D02*
X0073155Y0134532D01*
X0073155Y0133933D02*
X0070679Y0133933D01*
X0070674Y0133335D02*
X0073443Y0133335D01*
X0073616Y0132736D02*
X0070670Y0132736D01*
X0070665Y0132138D02*
X0073155Y0132138D01*
X0073155Y0131539D02*
X0070661Y0131539D01*
X0070656Y0130941D02*
X0073155Y0130941D01*
X0071403Y0129145D02*
X0070643Y0129145D01*
X0070638Y0128546D02*
X0070989Y0128546D01*
X0070989Y0127948D02*
X0070634Y0127948D01*
X0070629Y0127349D02*
X0070989Y0127349D01*
X0070625Y0126751D02*
X0071562Y0126751D01*
X0079555Y0153684D02*
X0080245Y0153684D01*
X0070849Y0156677D02*
X0116267Y0156677D01*
X0116267Y0157275D02*
X0070854Y0157275D01*
X0070845Y0156078D02*
X0116267Y0156078D01*
X0116267Y0155480D02*
X0070840Y0155480D01*
X0070836Y0154881D02*
X0116267Y0154881D01*
X0116267Y0161465D02*
X0110540Y0161465D01*
X0111139Y0162063D02*
X0116267Y0162063D01*
X0116267Y0162662D02*
X0111538Y0162662D01*
X0111786Y0163260D02*
X0116267Y0163260D01*
X0116267Y0163859D02*
X0112034Y0163859D01*
X0112074Y0164457D02*
X0116267Y0164457D01*
X0116267Y0165056D02*
X0112074Y0165056D01*
X0112074Y0165654D02*
X0116267Y0165654D01*
X0116267Y0166253D02*
X0111854Y0166253D01*
X0111606Y0166851D02*
X0116267Y0166851D01*
X0116267Y0167450D02*
X0111303Y0167450D01*
X0110705Y0168048D02*
X0116267Y0168048D01*
X0116267Y0168647D02*
X0110048Y0168647D01*
X0108603Y0169245D02*
X0116267Y0169245D01*
X0116267Y0181814D02*
X0101124Y0181814D01*
X0100756Y0181446D02*
X0101752Y0182442D01*
X0101752Y0183850D01*
X0100756Y0184846D01*
X0099348Y0184846D01*
X0098352Y0183850D01*
X0098352Y0182442D01*
X0099348Y0181446D01*
X0100756Y0181446D01*
X0101723Y0182413D02*
X0116267Y0182413D01*
X0116267Y0183011D02*
X0101752Y0183011D01*
X0101752Y0183610D02*
X0116267Y0183610D01*
X0116267Y0184208D02*
X0101393Y0184208D01*
X0100795Y0184807D02*
X0116267Y0184807D01*
X0099308Y0184807D02*
X0092921Y0184807D01*
X0092882Y0184846D02*
X0091474Y0184846D01*
X0090478Y0183850D01*
X0090478Y0182442D01*
X0091474Y0181446D01*
X0092882Y0181446D01*
X0093878Y0182442D01*
X0093878Y0183850D01*
X0092882Y0184846D01*
X0093519Y0184208D02*
X0098710Y0184208D01*
X0098352Y0183610D02*
X0093878Y0183610D01*
X0093878Y0183011D02*
X0098352Y0183011D01*
X0098381Y0182413D02*
X0093849Y0182413D01*
X0093250Y0181814D02*
X0098979Y0181814D01*
X0091105Y0181814D02*
X0085376Y0181814D01*
X0085975Y0182413D02*
X0090507Y0182413D01*
X0090478Y0183011D02*
X0086004Y0183011D01*
X0086004Y0183610D02*
X0090478Y0183610D01*
X0090836Y0184208D02*
X0085645Y0184208D01*
X0085047Y0184807D02*
X0091434Y0184807D01*
X0091474Y0197194D02*
X0092882Y0197194D01*
X0093878Y0198190D01*
X0093878Y0199598D01*
X0092882Y0200594D01*
X0091474Y0200594D01*
X0090478Y0199598D01*
X0090478Y0198190D01*
X0091474Y0197194D01*
X0091292Y0197375D02*
X0085189Y0197375D01*
X0085788Y0197974D02*
X0090693Y0197974D01*
X0090478Y0198572D02*
X0086004Y0198572D01*
X0086004Y0199171D02*
X0090478Y0199171D01*
X0090649Y0199769D02*
X0085832Y0199769D01*
X0085234Y0200368D02*
X0091248Y0200368D01*
X0093108Y0200368D02*
X0099122Y0200368D01*
X0098523Y0199769D02*
X0093706Y0199769D01*
X0093878Y0199171D02*
X0098352Y0199171D01*
X0098352Y0198572D02*
X0093878Y0198572D01*
X0093662Y0197974D02*
X0098567Y0197974D01*
X0099166Y0197375D02*
X0093063Y0197375D01*
X0082321Y0219674D02*
X0080912Y0219674D01*
X0079917Y0220670D01*
X0079917Y0222078D01*
X0080912Y0223074D01*
X0082321Y0223074D01*
X0083317Y0222078D01*
X0083317Y0220670D01*
X0082321Y0219674D01*
X0082766Y0220119D02*
X0116267Y0220119D01*
X0116267Y0220717D02*
X0083317Y0220717D01*
X0083317Y0221316D02*
X0116267Y0221316D01*
X0116267Y0221914D02*
X0083317Y0221914D01*
X0082882Y0222513D02*
X0116267Y0222513D01*
X0116267Y0223111D02*
X0077067Y0223111D01*
X0077067Y0222513D02*
X0080351Y0222513D01*
X0079917Y0221914D02*
X0077067Y0221914D01*
X0077067Y0221316D02*
X0079917Y0221316D01*
X0079917Y0220717D02*
X0077067Y0220717D01*
X0077067Y0220119D02*
X0080468Y0220119D01*
X0077067Y0219520D02*
X0116267Y0219520D01*
X0116267Y0218922D02*
X0077067Y0218922D01*
X0077067Y0218323D02*
X0116267Y0218323D01*
X0116267Y0217725D02*
X0077067Y0217725D01*
X0077067Y0217126D02*
X0116267Y0217126D01*
X0116267Y0216528D02*
X0076783Y0216528D01*
X0076184Y0215929D02*
X0116267Y0215929D01*
X0116267Y0215331D02*
X0075586Y0215331D01*
X0077067Y0223710D02*
X0116267Y0223710D01*
X0116267Y0224308D02*
X0077555Y0224308D01*
X0082435Y0224907D02*
X0116267Y0224907D01*
X0116267Y0225505D02*
X0083034Y0225505D01*
X0083317Y0226104D02*
X0116267Y0226104D01*
X0116267Y0226702D02*
X0083317Y0226702D01*
X0083212Y0227301D02*
X0116267Y0227301D01*
X0116267Y0227899D02*
X0082614Y0227899D01*
X0066510Y0160866D02*
X0064696Y0160866D01*
X0065295Y0160268D02*
X0065911Y0160268D01*
X0065871Y0159669D02*
X0065334Y0159669D01*
X0065334Y0159071D02*
X0065871Y0159071D01*
X0066219Y0158472D02*
X0064987Y0158472D01*
X0064388Y0157874D02*
X0066817Y0157874D01*
X0048033Y0133335D02*
X0047886Y0133335D01*
X0034467Y0094431D02*
X0074576Y0094431D01*
X0075174Y0093833D02*
X0034467Y0093833D01*
X0034467Y0093234D02*
X0075773Y0093234D01*
X0075725Y0086420D02*
X0074730Y0085425D01*
X0074730Y0084016D01*
X0075725Y0083020D01*
X0077134Y0083020D01*
X0078130Y0084016D01*
X0078130Y0085425D01*
X0077134Y0086420D01*
X0075725Y0086420D01*
X0075357Y0086052D02*
X0069628Y0086052D01*
X0070227Y0085454D02*
X0074759Y0085454D01*
X0074730Y0084855D02*
X0070256Y0084855D01*
X0070256Y0084257D02*
X0074730Y0084257D01*
X0075088Y0083658D02*
X0069897Y0083658D01*
X0069299Y0083060D02*
X0075686Y0083060D01*
X0077173Y0083060D02*
X0083560Y0083060D01*
X0082962Y0083658D02*
X0077771Y0083658D01*
X0078130Y0084257D02*
X0082604Y0084257D01*
X0082604Y0084855D02*
X0078130Y0084855D01*
X0078101Y0085454D02*
X0082633Y0085454D01*
X0083231Y0086052D02*
X0077502Y0086052D01*
X0088476Y0051339D02*
X0097029Y0051339D01*
X0096430Y0050740D02*
X0087878Y0050740D01*
X0087279Y0050142D02*
X0095832Y0050142D01*
X0095233Y0049543D02*
X0086681Y0049543D01*
X0053779Y0042959D02*
X0042839Y0042959D01*
X0103054Y0134532D02*
X0104923Y0134532D01*
X0105253Y0134202D02*
X0104257Y0135197D01*
X0104257Y0136606D01*
X0105253Y0137602D01*
X0106661Y0137602D01*
X0107657Y0136606D01*
X0107657Y0135197D01*
X0106661Y0134202D01*
X0105253Y0134202D01*
X0104325Y0135130D02*
X0103653Y0135130D01*
X0103720Y0135729D02*
X0104257Y0135729D01*
X0104257Y0136327D02*
X0103720Y0136327D01*
X0103400Y0136926D02*
X0104577Y0136926D01*
X0105176Y0137524D02*
X0102802Y0137524D01*
X0106739Y0137524D02*
X0116267Y0137524D01*
X0116267Y0136926D02*
X0107337Y0136926D01*
X0107657Y0136327D02*
X0116267Y0136327D01*
X0116267Y0135729D02*
X0107657Y0135729D01*
X0107590Y0135130D02*
X0116267Y0135130D01*
X0116267Y0134532D02*
X0106991Y0134532D01*
D13*
X0105957Y0135902D03*
X0102020Y0135902D03*
X0096115Y0126059D03*
X0094146Y0122122D03*
X0096115Y0118185D03*
X0094146Y0114248D03*
X0090367Y0119169D03*
X0094146Y0129996D03*
X0094146Y0135902D03*
X0094146Y0141807D03*
X0090284Y0138854D03*
X0090284Y0132949D03*
X0090284Y0144760D03*
X0090284Y0150665D03*
X0094146Y0147713D03*
X0094146Y0153618D03*
X0102020Y0149681D03*
X0105957Y0149681D03*
X0114117Y0152683D03*
X0114117Y0140183D03*
X0114117Y0127683D03*
X0114117Y0115183D03*
X0115367Y0088933D03*
X0115367Y0078933D03*
X0115367Y0068933D03*
X0115367Y0058933D03*
X0115367Y0048933D03*
X0107926Y0054209D03*
X0107926Y0064051D03*
X0100052Y0064051D03*
X0100052Y0069894D03*
X0092178Y0069894D03*
X0092178Y0064051D03*
X0092178Y0054209D03*
X0088241Y0044366D03*
X0084304Y0054209D03*
X0081351Y0050272D03*
X0076430Y0054209D03*
X0076430Y0064051D03*
X0068556Y0064051D03*
X0068556Y0054209D03*
X0066587Y0044366D03*
X0071508Y0044366D03*
X0075445Y0044366D03*
X0075445Y0035508D03*
X0080367Y0023933D03*
X0090367Y0023933D03*
X0100052Y0054209D03*
X0084304Y0068972D03*
X0084304Y0084720D03*
X0076430Y0084720D03*
X0068556Y0084720D03*
X0060682Y0085705D03*
X0055760Y0091610D03*
X0052808Y0085705D03*
X0047886Y0082752D03*
X0047886Y0074878D03*
X0041981Y0074878D03*
X0041981Y0082752D03*
X0036075Y0082752D03*
X0036075Y0090626D03*
X0036075Y0098500D03*
X0036075Y0106374D03*
X0036075Y0114248D03*
X0041981Y0114248D03*
X0041981Y0106374D03*
X0041981Y0098500D03*
X0046902Y0091610D03*
X0048871Y0098500D03*
X0047886Y0106374D03*
X0047886Y0114248D03*
X0047886Y0124091D03*
X0041981Y0124091D03*
X0036075Y0124091D03*
X0036075Y0133933D03*
X0036075Y0141807D03*
X0036075Y0149681D03*
X0041981Y0149681D03*
X0041981Y0159524D03*
X0047886Y0159524D03*
X0053989Y0157555D03*
X0055957Y0159524D03*
X0063634Y0159524D03*
X0067571Y0159524D03*
X0065603Y0166217D03*
X0056745Y0177240D03*
X0052808Y0173303D03*
X0048871Y0169366D03*
X0047886Y0177240D03*
X0047886Y0185114D03*
X0047886Y0192988D03*
X0047886Y0200862D03*
X0047886Y0208736D03*
X0047886Y0214642D03*
X0044934Y0219563D03*
X0041981Y0214642D03*
X0041981Y0208736D03*
X0041981Y0200862D03*
X0041981Y0192988D03*
X0041981Y0185114D03*
X0036075Y0185114D03*
X0036075Y0177240D03*
X0036075Y0169366D03*
X0041981Y0169366D03*
X0036075Y0159524D03*
X0041981Y0133933D03*
X0049067Y0131965D03*
X0053004Y0135902D03*
X0053004Y0139839D03*
X0053004Y0143776D03*
X0056941Y0143776D03*
X0056941Y0139839D03*
X0056941Y0135902D03*
X0060878Y0135902D03*
X0060878Y0139839D03*
X0060878Y0143776D03*
X0060878Y0147713D03*
X0056941Y0147713D03*
X0064815Y0147713D03*
X0064815Y0143776D03*
X0064815Y0139839D03*
X0068752Y0151650D03*
X0074855Y0146138D03*
X0076823Y0147713D03*
X0078792Y0149287D03*
X0078792Y0152043D03*
X0076823Y0153618D03*
X0074855Y0143382D03*
X0076823Y0141807D03*
X0078792Y0140232D03*
X0078792Y0137476D03*
X0076823Y0135902D03*
X0074855Y0134327D03*
X0074855Y0131571D03*
X0076823Y0129996D03*
X0072689Y0128028D03*
X0066784Y0128028D03*
X0063831Y0124091D03*
X0059894Y0124091D03*
X0055957Y0124091D03*
X0055957Y0128028D03*
X0055957Y0114248D03*
X0054776Y0110311D03*
X0059697Y0105390D03*
X0059697Y0101453D03*
X0067768Y0114248D03*
X0070524Y0105390D03*
X0070524Y0097516D03*
X0076430Y0114248D03*
X0080367Y0106433D03*
X0080367Y0103933D03*
X0080367Y0101433D03*
X0056745Y0068972D03*
X0047886Y0067004D03*
X0047886Y0059130D03*
X0047886Y0053224D03*
X0044934Y0048303D03*
X0041981Y0053224D03*
X0041981Y0059130D03*
X0041981Y0067004D03*
X0036075Y0067004D03*
X0036075Y0059130D03*
X0036075Y0051256D03*
X0036075Y0043382D03*
X0036075Y0035508D03*
X0041981Y0041413D03*
X0050839Y0046335D03*
X0054776Y0044366D03*
X0056745Y0048303D03*
X0052808Y0053224D03*
X0060682Y0053224D03*
X0061666Y0044366D03*
X0061666Y0035508D03*
X0059697Y0033539D03*
X0060367Y0023933D03*
X0070367Y0023933D03*
X0050367Y0023933D03*
X0036075Y0074878D03*
X0052808Y0182161D03*
X0060682Y0182161D03*
X0056745Y0198894D03*
X0060682Y0214642D03*
X0056745Y0219563D03*
X0052808Y0214642D03*
X0050839Y0221532D03*
X0050367Y0243933D03*
X0060367Y0243933D03*
X0070367Y0243933D03*
X0080367Y0243933D03*
X0090367Y0243933D03*
X0081617Y0226492D03*
X0081617Y0221374D03*
X0069117Y0221374D03*
X0069117Y0226492D03*
X0084304Y0198894D03*
X0092178Y0198894D03*
X0100052Y0198894D03*
X0100052Y0183146D03*
X0092178Y0183146D03*
X0084304Y0183146D03*
X0107926Y0182933D03*
X0115367Y0178933D03*
X0115367Y0188933D03*
X0115367Y0198933D03*
X0115367Y0208933D03*
X0115367Y0218933D03*
X0107926Y0213933D03*
X0036075Y0216610D03*
X0036075Y0208736D03*
X0036075Y0200862D03*
X0036075Y0192988D03*
X0036075Y0224484D03*
X0036075Y0232358D03*
D14*
X0052020Y0155587D03*
X0049067Y0151650D03*
X0063831Y0128028D03*
X0068752Y0131965D03*
X0067768Y0110449D03*
X0107926Y0084720D03*
D15*
X0087867Y0095183D03*
X0070524Y0101453D03*
D16*
X0067571Y0166217D02*
X0065603Y0166217D01*
X0067571Y0166217D02*
X0072493Y0171138D01*
X0072493Y0214642D01*
X0075367Y0217516D01*
X0075367Y0224524D01*
X0077335Y0226492D01*
X0081617Y0226492D01*
D17*
X0070524Y0101453D02*
X0076794Y0095183D01*
X0087867Y0095183D01*
D18*
X0107926Y0068972D02*
X0103989Y0065035D01*
X0103989Y0062083D01*
X0101036Y0059130D01*
X0091193Y0059130D01*
X0088241Y0056177D01*
X0088241Y0053224D01*
X0085288Y0050272D01*
X0081351Y0050272D01*
X0062650Y0050272D01*
X0056745Y0044366D01*
X0054776Y0044366D01*
X0056745Y0039445D02*
X0061666Y0044366D01*
X0056745Y0039445D02*
X0043949Y0039445D01*
X0041981Y0041413D01*
X0071508Y0044366D02*
X0076430Y0039445D01*
X0087256Y0039445D01*
X0098083Y0050272D01*
X0103989Y0050272D01*
X0107926Y0054209D01*
X0107926Y0068972D02*
X0107926Y0084720D01*
X0076430Y0039445D02*
X0075445Y0039445D01*
M02*
