G75*
%MOIN*%
%OFA0B0*%
%FSLAX25Y25*%
%IPPOS*%
%LPD*%
%AMOC8*
5,1,8,0,0,1.08239X$1,22.5*
%
%ADD10C,0.02000*%
%ADD11C,0.09449*%
%ADD12R,0.07480X0.01181*%
%ADD13R,0.03740X0.03937*%
%ADD14R,0.02441X0.02441*%
%ADD15R,0.02362X0.02362*%
%ADD16R,0.01575X0.02362*%
%ADD17R,0.02047X0.01102*%
%ADD18R,0.03543X0.06299*%
%ADD19R,0.10630X0.11811*%
%ADD20R,0.01181X0.04724*%
%ADD21C,0.00600*%
%ADD22C,0.17717*%
%ADD23C,0.01600*%
%ADD24C,0.00800*%
%ADD25C,0.01200*%
%ADD26C,0.02000*%
%ADD27C,0.01800*%
%ADD28C,0.02100*%
%ADD29C,0.01000*%
%ADD30C,0.01600*%
D10*
X0037867Y0026433D03*
X0112867Y0026433D03*
X0112867Y0241433D03*
X0037867Y0241433D03*
D11*
X0088339Y0162476D03*
X0107630Y0164839D03*
X0088339Y0105390D03*
X0107630Y0103028D03*
D12*
X0084402Y0117201D03*
X0084402Y0119169D03*
X0084402Y0121138D03*
X0084402Y0123106D03*
X0084402Y0125075D03*
X0084402Y0127043D03*
X0084402Y0129012D03*
X0084402Y0130980D03*
X0084402Y0132949D03*
X0084402Y0134917D03*
X0084402Y0136886D03*
X0084402Y0138854D03*
X0084402Y0140823D03*
X0084402Y0142791D03*
X0084402Y0144760D03*
X0084402Y0146728D03*
X0084402Y0148697D03*
X0084402Y0150665D03*
X0084402Y0152634D03*
D13*
X0065012Y0110449D03*
X0058713Y0110449D03*
D14*
X0065997Y0119169D03*
X0069540Y0119169D03*
X0065800Y0132161D03*
X0065800Y0135705D03*
X0052020Y0147909D03*
X0052020Y0151453D03*
X0067571Y0103224D03*
X0067571Y0099681D03*
X0091390Y0090626D03*
X0094934Y0090626D03*
X0091193Y0082555D03*
X0091193Y0079012D03*
X0094343Y0074878D03*
X0097886Y0074878D03*
X0104186Y0074878D03*
X0107729Y0074878D03*
X0107926Y0060902D03*
X0107926Y0057358D03*
X0102020Y0057358D03*
X0102020Y0060902D03*
X0098083Y0060902D03*
X0098083Y0057358D03*
X0094146Y0057358D03*
X0094146Y0060902D03*
X0090209Y0060902D03*
X0090209Y0057358D03*
X0084304Y0057358D03*
X0084304Y0060902D03*
X0078398Y0060902D03*
X0078398Y0057358D03*
X0074461Y0057358D03*
X0074461Y0060902D03*
X0070524Y0060902D03*
X0070524Y0057358D03*
X0066587Y0057358D03*
X0066587Y0060902D03*
X0101233Y0090626D03*
X0104776Y0090626D03*
D15*
X0101036Y0086295D03*
X0101036Y0079209D03*
X0095130Y0079209D03*
X0095130Y0086295D03*
D16*
X0098083Y0086295D03*
X0098083Y0079209D03*
D17*
X0078910Y0221374D03*
X0078910Y0223933D03*
X0078910Y0226492D03*
X0071823Y0226492D03*
X0071823Y0223933D03*
X0071823Y0221374D03*
D18*
X0075367Y0223933D03*
D19*
X0083044Y0032043D03*
X0050130Y0032043D03*
D20*
X0057729Y0039839D03*
X0059697Y0039839D03*
X0061666Y0039839D03*
X0063634Y0039839D03*
X0065603Y0039839D03*
X0067571Y0039839D03*
X0069540Y0039839D03*
X0071508Y0039839D03*
X0073477Y0039839D03*
X0075445Y0039839D03*
D21*
X0034467Y0023033D02*
X0034467Y0244833D01*
X0116267Y0244833D01*
X0116267Y0023033D01*
X0034467Y0023033D01*
X0034467Y0023209D02*
X0116267Y0023209D01*
X0116267Y0023807D02*
X0034467Y0023807D01*
X0034467Y0024406D02*
X0036359Y0024406D01*
X0036451Y0024314D02*
X0037369Y0023933D01*
X0038364Y0023933D01*
X0039283Y0024314D01*
X0039986Y0025017D01*
X0040367Y0025936D01*
X0040367Y0026930D01*
X0039986Y0027849D01*
X0039283Y0028552D01*
X0038364Y0028933D01*
X0037369Y0028933D01*
X0036451Y0028552D01*
X0035747Y0027849D01*
X0035367Y0026930D01*
X0035367Y0025936D01*
X0035747Y0025017D01*
X0036451Y0024314D01*
X0035760Y0025004D02*
X0034467Y0025004D01*
X0034467Y0025603D02*
X0035505Y0025603D01*
X0035367Y0026201D02*
X0034467Y0026201D01*
X0034467Y0026800D02*
X0035367Y0026800D01*
X0035560Y0027398D02*
X0034467Y0027398D01*
X0034467Y0027997D02*
X0035895Y0027997D01*
X0036553Y0028595D02*
X0034467Y0028595D01*
X0034467Y0029194D02*
X0043915Y0029194D01*
X0043915Y0029792D02*
X0034467Y0029792D01*
X0034467Y0030391D02*
X0043915Y0030391D01*
X0043915Y0030989D02*
X0034467Y0030989D01*
X0034467Y0031588D02*
X0043915Y0031588D01*
X0043915Y0032186D02*
X0034467Y0032186D01*
X0034467Y0032785D02*
X0043915Y0032785D01*
X0043915Y0033383D02*
X0034467Y0033383D01*
X0034467Y0033982D02*
X0043915Y0033982D01*
X0043915Y0034580D02*
X0034467Y0034580D01*
X0034467Y0035179D02*
X0043915Y0035179D01*
X0043915Y0035777D02*
X0034467Y0035777D01*
X0034467Y0036376D02*
X0043915Y0036376D01*
X0043915Y0036974D02*
X0034467Y0036974D01*
X0034467Y0037573D02*
X0043915Y0037573D01*
X0043915Y0038171D02*
X0034467Y0038171D01*
X0034467Y0038770D02*
X0044364Y0038770D01*
X0044443Y0038849D02*
X0043915Y0038322D01*
X0043915Y0025765D01*
X0044443Y0025238D01*
X0055818Y0025238D01*
X0056345Y0025765D01*
X0056345Y0037039D01*
X0056375Y0036967D01*
X0056628Y0036713D01*
X0056959Y0036576D01*
X0057729Y0036576D01*
X0058497Y0036576D01*
X0058497Y0034744D01*
X0057997Y0034244D01*
X0057997Y0032835D01*
X0058993Y0031839D01*
X0060402Y0031839D01*
X0061397Y0032835D01*
X0061397Y0033808D01*
X0062370Y0033808D01*
X0062870Y0034308D01*
X0063147Y0034308D01*
X0064834Y0035995D01*
X0064834Y0036576D01*
X0065603Y0036576D01*
X0066372Y0036576D01*
X0066587Y0036665D01*
X0066802Y0036576D01*
X0067571Y0036576D01*
X0067571Y0039838D01*
X0067571Y0039838D01*
X0067571Y0036576D01*
X0068340Y0036576D01*
X0068340Y0035995D01*
X0069043Y0035292D01*
X0069324Y0035011D01*
X0070027Y0034308D01*
X0074241Y0034308D01*
X0074741Y0033808D01*
X0076150Y0033808D01*
X0076829Y0034487D01*
X0076829Y0025765D01*
X0077356Y0025238D01*
X0088732Y0025238D01*
X0089259Y0025765D01*
X0089259Y0038322D01*
X0088732Y0038849D01*
X0077356Y0038849D01*
X0076936Y0038429D01*
X0076936Y0039839D01*
X0076936Y0042380D01*
X0076799Y0042711D01*
X0076546Y0042964D01*
X0076476Y0042993D01*
X0076650Y0043166D01*
X0081848Y0043166D01*
X0087753Y0049072D01*
X0090706Y0049072D01*
X0091409Y0049775D01*
X0092675Y0051040D01*
X0097596Y0051040D01*
X0098299Y0051743D01*
X0099206Y0052650D01*
X0099348Y0052509D01*
X0100756Y0052509D01*
X0101256Y0053009D01*
X0101533Y0053009D01*
X0102236Y0053712D01*
X0103220Y0054696D01*
X0103220Y0055238D01*
X0103613Y0055238D01*
X0104141Y0055765D01*
X0104141Y0058952D01*
X0103962Y0059130D01*
X0104141Y0059308D01*
X0104141Y0062495D01*
X0103613Y0063022D01*
X0103220Y0063022D01*
X0103220Y0064620D01*
X0105553Y0064620D01*
X0106373Y0065440D01*
X0109326Y0068393D01*
X0109326Y0072761D01*
X0109849Y0073285D01*
X0109849Y0076471D01*
X0109326Y0076995D01*
X0109326Y0083575D01*
X0109726Y0083975D01*
X0109726Y0084116D01*
X0111071Y0085461D01*
X0112067Y0086457D01*
X0112067Y0093387D01*
X0109567Y0095887D01*
X0108571Y0096883D01*
X0088924Y0096883D01*
X0088674Y0097133D01*
X0087059Y0097133D01*
X0085917Y0095991D01*
X0085917Y0094375D01*
X0087059Y0093233D01*
X0088674Y0093233D01*
X0088924Y0093483D01*
X0107162Y0093483D01*
X0108667Y0091979D01*
X0108667Y0087866D01*
X0107322Y0086520D01*
X0107180Y0086520D01*
X0106126Y0085466D01*
X0106126Y0083975D01*
X0106526Y0083575D01*
X0106526Y0076998D01*
X0106136Y0076998D01*
X0105957Y0076820D01*
X0105779Y0076998D01*
X0105486Y0076998D01*
X0105486Y0078763D01*
X0104501Y0079747D01*
X0104501Y0079747D01*
X0103740Y0080509D01*
X0103117Y0080509D01*
X0103117Y0080763D01*
X0102590Y0081290D01*
X0099482Y0081290D01*
X0099363Y0081170D01*
X0099243Y0081290D01*
X0096923Y0081290D01*
X0096804Y0081170D01*
X0096684Y0081290D01*
X0093577Y0081290D01*
X0093223Y0080936D01*
X0093314Y0081156D01*
X0093314Y0082255D01*
X0091493Y0082255D01*
X0091493Y0082855D01*
X0090893Y0082855D01*
X0090893Y0082255D01*
X0089073Y0082255D01*
X0089073Y0081156D01*
X0089210Y0080825D01*
X0089251Y0080783D01*
X0089073Y0080605D01*
X0089073Y0077419D01*
X0089600Y0076891D01*
X0092643Y0076891D01*
X0092223Y0076471D01*
X0092223Y0073285D01*
X0092750Y0072758D01*
X0093043Y0072758D01*
X0093043Y0071433D01*
X0092882Y0071594D01*
X0091474Y0071594D01*
X0090478Y0070598D01*
X0090478Y0069190D01*
X0091474Y0068194D01*
X0092882Y0068194D01*
X0093282Y0068594D01*
X0093897Y0068594D01*
X0094659Y0069355D01*
X0095643Y0070339D01*
X0095643Y0072758D01*
X0095936Y0072758D01*
X0096115Y0072936D01*
X0096293Y0072758D01*
X0099480Y0072758D01*
X0100007Y0073285D01*
X0100007Y0076471D01*
X0099480Y0076998D01*
X0099383Y0076998D01*
X0099383Y0077226D01*
X0099482Y0077128D01*
X0102590Y0077128D01*
X0102886Y0077423D01*
X0102886Y0076998D01*
X0102592Y0076998D01*
X0102065Y0076471D01*
X0102065Y0073285D01*
X0102592Y0072758D01*
X0102886Y0072758D01*
X0102886Y0071416D01*
X0102663Y0071194D01*
X0101156Y0071194D01*
X0100756Y0071594D01*
X0099348Y0071594D01*
X0098352Y0070598D01*
X0098352Y0069190D01*
X0099348Y0068194D01*
X0100756Y0068194D01*
X0101156Y0068594D01*
X0103740Y0068594D01*
X0104501Y0069355D01*
X0105486Y0070339D01*
X0105486Y0072758D01*
X0105779Y0072758D01*
X0105957Y0072936D01*
X0106136Y0072758D01*
X0106526Y0072758D01*
X0106526Y0069552D01*
X0104393Y0067420D01*
X0087661Y0067420D01*
X0085692Y0065451D01*
X0082915Y0065451D01*
X0081767Y0066600D01*
X0080947Y0067420D01*
X0066991Y0067420D01*
X0066171Y0066600D01*
X0066171Y0066317D01*
X0065387Y0065533D01*
X0065387Y0063022D01*
X0064994Y0063022D01*
X0064467Y0062495D01*
X0064467Y0059308D01*
X0064645Y0059130D01*
X0064467Y0058952D01*
X0064467Y0055765D01*
X0064994Y0055238D01*
X0065387Y0055238D01*
X0065387Y0054696D01*
X0066371Y0053712D01*
X0066643Y0053440D01*
X0066090Y0053440D01*
X0059200Y0046550D01*
X0058497Y0045847D01*
X0058497Y0043101D01*
X0057729Y0043101D01*
X0057729Y0039839D01*
X0057729Y0039839D01*
X0057729Y0043101D01*
X0056959Y0043101D01*
X0056628Y0042964D01*
X0056375Y0042711D01*
X0056238Y0042380D01*
X0056238Y0039839D01*
X0057729Y0039839D01*
X0057729Y0039839D01*
X0057729Y0039838D02*
X0057729Y0036576D01*
X0057729Y0039838D01*
X0057729Y0039838D01*
X0057729Y0039839D02*
X0056238Y0039839D01*
X0056238Y0038429D01*
X0055818Y0038849D01*
X0044443Y0038849D01*
X0042938Y0039967D02*
X0056238Y0039967D01*
X0056238Y0040565D02*
X0043537Y0040565D01*
X0043681Y0040709D02*
X0042685Y0039713D01*
X0041277Y0039713D01*
X0040281Y0040709D01*
X0040281Y0042118D01*
X0041277Y0043113D01*
X0042685Y0043113D01*
X0043681Y0042118D01*
X0043681Y0040709D01*
X0043681Y0041164D02*
X0056238Y0041164D01*
X0056238Y0041762D02*
X0043681Y0041762D01*
X0043438Y0042361D02*
X0056238Y0042361D01*
X0056624Y0042959D02*
X0055773Y0042959D01*
X0055480Y0042666D02*
X0056476Y0043662D01*
X0056476Y0045070D01*
X0055480Y0046066D01*
X0054072Y0046066D01*
X0053076Y0045070D01*
X0053076Y0043662D01*
X0054072Y0042666D01*
X0055480Y0042666D01*
X0056372Y0043558D02*
X0058497Y0043558D01*
X0058497Y0044156D02*
X0056476Y0044156D01*
X0056476Y0044755D02*
X0058497Y0044755D01*
X0058497Y0045353D02*
X0056193Y0045353D01*
X0055594Y0045952D02*
X0058602Y0045952D01*
X0059200Y0046550D02*
X0034467Y0046550D01*
X0034467Y0045952D02*
X0053958Y0045952D01*
X0053359Y0045353D02*
X0034467Y0045353D01*
X0034467Y0044755D02*
X0053076Y0044755D01*
X0053076Y0044156D02*
X0034467Y0044156D01*
X0034467Y0043558D02*
X0053180Y0043558D01*
X0053779Y0042959D02*
X0042839Y0042959D01*
X0041123Y0042959D02*
X0034467Y0042959D01*
X0034467Y0042361D02*
X0040524Y0042361D01*
X0040281Y0041762D02*
X0034467Y0041762D01*
X0034467Y0041164D02*
X0040281Y0041164D01*
X0040425Y0040565D02*
X0034467Y0040565D01*
X0034467Y0039967D02*
X0041023Y0039967D01*
X0034467Y0039368D02*
X0056238Y0039368D01*
X0056238Y0038770D02*
X0055897Y0038770D01*
X0057729Y0038770D02*
X0057729Y0038770D01*
X0057729Y0039368D02*
X0057729Y0039368D01*
X0057729Y0039967D02*
X0057729Y0039967D01*
X0057729Y0040565D02*
X0057729Y0040565D01*
X0057729Y0041164D02*
X0057729Y0041164D01*
X0057729Y0041762D02*
X0057729Y0041762D01*
X0057729Y0042361D02*
X0057729Y0042361D01*
X0057729Y0042959D02*
X0057729Y0042959D01*
X0059697Y0045350D02*
X0059697Y0039839D01*
X0059697Y0033539D01*
X0057997Y0033383D02*
X0056345Y0033383D01*
X0056345Y0032785D02*
X0058048Y0032785D01*
X0058646Y0032186D02*
X0056345Y0032186D01*
X0056345Y0031588D02*
X0076829Y0031588D01*
X0076829Y0032186D02*
X0060748Y0032186D01*
X0061347Y0032785D02*
X0076829Y0032785D01*
X0076829Y0033383D02*
X0061397Y0033383D01*
X0062544Y0033982D02*
X0074567Y0033982D01*
X0076323Y0033982D02*
X0076829Y0033982D01*
X0075445Y0035508D02*
X0070524Y0035508D01*
X0069540Y0036492D01*
X0069540Y0039839D01*
X0069540Y0045350D01*
X0070524Y0046335D01*
X0080367Y0046335D01*
X0086272Y0052240D01*
X0089225Y0052240D01*
X0090209Y0053224D01*
X0090209Y0057358D01*
X0088089Y0057324D02*
X0084604Y0057324D01*
X0084604Y0057058D02*
X0084604Y0057658D01*
X0086424Y0057658D01*
X0086424Y0058758D01*
X0086287Y0059089D01*
X0086246Y0059130D01*
X0086424Y0059308D01*
X0086424Y0062495D01*
X0086268Y0062651D01*
X0086852Y0062651D01*
X0087672Y0063471D01*
X0088821Y0064620D01*
X0090065Y0064620D01*
X0089993Y0064548D01*
X0089009Y0063564D01*
X0089009Y0063022D01*
X0088616Y0063022D01*
X0088089Y0062495D01*
X0088089Y0059308D01*
X0088267Y0059130D01*
X0088089Y0058952D01*
X0088089Y0055765D01*
X0088616Y0055238D01*
X0089009Y0055238D01*
X0089009Y0053721D01*
X0088728Y0053440D01*
X0085775Y0053440D01*
X0083051Y0050716D01*
X0083051Y0050976D01*
X0082055Y0051972D01*
X0080647Y0051972D01*
X0079651Y0050976D01*
X0079651Y0049568D01*
X0080647Y0048572D01*
X0080907Y0048572D01*
X0079870Y0047535D01*
X0070027Y0047535D01*
X0069043Y0046550D01*
X0068340Y0045847D01*
X0068340Y0043101D01*
X0067571Y0043101D01*
X0066802Y0043101D01*
X0066587Y0043012D01*
X0066372Y0043101D01*
X0065603Y0043101D01*
X0065603Y0039839D01*
X0065603Y0039839D01*
X0065603Y0043101D01*
X0064834Y0043101D01*
X0064834Y0045838D01*
X0068068Y0049072D01*
X0071021Y0049072D01*
X0071724Y0049775D01*
X0072990Y0051040D01*
X0077911Y0051040D01*
X0078614Y0051743D01*
X0079598Y0052727D01*
X0079598Y0055238D01*
X0079991Y0055238D01*
X0080519Y0055765D01*
X0080519Y0058952D01*
X0080340Y0059130D01*
X0080519Y0059308D01*
X0080519Y0062495D01*
X0079991Y0063022D01*
X0079598Y0063022D01*
X0079598Y0063564D01*
X0078542Y0064620D01*
X0079787Y0064620D01*
X0081755Y0062651D01*
X0082340Y0062651D01*
X0082183Y0062495D01*
X0082183Y0059308D01*
X0082362Y0059130D01*
X0082320Y0059089D01*
X0082183Y0058758D01*
X0082183Y0057658D01*
X0084004Y0057658D01*
X0084004Y0057058D01*
X0084604Y0057058D01*
X0086424Y0057058D01*
X0086424Y0055959D01*
X0086287Y0055628D01*
X0086034Y0055375D01*
X0085703Y0055238D01*
X0084604Y0055238D01*
X0084604Y0057058D01*
X0084604Y0056725D02*
X0084004Y0056725D01*
X0084004Y0057058D02*
X0084004Y0055238D01*
X0082904Y0055238D01*
X0082573Y0055375D01*
X0082320Y0055628D01*
X0082183Y0055959D01*
X0082183Y0057058D01*
X0084004Y0057058D01*
X0084004Y0057324D02*
X0080519Y0057324D01*
X0080519Y0057922D02*
X0082183Y0057922D01*
X0082183Y0058521D02*
X0080519Y0058521D01*
X0080351Y0059119D02*
X0082351Y0059119D01*
X0082183Y0059718D02*
X0080519Y0059718D01*
X0080519Y0060316D02*
X0082183Y0060316D01*
X0082183Y0060915D02*
X0080519Y0060915D01*
X0080519Y0061513D02*
X0082183Y0061513D01*
X0082183Y0062112D02*
X0080519Y0062112D01*
X0080303Y0062710D02*
X0081696Y0062710D01*
X0081098Y0063309D02*
X0079598Y0063309D01*
X0079255Y0063907D02*
X0080499Y0063907D01*
X0079901Y0064506D02*
X0078656Y0064506D01*
X0077414Y0064051D02*
X0078398Y0063067D01*
X0078398Y0060902D01*
X0077414Y0064051D02*
X0076430Y0064051D01*
X0074461Y0066020D02*
X0074461Y0060902D01*
X0074461Y0057358D02*
X0074461Y0055193D01*
X0075445Y0054209D01*
X0076430Y0054209D01*
X0078398Y0053224D02*
X0077414Y0052240D01*
X0072493Y0052240D01*
X0070524Y0050272D01*
X0067571Y0050272D01*
X0063634Y0046335D01*
X0063634Y0039839D01*
X0063634Y0036492D01*
X0062650Y0035508D01*
X0061666Y0035508D01*
X0063419Y0034580D02*
X0069755Y0034580D01*
X0069156Y0035179D02*
X0064018Y0035179D01*
X0064617Y0035777D02*
X0068558Y0035777D01*
X0068340Y0036376D02*
X0064834Y0036376D01*
X0065603Y0036576D02*
X0065603Y0039838D01*
X0065603Y0036576D01*
X0065603Y0036974D02*
X0065603Y0036974D01*
X0065603Y0037573D02*
X0065603Y0037573D01*
X0065603Y0038171D02*
X0065603Y0038171D01*
X0065603Y0038770D02*
X0065603Y0038770D01*
X0065603Y0039368D02*
X0065603Y0039368D01*
X0065603Y0039838D02*
X0065603Y0039838D01*
X0065603Y0039967D02*
X0065603Y0039967D01*
X0065603Y0040565D02*
X0065603Y0040565D01*
X0065603Y0041164D02*
X0065603Y0041164D01*
X0065603Y0041762D02*
X0065603Y0041762D01*
X0065603Y0042361D02*
X0065603Y0042361D01*
X0065603Y0042959D02*
X0065603Y0042959D01*
X0064834Y0043558D02*
X0068340Y0043558D01*
X0068340Y0044156D02*
X0064834Y0044156D01*
X0064834Y0044755D02*
X0068340Y0044755D01*
X0068340Y0045353D02*
X0064834Y0045353D01*
X0064949Y0045952D02*
X0068444Y0045952D01*
X0069043Y0046550D02*
X0069043Y0046550D01*
X0065547Y0046550D01*
X0066146Y0047149D02*
X0069641Y0047149D01*
X0067941Y0048944D02*
X0080274Y0048944D01*
X0080681Y0048346D02*
X0067343Y0048346D01*
X0066744Y0047747D02*
X0080082Y0047747D01*
X0079675Y0049543D02*
X0071493Y0049543D01*
X0072091Y0050142D02*
X0079651Y0050142D01*
X0079651Y0050740D02*
X0072690Y0050740D01*
X0070524Y0053224D02*
X0069540Y0052240D01*
X0066587Y0052240D01*
X0059697Y0045350D01*
X0059799Y0047149D02*
X0034467Y0047149D01*
X0034467Y0047747D02*
X0060397Y0047747D01*
X0060996Y0048346D02*
X0034467Y0048346D01*
X0034467Y0048944D02*
X0061594Y0048944D01*
X0062193Y0049543D02*
X0034467Y0049543D01*
X0034467Y0050142D02*
X0062791Y0050142D01*
X0063390Y0050740D02*
X0034467Y0050740D01*
X0034467Y0051339D02*
X0063988Y0051339D01*
X0064587Y0051937D02*
X0034467Y0051937D01*
X0034467Y0052536D02*
X0065185Y0052536D01*
X0065784Y0053134D02*
X0034467Y0053134D01*
X0034467Y0053733D02*
X0066350Y0053733D01*
X0065752Y0054331D02*
X0034467Y0054331D01*
X0034467Y0054930D02*
X0065387Y0054930D01*
X0064704Y0055528D02*
X0034467Y0055528D01*
X0034467Y0056127D02*
X0064467Y0056127D01*
X0064467Y0056725D02*
X0034467Y0056725D01*
X0034467Y0057324D02*
X0064467Y0057324D01*
X0064467Y0057922D02*
X0034467Y0057922D01*
X0034467Y0058521D02*
X0064467Y0058521D01*
X0064634Y0059119D02*
X0034467Y0059119D01*
X0034467Y0059718D02*
X0064467Y0059718D01*
X0064467Y0060316D02*
X0034467Y0060316D01*
X0034467Y0060915D02*
X0064467Y0060915D01*
X0064467Y0061513D02*
X0034467Y0061513D01*
X0034467Y0062112D02*
X0064467Y0062112D01*
X0064682Y0062710D02*
X0034467Y0062710D01*
X0034467Y0063309D02*
X0065387Y0063309D01*
X0065387Y0063907D02*
X0034467Y0063907D01*
X0034467Y0064506D02*
X0065387Y0064506D01*
X0065387Y0065104D02*
X0034467Y0065104D01*
X0034467Y0065703D02*
X0065557Y0065703D01*
X0066156Y0066301D02*
X0034467Y0066301D01*
X0034467Y0066900D02*
X0066472Y0066900D01*
X0067571Y0066020D02*
X0066587Y0065035D01*
X0066587Y0060902D01*
X0066587Y0057358D02*
X0066587Y0055193D01*
X0067571Y0054209D01*
X0068556Y0054209D01*
X0070524Y0053224D02*
X0070524Y0057358D01*
X0070524Y0060902D02*
X0070524Y0063067D01*
X0069540Y0064051D01*
X0068556Y0064051D01*
X0078209Y0051339D02*
X0080014Y0051339D01*
X0080612Y0051937D02*
X0078808Y0051937D01*
X0079406Y0052536D02*
X0084871Y0052536D01*
X0085469Y0053134D02*
X0079598Y0053134D01*
X0079598Y0053733D02*
X0089009Y0053733D01*
X0089009Y0054331D02*
X0079598Y0054331D01*
X0079598Y0054930D02*
X0089009Y0054930D01*
X0088326Y0055528D02*
X0086187Y0055528D01*
X0086424Y0056127D02*
X0088089Y0056127D01*
X0088089Y0056725D02*
X0086424Y0056725D01*
X0086424Y0057922D02*
X0088089Y0057922D01*
X0088089Y0058521D02*
X0086424Y0058521D01*
X0086256Y0059119D02*
X0088256Y0059119D01*
X0088089Y0059718D02*
X0086424Y0059718D01*
X0086424Y0060316D02*
X0088089Y0060316D01*
X0088089Y0060915D02*
X0086424Y0060915D01*
X0086424Y0061513D02*
X0088089Y0061513D01*
X0088089Y0062112D02*
X0086424Y0062112D01*
X0086911Y0062710D02*
X0088304Y0062710D01*
X0089009Y0063309D02*
X0087510Y0063309D01*
X0088108Y0063907D02*
X0089352Y0063907D01*
X0089951Y0064506D02*
X0088707Y0064506D01*
X0090209Y0063067D02*
X0090209Y0060902D01*
X0090209Y0063067D02*
X0091193Y0064051D01*
X0092178Y0064051D01*
X0094146Y0066020D02*
X0094146Y0060902D01*
X0094146Y0057358D02*
X0094146Y0055193D01*
X0093162Y0054209D01*
X0092178Y0054209D01*
X0092178Y0052240D02*
X0090209Y0050272D01*
X0087256Y0050272D01*
X0081351Y0044366D01*
X0075445Y0044366D01*
X0074461Y0044366D01*
X0073477Y0043382D01*
X0073477Y0039839D01*
X0071508Y0039839D02*
X0071508Y0044366D01*
X0067571Y0043101D02*
X0067571Y0039839D01*
X0067571Y0043101D01*
X0067571Y0042959D02*
X0067571Y0042959D01*
X0067571Y0042361D02*
X0067571Y0042361D01*
X0067571Y0041762D02*
X0067571Y0041762D01*
X0067571Y0041164D02*
X0067571Y0041164D01*
X0067571Y0040565D02*
X0067571Y0040565D01*
X0067571Y0039967D02*
X0067571Y0039967D01*
X0067571Y0039839D02*
X0067571Y0039839D01*
X0067571Y0039368D02*
X0067571Y0039368D01*
X0067571Y0038770D02*
X0067571Y0038770D01*
X0067571Y0038171D02*
X0067571Y0038171D01*
X0067571Y0037573D02*
X0067571Y0037573D01*
X0067571Y0036974D02*
X0067571Y0036974D01*
X0061666Y0039839D02*
X0061666Y0044366D01*
X0057729Y0038171D02*
X0057729Y0038171D01*
X0057729Y0037573D02*
X0057729Y0037573D01*
X0057729Y0036974D02*
X0057729Y0036974D01*
X0058497Y0036376D02*
X0056345Y0036376D01*
X0056345Y0036974D02*
X0056372Y0036974D01*
X0056345Y0035777D02*
X0058497Y0035777D01*
X0058497Y0035179D02*
X0056345Y0035179D01*
X0056345Y0034580D02*
X0058334Y0034580D01*
X0057997Y0033982D02*
X0056345Y0033982D01*
X0056345Y0030989D02*
X0076829Y0030989D01*
X0076829Y0030391D02*
X0056345Y0030391D01*
X0056345Y0029792D02*
X0076829Y0029792D01*
X0076829Y0029194D02*
X0056345Y0029194D01*
X0056345Y0028595D02*
X0076829Y0028595D01*
X0076829Y0027997D02*
X0056345Y0027997D01*
X0056345Y0027398D02*
X0076829Y0027398D01*
X0076829Y0026800D02*
X0056345Y0026800D01*
X0056345Y0026201D02*
X0076829Y0026201D01*
X0076991Y0025603D02*
X0056183Y0025603D01*
X0044078Y0025603D02*
X0040229Y0025603D01*
X0040367Y0026201D02*
X0043915Y0026201D01*
X0043915Y0026800D02*
X0040367Y0026800D01*
X0040173Y0027398D02*
X0043915Y0027398D01*
X0043915Y0027997D02*
X0039839Y0027997D01*
X0039180Y0028595D02*
X0043915Y0028595D01*
X0039973Y0025004D02*
X0110760Y0025004D01*
X0110747Y0025017D02*
X0111451Y0024314D01*
X0112369Y0023933D01*
X0113364Y0023933D01*
X0114283Y0024314D01*
X0114986Y0025017D01*
X0115367Y0025936D01*
X0115367Y0026930D01*
X0114986Y0027849D01*
X0114283Y0028552D01*
X0113364Y0028933D01*
X0112369Y0028933D01*
X0111451Y0028552D01*
X0110747Y0027849D01*
X0110367Y0026930D01*
X0110367Y0025936D01*
X0110747Y0025017D01*
X0110505Y0025603D02*
X0089096Y0025603D01*
X0089259Y0026201D02*
X0110367Y0026201D01*
X0110367Y0026800D02*
X0089259Y0026800D01*
X0089259Y0027398D02*
X0110560Y0027398D01*
X0110895Y0027997D02*
X0089259Y0027997D01*
X0089259Y0028595D02*
X0111553Y0028595D01*
X0114180Y0028595D02*
X0116267Y0028595D01*
X0116267Y0027997D02*
X0114839Y0027997D01*
X0115173Y0027398D02*
X0116267Y0027398D01*
X0116267Y0026800D02*
X0115367Y0026800D01*
X0115367Y0026201D02*
X0116267Y0026201D01*
X0116267Y0025603D02*
X0115229Y0025603D01*
X0114973Y0025004D02*
X0116267Y0025004D01*
X0116267Y0024406D02*
X0114375Y0024406D01*
X0111359Y0024406D02*
X0039375Y0024406D01*
X0034467Y0067498D02*
X0083374Y0067498D01*
X0083599Y0067272D02*
X0085008Y0067272D01*
X0086004Y0068268D01*
X0086004Y0069677D01*
X0085008Y0070672D01*
X0084442Y0070672D01*
X0081667Y0073448D01*
X0081667Y0085519D01*
X0082604Y0084582D01*
X0082604Y0084016D01*
X0083599Y0083020D01*
X0085008Y0083020D01*
X0086004Y0084016D01*
X0086004Y0085425D01*
X0085008Y0086420D01*
X0084442Y0086420D01*
X0076968Y0093895D01*
X0068110Y0093895D01*
X0063950Y0098054D01*
X0063950Y0103960D01*
X0063189Y0104721D01*
X0061220Y0106690D01*
X0060802Y0106690D01*
X0060402Y0107090D01*
X0058993Y0107090D01*
X0057997Y0106094D01*
X0057997Y0104686D01*
X0058993Y0103690D01*
X0060402Y0103690D01*
X0060472Y0103761D01*
X0061350Y0102883D01*
X0061350Y0097701D01*
X0056076Y0102976D01*
X0056076Y0107980D01*
X0056080Y0107971D01*
X0056333Y0107717D01*
X0056664Y0107580D01*
X0058413Y0107580D01*
X0058413Y0110149D01*
X0059013Y0110149D01*
X0059013Y0110749D01*
X0058413Y0110749D01*
X0058413Y0113317D01*
X0056664Y0113317D01*
X0056333Y0113180D01*
X0056080Y0112927D01*
X0055943Y0112596D01*
X0055943Y0111548D01*
X0055480Y0112011D01*
X0054108Y0112011D01*
X0054108Y0123552D01*
X0054257Y0123702D01*
X0054257Y0123386D01*
X0055253Y0122391D01*
X0055819Y0122391D01*
X0059578Y0118631D01*
X0060340Y0117869D01*
X0063876Y0117869D01*
X0063876Y0117576D01*
X0064403Y0117049D01*
X0067590Y0117049D01*
X0067768Y0117227D01*
X0067947Y0117049D01*
X0071133Y0117049D01*
X0071660Y0117576D01*
X0071660Y0117869D01*
X0075891Y0117869D01*
X0077860Y0115901D01*
X0080099Y0115901D01*
X0080289Y0115710D01*
X0088515Y0115710D01*
X0088706Y0115901D01*
X0094965Y0115901D01*
X0096166Y0116398D01*
X0096167Y0116398D01*
X0096245Y0116477D01*
X0096245Y0116477D01*
X0096253Y0116485D01*
X0096819Y0116485D01*
X0097815Y0117481D01*
X0097815Y0118047D01*
X0099410Y0119642D01*
X0099511Y0119725D01*
X0099752Y0119825D01*
X0099883Y0119838D01*
X0101855Y0119838D01*
X0103056Y0120335D01*
X0103056Y0120335D01*
X0103135Y0120414D01*
X0103135Y0120414D01*
X0105696Y0122976D01*
X0105775Y0123054D01*
X0105775Y0123055D01*
X0106273Y0124256D01*
X0106273Y0134102D01*
X0106283Y0134202D01*
X0106661Y0134202D01*
X0107657Y0135197D01*
X0107657Y0136606D01*
X0106661Y0137602D01*
X0105253Y0137602D01*
X0104257Y0136606D01*
X0104257Y0136040D01*
X0104250Y0136032D01*
X0104171Y0135953D01*
X0103989Y0135514D01*
X0103807Y0135953D01*
X0103807Y0135953D01*
X0103728Y0136032D01*
X0103720Y0136040D01*
X0103720Y0136606D01*
X0102724Y0137602D01*
X0101316Y0137602D01*
X0100320Y0136606D01*
X0100320Y0135197D01*
X0101316Y0134202D01*
X0101695Y0134202D01*
X0101704Y0134102D01*
X0101704Y0125890D01*
X0101692Y0125760D01*
X0101592Y0125519D01*
X0101509Y0125417D01*
X0101074Y0124983D01*
X0100790Y0124698D01*
X0100693Y0124602D01*
X0100592Y0124519D01*
X0100351Y0124419D01*
X0100221Y0124406D01*
X0099883Y0124406D01*
X0099752Y0124419D01*
X0099511Y0124519D01*
X0099410Y0124602D01*
X0097815Y0126198D01*
X0097815Y0126763D01*
X0096819Y0127759D01*
X0096253Y0127759D01*
X0096245Y0127767D01*
X0096167Y0127846D01*
X0096166Y0127846D01*
X0094965Y0128343D01*
X0089042Y0128343D01*
X0089042Y0129975D01*
X0089021Y0129996D01*
X0089042Y0130017D01*
X0089042Y0131944D01*
X0088973Y0132013D01*
X0089042Y0132179D01*
X0089042Y0132949D01*
X0089042Y0133718D01*
X0088973Y0133885D01*
X0089042Y0133954D01*
X0089042Y0135881D01*
X0089021Y0135902D01*
X0089042Y0135923D01*
X0089042Y0137849D01*
X0088973Y0137918D01*
X0089042Y0138085D01*
X0089042Y0138854D01*
X0084402Y0138854D01*
X0084402Y0138854D01*
X0089042Y0138854D01*
X0089042Y0139624D01*
X0088973Y0139791D01*
X0089042Y0139860D01*
X0089042Y0141786D01*
X0089021Y0141807D01*
X0089042Y0141828D01*
X0089042Y0143755D01*
X0088973Y0143824D01*
X0089042Y0143990D01*
X0089042Y0144760D01*
X0089042Y0145529D01*
X0088973Y0145696D01*
X0089042Y0145765D01*
X0089042Y0147692D01*
X0089021Y0147713D01*
X0089042Y0147734D01*
X0089042Y0149660D01*
X0088973Y0149729D01*
X0089042Y0149896D01*
X0089042Y0150665D01*
X0084402Y0150665D01*
X0084402Y0150665D01*
X0089042Y0150665D01*
X0089042Y0151435D01*
X0088973Y0151602D01*
X0089042Y0151671D01*
X0089042Y0153597D01*
X0088515Y0154124D01*
X0080289Y0154124D01*
X0079999Y0153834D01*
X0079092Y0153834D01*
X0079002Y0153743D01*
X0078088Y0153743D01*
X0077092Y0152747D01*
X0077092Y0151339D01*
X0077766Y0150665D01*
X0077092Y0149992D01*
X0077092Y0148583D01*
X0078088Y0147587D01*
X0078929Y0147587D01*
X0078595Y0147254D01*
X0078274Y0146933D01*
X0078274Y0146933D01*
X0078194Y0146853D01*
X0077965Y0146624D01*
X0077901Y0146560D01*
X0076555Y0146560D01*
X0076555Y0146842D01*
X0075559Y0147838D01*
X0074151Y0147838D01*
X0073155Y0146842D01*
X0073155Y0145434D01*
X0073829Y0144760D01*
X0073155Y0144086D01*
X0073155Y0142678D01*
X0074151Y0141682D01*
X0075559Y0141682D01*
X0076555Y0142678D01*
X0076555Y0142960D01*
X0077901Y0142960D01*
X0078026Y0142835D01*
X0078194Y0142667D01*
X0078274Y0142587D01*
X0078600Y0142261D01*
X0078929Y0141932D01*
X0078088Y0141932D01*
X0077092Y0140936D01*
X0077092Y0139528D01*
X0077766Y0138854D01*
X0077092Y0138181D01*
X0077092Y0136772D01*
X0078088Y0135776D01*
X0078732Y0135776D01*
X0078410Y0135455D01*
X0078077Y0135122D01*
X0078077Y0135122D01*
X0077997Y0135042D01*
X0077704Y0134749D01*
X0076555Y0134749D01*
X0076555Y0135031D01*
X0075559Y0136027D01*
X0074151Y0136027D01*
X0073155Y0135031D01*
X0073155Y0133623D01*
X0073829Y0132949D01*
X0073155Y0132275D01*
X0073155Y0130867D01*
X0074151Y0129871D01*
X0075559Y0129871D01*
X0076555Y0130867D01*
X0076555Y0131149D01*
X0077704Y0131149D01*
X0077941Y0130912D01*
X0077997Y0130856D01*
X0078077Y0130776D01*
X0078385Y0130468D01*
X0078545Y0130308D01*
X0077564Y0129328D01*
X0073794Y0129328D01*
X0073394Y0129728D01*
X0071985Y0129728D01*
X0070989Y0128732D01*
X0070989Y0127323D01*
X0071985Y0126328D01*
X0073394Y0126328D01*
X0073794Y0126728D01*
X0078641Y0126728D01*
X0079403Y0127489D01*
X0079626Y0127712D01*
X0079762Y0127712D01*
X0079762Y0126375D01*
X0076088Y0126375D01*
X0075104Y0125391D01*
X0065985Y0125391D01*
X0066174Y0125579D01*
X0066375Y0125780D01*
X0066922Y0126328D01*
X0067488Y0126328D01*
X0068484Y0127323D01*
X0068484Y0128732D01*
X0067488Y0129728D01*
X0067178Y0129728D01*
X0067282Y0129979D01*
X0067300Y0129996D01*
X0067300Y0130041D01*
X0067393Y0130041D01*
X0067762Y0130410D01*
X0068007Y0130165D01*
X0069498Y0130165D01*
X0070552Y0131219D01*
X0070552Y0132710D01*
X0069498Y0133765D01*
X0068007Y0133765D01*
X0067920Y0133678D01*
X0067920Y0133755D01*
X0067742Y0133933D01*
X0073155Y0133933D01*
X0073155Y0134532D02*
X0067920Y0134532D01*
X0067920Y0134305D02*
X0067920Y0135405D01*
X0066100Y0135405D01*
X0066100Y0136005D01*
X0067920Y0136005D01*
X0067920Y0137104D01*
X0067783Y0137435D01*
X0067530Y0137688D01*
X0067199Y0137825D01*
X0066100Y0137825D01*
X0066100Y0136005D01*
X0065500Y0136005D01*
X0065500Y0137825D01*
X0064400Y0137825D01*
X0064069Y0137688D01*
X0063816Y0137435D01*
X0063679Y0137104D01*
X0063679Y0136005D01*
X0065500Y0136005D01*
X0065500Y0135405D01*
X0063679Y0135405D01*
X0063679Y0134305D01*
X0063816Y0133974D01*
X0063858Y0133933D01*
X0063679Y0133755D01*
X0063679Y0130568D01*
X0063965Y0130283D01*
X0063510Y0129828D01*
X0063086Y0129828D01*
X0062031Y0128773D01*
X0062031Y0127359D01*
X0057657Y0127359D01*
X0057657Y0128732D01*
X0056661Y0129728D01*
X0055253Y0129728D01*
X0054853Y0129328D01*
X0053253Y0129328D01*
X0050301Y0126375D01*
X0049539Y0125613D01*
X0049539Y0099930D01*
X0063319Y0086151D01*
X0064080Y0085389D01*
X0066049Y0085389D01*
X0066856Y0084582D01*
X0066856Y0084016D01*
X0067851Y0083020D01*
X0069260Y0083020D01*
X0070256Y0084016D01*
X0070256Y0085425D01*
X0069260Y0086420D01*
X0068694Y0086420D01*
X0067757Y0087358D01*
X0071954Y0087358D01*
X0074730Y0084582D01*
X0074730Y0084016D01*
X0075725Y0083020D01*
X0077134Y0083020D01*
X0078130Y0084016D01*
X0078130Y0085425D01*
X0077134Y0086420D01*
X0076568Y0086420D01*
X0073663Y0089326D01*
X0074907Y0089326D01*
X0079067Y0085166D01*
X0079067Y0072371D01*
X0082604Y0068834D01*
X0082604Y0068268D01*
X0083599Y0067272D01*
X0082775Y0068097D02*
X0034467Y0068097D01*
X0034467Y0068695D02*
X0082604Y0068695D01*
X0082144Y0069294D02*
X0034467Y0069294D01*
X0034467Y0069892D02*
X0081545Y0069892D01*
X0080947Y0070491D02*
X0034467Y0070491D01*
X0034467Y0071089D02*
X0080348Y0071089D01*
X0079750Y0071688D02*
X0034467Y0071688D01*
X0034467Y0072286D02*
X0079151Y0072286D01*
X0079067Y0072885D02*
X0034467Y0072885D01*
X0034467Y0073483D02*
X0079067Y0073483D01*
X0079067Y0074082D02*
X0034467Y0074082D01*
X0034467Y0074680D02*
X0079067Y0074680D01*
X0079067Y0075279D02*
X0034467Y0075279D01*
X0034467Y0075877D02*
X0079067Y0075877D01*
X0079067Y0076476D02*
X0034467Y0076476D01*
X0034467Y0077075D02*
X0079067Y0077075D01*
X0079067Y0077673D02*
X0034467Y0077673D01*
X0034467Y0078272D02*
X0079067Y0078272D01*
X0079067Y0078870D02*
X0034467Y0078870D01*
X0034467Y0079469D02*
X0079067Y0079469D01*
X0079067Y0080067D02*
X0034467Y0080067D01*
X0034467Y0080666D02*
X0079067Y0080666D01*
X0079067Y0081264D02*
X0034467Y0081264D01*
X0034467Y0081863D02*
X0079067Y0081863D01*
X0079067Y0082461D02*
X0034467Y0082461D01*
X0034467Y0083060D02*
X0067812Y0083060D01*
X0067214Y0083658D02*
X0034467Y0083658D01*
X0034467Y0084257D02*
X0066856Y0084257D01*
X0066582Y0084855D02*
X0034467Y0084855D01*
X0034467Y0085454D02*
X0064015Y0085454D01*
X0063417Y0086052D02*
X0034467Y0086052D01*
X0034467Y0086651D02*
X0062818Y0086651D01*
X0062220Y0087249D02*
X0034467Y0087249D01*
X0034467Y0087848D02*
X0061621Y0087848D01*
X0061023Y0088446D02*
X0034467Y0088446D01*
X0034467Y0089045D02*
X0060424Y0089045D01*
X0059826Y0089643D02*
X0034467Y0089643D01*
X0034467Y0090242D02*
X0059227Y0090242D01*
X0058629Y0090840D02*
X0034467Y0090840D01*
X0034467Y0091439D02*
X0058030Y0091439D01*
X0057432Y0092037D02*
X0034467Y0092037D01*
X0034467Y0092636D02*
X0056833Y0092636D01*
X0056235Y0093234D02*
X0034467Y0093234D01*
X0034467Y0093833D02*
X0055636Y0093833D01*
X0055038Y0094431D02*
X0034467Y0094431D01*
X0034467Y0095030D02*
X0054439Y0095030D01*
X0053841Y0095628D02*
X0034467Y0095628D01*
X0034467Y0096227D02*
X0053242Y0096227D01*
X0052644Y0096825D02*
X0034467Y0096825D01*
X0034467Y0097424D02*
X0052045Y0097424D01*
X0051447Y0098022D02*
X0034467Y0098022D01*
X0034467Y0098621D02*
X0050848Y0098621D01*
X0050250Y0099219D02*
X0034467Y0099219D01*
X0034467Y0099818D02*
X0049651Y0099818D01*
X0049539Y0100416D02*
X0034467Y0100416D01*
X0034467Y0101015D02*
X0049539Y0101015D01*
X0049539Y0101613D02*
X0034467Y0101613D01*
X0034467Y0102212D02*
X0049539Y0102212D01*
X0049539Y0102811D02*
X0034467Y0102811D01*
X0034467Y0103409D02*
X0049539Y0103409D01*
X0049539Y0104008D02*
X0034467Y0104008D01*
X0034467Y0104606D02*
X0049539Y0104606D01*
X0049539Y0105205D02*
X0034467Y0105205D01*
X0034467Y0105803D02*
X0049539Y0105803D01*
X0049539Y0106402D02*
X0034467Y0106402D01*
X0034467Y0107000D02*
X0049539Y0107000D01*
X0049539Y0107599D02*
X0034467Y0107599D01*
X0034467Y0108197D02*
X0049539Y0108197D01*
X0049539Y0108796D02*
X0034467Y0108796D01*
X0034467Y0109394D02*
X0049539Y0109394D01*
X0049539Y0109993D02*
X0034467Y0109993D01*
X0034467Y0110591D02*
X0049539Y0110591D01*
X0049539Y0111190D02*
X0034467Y0111190D01*
X0034467Y0111788D02*
X0049539Y0111788D01*
X0049539Y0112387D02*
X0034467Y0112387D01*
X0034467Y0112985D02*
X0049539Y0112985D01*
X0049539Y0113584D02*
X0034467Y0113584D01*
X0034467Y0114182D02*
X0049539Y0114182D01*
X0049539Y0114781D02*
X0034467Y0114781D01*
X0034467Y0115379D02*
X0049539Y0115379D01*
X0049539Y0115978D02*
X0034467Y0115978D01*
X0034467Y0116576D02*
X0049539Y0116576D01*
X0049539Y0117175D02*
X0034467Y0117175D01*
X0034467Y0117773D02*
X0049539Y0117773D01*
X0049539Y0118372D02*
X0034467Y0118372D01*
X0034467Y0118970D02*
X0049539Y0118970D01*
X0049539Y0119569D02*
X0034467Y0119569D01*
X0034467Y0120167D02*
X0049539Y0120167D01*
X0049539Y0120766D02*
X0034467Y0120766D01*
X0034467Y0121364D02*
X0049539Y0121364D01*
X0049539Y0121963D02*
X0034467Y0121963D01*
X0034467Y0122561D02*
X0049539Y0122561D01*
X0049539Y0123160D02*
X0034467Y0123160D01*
X0034467Y0123758D02*
X0049539Y0123758D01*
X0049539Y0124357D02*
X0034467Y0124357D01*
X0034467Y0124955D02*
X0049539Y0124955D01*
X0049539Y0125554D02*
X0034467Y0125554D01*
X0034467Y0126152D02*
X0050078Y0126152D01*
X0050677Y0126751D02*
X0034467Y0126751D01*
X0034467Y0127349D02*
X0051275Y0127349D01*
X0051874Y0127948D02*
X0034467Y0127948D01*
X0034467Y0128546D02*
X0052472Y0128546D01*
X0053071Y0129145D02*
X0034467Y0129145D01*
X0034467Y0129744D02*
X0063002Y0129744D01*
X0062403Y0129145D02*
X0057244Y0129145D01*
X0057657Y0128546D02*
X0062031Y0128546D01*
X0062031Y0127948D02*
X0057657Y0127948D01*
X0054484Y0123160D02*
X0054108Y0123160D01*
X0054108Y0122561D02*
X0055082Y0122561D01*
X0054108Y0121963D02*
X0056246Y0121963D01*
X0056845Y0121364D02*
X0054108Y0121364D01*
X0054108Y0120766D02*
X0057443Y0120766D01*
X0058042Y0120167D02*
X0054108Y0120167D01*
X0054108Y0119569D02*
X0058640Y0119569D01*
X0059239Y0118970D02*
X0054108Y0118970D01*
X0054108Y0118372D02*
X0059837Y0118372D01*
X0059013Y0113317D02*
X0059013Y0110749D01*
X0061483Y0110749D01*
X0061483Y0112596D01*
X0061346Y0112927D01*
X0061093Y0113180D01*
X0060762Y0113317D01*
X0059013Y0113317D01*
X0059013Y0112985D02*
X0058413Y0112985D01*
X0058413Y0112387D02*
X0059013Y0112387D01*
X0059013Y0111788D02*
X0058413Y0111788D01*
X0058413Y0111190D02*
X0059013Y0111190D01*
X0059013Y0110591D02*
X0062242Y0110591D01*
X0062242Y0109993D02*
X0061483Y0109993D01*
X0061483Y0110149D02*
X0059013Y0110149D01*
X0059013Y0107580D01*
X0060762Y0107580D01*
X0061093Y0107717D01*
X0061346Y0107971D01*
X0061483Y0108301D01*
X0061483Y0110149D01*
X0061483Y0109394D02*
X0062242Y0109394D01*
X0062242Y0108796D02*
X0061483Y0108796D01*
X0061440Y0108197D02*
X0062242Y0108197D01*
X0062242Y0108108D02*
X0062769Y0107580D01*
X0067255Y0107580D01*
X0067782Y0108108D01*
X0067782Y0108549D01*
X0068555Y0108549D01*
X0069668Y0109662D01*
X0069668Y0111236D01*
X0068555Y0112349D01*
X0067782Y0112349D01*
X0067782Y0112548D01*
X0068472Y0112548D01*
X0069468Y0113544D01*
X0069468Y0114952D01*
X0068472Y0115948D01*
X0067064Y0115948D01*
X0066068Y0114952D01*
X0066068Y0113544D01*
X0066295Y0113317D01*
X0062769Y0113317D01*
X0062242Y0112790D01*
X0062242Y0108108D01*
X0062751Y0107599D02*
X0060806Y0107599D01*
X0060491Y0107000D02*
X0069730Y0107000D01*
X0069820Y0107090D02*
X0069420Y0106690D01*
X0067033Y0106690D01*
X0066271Y0105928D01*
X0066271Y0105345D01*
X0065978Y0105345D01*
X0065451Y0104818D01*
X0065451Y0101631D01*
X0065629Y0101453D01*
X0065451Y0101274D01*
X0065451Y0098088D01*
X0065978Y0097561D01*
X0066271Y0097561D01*
X0066271Y0096977D01*
X0067033Y0096216D01*
X0069420Y0096216D01*
X0069820Y0095816D01*
X0071228Y0095816D01*
X0072224Y0096812D01*
X0072224Y0098220D01*
X0071228Y0099216D01*
X0069820Y0099216D01*
X0069692Y0099088D01*
X0069692Y0099527D01*
X0069716Y0099503D01*
X0071332Y0099503D01*
X0072474Y0100645D01*
X0072474Y0102260D01*
X0071332Y0103403D01*
X0069716Y0103403D01*
X0069692Y0103378D01*
X0069692Y0103818D01*
X0069820Y0103690D01*
X0071228Y0103690D01*
X0072224Y0104686D01*
X0072224Y0106094D01*
X0071228Y0107090D01*
X0069820Y0107090D01*
X0071318Y0107000D02*
X0075130Y0107000D01*
X0075130Y0106402D02*
X0071916Y0106402D01*
X0072224Y0105803D02*
X0075130Y0105803D01*
X0075130Y0105205D02*
X0072224Y0105205D01*
X0072145Y0104606D02*
X0075130Y0104606D01*
X0075130Y0104008D02*
X0071546Y0104008D01*
X0071924Y0102811D02*
X0075130Y0102811D01*
X0075130Y0103409D02*
X0069692Y0103409D01*
X0072246Y0100416D02*
X0075130Y0100416D01*
X0075130Y0099818D02*
X0071647Y0099818D01*
X0071823Y0098621D02*
X0075907Y0098621D01*
X0075309Y0099219D02*
X0069692Y0099219D01*
X0072224Y0098022D02*
X0076506Y0098022D01*
X0077104Y0097424D02*
X0072224Y0097424D01*
X0072224Y0096825D02*
X0077703Y0096825D01*
X0078301Y0096227D02*
X0071639Y0096227D01*
X0075130Y0099399D02*
X0084441Y0090088D01*
X0085202Y0089326D01*
X0089270Y0089326D01*
X0089270Y0089033D01*
X0089797Y0088506D01*
X0090090Y0088506D01*
X0090090Y0086741D01*
X0090852Y0085980D01*
X0091836Y0084995D01*
X0093049Y0084995D01*
X0093049Y0084741D01*
X0093577Y0084214D01*
X0096684Y0084214D01*
X0096804Y0084334D01*
X0096923Y0084214D01*
X0099243Y0084214D01*
X0099370Y0084341D01*
X0099676Y0084214D01*
X0100745Y0084214D01*
X0100745Y0086005D01*
X0101327Y0086005D01*
X0101327Y0086586D01*
X0103117Y0086586D01*
X0103117Y0087655D01*
X0102980Y0087986D01*
X0102727Y0088239D01*
X0102396Y0088376D01*
X0101327Y0088376D01*
X0101327Y0086586D01*
X0100745Y0086586D01*
X0100745Y0088376D01*
X0099676Y0088376D01*
X0099383Y0088255D01*
X0099383Y0088762D01*
X0099640Y0088506D01*
X0102826Y0088506D01*
X0103004Y0088684D01*
X0103046Y0088643D01*
X0103377Y0088506D01*
X0104476Y0088506D01*
X0104476Y0090326D01*
X0105076Y0090326D01*
X0105076Y0088506D01*
X0106176Y0088506D01*
X0106506Y0088643D01*
X0106760Y0088896D01*
X0106897Y0089227D01*
X0106897Y0090326D01*
X0105076Y0090326D01*
X0105076Y0090926D01*
X0104476Y0090926D01*
X0104476Y0092746D01*
X0103377Y0092746D01*
X0103046Y0092609D01*
X0103004Y0092568D01*
X0102826Y0092746D01*
X0099640Y0092746D01*
X0099112Y0092219D01*
X0099112Y0091926D01*
X0097054Y0091926D01*
X0097054Y0092219D01*
X0096527Y0092746D01*
X0093340Y0092746D01*
X0093162Y0092568D01*
X0092984Y0092746D01*
X0089797Y0092746D01*
X0089270Y0092219D01*
X0089270Y0091926D01*
X0086279Y0091926D01*
X0077730Y0100476D01*
X0077730Y0113144D01*
X0078130Y0113544D01*
X0078130Y0114952D01*
X0077134Y0115948D01*
X0075725Y0115948D01*
X0074730Y0114952D01*
X0074730Y0113544D01*
X0075130Y0113144D01*
X0075130Y0099399D01*
X0075130Y0101015D02*
X0072474Y0101015D01*
X0072474Y0101613D02*
X0075130Y0101613D01*
X0075130Y0102212D02*
X0072474Y0102212D01*
X0075130Y0107599D02*
X0067273Y0107599D01*
X0067782Y0108197D02*
X0075130Y0108197D01*
X0075130Y0108796D02*
X0068802Y0108796D01*
X0069401Y0109394D02*
X0075130Y0109394D01*
X0075130Y0109993D02*
X0069668Y0109993D01*
X0069668Y0110591D02*
X0075130Y0110591D01*
X0075130Y0111190D02*
X0069668Y0111190D01*
X0069116Y0111788D02*
X0075130Y0111788D01*
X0075130Y0112387D02*
X0067782Y0112387D01*
X0068910Y0112985D02*
X0075130Y0112985D01*
X0074730Y0113584D02*
X0069468Y0113584D01*
X0069468Y0114182D02*
X0074730Y0114182D01*
X0074730Y0114781D02*
X0069468Y0114781D01*
X0069041Y0115379D02*
X0075157Y0115379D01*
X0076586Y0117175D02*
X0071259Y0117175D01*
X0071660Y0117773D02*
X0075987Y0117773D01*
X0077184Y0116576D02*
X0054108Y0116576D01*
X0054108Y0115978D02*
X0077783Y0115978D01*
X0077703Y0115379D02*
X0116267Y0115379D01*
X0116267Y0114781D02*
X0078130Y0114781D01*
X0078130Y0114182D02*
X0116267Y0114182D01*
X0116267Y0113584D02*
X0078130Y0113584D01*
X0077730Y0112985D02*
X0116267Y0112985D01*
X0116267Y0112387D02*
X0077730Y0112387D01*
X0077730Y0111788D02*
X0116267Y0111788D01*
X0116267Y0111190D02*
X0077730Y0111190D01*
X0077730Y0110591D02*
X0086199Y0110591D01*
X0087220Y0111014D02*
X0085153Y0110158D01*
X0083571Y0108576D01*
X0082715Y0106509D01*
X0082715Y0104271D01*
X0083571Y0102204D01*
X0085153Y0100622D01*
X0087220Y0099765D01*
X0089458Y0099765D01*
X0091525Y0100622D01*
X0093107Y0102204D01*
X0093963Y0104271D01*
X0093963Y0106509D01*
X0093107Y0108576D01*
X0091525Y0110158D01*
X0089458Y0111014D01*
X0087220Y0111014D01*
X0084988Y0109993D02*
X0077730Y0109993D01*
X0077730Y0109394D02*
X0084389Y0109394D01*
X0083791Y0108796D02*
X0077730Y0108796D01*
X0077730Y0108197D02*
X0083414Y0108197D01*
X0083166Y0107599D02*
X0077730Y0107599D01*
X0077730Y0107000D02*
X0082918Y0107000D01*
X0082715Y0106402D02*
X0077730Y0106402D01*
X0077730Y0105803D02*
X0082715Y0105803D01*
X0082715Y0105205D02*
X0077730Y0105205D01*
X0077730Y0104606D02*
X0082715Y0104606D01*
X0082824Y0104008D02*
X0077730Y0104008D01*
X0077730Y0103409D02*
X0083072Y0103409D01*
X0083320Y0102811D02*
X0077730Y0102811D01*
X0077730Y0102212D02*
X0083568Y0102212D01*
X0084161Y0101613D02*
X0077730Y0101613D01*
X0077730Y0101015D02*
X0084760Y0101015D01*
X0085648Y0100416D02*
X0077789Y0100416D01*
X0078387Y0099818D02*
X0087093Y0099818D01*
X0089585Y0099818D02*
X0102886Y0099818D01*
X0102862Y0099842D02*
X0104444Y0098259D01*
X0106512Y0097403D01*
X0108749Y0097403D01*
X0110816Y0098259D01*
X0112399Y0099842D01*
X0113255Y0101909D01*
X0113255Y0104146D01*
X0112399Y0106214D01*
X0110816Y0107796D01*
X0108749Y0108652D01*
X0106512Y0108652D01*
X0104444Y0107796D01*
X0102862Y0106214D01*
X0102006Y0104146D01*
X0102006Y0101909D01*
X0102862Y0099842D01*
X0102624Y0100416D02*
X0091030Y0100416D01*
X0091918Y0101015D02*
X0102376Y0101015D01*
X0102128Y0101613D02*
X0092517Y0101613D01*
X0093111Y0102212D02*
X0102006Y0102212D01*
X0102006Y0102811D02*
X0093359Y0102811D01*
X0093606Y0103409D02*
X0102006Y0103409D01*
X0102006Y0104008D02*
X0093854Y0104008D01*
X0093963Y0104606D02*
X0102196Y0104606D01*
X0102444Y0105205D02*
X0093963Y0105205D01*
X0093963Y0105803D02*
X0102692Y0105803D01*
X0103050Y0106402D02*
X0093963Y0106402D01*
X0093760Y0107000D02*
X0103649Y0107000D01*
X0104247Y0107599D02*
X0093512Y0107599D01*
X0093264Y0108197D02*
X0105414Y0108197D01*
X0109847Y0108197D02*
X0116267Y0108197D01*
X0116267Y0107599D02*
X0111014Y0107599D01*
X0111612Y0107000D02*
X0116267Y0107000D01*
X0116267Y0106402D02*
X0112211Y0106402D01*
X0112569Y0105803D02*
X0116267Y0105803D01*
X0116267Y0105205D02*
X0112817Y0105205D01*
X0113064Y0104606D02*
X0116267Y0104606D01*
X0116267Y0104008D02*
X0113255Y0104008D01*
X0113255Y0103409D02*
X0116267Y0103409D01*
X0116267Y0102811D02*
X0113255Y0102811D01*
X0113255Y0102212D02*
X0116267Y0102212D01*
X0116267Y0101613D02*
X0113133Y0101613D01*
X0112885Y0101015D02*
X0116267Y0101015D01*
X0116267Y0100416D02*
X0112637Y0100416D01*
X0112375Y0099818D02*
X0116267Y0099818D01*
X0116267Y0099219D02*
X0111776Y0099219D01*
X0111178Y0098621D02*
X0116267Y0098621D01*
X0116267Y0098022D02*
X0110244Y0098022D01*
X0108799Y0097424D02*
X0116267Y0097424D01*
X0116267Y0096825D02*
X0108629Y0096825D01*
X0109227Y0096227D02*
X0116267Y0096227D01*
X0116267Y0095628D02*
X0109826Y0095628D01*
X0110424Y0095030D02*
X0116267Y0095030D01*
X0116267Y0094431D02*
X0111023Y0094431D01*
X0111621Y0093833D02*
X0116267Y0093833D01*
X0116267Y0093234D02*
X0112067Y0093234D01*
X0112067Y0092636D02*
X0116267Y0092636D01*
X0116267Y0092037D02*
X0112067Y0092037D01*
X0112067Y0091439D02*
X0116267Y0091439D01*
X0116267Y0090840D02*
X0112067Y0090840D01*
X0112067Y0090242D02*
X0116267Y0090242D01*
X0116267Y0089643D02*
X0112067Y0089643D01*
X0112067Y0089045D02*
X0116267Y0089045D01*
X0116267Y0088446D02*
X0112067Y0088446D01*
X0112067Y0087848D02*
X0116267Y0087848D01*
X0116267Y0087249D02*
X0112067Y0087249D01*
X0112067Y0086651D02*
X0116267Y0086651D01*
X0116267Y0086052D02*
X0111662Y0086052D01*
X0111063Y0085454D02*
X0116267Y0085454D01*
X0116267Y0084855D02*
X0110465Y0084855D01*
X0109866Y0084257D02*
X0116267Y0084257D01*
X0116267Y0083658D02*
X0109409Y0083658D01*
X0109326Y0083060D02*
X0116267Y0083060D01*
X0116267Y0082461D02*
X0109326Y0082461D01*
X0109326Y0081863D02*
X0116267Y0081863D01*
X0116267Y0081264D02*
X0109326Y0081264D01*
X0109326Y0080666D02*
X0116267Y0080666D01*
X0116267Y0080067D02*
X0109326Y0080067D01*
X0109326Y0079469D02*
X0116267Y0079469D01*
X0116267Y0078870D02*
X0109326Y0078870D01*
X0109326Y0078272D02*
X0116267Y0078272D01*
X0116267Y0077673D02*
X0109326Y0077673D01*
X0109326Y0077075D02*
X0116267Y0077075D01*
X0116267Y0076476D02*
X0109845Y0076476D01*
X0109849Y0075877D02*
X0116267Y0075877D01*
X0116267Y0075279D02*
X0109849Y0075279D01*
X0109849Y0074680D02*
X0116267Y0074680D01*
X0116267Y0074082D02*
X0109849Y0074082D01*
X0109849Y0073483D02*
X0116267Y0073483D01*
X0116267Y0072885D02*
X0109450Y0072885D01*
X0109326Y0072286D02*
X0116267Y0072286D01*
X0116267Y0071688D02*
X0109326Y0071688D01*
X0109326Y0071089D02*
X0116267Y0071089D01*
X0116267Y0070491D02*
X0109326Y0070491D01*
X0109326Y0069892D02*
X0116267Y0069892D01*
X0116267Y0069294D02*
X0109326Y0069294D01*
X0109326Y0068695D02*
X0116267Y0068695D01*
X0116267Y0068097D02*
X0109030Y0068097D01*
X0108431Y0067498D02*
X0116267Y0067498D01*
X0116267Y0066900D02*
X0107833Y0066900D01*
X0107234Y0066301D02*
X0116267Y0066301D01*
X0116267Y0065703D02*
X0108678Y0065703D01*
X0108630Y0065751D02*
X0107222Y0065751D01*
X0106226Y0064755D01*
X0106226Y0063347D01*
X0106426Y0063147D01*
X0106426Y0063022D01*
X0106332Y0063022D01*
X0105805Y0062495D01*
X0105805Y0059308D01*
X0105984Y0059130D01*
X0105805Y0058952D01*
X0105805Y0055765D01*
X0106332Y0055238D01*
X0106426Y0055238D01*
X0106426Y0055113D01*
X0106226Y0054913D01*
X0106226Y0053505D01*
X0107222Y0052509D01*
X0108630Y0052509D01*
X0109626Y0053505D01*
X0109626Y0054913D01*
X0109426Y0055113D01*
X0109426Y0055238D01*
X0109519Y0055238D01*
X0110046Y0055765D01*
X0110046Y0058952D01*
X0109868Y0059130D01*
X0110046Y0059308D01*
X0110046Y0062495D01*
X0109519Y0063022D01*
X0109426Y0063022D01*
X0109426Y0063147D01*
X0109626Y0063347D01*
X0109626Y0064755D01*
X0108630Y0065751D01*
X0109277Y0065104D02*
X0116267Y0065104D01*
X0116267Y0064506D02*
X0109626Y0064506D01*
X0109626Y0063907D02*
X0116267Y0063907D01*
X0116267Y0063309D02*
X0109587Y0063309D01*
X0109831Y0062710D02*
X0116267Y0062710D01*
X0116267Y0062112D02*
X0110046Y0062112D01*
X0110046Y0061513D02*
X0116267Y0061513D01*
X0116267Y0060915D02*
X0110046Y0060915D01*
X0110046Y0060316D02*
X0116267Y0060316D01*
X0116267Y0059718D02*
X0110046Y0059718D01*
X0109879Y0059119D02*
X0116267Y0059119D01*
X0116267Y0058521D02*
X0110046Y0058521D01*
X0110046Y0057922D02*
X0116267Y0057922D01*
X0116267Y0057324D02*
X0110046Y0057324D01*
X0110046Y0056725D02*
X0116267Y0056725D01*
X0116267Y0056127D02*
X0110046Y0056127D01*
X0109809Y0055528D02*
X0116267Y0055528D01*
X0116267Y0054930D02*
X0109609Y0054930D01*
X0109626Y0054331D02*
X0116267Y0054331D01*
X0116267Y0053733D02*
X0109626Y0053733D01*
X0109255Y0053134D02*
X0116267Y0053134D01*
X0116267Y0052536D02*
X0108657Y0052536D01*
X0107195Y0052536D02*
X0100783Y0052536D01*
X0101658Y0053134D02*
X0106596Y0053134D01*
X0106226Y0053733D02*
X0102257Y0053733D01*
X0102855Y0054331D02*
X0106226Y0054331D01*
X0106242Y0054930D02*
X0103220Y0054930D01*
X0103904Y0055528D02*
X0106042Y0055528D01*
X0105805Y0056127D02*
X0104141Y0056127D01*
X0104141Y0056725D02*
X0105805Y0056725D01*
X0105805Y0057324D02*
X0104141Y0057324D01*
X0104141Y0057922D02*
X0105805Y0057922D01*
X0105805Y0058521D02*
X0104141Y0058521D01*
X0103973Y0059119D02*
X0105973Y0059119D01*
X0105805Y0059718D02*
X0104141Y0059718D01*
X0104141Y0060316D02*
X0105805Y0060316D01*
X0105805Y0060915D02*
X0104141Y0060915D01*
X0104141Y0061513D02*
X0105805Y0061513D01*
X0105805Y0062112D02*
X0104141Y0062112D01*
X0103925Y0062710D02*
X0106021Y0062710D01*
X0106264Y0063309D02*
X0103220Y0063309D01*
X0103220Y0063907D02*
X0106226Y0063907D01*
X0106226Y0064506D02*
X0103220Y0064506D01*
X0102020Y0066020D02*
X0102020Y0060902D01*
X0102020Y0057358D02*
X0102020Y0055193D01*
X0101036Y0054209D01*
X0100052Y0054209D01*
X0099321Y0052536D02*
X0099091Y0052536D01*
X0098493Y0051937D02*
X0116267Y0051937D01*
X0116267Y0051339D02*
X0097894Y0051339D01*
X0097099Y0052240D02*
X0092178Y0052240D01*
X0092375Y0050740D02*
X0116267Y0050740D01*
X0116267Y0050142D02*
X0091776Y0050142D01*
X0091178Y0049543D02*
X0116267Y0049543D01*
X0116267Y0048944D02*
X0087626Y0048944D01*
X0087028Y0048346D02*
X0116267Y0048346D01*
X0116267Y0047747D02*
X0086429Y0047747D01*
X0085831Y0047149D02*
X0116267Y0047149D01*
X0116267Y0046550D02*
X0085232Y0046550D01*
X0084634Y0045952D02*
X0116267Y0045952D01*
X0116267Y0045353D02*
X0084035Y0045353D01*
X0083437Y0044755D02*
X0116267Y0044755D01*
X0116267Y0044156D02*
X0082838Y0044156D01*
X0082240Y0043558D02*
X0116267Y0043558D01*
X0116267Y0042959D02*
X0076550Y0042959D01*
X0076936Y0042361D02*
X0116267Y0042361D01*
X0116267Y0041762D02*
X0076936Y0041762D01*
X0076936Y0041164D02*
X0116267Y0041164D01*
X0116267Y0040565D02*
X0076936Y0040565D01*
X0076936Y0039967D02*
X0116267Y0039967D01*
X0116267Y0039368D02*
X0076936Y0039368D01*
X0076936Y0039839D02*
X0075446Y0039839D01*
X0076936Y0039839D01*
X0076936Y0038770D02*
X0077277Y0038770D01*
X0075446Y0039839D02*
X0075446Y0039839D01*
X0082688Y0051339D02*
X0083673Y0051339D01*
X0083075Y0050740D02*
X0083051Y0050740D01*
X0082090Y0051937D02*
X0084272Y0051937D01*
X0084004Y0055528D02*
X0084604Y0055528D01*
X0084604Y0056127D02*
X0084004Y0056127D01*
X0082420Y0055528D02*
X0080282Y0055528D01*
X0080519Y0056127D02*
X0082183Y0056127D01*
X0082183Y0056725D02*
X0080519Y0056725D01*
X0078398Y0057358D02*
X0078398Y0053224D01*
X0082663Y0065703D02*
X0085944Y0065703D01*
X0086542Y0066301D02*
X0082065Y0066301D01*
X0081466Y0066900D02*
X0087141Y0066900D01*
X0085832Y0068097D02*
X0105070Y0068097D01*
X0104472Y0067498D02*
X0085234Y0067498D01*
X0086004Y0068695D02*
X0090972Y0068695D01*
X0090478Y0069294D02*
X0086004Y0069294D01*
X0085788Y0069892D02*
X0090478Y0069892D01*
X0090478Y0070491D02*
X0085189Y0070491D01*
X0084025Y0071089D02*
X0090969Y0071089D01*
X0093043Y0071688D02*
X0083427Y0071688D01*
X0082828Y0072286D02*
X0093043Y0072286D01*
X0092622Y0072885D02*
X0082230Y0072885D01*
X0081667Y0073483D02*
X0092223Y0073483D01*
X0092223Y0074082D02*
X0081667Y0074082D01*
X0081667Y0074680D02*
X0092223Y0074680D01*
X0092223Y0075279D02*
X0081667Y0075279D01*
X0081667Y0075877D02*
X0092223Y0075877D01*
X0092227Y0076476D02*
X0081667Y0076476D01*
X0081667Y0077075D02*
X0089417Y0077075D01*
X0089073Y0077673D02*
X0081667Y0077673D01*
X0081667Y0078272D02*
X0089073Y0078272D01*
X0089073Y0078870D02*
X0081667Y0078870D01*
X0081667Y0079469D02*
X0089073Y0079469D01*
X0089073Y0080067D02*
X0081667Y0080067D01*
X0081667Y0080666D02*
X0089133Y0080666D01*
X0089073Y0081264D02*
X0081667Y0081264D01*
X0081667Y0081863D02*
X0089073Y0081863D01*
X0089073Y0082855D02*
X0090893Y0082855D01*
X0090893Y0084676D01*
X0089794Y0084676D01*
X0089463Y0084539D01*
X0089210Y0084285D01*
X0089073Y0083955D01*
X0089073Y0082855D01*
X0089073Y0083060D02*
X0085047Y0083060D01*
X0085645Y0083658D02*
X0089073Y0083658D01*
X0089198Y0084257D02*
X0086004Y0084257D01*
X0086004Y0084855D02*
X0093049Y0084855D01*
X0092924Y0084539D02*
X0092593Y0084676D01*
X0091493Y0084676D01*
X0091493Y0082855D01*
X0093314Y0082855D01*
X0093314Y0083955D01*
X0093177Y0084285D01*
X0092924Y0084539D01*
X0093189Y0084257D02*
X0093534Y0084257D01*
X0093314Y0083658D02*
X0106442Y0083658D01*
X0106526Y0083060D02*
X0093314Y0083060D01*
X0093314Y0081863D02*
X0106526Y0081863D01*
X0106526Y0082461D02*
X0091493Y0082461D01*
X0091493Y0083060D02*
X0090893Y0083060D01*
X0090893Y0083658D02*
X0091493Y0083658D01*
X0091493Y0084257D02*
X0090893Y0084257D01*
X0091378Y0085454D02*
X0085975Y0085454D01*
X0085376Y0086052D02*
X0090779Y0086052D01*
X0090181Y0086651D02*
X0084212Y0086651D01*
X0083613Y0087249D02*
X0090090Y0087249D01*
X0090090Y0087848D02*
X0083015Y0087848D01*
X0082416Y0088446D02*
X0090090Y0088446D01*
X0089270Y0089045D02*
X0081818Y0089045D01*
X0081219Y0089643D02*
X0084885Y0089643D01*
X0084286Y0090242D02*
X0080621Y0090242D01*
X0080022Y0090840D02*
X0083688Y0090840D01*
X0083089Y0091439D02*
X0079424Y0091439D01*
X0078825Y0092037D02*
X0082491Y0092037D01*
X0081892Y0092636D02*
X0078227Y0092636D01*
X0077628Y0093234D02*
X0081294Y0093234D01*
X0080695Y0093833D02*
X0077030Y0093833D01*
X0078900Y0095628D02*
X0066376Y0095628D01*
X0066974Y0095030D02*
X0079498Y0095030D01*
X0080097Y0094431D02*
X0067573Y0094431D01*
X0067022Y0096227D02*
X0065777Y0096227D01*
X0065179Y0096825D02*
X0066423Y0096825D01*
X0066271Y0097424D02*
X0064580Y0097424D01*
X0063982Y0098022D02*
X0065516Y0098022D01*
X0065451Y0098621D02*
X0063950Y0098621D01*
X0063950Y0099219D02*
X0065451Y0099219D01*
X0065451Y0099818D02*
X0063950Y0099818D01*
X0063950Y0100416D02*
X0065451Y0100416D01*
X0065451Y0101015D02*
X0063950Y0101015D01*
X0063950Y0101613D02*
X0065469Y0101613D01*
X0065451Y0102212D02*
X0063950Y0102212D01*
X0063950Y0102811D02*
X0065451Y0102811D01*
X0065451Y0103409D02*
X0063950Y0103409D01*
X0063902Y0104008D02*
X0065451Y0104008D01*
X0065451Y0104606D02*
X0063304Y0104606D01*
X0062705Y0105205D02*
X0065838Y0105205D01*
X0066271Y0105803D02*
X0062107Y0105803D01*
X0061508Y0106402D02*
X0066745Y0106402D01*
X0062242Y0111190D02*
X0061483Y0111190D01*
X0061483Y0111788D02*
X0062242Y0111788D01*
X0062242Y0112387D02*
X0061483Y0112387D01*
X0061288Y0112985D02*
X0062437Y0112985D01*
X0066068Y0113584D02*
X0054108Y0113584D01*
X0054108Y0114182D02*
X0066068Y0114182D01*
X0066068Y0114781D02*
X0054108Y0114781D01*
X0054108Y0115379D02*
X0066495Y0115379D01*
X0067716Y0117175D02*
X0067821Y0117175D01*
X0064277Y0117175D02*
X0054108Y0117175D01*
X0054108Y0117773D02*
X0063876Y0117773D01*
X0066149Y0125554D02*
X0075267Y0125554D01*
X0075866Y0126152D02*
X0066747Y0126152D01*
X0066174Y0125579D02*
X0066174Y0125579D01*
X0067912Y0126751D02*
X0071562Y0126751D01*
X0070989Y0127349D02*
X0068484Y0127349D01*
X0068484Y0127948D02*
X0070989Y0127948D01*
X0070989Y0128546D02*
X0068484Y0128546D01*
X0068071Y0129145D02*
X0071403Y0129145D01*
X0069676Y0130342D02*
X0073680Y0130342D01*
X0073155Y0130941D02*
X0070274Y0130941D01*
X0070552Y0131539D02*
X0073155Y0131539D01*
X0073155Y0132138D02*
X0070552Y0132138D01*
X0070527Y0132736D02*
X0073616Y0132736D01*
X0073443Y0133335D02*
X0069928Y0133335D01*
X0067920Y0134305D02*
X0067783Y0133974D01*
X0067742Y0133933D01*
X0067920Y0135130D02*
X0073254Y0135130D01*
X0073853Y0135729D02*
X0066100Y0135729D01*
X0066100Y0136327D02*
X0065500Y0136327D01*
X0065500Y0135729D02*
X0034467Y0135729D01*
X0034467Y0136327D02*
X0063679Y0136327D01*
X0063679Y0136926D02*
X0034467Y0136926D01*
X0034467Y0137524D02*
X0063905Y0137524D01*
X0065500Y0137524D02*
X0066100Y0137524D01*
X0066100Y0136926D02*
X0065500Y0136926D01*
X0067694Y0137524D02*
X0077092Y0137524D01*
X0077092Y0136926D02*
X0067920Y0136926D01*
X0067920Y0136327D02*
X0077537Y0136327D01*
X0078684Y0135729D02*
X0075857Y0135729D01*
X0076456Y0135130D02*
X0078086Y0135130D01*
X0078494Y0133842D02*
X0078450Y0133800D01*
X0078404Y0133762D01*
X0078355Y0133726D01*
X0078304Y0133693D01*
X0078252Y0133664D01*
X0078197Y0133637D01*
X0078142Y0133614D01*
X0078085Y0133594D01*
X0078026Y0133578D01*
X0077967Y0133565D01*
X0077908Y0133556D01*
X0077847Y0133551D01*
X0077787Y0133549D01*
X0076047Y0133549D01*
X0075340Y0133842D02*
X0074855Y0134327D01*
X0075340Y0133842D02*
X0075384Y0133800D01*
X0075430Y0133762D01*
X0075479Y0133726D01*
X0075530Y0133693D01*
X0075582Y0133664D01*
X0075637Y0133637D01*
X0075692Y0133614D01*
X0075749Y0133594D01*
X0075808Y0133578D01*
X0075867Y0133565D01*
X0075926Y0133556D01*
X0075987Y0133551D01*
X0076047Y0133549D01*
X0076047Y0132349D02*
X0077787Y0132349D01*
X0078494Y0132056D02*
X0079277Y0131273D01*
X0079984Y0130980D02*
X0084402Y0130980D01*
X0084402Y0132949D02*
X0084402Y0132949D01*
X0084402Y0132949D01*
X0079762Y0132949D01*
X0079762Y0133412D01*
X0079694Y0133345D01*
X0079694Y0133345D01*
X0079343Y0132993D01*
X0079298Y0132949D01*
X0079367Y0132880D01*
X0079694Y0132553D01*
X0079694Y0132553D01*
X0079762Y0132485D01*
X0079762Y0132949D01*
X0084402Y0132949D01*
X0089042Y0132949D01*
X0084402Y0132949D01*
X0084402Y0134917D02*
X0079984Y0134917D01*
X0079277Y0134624D02*
X0078494Y0133842D01*
X0079684Y0133335D02*
X0079762Y0133335D01*
X0079762Y0132736D02*
X0079511Y0132736D01*
X0079277Y0131273D02*
X0079321Y0131231D01*
X0079367Y0131193D01*
X0079416Y0131157D01*
X0079467Y0131124D01*
X0079519Y0131095D01*
X0079574Y0131068D01*
X0079629Y0131045D01*
X0079686Y0131025D01*
X0079745Y0131009D01*
X0079804Y0130996D01*
X0079863Y0130987D01*
X0079924Y0130982D01*
X0079984Y0130980D01*
X0078511Y0130342D02*
X0076030Y0130342D01*
X0076555Y0130941D02*
X0077913Y0130941D01*
X0078077Y0130776D02*
X0078077Y0130776D01*
X0078494Y0132056D02*
X0078450Y0132098D01*
X0078404Y0132136D01*
X0078355Y0132172D01*
X0078304Y0132205D01*
X0078252Y0132234D01*
X0078197Y0132261D01*
X0078142Y0132284D01*
X0078085Y0132304D01*
X0078026Y0132320D01*
X0077967Y0132333D01*
X0077908Y0132342D01*
X0077847Y0132347D01*
X0077787Y0132349D01*
X0076047Y0132349D02*
X0075987Y0132347D01*
X0075926Y0132342D01*
X0075867Y0132333D01*
X0075808Y0132320D01*
X0075749Y0132304D01*
X0075692Y0132284D01*
X0075637Y0132261D01*
X0075582Y0132234D01*
X0075530Y0132205D01*
X0075479Y0132172D01*
X0075430Y0132136D01*
X0075384Y0132098D01*
X0075340Y0132056D01*
X0074855Y0131571D01*
X0077980Y0129744D02*
X0067185Y0129744D01*
X0067694Y0130342D02*
X0067829Y0130342D01*
X0063905Y0130342D02*
X0034467Y0130342D01*
X0034467Y0130941D02*
X0063679Y0130941D01*
X0063679Y0131539D02*
X0034467Y0131539D01*
X0034467Y0132138D02*
X0063679Y0132138D01*
X0063679Y0132736D02*
X0034467Y0132736D01*
X0034467Y0133335D02*
X0063679Y0133335D01*
X0063858Y0133933D02*
X0034467Y0133933D01*
X0034467Y0134532D02*
X0063679Y0134532D01*
X0063679Y0135130D02*
X0034467Y0135130D01*
X0034467Y0138123D02*
X0077092Y0138123D01*
X0077632Y0138721D02*
X0034467Y0138721D01*
X0034467Y0139320D02*
X0077300Y0139320D01*
X0077092Y0139918D02*
X0034467Y0139918D01*
X0034467Y0140517D02*
X0077092Y0140517D01*
X0077271Y0141115D02*
X0034467Y0141115D01*
X0034467Y0141714D02*
X0074119Y0141714D01*
X0073520Y0142312D02*
X0034467Y0142312D01*
X0034467Y0142911D02*
X0073155Y0142911D01*
X0073155Y0143509D02*
X0034467Y0143509D01*
X0034467Y0144108D02*
X0073177Y0144108D01*
X0073775Y0144706D02*
X0034467Y0144706D01*
X0034467Y0145305D02*
X0073284Y0145305D01*
X0073155Y0145903D02*
X0053696Y0145903D01*
X0053750Y0145926D02*
X0054004Y0146179D01*
X0054141Y0146510D01*
X0054141Y0147609D01*
X0052320Y0147609D01*
X0052320Y0145789D01*
X0053420Y0145789D01*
X0053750Y0145926D01*
X0054137Y0146502D02*
X0073155Y0146502D01*
X0073413Y0147100D02*
X0054141Y0147100D01*
X0054141Y0148209D02*
X0054141Y0149309D01*
X0054004Y0149640D01*
X0053962Y0149681D01*
X0054141Y0149860D01*
X0054141Y0153046D01*
X0053613Y0153573D01*
X0053520Y0153573D01*
X0053520Y0154541D01*
X0053820Y0154841D01*
X0053820Y0155855D01*
X0054693Y0155855D01*
X0055689Y0156851D01*
X0055689Y0157824D01*
X0056661Y0157824D01*
X0057657Y0158819D01*
X0057657Y0160228D01*
X0057257Y0160628D01*
X0057257Y0168040D01*
X0065157Y0175940D01*
X0078937Y0175940D01*
X0084442Y0181446D01*
X0085008Y0181446D01*
X0086004Y0182442D01*
X0086004Y0183850D01*
X0085008Y0184846D01*
X0083599Y0184846D01*
X0082604Y0183850D01*
X0082604Y0183284D01*
X0081667Y0182347D01*
X0081667Y0194418D01*
X0084442Y0197194D01*
X0085008Y0197194D01*
X0086004Y0198190D01*
X0086004Y0199598D01*
X0085008Y0200594D01*
X0083599Y0200594D01*
X0082604Y0199598D01*
X0082604Y0199032D01*
X0079067Y0195495D01*
X0079067Y0182700D01*
X0076875Y0180509D01*
X0063096Y0180509D01*
X0062334Y0179747D01*
X0052689Y0170101D01*
X0052689Y0158659D01*
X0052289Y0158259D01*
X0052289Y0157387D01*
X0051275Y0157387D01*
X0050220Y0156332D01*
X0050220Y0154841D01*
X0050520Y0154541D01*
X0050520Y0153573D01*
X0050427Y0153573D01*
X0050058Y0153204D01*
X0049813Y0153450D01*
X0048322Y0153450D01*
X0047267Y0152395D01*
X0047267Y0150904D01*
X0048322Y0149850D01*
X0049813Y0149850D01*
X0049900Y0149936D01*
X0049900Y0149860D01*
X0050078Y0149681D01*
X0050037Y0149640D01*
X0049900Y0149309D01*
X0049900Y0148209D01*
X0051720Y0148209D01*
X0051720Y0147609D01*
X0052320Y0147609D01*
X0052320Y0148209D01*
X0054141Y0148209D01*
X0054141Y0148297D02*
X0077378Y0148297D01*
X0077092Y0148896D02*
X0054141Y0148896D01*
X0054064Y0149494D02*
X0077092Y0149494D01*
X0077193Y0150093D02*
X0054141Y0150093D01*
X0054141Y0150691D02*
X0077740Y0150691D01*
X0077141Y0151290D02*
X0054141Y0151290D01*
X0054141Y0151888D02*
X0077092Y0151888D01*
X0077092Y0152487D02*
X0054141Y0152487D01*
X0054101Y0153085D02*
X0077430Y0153085D01*
X0078028Y0153684D02*
X0053520Y0153684D01*
X0053520Y0154282D02*
X0097549Y0154282D01*
X0097137Y0154694D02*
X0100524Y0151307D01*
X0100608Y0151206D01*
X0100707Y0150965D01*
X0100720Y0150834D01*
X0100720Y0150785D01*
X0100320Y0150385D01*
X0100320Y0148977D01*
X0101316Y0147981D01*
X0102724Y0147981D01*
X0103720Y0148977D01*
X0103720Y0150385D01*
X0103320Y0150785D01*
X0103320Y0151464D01*
X0104328Y0150456D01*
X0104257Y0150385D01*
X0104257Y0148977D01*
X0105253Y0147981D01*
X0106661Y0147981D01*
X0107657Y0148977D01*
X0107657Y0150385D01*
X0107056Y0150987D01*
X0106760Y0151701D01*
X0106760Y0151701D01*
X0106681Y0151780D01*
X0106681Y0151780D01*
X0100367Y0158094D01*
X0100367Y0181346D01*
X0100377Y0181446D01*
X0100756Y0181446D01*
X0101752Y0182442D01*
X0101752Y0183850D01*
X0100756Y0184846D01*
X0099348Y0184846D01*
X0098399Y0183897D01*
X0098399Y0195126D01*
X0098412Y0195256D01*
X0098512Y0195497D01*
X0098595Y0195598D01*
X0100190Y0197194D01*
X0100756Y0197194D01*
X0101752Y0198190D01*
X0101752Y0199598D01*
X0100756Y0200594D01*
X0099348Y0200594D01*
X0098352Y0199598D01*
X0098352Y0199032D01*
X0096376Y0197056D01*
X0096297Y0196977D01*
X0095799Y0195776D01*
X0095799Y0156736D01*
X0096297Y0155535D01*
X0096297Y0155535D01*
X0096376Y0155456D01*
X0096780Y0155051D01*
X0097137Y0154694D01*
X0096950Y0154881D02*
X0053820Y0154881D01*
X0053820Y0155480D02*
X0096352Y0155480D01*
X0096072Y0156078D02*
X0054916Y0156078D01*
X0055514Y0156677D02*
X0095824Y0156677D01*
X0095799Y0157275D02*
X0090479Y0157275D01*
X0089458Y0156852D02*
X0091525Y0157708D01*
X0093107Y0159290D01*
X0093963Y0161358D01*
X0093963Y0163595D01*
X0093107Y0165662D01*
X0091525Y0167245D01*
X0089458Y0168101D01*
X0087220Y0168101D01*
X0085153Y0167245D01*
X0083571Y0165662D01*
X0082715Y0163595D01*
X0082715Y0161358D01*
X0083571Y0159290D01*
X0085153Y0157708D01*
X0087220Y0156852D01*
X0089458Y0156852D01*
X0091690Y0157874D02*
X0095799Y0157874D01*
X0095799Y0158472D02*
X0092289Y0158472D01*
X0092887Y0159071D02*
X0095799Y0159071D01*
X0095799Y0159669D02*
X0093264Y0159669D01*
X0093512Y0160268D02*
X0095799Y0160268D01*
X0095799Y0160866D02*
X0093760Y0160866D01*
X0093963Y0161465D02*
X0095799Y0161465D01*
X0095799Y0162063D02*
X0093963Y0162063D01*
X0093963Y0162662D02*
X0095799Y0162662D01*
X0095799Y0163260D02*
X0093963Y0163260D01*
X0093854Y0163859D02*
X0095799Y0163859D01*
X0095799Y0164457D02*
X0093606Y0164457D01*
X0093359Y0165056D02*
X0095799Y0165056D01*
X0095799Y0165654D02*
X0093111Y0165654D01*
X0092517Y0166253D02*
X0095799Y0166253D01*
X0095799Y0166851D02*
X0091918Y0166851D01*
X0091030Y0167450D02*
X0095799Y0167450D01*
X0095799Y0168048D02*
X0089585Y0168048D01*
X0087093Y0168048D02*
X0068871Y0168048D01*
X0068871Y0167450D02*
X0085649Y0167450D01*
X0084760Y0166851D02*
X0068871Y0166851D01*
X0068871Y0166253D02*
X0084161Y0166253D01*
X0083568Y0165654D02*
X0068871Y0165654D01*
X0068871Y0165056D02*
X0083320Y0165056D01*
X0083072Y0164457D02*
X0068871Y0164457D01*
X0068871Y0163859D02*
X0082824Y0163859D01*
X0082715Y0163260D02*
X0068871Y0163260D01*
X0068871Y0162662D02*
X0082715Y0162662D01*
X0082715Y0162063D02*
X0068871Y0162063D01*
X0068871Y0161465D02*
X0082715Y0161465D01*
X0082918Y0160866D02*
X0068871Y0160866D01*
X0068871Y0160628D02*
X0068871Y0168828D01*
X0070078Y0170035D01*
X0080905Y0170035D01*
X0092316Y0181446D01*
X0092882Y0181446D01*
X0093878Y0182442D01*
X0093878Y0183850D01*
X0092882Y0184846D01*
X0091474Y0184846D01*
X0090478Y0183850D01*
X0090478Y0183284D01*
X0089541Y0182347D01*
X0089541Y0194418D01*
X0092316Y0197194D01*
X0092882Y0197194D01*
X0093878Y0198190D01*
X0093878Y0199598D01*
X0092882Y0200594D01*
X0091474Y0200594D01*
X0090478Y0199598D01*
X0090478Y0199032D01*
X0086941Y0195495D01*
X0086941Y0182700D01*
X0078844Y0174603D01*
X0068017Y0174603D01*
X0067256Y0173842D01*
X0067256Y0173842D01*
X0063096Y0169682D01*
X0063096Y0169682D01*
X0062334Y0168920D01*
X0062334Y0160628D01*
X0061934Y0160228D01*
X0061934Y0158819D01*
X0062930Y0157824D01*
X0064339Y0157824D01*
X0065334Y0158819D01*
X0065334Y0160228D01*
X0064934Y0160628D01*
X0064934Y0164517D01*
X0066271Y0164517D01*
X0066271Y0160628D01*
X0065871Y0160228D01*
X0065871Y0158819D01*
X0066867Y0157824D01*
X0068276Y0157824D01*
X0069271Y0158819D01*
X0069271Y0160228D01*
X0068871Y0160628D01*
X0069232Y0160268D02*
X0083166Y0160268D01*
X0083414Y0159669D02*
X0069271Y0159669D01*
X0069271Y0159071D02*
X0083791Y0159071D01*
X0084389Y0158472D02*
X0068924Y0158472D01*
X0068325Y0157874D02*
X0084988Y0157874D01*
X0086199Y0157275D02*
X0055689Y0157275D01*
X0056711Y0157874D02*
X0062880Y0157874D01*
X0062282Y0158472D02*
X0057310Y0158472D01*
X0057657Y0159071D02*
X0061934Y0159071D01*
X0061934Y0159669D02*
X0057657Y0159669D01*
X0057617Y0160268D02*
X0061974Y0160268D01*
X0062334Y0160866D02*
X0057257Y0160866D01*
X0057257Y0161465D02*
X0062334Y0161465D01*
X0062334Y0162063D02*
X0057257Y0162063D01*
X0057257Y0162662D02*
X0062334Y0162662D01*
X0062334Y0163260D02*
X0057257Y0163260D01*
X0057257Y0163859D02*
X0062334Y0163859D01*
X0062334Y0164457D02*
X0057257Y0164457D01*
X0057257Y0165056D02*
X0062334Y0165056D01*
X0062334Y0165654D02*
X0057257Y0165654D01*
X0057257Y0166253D02*
X0062334Y0166253D01*
X0062334Y0166851D02*
X0057257Y0166851D01*
X0057257Y0167450D02*
X0062334Y0167450D01*
X0062334Y0168048D02*
X0057265Y0168048D01*
X0057864Y0168647D02*
X0062334Y0168647D01*
X0062659Y0169245D02*
X0058462Y0169245D01*
X0059061Y0169844D02*
X0063258Y0169844D01*
X0063856Y0170442D02*
X0059659Y0170442D01*
X0060258Y0171041D02*
X0064455Y0171041D01*
X0065053Y0171639D02*
X0060856Y0171639D01*
X0061455Y0172238D02*
X0065652Y0172238D01*
X0066250Y0172836D02*
X0062053Y0172836D01*
X0062652Y0173435D02*
X0066849Y0173435D01*
X0067447Y0174033D02*
X0063250Y0174033D01*
X0063849Y0174632D02*
X0078873Y0174632D01*
X0079471Y0175230D02*
X0064447Y0175230D01*
X0065046Y0175829D02*
X0080070Y0175829D01*
X0080668Y0176427D02*
X0079424Y0176427D01*
X0080022Y0177026D02*
X0081267Y0177026D01*
X0081865Y0177624D02*
X0080621Y0177624D01*
X0081219Y0178223D02*
X0082464Y0178223D01*
X0083062Y0178821D02*
X0081818Y0178821D01*
X0082416Y0179420D02*
X0083661Y0179420D01*
X0084259Y0180018D02*
X0083015Y0180018D01*
X0083613Y0180617D02*
X0084858Y0180617D01*
X0085456Y0181215D02*
X0084212Y0181215D01*
X0085376Y0181814D02*
X0086055Y0181814D01*
X0085975Y0182413D02*
X0086653Y0182413D01*
X0086941Y0183011D02*
X0086004Y0183011D01*
X0086004Y0183610D02*
X0086941Y0183610D01*
X0086941Y0184208D02*
X0085645Y0184208D01*
X0085047Y0184807D02*
X0086941Y0184807D01*
X0086941Y0185405D02*
X0081667Y0185405D01*
X0081667Y0184807D02*
X0083560Y0184807D01*
X0082962Y0184208D02*
X0081667Y0184208D01*
X0081667Y0183610D02*
X0082604Y0183610D01*
X0082331Y0183011D02*
X0081667Y0183011D01*
X0081667Y0182413D02*
X0081732Y0182413D01*
X0081667Y0186004D02*
X0086941Y0186004D01*
X0086941Y0186602D02*
X0081667Y0186602D01*
X0081667Y0187201D02*
X0086941Y0187201D01*
X0086941Y0187799D02*
X0081667Y0187799D01*
X0081667Y0188398D02*
X0086941Y0188398D01*
X0086941Y0188996D02*
X0081667Y0188996D01*
X0081667Y0189595D02*
X0086941Y0189595D01*
X0086941Y0190193D02*
X0081667Y0190193D01*
X0081667Y0190792D02*
X0086941Y0190792D01*
X0086941Y0191390D02*
X0081667Y0191390D01*
X0081667Y0191989D02*
X0086941Y0191989D01*
X0086941Y0192587D02*
X0081667Y0192587D01*
X0081667Y0193186D02*
X0086941Y0193186D01*
X0086941Y0193784D02*
X0081667Y0193784D01*
X0081667Y0194383D02*
X0086941Y0194383D01*
X0086941Y0194981D02*
X0082230Y0194981D01*
X0082828Y0195580D02*
X0087025Y0195580D01*
X0087624Y0196178D02*
X0083427Y0196178D01*
X0084025Y0196777D02*
X0088222Y0196777D01*
X0088821Y0197375D02*
X0085189Y0197375D01*
X0085788Y0197974D02*
X0089419Y0197974D01*
X0090018Y0198572D02*
X0086004Y0198572D01*
X0086004Y0199171D02*
X0090478Y0199171D01*
X0090649Y0199769D02*
X0085832Y0199769D01*
X0085234Y0200368D02*
X0091248Y0200368D01*
X0093108Y0200368D02*
X0099122Y0200368D01*
X0098523Y0199769D02*
X0093706Y0199769D01*
X0093878Y0199171D02*
X0098352Y0199171D01*
X0097892Y0198572D02*
X0093878Y0198572D01*
X0093662Y0197974D02*
X0097293Y0197974D01*
X0096695Y0197375D02*
X0093063Y0197375D01*
X0091899Y0196777D02*
X0096214Y0196777D01*
X0096297Y0196977D02*
X0096297Y0196977D01*
X0096376Y0197056D02*
X0096376Y0197056D01*
X0095966Y0196178D02*
X0091301Y0196178D01*
X0090702Y0195580D02*
X0095799Y0195580D01*
X0095799Y0194981D02*
X0090104Y0194981D01*
X0089541Y0194383D02*
X0095799Y0194383D01*
X0095799Y0193784D02*
X0089541Y0193784D01*
X0089541Y0193186D02*
X0095799Y0193186D01*
X0095799Y0192587D02*
X0089541Y0192587D01*
X0089541Y0191989D02*
X0095799Y0191989D01*
X0095799Y0191390D02*
X0089541Y0191390D01*
X0089541Y0190792D02*
X0095799Y0190792D01*
X0095799Y0190193D02*
X0089541Y0190193D01*
X0089541Y0189595D02*
X0095799Y0189595D01*
X0095799Y0188996D02*
X0089541Y0188996D01*
X0089541Y0188398D02*
X0095799Y0188398D01*
X0095799Y0187799D02*
X0089541Y0187799D01*
X0089541Y0187201D02*
X0095799Y0187201D01*
X0095799Y0186602D02*
X0089541Y0186602D01*
X0089541Y0186004D02*
X0095799Y0186004D01*
X0095799Y0185405D02*
X0089541Y0185405D01*
X0089541Y0184807D02*
X0091434Y0184807D01*
X0090836Y0184208D02*
X0089541Y0184208D01*
X0089541Y0183610D02*
X0090478Y0183610D01*
X0090205Y0183011D02*
X0089541Y0183011D01*
X0089541Y0182413D02*
X0089606Y0182413D01*
X0091487Y0180617D02*
X0095799Y0180617D01*
X0095799Y0181215D02*
X0092086Y0181215D01*
X0093250Y0181814D02*
X0095799Y0181814D01*
X0095799Y0182413D02*
X0093849Y0182413D01*
X0093878Y0183011D02*
X0095799Y0183011D01*
X0095799Y0183610D02*
X0093878Y0183610D01*
X0093519Y0184208D02*
X0095799Y0184208D01*
X0095799Y0184807D02*
X0092921Y0184807D01*
X0090889Y0180018D02*
X0095799Y0180018D01*
X0095799Y0179420D02*
X0090290Y0179420D01*
X0089692Y0178821D02*
X0095799Y0178821D01*
X0095799Y0178223D02*
X0089093Y0178223D01*
X0088495Y0177624D02*
X0095799Y0177624D01*
X0095799Y0177026D02*
X0087896Y0177026D01*
X0087298Y0176427D02*
X0095799Y0176427D01*
X0095799Y0175829D02*
X0086699Y0175829D01*
X0086101Y0175230D02*
X0095799Y0175230D01*
X0095799Y0174632D02*
X0085502Y0174632D01*
X0084904Y0174033D02*
X0095799Y0174033D01*
X0095799Y0173435D02*
X0084305Y0173435D01*
X0083707Y0172836D02*
X0095799Y0172836D01*
X0095799Y0172238D02*
X0083108Y0172238D01*
X0082510Y0171639D02*
X0095799Y0171639D01*
X0095799Y0171041D02*
X0081911Y0171041D01*
X0081313Y0170442D02*
X0095799Y0170442D01*
X0095799Y0169844D02*
X0069887Y0169844D01*
X0069289Y0169245D02*
X0095799Y0169245D01*
X0095799Y0168647D02*
X0068871Y0168647D01*
X0066271Y0164457D02*
X0064934Y0164457D01*
X0064934Y0163859D02*
X0066271Y0163859D01*
X0066271Y0163260D02*
X0064934Y0163260D01*
X0064934Y0162662D02*
X0066271Y0162662D01*
X0066271Y0162063D02*
X0064934Y0162063D01*
X0064934Y0161465D02*
X0066271Y0161465D01*
X0066271Y0160866D02*
X0064934Y0160866D01*
X0065295Y0160268D02*
X0065911Y0160268D01*
X0065871Y0159669D02*
X0065334Y0159669D01*
X0065334Y0159071D02*
X0065871Y0159071D01*
X0066219Y0158472D02*
X0064987Y0158472D01*
X0064388Y0157874D02*
X0066817Y0157874D01*
X0074012Y0147699D02*
X0052320Y0147699D01*
X0052320Y0147100D02*
X0051720Y0147100D01*
X0051720Y0147609D02*
X0051720Y0145789D01*
X0050621Y0145789D01*
X0050290Y0145926D01*
X0050037Y0146179D01*
X0049900Y0146510D01*
X0049900Y0147609D01*
X0051720Y0147609D01*
X0051720Y0147699D02*
X0034467Y0147699D01*
X0034467Y0148297D02*
X0049900Y0148297D01*
X0049900Y0148896D02*
X0034467Y0148896D01*
X0034467Y0149494D02*
X0049977Y0149494D01*
X0049900Y0147100D02*
X0034467Y0147100D01*
X0034467Y0146502D02*
X0049903Y0146502D01*
X0050345Y0145903D02*
X0034467Y0145903D01*
X0034467Y0150093D02*
X0048079Y0150093D01*
X0047480Y0150691D02*
X0034467Y0150691D01*
X0034467Y0151290D02*
X0047267Y0151290D01*
X0047267Y0151888D02*
X0034467Y0151888D01*
X0034467Y0152487D02*
X0047359Y0152487D01*
X0047958Y0153085D02*
X0034467Y0153085D01*
X0034467Y0153684D02*
X0050520Y0153684D01*
X0050520Y0154282D02*
X0034467Y0154282D01*
X0034467Y0154881D02*
X0050220Y0154881D01*
X0050220Y0155480D02*
X0034467Y0155480D01*
X0034467Y0156078D02*
X0050220Y0156078D01*
X0050565Y0156677D02*
X0034467Y0156677D01*
X0034467Y0157275D02*
X0051163Y0157275D01*
X0052289Y0157874D02*
X0034467Y0157874D01*
X0034467Y0158472D02*
X0052501Y0158472D01*
X0052689Y0159071D02*
X0034467Y0159071D01*
X0034467Y0159669D02*
X0052689Y0159669D01*
X0052689Y0160268D02*
X0034467Y0160268D01*
X0034467Y0160866D02*
X0052689Y0160866D01*
X0052689Y0161465D02*
X0034467Y0161465D01*
X0034467Y0162063D02*
X0052689Y0162063D01*
X0052689Y0162662D02*
X0034467Y0162662D01*
X0034467Y0163260D02*
X0052689Y0163260D01*
X0052689Y0163859D02*
X0034467Y0163859D01*
X0034467Y0164457D02*
X0052689Y0164457D01*
X0052689Y0165056D02*
X0034467Y0165056D01*
X0034467Y0165654D02*
X0052689Y0165654D01*
X0052689Y0166253D02*
X0034467Y0166253D01*
X0034467Y0166851D02*
X0052689Y0166851D01*
X0052689Y0167450D02*
X0034467Y0167450D01*
X0034467Y0168048D02*
X0052689Y0168048D01*
X0052689Y0168647D02*
X0034467Y0168647D01*
X0034467Y0169245D02*
X0052689Y0169245D01*
X0052689Y0169844D02*
X0034467Y0169844D01*
X0034467Y0170442D02*
X0053030Y0170442D01*
X0053628Y0171041D02*
X0034467Y0171041D01*
X0034467Y0171639D02*
X0054227Y0171639D01*
X0054825Y0172238D02*
X0034467Y0172238D01*
X0034467Y0172836D02*
X0055424Y0172836D01*
X0056022Y0173435D02*
X0034467Y0173435D01*
X0034467Y0174033D02*
X0056621Y0174033D01*
X0057219Y0174632D02*
X0034467Y0174632D01*
X0034467Y0175230D02*
X0057818Y0175230D01*
X0058416Y0175829D02*
X0034467Y0175829D01*
X0034467Y0176427D02*
X0059015Y0176427D01*
X0059613Y0177026D02*
X0034467Y0177026D01*
X0034467Y0177624D02*
X0060212Y0177624D01*
X0060810Y0178223D02*
X0034467Y0178223D01*
X0034467Y0178821D02*
X0061409Y0178821D01*
X0062007Y0179420D02*
X0034467Y0179420D01*
X0034467Y0180018D02*
X0062606Y0180018D01*
X0076984Y0180617D02*
X0034467Y0180617D01*
X0034467Y0181215D02*
X0077582Y0181215D01*
X0078181Y0181814D02*
X0034467Y0181814D01*
X0034467Y0182413D02*
X0078779Y0182413D01*
X0079067Y0183011D02*
X0034467Y0183011D01*
X0034467Y0183610D02*
X0079067Y0183610D01*
X0079067Y0184208D02*
X0034467Y0184208D01*
X0034467Y0184807D02*
X0079067Y0184807D01*
X0079067Y0185405D02*
X0034467Y0185405D01*
X0034467Y0186004D02*
X0079067Y0186004D01*
X0079067Y0186602D02*
X0034467Y0186602D01*
X0034467Y0187201D02*
X0079067Y0187201D01*
X0079067Y0187799D02*
X0034467Y0187799D01*
X0034467Y0188398D02*
X0079067Y0188398D01*
X0079067Y0188996D02*
X0034467Y0188996D01*
X0034467Y0189595D02*
X0079067Y0189595D01*
X0079067Y0190193D02*
X0034467Y0190193D01*
X0034467Y0190792D02*
X0079067Y0190792D01*
X0079067Y0191390D02*
X0034467Y0191390D01*
X0034467Y0191989D02*
X0079067Y0191989D01*
X0079067Y0192587D02*
X0034467Y0192587D01*
X0034467Y0193186D02*
X0079067Y0193186D01*
X0079067Y0193784D02*
X0034467Y0193784D01*
X0034467Y0194383D02*
X0079067Y0194383D01*
X0079067Y0194981D02*
X0034467Y0194981D01*
X0034467Y0195580D02*
X0079151Y0195580D01*
X0079750Y0196178D02*
X0034467Y0196178D01*
X0034467Y0196777D02*
X0080348Y0196777D01*
X0080947Y0197375D02*
X0034467Y0197375D01*
X0034467Y0197974D02*
X0081545Y0197974D01*
X0082144Y0198572D02*
X0034467Y0198572D01*
X0034467Y0199171D02*
X0082604Y0199171D01*
X0082775Y0199769D02*
X0034467Y0199769D01*
X0034467Y0200368D02*
X0083374Y0200368D01*
X0083364Y0212733D02*
X0084067Y0213436D01*
X0084067Y0214430D01*
X0083364Y0215133D01*
X0078574Y0219923D01*
X0080306Y0219923D01*
X0080485Y0220102D01*
X0080912Y0219674D01*
X0082321Y0219674D01*
X0083317Y0220670D01*
X0083317Y0222078D01*
X0082321Y0223074D01*
X0080912Y0223074D01*
X0080485Y0222647D01*
X0080478Y0222654D01*
X0080834Y0223009D01*
X0080834Y0224857D01*
X0080478Y0225213D01*
X0080485Y0225220D01*
X0080912Y0224792D01*
X0082321Y0224792D01*
X0083317Y0225788D01*
X0083317Y0227196D01*
X0082321Y0228192D01*
X0080912Y0228192D01*
X0080485Y0227765D01*
X0080306Y0227943D01*
X0078574Y0227943D01*
X0084067Y0233436D01*
X0084067Y0234430D01*
X0083364Y0235133D01*
X0067370Y0235133D01*
X0066667Y0234430D01*
X0066667Y0233436D01*
X0067370Y0232733D01*
X0072159Y0227943D01*
X0071823Y0227943D01*
X0070621Y0227943D01*
X0070290Y0227806D01*
X0070037Y0227553D01*
X0069900Y0227222D01*
X0069900Y0226492D01*
X0069900Y0225762D01*
X0070037Y0225431D01*
X0070255Y0225213D01*
X0069900Y0224857D01*
X0069900Y0223009D01*
X0070255Y0222654D01*
X0070248Y0222647D01*
X0069821Y0223074D01*
X0068412Y0223074D01*
X0067417Y0222078D01*
X0067417Y0220670D01*
X0068412Y0219674D01*
X0069821Y0219674D01*
X0070248Y0220102D01*
X0070427Y0219923D01*
X0072159Y0219923D01*
X0066667Y0214430D01*
X0066667Y0213436D01*
X0067370Y0212733D01*
X0083364Y0212733D01*
X0083567Y0212937D02*
X0116267Y0212937D01*
X0116267Y0213535D02*
X0084067Y0213535D01*
X0084067Y0214134D02*
X0116267Y0214134D01*
X0116267Y0214732D02*
X0083765Y0214732D01*
X0083166Y0215331D02*
X0116267Y0215331D01*
X0116267Y0215929D02*
X0082568Y0215929D01*
X0081969Y0216528D02*
X0116267Y0216528D01*
X0116267Y0217126D02*
X0081371Y0217126D01*
X0080772Y0217725D02*
X0116267Y0217725D01*
X0116267Y0218323D02*
X0080174Y0218323D01*
X0079575Y0218922D02*
X0116267Y0218922D01*
X0116267Y0219520D02*
X0078977Y0219520D01*
X0077878Y0218922D02*
X0072855Y0218922D01*
X0073454Y0219520D02*
X0077280Y0219520D01*
X0076916Y0219883D02*
X0082867Y0213933D01*
X0067867Y0213933D01*
X0073817Y0219883D01*
X0076916Y0219883D01*
X0078477Y0218323D02*
X0072257Y0218323D01*
X0071658Y0217725D02*
X0079075Y0217725D01*
X0079674Y0217126D02*
X0071060Y0217126D01*
X0070461Y0216528D02*
X0080272Y0216528D01*
X0080871Y0215929D02*
X0069863Y0215929D01*
X0069264Y0215331D02*
X0081469Y0215331D01*
X0082068Y0214732D02*
X0068666Y0214732D01*
X0068067Y0214134D02*
X0082666Y0214134D01*
X0082766Y0220119D02*
X0116267Y0220119D01*
X0116267Y0220717D02*
X0083317Y0220717D01*
X0083317Y0221316D02*
X0116267Y0221316D01*
X0116267Y0221914D02*
X0083317Y0221914D01*
X0082882Y0222513D02*
X0116267Y0222513D01*
X0116267Y0223111D02*
X0080834Y0223111D01*
X0080834Y0223710D02*
X0116267Y0223710D01*
X0116267Y0224308D02*
X0080834Y0224308D01*
X0080798Y0224907D02*
X0080784Y0224907D01*
X0082435Y0224907D02*
X0116267Y0224907D01*
X0116267Y0225505D02*
X0083034Y0225505D01*
X0083317Y0226104D02*
X0116267Y0226104D01*
X0116267Y0226702D02*
X0083317Y0226702D01*
X0083212Y0227301D02*
X0116267Y0227301D01*
X0116267Y0227899D02*
X0082614Y0227899D01*
X0081617Y0226492D02*
X0078910Y0226492D01*
X0080350Y0227899D02*
X0080620Y0227899D01*
X0079727Y0229096D02*
X0116267Y0229096D01*
X0116267Y0228498D02*
X0079128Y0228498D01*
X0078030Y0229096D02*
X0072703Y0229096D01*
X0073302Y0228498D02*
X0077431Y0228498D01*
X0076916Y0227983D02*
X0073817Y0227983D01*
X0067867Y0233933D01*
X0082867Y0233933D01*
X0076916Y0227983D01*
X0078628Y0229695D02*
X0072105Y0229695D01*
X0071506Y0230293D02*
X0079227Y0230293D01*
X0079825Y0230892D02*
X0070908Y0230892D01*
X0070309Y0231490D02*
X0080424Y0231490D01*
X0081023Y0232089D02*
X0069711Y0232089D01*
X0069112Y0232687D02*
X0081621Y0232687D01*
X0082220Y0233286D02*
X0068514Y0233286D01*
X0067915Y0233884D02*
X0082818Y0233884D01*
X0084067Y0233884D02*
X0116267Y0233884D01*
X0116267Y0233286D02*
X0083917Y0233286D01*
X0083318Y0232687D02*
X0116267Y0232687D01*
X0116267Y0232089D02*
X0082720Y0232089D01*
X0082121Y0231490D02*
X0116267Y0231490D01*
X0116267Y0230892D02*
X0081523Y0230892D01*
X0080924Y0230293D02*
X0116267Y0230293D01*
X0116267Y0229695D02*
X0080326Y0229695D01*
X0084014Y0234483D02*
X0116267Y0234483D01*
X0116267Y0235082D02*
X0083415Y0235082D01*
X0081617Y0221374D02*
X0078910Y0221374D01*
X0071823Y0221374D02*
X0069117Y0221374D01*
X0067417Y0221316D02*
X0034467Y0221316D01*
X0034467Y0221914D02*
X0067417Y0221914D01*
X0067851Y0222513D02*
X0034467Y0222513D01*
X0034467Y0223111D02*
X0069900Y0223111D01*
X0069900Y0223710D02*
X0034467Y0223710D01*
X0034467Y0224308D02*
X0069900Y0224308D01*
X0069949Y0224907D02*
X0034467Y0224907D01*
X0034467Y0225505D02*
X0070006Y0225505D01*
X0069900Y0226104D02*
X0034467Y0226104D01*
X0034467Y0226702D02*
X0069900Y0226702D01*
X0069900Y0226492D02*
X0071823Y0226492D01*
X0069900Y0226492D01*
X0069117Y0226492D02*
X0071823Y0226492D01*
X0071823Y0226492D01*
X0071823Y0227943D01*
X0071823Y0226492D01*
X0071823Y0226492D01*
X0071823Y0226702D02*
X0071823Y0226702D01*
X0071823Y0227301D02*
X0071823Y0227301D01*
X0071823Y0227899D02*
X0071823Y0227899D01*
X0071605Y0228498D02*
X0034467Y0228498D01*
X0034467Y0229096D02*
X0071006Y0229096D01*
X0070408Y0229695D02*
X0034467Y0229695D01*
X0034467Y0230293D02*
X0069809Y0230293D01*
X0069211Y0230892D02*
X0034467Y0230892D01*
X0034467Y0231490D02*
X0068612Y0231490D01*
X0068014Y0232089D02*
X0034467Y0232089D01*
X0034467Y0232687D02*
X0067415Y0232687D01*
X0066817Y0233286D02*
X0034467Y0233286D01*
X0034467Y0233884D02*
X0066667Y0233884D01*
X0066720Y0234483D02*
X0034467Y0234483D01*
X0034467Y0235082D02*
X0067318Y0235082D01*
X0070515Y0227899D02*
X0034467Y0227899D01*
X0034467Y0227301D02*
X0069932Y0227301D01*
X0067417Y0220717D02*
X0034467Y0220717D01*
X0034467Y0220119D02*
X0067968Y0220119D01*
X0069961Y0217725D02*
X0034467Y0217725D01*
X0034467Y0218323D02*
X0070560Y0218323D01*
X0071158Y0218922D02*
X0034467Y0218922D01*
X0034467Y0219520D02*
X0071757Y0219520D01*
X0069363Y0217126D02*
X0034467Y0217126D01*
X0034467Y0216528D02*
X0068764Y0216528D01*
X0068166Y0215929D02*
X0034467Y0215929D01*
X0034467Y0215331D02*
X0067567Y0215331D01*
X0066969Y0214732D02*
X0034467Y0214732D01*
X0034467Y0214134D02*
X0066667Y0214134D01*
X0066667Y0213535D02*
X0034467Y0213535D01*
X0034467Y0212937D02*
X0067166Y0212937D01*
X0039986Y0240017D02*
X0040367Y0240936D01*
X0040367Y0241930D01*
X0039986Y0242849D01*
X0039283Y0243552D01*
X0038364Y0243933D01*
X0037369Y0243933D01*
X0036451Y0243552D01*
X0035747Y0242849D01*
X0035367Y0241930D01*
X0035367Y0240936D01*
X0035747Y0240017D01*
X0036451Y0239314D01*
X0037369Y0238933D01*
X0038364Y0238933D01*
X0039283Y0239314D01*
X0039986Y0240017D01*
X0039839Y0239870D02*
X0110895Y0239870D01*
X0110747Y0240017D02*
X0111451Y0239314D01*
X0112369Y0238933D01*
X0113364Y0238933D01*
X0114283Y0239314D01*
X0114986Y0240017D01*
X0115367Y0240936D01*
X0115367Y0241930D01*
X0114986Y0242849D01*
X0114283Y0243552D01*
X0113364Y0243933D01*
X0112369Y0243933D01*
X0111451Y0243552D01*
X0110747Y0242849D01*
X0110367Y0241930D01*
X0110367Y0240936D01*
X0110747Y0240017D01*
X0110560Y0240468D02*
X0040173Y0240468D01*
X0040367Y0241067D02*
X0110367Y0241067D01*
X0110367Y0241665D02*
X0040367Y0241665D01*
X0040229Y0242264D02*
X0110505Y0242264D01*
X0110760Y0242862D02*
X0039973Y0242862D01*
X0039375Y0243461D02*
X0111359Y0243461D01*
X0111553Y0239271D02*
X0039180Y0239271D01*
X0036553Y0239271D02*
X0034467Y0239271D01*
X0034467Y0238673D02*
X0116267Y0238673D01*
X0116267Y0239271D02*
X0114180Y0239271D01*
X0114839Y0239870D02*
X0116267Y0239870D01*
X0116267Y0240468D02*
X0115173Y0240468D01*
X0115367Y0241067D02*
X0116267Y0241067D01*
X0116267Y0241665D02*
X0115367Y0241665D01*
X0115229Y0242264D02*
X0116267Y0242264D01*
X0116267Y0242862D02*
X0114973Y0242862D01*
X0114375Y0243461D02*
X0116267Y0243461D01*
X0116267Y0244059D02*
X0034467Y0244059D01*
X0034467Y0243461D02*
X0036359Y0243461D01*
X0035760Y0242862D02*
X0034467Y0242862D01*
X0034467Y0242264D02*
X0035505Y0242264D01*
X0035367Y0241665D02*
X0034467Y0241665D01*
X0034467Y0241067D02*
X0035367Y0241067D01*
X0035560Y0240468D02*
X0034467Y0240468D01*
X0034467Y0239870D02*
X0035895Y0239870D01*
X0034467Y0238074D02*
X0116267Y0238074D01*
X0116267Y0237476D02*
X0034467Y0237476D01*
X0034467Y0236877D02*
X0116267Y0236877D01*
X0116267Y0236279D02*
X0034467Y0236279D01*
X0034467Y0235680D02*
X0116267Y0235680D01*
X0116267Y0244658D02*
X0034467Y0244658D01*
X0034467Y0212338D02*
X0116267Y0212338D01*
X0116267Y0211740D02*
X0034467Y0211740D01*
X0034467Y0211141D02*
X0116267Y0211141D01*
X0116267Y0210543D02*
X0034467Y0210543D01*
X0034467Y0209944D02*
X0116267Y0209944D01*
X0116267Y0209346D02*
X0034467Y0209346D01*
X0034467Y0208747D02*
X0116267Y0208747D01*
X0116267Y0208148D02*
X0034467Y0208148D01*
X0034467Y0207550D02*
X0116267Y0207550D01*
X0116267Y0206951D02*
X0034467Y0206951D01*
X0034467Y0206353D02*
X0116267Y0206353D01*
X0116267Y0205754D02*
X0034467Y0205754D01*
X0034467Y0205156D02*
X0116267Y0205156D01*
X0116267Y0204557D02*
X0034467Y0204557D01*
X0034467Y0203959D02*
X0116267Y0203959D01*
X0116267Y0203360D02*
X0034467Y0203360D01*
X0034467Y0202762D02*
X0116267Y0202762D01*
X0116267Y0202163D02*
X0034467Y0202163D01*
X0034467Y0201565D02*
X0116267Y0201565D01*
X0116267Y0200966D02*
X0034467Y0200966D01*
X0051720Y0146502D02*
X0052320Y0146502D01*
X0052320Y0145903D02*
X0051720Y0145903D01*
X0071601Y0120822D02*
X0077165Y0120822D01*
X0077926Y0121584D01*
X0078149Y0121806D01*
X0079762Y0121806D01*
X0079762Y0121138D01*
X0084402Y0121138D01*
X0084402Y0121138D01*
X0089042Y0121138D01*
X0089042Y0121907D01*
X0088973Y0122074D01*
X0089042Y0122143D01*
X0089042Y0124070D01*
X0089021Y0124091D01*
X0089042Y0124111D01*
X0089042Y0125743D01*
X0094315Y0125743D01*
X0094415Y0125734D01*
X0094415Y0125355D01*
X0095411Y0124359D01*
X0095976Y0124359D01*
X0097952Y0122383D01*
X0097952Y0122383D01*
X0098031Y0122304D01*
X0098031Y0122304D01*
X0098031Y0122304D01*
X0098470Y0122122D01*
X0098031Y0121940D01*
X0097952Y0121861D01*
X0095976Y0119885D01*
X0095411Y0119885D01*
X0094415Y0118889D01*
X0094415Y0118511D01*
X0094315Y0118501D01*
X0092067Y0118501D01*
X0092067Y0119873D01*
X0091071Y0120869D01*
X0089662Y0120869D01*
X0089262Y0120469D01*
X0089042Y0120469D01*
X0089042Y0121138D01*
X0084402Y0121138D01*
X0084402Y0121138D01*
X0079762Y0121138D01*
X0079762Y0120368D01*
X0079831Y0120202D01*
X0079762Y0120133D01*
X0079762Y0118501D01*
X0078937Y0118501D01*
X0077730Y0119708D01*
X0076968Y0120469D01*
X0071660Y0120469D01*
X0071660Y0120763D01*
X0071601Y0120822D01*
X0071657Y0120766D02*
X0079762Y0120766D01*
X0079762Y0121364D02*
X0077707Y0121364D01*
X0077270Y0120167D02*
X0079797Y0120167D01*
X0079762Y0119569D02*
X0077869Y0119569D01*
X0078467Y0118970D02*
X0079762Y0118970D01*
X0079762Y0126751D02*
X0078665Y0126751D01*
X0079263Y0127349D02*
X0079762Y0127349D01*
X0079277Y0134624D02*
X0079321Y0134666D01*
X0079367Y0134704D01*
X0079416Y0134740D01*
X0079467Y0134773D01*
X0079519Y0134802D01*
X0079574Y0134829D01*
X0079629Y0134852D01*
X0079686Y0134872D01*
X0079745Y0134888D01*
X0079804Y0134901D01*
X0079863Y0134910D01*
X0079924Y0134915D01*
X0079984Y0134917D01*
X0079590Y0136886D02*
X0084402Y0136886D01*
X0084402Y0140823D02*
X0079590Y0140823D01*
X0079236Y0140676D02*
X0078792Y0140232D01*
X0079236Y0140677D02*
X0079269Y0140706D01*
X0079303Y0140733D01*
X0079340Y0140756D01*
X0079379Y0140776D01*
X0079419Y0140793D01*
X0079461Y0140806D01*
X0079503Y0140815D01*
X0079546Y0140821D01*
X0079590Y0140823D01*
X0078549Y0142312D02*
X0076189Y0142312D01*
X0076555Y0142911D02*
X0077950Y0142911D01*
X0078691Y0143867D02*
X0078647Y0143909D01*
X0078601Y0143947D01*
X0078552Y0143983D01*
X0078501Y0144016D01*
X0078449Y0144045D01*
X0078394Y0144072D01*
X0078339Y0144095D01*
X0078282Y0144115D01*
X0078223Y0144131D01*
X0078164Y0144144D01*
X0078105Y0144153D01*
X0078044Y0144158D01*
X0077984Y0144160D01*
X0076047Y0144160D01*
X0075340Y0143867D02*
X0074855Y0143382D01*
X0075340Y0143867D02*
X0075384Y0143909D01*
X0075430Y0143947D01*
X0075479Y0143983D01*
X0075530Y0144016D01*
X0075582Y0144045D01*
X0075637Y0144072D01*
X0075692Y0144095D01*
X0075749Y0144115D01*
X0075808Y0144131D01*
X0075867Y0144144D01*
X0075926Y0144153D01*
X0075987Y0144158D01*
X0076047Y0144160D01*
X0076047Y0145360D02*
X0077984Y0145360D01*
X0078691Y0145653D02*
X0079474Y0146435D01*
X0080181Y0146728D02*
X0084402Y0146728D01*
X0084402Y0144760D02*
X0089042Y0144760D01*
X0084402Y0144760D01*
X0084402Y0144760D01*
X0079762Y0144760D01*
X0079762Y0145027D01*
X0079550Y0144815D01*
X0079495Y0144760D01*
X0079545Y0144710D01*
X0079762Y0144493D01*
X0079762Y0144760D01*
X0084402Y0144760D01*
X0084402Y0144760D01*
X0084402Y0142791D02*
X0080181Y0142791D01*
X0079474Y0143084D02*
X0078691Y0143867D01*
X0079549Y0144706D02*
X0079762Y0144706D01*
X0079474Y0143084D02*
X0079518Y0143042D01*
X0079564Y0143004D01*
X0079613Y0142968D01*
X0079664Y0142935D01*
X0079716Y0142906D01*
X0079771Y0142879D01*
X0079826Y0142856D01*
X0079883Y0142836D01*
X0079942Y0142820D01*
X0080001Y0142807D01*
X0080060Y0142798D01*
X0080121Y0142793D01*
X0080181Y0142791D01*
X0079474Y0146435D02*
X0079518Y0146477D01*
X0079564Y0146515D01*
X0079613Y0146551D01*
X0079664Y0146584D01*
X0079716Y0146613D01*
X0079771Y0146640D01*
X0079826Y0146663D01*
X0079883Y0146683D01*
X0079942Y0146699D01*
X0080001Y0146712D01*
X0080060Y0146721D01*
X0080121Y0146726D01*
X0080181Y0146728D01*
X0078442Y0147100D02*
X0076296Y0147100D01*
X0075340Y0145653D02*
X0075384Y0145611D01*
X0075430Y0145573D01*
X0075479Y0145537D01*
X0075530Y0145504D01*
X0075582Y0145475D01*
X0075637Y0145448D01*
X0075692Y0145425D01*
X0075749Y0145405D01*
X0075808Y0145389D01*
X0075867Y0145376D01*
X0075926Y0145367D01*
X0075987Y0145362D01*
X0076047Y0145360D01*
X0075340Y0145653D02*
X0074855Y0146138D01*
X0075698Y0147699D02*
X0077976Y0147699D01*
X0078691Y0145653D02*
X0078647Y0145611D01*
X0078601Y0145573D01*
X0078552Y0145537D01*
X0078501Y0145504D01*
X0078449Y0145475D01*
X0078394Y0145448D01*
X0078339Y0145425D01*
X0078282Y0145405D01*
X0078223Y0145389D01*
X0078164Y0145376D01*
X0078105Y0145367D01*
X0078044Y0145362D01*
X0077984Y0145360D01*
X0078274Y0142587D02*
X0078274Y0142587D01*
X0077869Y0141714D02*
X0075591Y0141714D01*
X0078792Y0137476D02*
X0079236Y0137032D01*
X0079269Y0137003D01*
X0079303Y0136976D01*
X0079340Y0136953D01*
X0079379Y0136933D01*
X0079419Y0136916D01*
X0079461Y0136903D01*
X0079503Y0136894D01*
X0079546Y0136888D01*
X0079590Y0136886D01*
X0079590Y0148697D02*
X0084402Y0148697D01*
X0084402Y0152634D02*
X0079590Y0152634D01*
X0079236Y0152487D02*
X0078792Y0152043D01*
X0079236Y0152488D02*
X0079269Y0152517D01*
X0079303Y0152544D01*
X0079340Y0152567D01*
X0079379Y0152587D01*
X0079419Y0152604D01*
X0079461Y0152617D01*
X0079503Y0152626D01*
X0079546Y0152632D01*
X0079590Y0152634D01*
X0079236Y0148843D02*
X0079269Y0148814D01*
X0079303Y0148787D01*
X0079340Y0148764D01*
X0079379Y0148744D01*
X0079419Y0148727D01*
X0079461Y0148714D01*
X0079503Y0148705D01*
X0079546Y0148699D01*
X0079590Y0148697D01*
X0079236Y0148843D02*
X0078792Y0149287D01*
X0089042Y0149494D02*
X0100320Y0149494D01*
X0100320Y0150093D02*
X0089042Y0150093D01*
X0089042Y0150691D02*
X0100626Y0150691D01*
X0100538Y0151290D02*
X0089042Y0151290D01*
X0089042Y0151888D02*
X0099943Y0151888D01*
X0099344Y0152487D02*
X0089042Y0152487D01*
X0089042Y0153085D02*
X0098746Y0153085D01*
X0098147Y0153684D02*
X0088955Y0153684D01*
X0089042Y0148896D02*
X0100401Y0148896D01*
X0101000Y0148297D02*
X0089042Y0148297D01*
X0089035Y0147699D02*
X0116267Y0147699D01*
X0116267Y0148297D02*
X0106978Y0148297D01*
X0107576Y0148896D02*
X0116267Y0148896D01*
X0116267Y0149494D02*
X0107657Y0149494D01*
X0107657Y0150093D02*
X0116267Y0150093D01*
X0116267Y0150691D02*
X0107351Y0150691D01*
X0106930Y0151290D02*
X0116267Y0151290D01*
X0116267Y0151888D02*
X0106573Y0151888D01*
X0105974Y0152487D02*
X0116267Y0152487D01*
X0116267Y0153085D02*
X0105376Y0153085D01*
X0104777Y0153684D02*
X0116267Y0153684D01*
X0116267Y0154282D02*
X0104179Y0154282D01*
X0103580Y0154881D02*
X0116267Y0154881D01*
X0116267Y0155480D02*
X0102982Y0155480D01*
X0102383Y0156078D02*
X0116267Y0156078D01*
X0116267Y0156677D02*
X0101785Y0156677D01*
X0101186Y0157275D02*
X0116267Y0157275D01*
X0116267Y0157874D02*
X0100587Y0157874D01*
X0100367Y0158472D02*
X0116267Y0158472D01*
X0116267Y0159071D02*
X0100367Y0159071D01*
X0100367Y0159669D02*
X0105413Y0159669D01*
X0104444Y0160070D02*
X0106512Y0159214D01*
X0108749Y0159214D01*
X0110816Y0160070D01*
X0112399Y0161653D01*
X0113255Y0163720D01*
X0113255Y0165957D01*
X0112399Y0168025D01*
X0110816Y0169607D01*
X0108749Y0170463D01*
X0106512Y0170463D01*
X0104444Y0169607D01*
X0102862Y0168025D01*
X0102006Y0165957D01*
X0102006Y0163720D01*
X0102862Y0161653D01*
X0104444Y0160070D01*
X0104247Y0160268D02*
X0100367Y0160268D01*
X0100367Y0160866D02*
X0103649Y0160866D01*
X0103050Y0161465D02*
X0100367Y0161465D01*
X0100367Y0162063D02*
X0102692Y0162063D01*
X0102444Y0162662D02*
X0100367Y0162662D01*
X0100367Y0163260D02*
X0102196Y0163260D01*
X0102006Y0163859D02*
X0100367Y0163859D01*
X0100367Y0164457D02*
X0102006Y0164457D01*
X0102006Y0165056D02*
X0100367Y0165056D01*
X0100367Y0165654D02*
X0102006Y0165654D01*
X0102128Y0166253D02*
X0100367Y0166253D01*
X0100367Y0166851D02*
X0102376Y0166851D01*
X0102624Y0167450D02*
X0100367Y0167450D01*
X0100367Y0168048D02*
X0102886Y0168048D01*
X0103484Y0168647D02*
X0100367Y0168647D01*
X0100367Y0169245D02*
X0104083Y0169245D01*
X0105017Y0169844D02*
X0100367Y0169844D01*
X0100367Y0170442D02*
X0106462Y0170442D01*
X0108799Y0170442D02*
X0116267Y0170442D01*
X0116267Y0169844D02*
X0110244Y0169844D01*
X0111178Y0169245D02*
X0116267Y0169245D01*
X0116267Y0168647D02*
X0111776Y0168647D01*
X0112375Y0168048D02*
X0116267Y0168048D01*
X0116267Y0167450D02*
X0112637Y0167450D01*
X0112885Y0166851D02*
X0116267Y0166851D01*
X0116267Y0166253D02*
X0113133Y0166253D01*
X0113255Y0165654D02*
X0116267Y0165654D01*
X0116267Y0165056D02*
X0113255Y0165056D01*
X0113255Y0164457D02*
X0116267Y0164457D01*
X0116267Y0163859D02*
X0113255Y0163859D01*
X0113064Y0163260D02*
X0116267Y0163260D01*
X0116267Y0162662D02*
X0112817Y0162662D01*
X0112569Y0162063D02*
X0116267Y0162063D01*
X0116267Y0161465D02*
X0112211Y0161465D01*
X0111612Y0160866D02*
X0116267Y0160866D01*
X0116267Y0160268D02*
X0111014Y0160268D01*
X0109847Y0159669D02*
X0116267Y0159669D01*
X0116267Y0171041D02*
X0100367Y0171041D01*
X0100367Y0171639D02*
X0116267Y0171639D01*
X0116267Y0172238D02*
X0100367Y0172238D01*
X0100367Y0172836D02*
X0116267Y0172836D01*
X0116267Y0173435D02*
X0100367Y0173435D01*
X0100367Y0174033D02*
X0116267Y0174033D01*
X0116267Y0174632D02*
X0100367Y0174632D01*
X0100367Y0175230D02*
X0116267Y0175230D01*
X0116267Y0175829D02*
X0100367Y0175829D01*
X0100367Y0176427D02*
X0116267Y0176427D01*
X0116267Y0177026D02*
X0100367Y0177026D01*
X0100367Y0177624D02*
X0116267Y0177624D01*
X0116267Y0178223D02*
X0100367Y0178223D01*
X0100367Y0178821D02*
X0116267Y0178821D01*
X0116267Y0179420D02*
X0100367Y0179420D01*
X0100367Y0180018D02*
X0116267Y0180018D01*
X0116267Y0180617D02*
X0100367Y0180617D01*
X0100367Y0181215D02*
X0116267Y0181215D01*
X0116267Y0181814D02*
X0101124Y0181814D01*
X0101723Y0182413D02*
X0116267Y0182413D01*
X0116267Y0183011D02*
X0101752Y0183011D01*
X0101752Y0183610D02*
X0116267Y0183610D01*
X0116267Y0184208D02*
X0101393Y0184208D01*
X0100795Y0184807D02*
X0116267Y0184807D01*
X0116267Y0185405D02*
X0098399Y0185405D01*
X0098399Y0184807D02*
X0099308Y0184807D01*
X0098710Y0184208D02*
X0098399Y0184208D01*
X0098399Y0186004D02*
X0116267Y0186004D01*
X0116267Y0186602D02*
X0098399Y0186602D01*
X0098399Y0187201D02*
X0116267Y0187201D01*
X0116267Y0187799D02*
X0098399Y0187799D01*
X0098399Y0188398D02*
X0116267Y0188398D01*
X0116267Y0188996D02*
X0098399Y0188996D01*
X0098399Y0189595D02*
X0116267Y0189595D01*
X0116267Y0190193D02*
X0098399Y0190193D01*
X0098399Y0190792D02*
X0116267Y0190792D01*
X0116267Y0191390D02*
X0098399Y0191390D01*
X0098399Y0191989D02*
X0116267Y0191989D01*
X0116267Y0192587D02*
X0098399Y0192587D01*
X0098399Y0193186D02*
X0116267Y0193186D01*
X0116267Y0193784D02*
X0098399Y0193784D01*
X0098399Y0194383D02*
X0116267Y0194383D01*
X0116267Y0194981D02*
X0098399Y0194981D01*
X0098580Y0195580D02*
X0116267Y0195580D01*
X0116267Y0196178D02*
X0099175Y0196178D01*
X0099773Y0196777D02*
X0116267Y0196777D01*
X0116267Y0197375D02*
X0100937Y0197375D01*
X0101536Y0197974D02*
X0116267Y0197974D01*
X0116267Y0198572D02*
X0101752Y0198572D01*
X0101752Y0199171D02*
X0116267Y0199171D01*
X0116267Y0199769D02*
X0101580Y0199769D01*
X0100982Y0200368D02*
X0116267Y0200368D01*
X0103494Y0151290D02*
X0103320Y0151290D01*
X0103414Y0150691D02*
X0104093Y0150691D01*
X0104257Y0150093D02*
X0103720Y0150093D01*
X0103720Y0149494D02*
X0104257Y0149494D01*
X0104338Y0148896D02*
X0103639Y0148896D01*
X0103041Y0148297D02*
X0104937Y0148297D01*
X0105176Y0137524D02*
X0102802Y0137524D01*
X0103400Y0136926D02*
X0104577Y0136926D01*
X0104257Y0136327D02*
X0103720Y0136327D01*
X0104171Y0135953D02*
X0104171Y0135953D01*
X0104077Y0135729D02*
X0103900Y0135729D01*
X0101704Y0133933D02*
X0089021Y0133933D01*
X0089042Y0133335D02*
X0101704Y0133335D01*
X0101704Y0132736D02*
X0089042Y0132736D01*
X0089025Y0132138D02*
X0101704Y0132138D01*
X0101704Y0131539D02*
X0089042Y0131539D01*
X0089042Y0130941D02*
X0101704Y0130941D01*
X0101704Y0130342D02*
X0089042Y0130342D01*
X0089042Y0129744D02*
X0101704Y0129744D01*
X0101704Y0129145D02*
X0089042Y0129145D01*
X0089042Y0128546D02*
X0101704Y0128546D01*
X0101704Y0127948D02*
X0095920Y0127948D01*
X0096245Y0127767D02*
X0096245Y0127767D01*
X0097228Y0127349D02*
X0101704Y0127349D01*
X0101704Y0126751D02*
X0097815Y0126751D01*
X0097860Y0126152D02*
X0101704Y0126152D01*
X0101606Y0125554D02*
X0098458Y0125554D01*
X0099057Y0124955D02*
X0101047Y0124955D01*
X0098086Y0121963D02*
X0089019Y0121963D01*
X0089042Y0122561D02*
X0097774Y0122561D01*
X0098031Y0121940D02*
X0098031Y0121940D01*
X0097952Y0121861D02*
X0097952Y0121861D01*
X0097456Y0121364D02*
X0089042Y0121364D01*
X0089042Y0120766D02*
X0089559Y0120766D01*
X0091174Y0120766D02*
X0096857Y0120766D01*
X0096259Y0120167D02*
X0091773Y0120167D01*
X0092067Y0119569D02*
X0095094Y0119569D01*
X0094496Y0118970D02*
X0092067Y0118970D01*
X0095151Y0115978D02*
X0116267Y0115978D01*
X0116267Y0116576D02*
X0096910Y0116576D01*
X0097509Y0117175D02*
X0116267Y0117175D01*
X0116267Y0117773D02*
X0097815Y0117773D01*
X0098140Y0118372D02*
X0116267Y0118372D01*
X0116267Y0118970D02*
X0098738Y0118970D01*
X0099337Y0119569D02*
X0116267Y0119569D01*
X0116267Y0120167D02*
X0102650Y0120167D01*
X0103487Y0120766D02*
X0116267Y0120766D01*
X0116267Y0121364D02*
X0104085Y0121364D01*
X0104684Y0121963D02*
X0116267Y0121963D01*
X0116267Y0122561D02*
X0105282Y0122561D01*
X0105696Y0122976D02*
X0105696Y0122976D01*
X0105819Y0123160D02*
X0116267Y0123160D01*
X0116267Y0123758D02*
X0106067Y0123758D01*
X0106273Y0124357D02*
X0116267Y0124357D01*
X0116267Y0124955D02*
X0106273Y0124955D01*
X0106273Y0125554D02*
X0116267Y0125554D01*
X0116267Y0126152D02*
X0106273Y0126152D01*
X0106273Y0126751D02*
X0116267Y0126751D01*
X0116267Y0127349D02*
X0106273Y0127349D01*
X0106273Y0127948D02*
X0116267Y0127948D01*
X0116267Y0128546D02*
X0106273Y0128546D01*
X0106273Y0129145D02*
X0116267Y0129145D01*
X0116267Y0129744D02*
X0106273Y0129744D01*
X0106273Y0130342D02*
X0116267Y0130342D01*
X0116267Y0130941D02*
X0106273Y0130941D01*
X0106273Y0131539D02*
X0116267Y0131539D01*
X0116267Y0132138D02*
X0106273Y0132138D01*
X0106273Y0132736D02*
X0116267Y0132736D01*
X0116267Y0133335D02*
X0106273Y0133335D01*
X0106273Y0133933D02*
X0116267Y0133933D01*
X0116267Y0134532D02*
X0106991Y0134532D01*
X0107590Y0135130D02*
X0116267Y0135130D01*
X0116267Y0135729D02*
X0107657Y0135729D01*
X0107657Y0136327D02*
X0116267Y0136327D01*
X0116267Y0136926D02*
X0107337Y0136926D01*
X0106739Y0137524D02*
X0116267Y0137524D01*
X0116267Y0138123D02*
X0089042Y0138123D01*
X0089042Y0138721D02*
X0116267Y0138721D01*
X0116267Y0139320D02*
X0089042Y0139320D01*
X0089042Y0139918D02*
X0116267Y0139918D01*
X0116267Y0140517D02*
X0089042Y0140517D01*
X0089042Y0141115D02*
X0116267Y0141115D01*
X0116267Y0141714D02*
X0089042Y0141714D01*
X0089042Y0142312D02*
X0116267Y0142312D01*
X0116267Y0142911D02*
X0089042Y0142911D01*
X0089042Y0143509D02*
X0116267Y0143509D01*
X0116267Y0144108D02*
X0089042Y0144108D01*
X0089042Y0144706D02*
X0116267Y0144706D01*
X0116267Y0145305D02*
X0089042Y0145305D01*
X0089042Y0145903D02*
X0116267Y0145903D01*
X0116267Y0146502D02*
X0089042Y0146502D01*
X0089042Y0147100D02*
X0116267Y0147100D01*
X0101239Y0137524D02*
X0089042Y0137524D01*
X0089042Y0136926D02*
X0100640Y0136926D01*
X0100320Y0136327D02*
X0089042Y0136327D01*
X0089042Y0135729D02*
X0100320Y0135729D01*
X0100388Y0135130D02*
X0089042Y0135130D01*
X0089042Y0134532D02*
X0100986Y0134532D01*
X0094415Y0125554D02*
X0089042Y0125554D01*
X0089042Y0124955D02*
X0094814Y0124955D01*
X0095978Y0124357D02*
X0089042Y0124357D01*
X0089042Y0123758D02*
X0096577Y0123758D01*
X0097175Y0123160D02*
X0089042Y0123160D01*
X0090479Y0110591D02*
X0116267Y0110591D01*
X0116267Y0109993D02*
X0091690Y0109993D01*
X0092289Y0109394D02*
X0116267Y0109394D01*
X0116267Y0108796D02*
X0092887Y0108796D01*
X0086751Y0096825D02*
X0081380Y0096825D01*
X0081978Y0096227D02*
X0086153Y0096227D01*
X0085917Y0095628D02*
X0082577Y0095628D01*
X0083175Y0095030D02*
X0085917Y0095030D01*
X0085917Y0094431D02*
X0083774Y0094431D01*
X0084372Y0093833D02*
X0086459Y0093833D01*
X0087058Y0093234D02*
X0084971Y0093234D01*
X0085569Y0092636D02*
X0089686Y0092636D01*
X0089270Y0092037D02*
X0086168Y0092037D01*
X0088676Y0093234D02*
X0107411Y0093234D01*
X0108010Y0092636D02*
X0106443Y0092636D01*
X0106506Y0092609D02*
X0106176Y0092746D01*
X0105076Y0092746D01*
X0105076Y0090926D01*
X0106897Y0090926D01*
X0106897Y0092026D01*
X0106760Y0092356D01*
X0106506Y0092609D01*
X0106892Y0092037D02*
X0108608Y0092037D01*
X0108667Y0091439D02*
X0106897Y0091439D01*
X0106897Y0090242D02*
X0108667Y0090242D01*
X0108667Y0090840D02*
X0105076Y0090840D01*
X0105076Y0090242D02*
X0104476Y0090242D01*
X0104476Y0089643D02*
X0105076Y0089643D01*
X0105076Y0089045D02*
X0104476Y0089045D01*
X0103037Y0087848D02*
X0108649Y0087848D01*
X0108667Y0088446D02*
X0099383Y0088446D01*
X0100745Y0087848D02*
X0101327Y0087848D01*
X0101327Y0087249D02*
X0100745Y0087249D01*
X0100745Y0086651D02*
X0101327Y0086651D01*
X0101327Y0086052D02*
X0106712Y0086052D01*
X0106126Y0085454D02*
X0103117Y0085454D01*
X0103117Y0084935D02*
X0103117Y0086005D01*
X0101327Y0086005D01*
X0101327Y0084214D01*
X0102396Y0084214D01*
X0102727Y0084351D01*
X0102980Y0084604D01*
X0103117Y0084935D01*
X0103084Y0084855D02*
X0106126Y0084855D01*
X0106126Y0084257D02*
X0102499Y0084257D01*
X0101327Y0084257D02*
X0100745Y0084257D01*
X0100745Y0084855D02*
X0101327Y0084855D01*
X0101327Y0085454D02*
X0100745Y0085454D01*
X0099573Y0084257D02*
X0099286Y0084257D01*
X0096881Y0084257D02*
X0096727Y0084257D01*
X0096710Y0081264D02*
X0096897Y0081264D01*
X0099269Y0081264D02*
X0099456Y0081264D01*
X0099383Y0077075D02*
X0102886Y0077075D01*
X0102070Y0076476D02*
X0100002Y0076476D01*
X0100007Y0075877D02*
X0102065Y0075877D01*
X0102065Y0075279D02*
X0100007Y0075279D01*
X0100007Y0074680D02*
X0102065Y0074680D01*
X0102065Y0074082D02*
X0100007Y0074082D01*
X0100007Y0073483D02*
X0102065Y0073483D01*
X0102465Y0072885D02*
X0099607Y0072885D01*
X0098843Y0071089D02*
X0095643Y0071089D01*
X0095643Y0070491D02*
X0098352Y0070491D01*
X0098352Y0069892D02*
X0095196Y0069892D01*
X0094597Y0069294D02*
X0098352Y0069294D01*
X0098846Y0068695D02*
X0093999Y0068695D01*
X0095643Y0071688D02*
X0102886Y0071688D01*
X0102886Y0072286D02*
X0095643Y0072286D01*
X0096064Y0072885D02*
X0096166Y0072885D01*
X0093551Y0081264D02*
X0093314Y0081264D01*
X0090893Y0082461D02*
X0081667Y0082461D01*
X0081667Y0083060D02*
X0083560Y0083060D01*
X0082962Y0083658D02*
X0081667Y0083658D01*
X0081667Y0084257D02*
X0082604Y0084257D01*
X0082331Y0084855D02*
X0081667Y0084855D01*
X0081667Y0085454D02*
X0081732Y0085454D01*
X0079067Y0084855D02*
X0078130Y0084855D01*
X0078130Y0084257D02*
X0079067Y0084257D01*
X0079067Y0083658D02*
X0077771Y0083658D01*
X0077173Y0083060D02*
X0079067Y0083060D01*
X0078779Y0085454D02*
X0078101Y0085454D01*
X0078181Y0086052D02*
X0077502Y0086052D01*
X0077582Y0086651D02*
X0076338Y0086651D01*
X0075739Y0087249D02*
X0076984Y0087249D01*
X0076385Y0087848D02*
X0075141Y0087848D01*
X0074542Y0088446D02*
X0075787Y0088446D01*
X0075188Y0089045D02*
X0073944Y0089045D01*
X0072661Y0086651D02*
X0068464Y0086651D01*
X0067865Y0087249D02*
X0072062Y0087249D01*
X0073259Y0086052D02*
X0069628Y0086052D01*
X0070227Y0085454D02*
X0073858Y0085454D01*
X0074456Y0084855D02*
X0070256Y0084855D01*
X0070256Y0084257D02*
X0074730Y0084257D01*
X0075088Y0083658D02*
X0069897Y0083658D01*
X0069299Y0083060D02*
X0075686Y0083060D01*
X0080781Y0097424D02*
X0106462Y0097424D01*
X0105017Y0098022D02*
X0080183Y0098022D01*
X0079584Y0098621D02*
X0104083Y0098621D01*
X0103484Y0099219D02*
X0078986Y0099219D01*
X0093094Y0092636D02*
X0093230Y0092636D01*
X0096637Y0092636D02*
X0099529Y0092636D01*
X0099112Y0092037D02*
X0097054Y0092037D01*
X0102937Y0092636D02*
X0103109Y0092636D01*
X0104476Y0092636D02*
X0105076Y0092636D01*
X0105076Y0092037D02*
X0104476Y0092037D01*
X0104476Y0091439D02*
X0105076Y0091439D01*
X0106897Y0089643D02*
X0108667Y0089643D01*
X0108667Y0089045D02*
X0106821Y0089045D01*
X0108050Y0087249D02*
X0103117Y0087249D01*
X0103117Y0086651D02*
X0107452Y0086651D01*
X0106526Y0081264D02*
X0102616Y0081264D01*
X0103117Y0080666D02*
X0106526Y0080666D01*
X0106526Y0080067D02*
X0104181Y0080067D01*
X0104780Y0079469D02*
X0106526Y0079469D01*
X0106526Y0078870D02*
X0105378Y0078870D01*
X0105486Y0078272D02*
X0106526Y0078272D01*
X0106526Y0077673D02*
X0105486Y0077673D01*
X0105486Y0077075D02*
X0106526Y0077075D01*
X0106008Y0072885D02*
X0105906Y0072885D01*
X0105486Y0072286D02*
X0106526Y0072286D01*
X0106526Y0071688D02*
X0105486Y0071688D01*
X0105486Y0071089D02*
X0106526Y0071089D01*
X0106526Y0070491D02*
X0105486Y0070491D01*
X0105038Y0069892D02*
X0106526Y0069892D01*
X0106267Y0069294D02*
X0104440Y0069294D01*
X0103841Y0068695D02*
X0105669Y0068695D01*
X0106636Y0065703D02*
X0107173Y0065703D01*
X0106575Y0065104D02*
X0106037Y0065104D01*
X0100052Y0064051D02*
X0099067Y0064051D01*
X0098083Y0063067D01*
X0098083Y0060902D01*
X0098083Y0057358D02*
X0098083Y0053224D01*
X0097099Y0052240D01*
X0089259Y0038171D02*
X0116267Y0038171D01*
X0116267Y0037573D02*
X0089259Y0037573D01*
X0089259Y0036974D02*
X0116267Y0036974D01*
X0116267Y0036376D02*
X0089259Y0036376D01*
X0089259Y0035777D02*
X0116267Y0035777D01*
X0116267Y0035179D02*
X0089259Y0035179D01*
X0089259Y0034580D02*
X0116267Y0034580D01*
X0116267Y0033982D02*
X0089259Y0033982D01*
X0089259Y0033383D02*
X0116267Y0033383D01*
X0116267Y0032785D02*
X0089259Y0032785D01*
X0089259Y0032186D02*
X0116267Y0032186D01*
X0116267Y0031588D02*
X0089259Y0031588D01*
X0089259Y0030989D02*
X0116267Y0030989D01*
X0116267Y0030391D02*
X0089259Y0030391D01*
X0089259Y0029792D02*
X0116267Y0029792D01*
X0116267Y0029194D02*
X0089259Y0029194D01*
X0088811Y0038770D02*
X0116267Y0038770D01*
X0061350Y0098022D02*
X0061029Y0098022D01*
X0061350Y0098621D02*
X0060431Y0098621D01*
X0059832Y0099219D02*
X0061350Y0099219D01*
X0061350Y0099818D02*
X0059234Y0099818D01*
X0058635Y0100416D02*
X0061350Y0100416D01*
X0061350Y0101015D02*
X0058037Y0101015D01*
X0057438Y0101613D02*
X0061350Y0101613D01*
X0061350Y0102212D02*
X0056840Y0102212D01*
X0056241Y0102811D02*
X0061350Y0102811D01*
X0060824Y0103409D02*
X0056076Y0103409D01*
X0056076Y0104008D02*
X0058675Y0104008D01*
X0058077Y0104606D02*
X0056076Y0104606D01*
X0056076Y0105205D02*
X0057997Y0105205D01*
X0057997Y0105803D02*
X0056076Y0105803D01*
X0056076Y0106402D02*
X0058305Y0106402D01*
X0058904Y0107000D02*
X0056076Y0107000D01*
X0056076Y0107599D02*
X0056620Y0107599D01*
X0058413Y0107599D02*
X0059013Y0107599D01*
X0059013Y0108197D02*
X0058413Y0108197D01*
X0058413Y0108796D02*
X0059013Y0108796D01*
X0059013Y0109394D02*
X0058413Y0109394D01*
X0058413Y0109993D02*
X0059013Y0109993D01*
X0055943Y0111788D02*
X0055703Y0111788D01*
X0055943Y0112387D02*
X0054108Y0112387D01*
X0054108Y0112985D02*
X0056138Y0112985D01*
D22*
X0102867Y0036433D03*
X0102867Y0231433D03*
D23*
X0107926Y0213933D03*
X0115367Y0208933D03*
X0115367Y0198933D03*
X0115367Y0188933D03*
X0115367Y0178933D03*
X0107926Y0182933D03*
X0100052Y0183146D03*
X0092178Y0183146D03*
X0084304Y0183146D03*
X0084304Y0198894D03*
X0092178Y0198894D03*
X0100052Y0198894D03*
X0115367Y0218933D03*
X0090367Y0243933D03*
X0080367Y0243933D03*
X0070367Y0243933D03*
X0060367Y0243933D03*
X0050367Y0243933D03*
X0050839Y0221532D03*
X0052808Y0214642D03*
X0056745Y0219563D03*
X0060682Y0214642D03*
X0069117Y0221374D03*
X0069117Y0226492D03*
X0081617Y0226492D03*
X0081617Y0221374D03*
X0060682Y0182161D03*
X0056745Y0177240D03*
X0052808Y0173303D03*
X0048871Y0169366D03*
X0047886Y0177240D03*
X0047886Y0185114D03*
X0047886Y0192988D03*
X0047886Y0200862D03*
X0047886Y0208736D03*
X0047886Y0214642D03*
X0044934Y0219563D03*
X0041981Y0214642D03*
X0041981Y0208736D03*
X0041981Y0200862D03*
X0041981Y0192988D03*
X0041981Y0185114D03*
X0036075Y0185114D03*
X0036075Y0177240D03*
X0036075Y0169366D03*
X0041981Y0169366D03*
X0041981Y0159524D03*
X0047886Y0159524D03*
X0053989Y0157555D03*
X0055957Y0159524D03*
X0063634Y0159524D03*
X0067571Y0159524D03*
X0065603Y0166217D03*
X0068752Y0151650D03*
X0064815Y0147713D03*
X0060878Y0147713D03*
X0060878Y0143776D03*
X0060878Y0139839D03*
X0060878Y0135902D03*
X0056941Y0135902D03*
X0053004Y0135902D03*
X0053004Y0139839D03*
X0053004Y0143776D03*
X0056941Y0143776D03*
X0056941Y0139839D03*
X0056941Y0147713D03*
X0064815Y0143776D03*
X0064815Y0139839D03*
X0066784Y0128028D03*
X0063831Y0124091D03*
X0059894Y0124091D03*
X0055957Y0124091D03*
X0055957Y0128028D03*
X0049067Y0131965D03*
X0047886Y0124091D03*
X0041981Y0124091D03*
X0036075Y0124091D03*
X0036075Y0133933D03*
X0036075Y0141807D03*
X0036075Y0149681D03*
X0041981Y0149681D03*
X0036075Y0159524D03*
X0041981Y0133933D03*
X0041981Y0114248D03*
X0041981Y0106374D03*
X0041981Y0098500D03*
X0036075Y0098500D03*
X0036075Y0090626D03*
X0036075Y0082752D03*
X0036075Y0074878D03*
X0041981Y0074878D03*
X0041981Y0082752D03*
X0047886Y0082752D03*
X0047886Y0074878D03*
X0047886Y0067004D03*
X0047886Y0059130D03*
X0047886Y0053224D03*
X0044934Y0048303D03*
X0041981Y0053224D03*
X0041981Y0059130D03*
X0041981Y0067004D03*
X0036075Y0067004D03*
X0036075Y0059130D03*
X0036075Y0051256D03*
X0036075Y0043382D03*
X0036075Y0035508D03*
X0041981Y0041413D03*
X0050839Y0046335D03*
X0054776Y0044366D03*
X0056745Y0048303D03*
X0052808Y0053224D03*
X0060682Y0053224D03*
X0061666Y0044366D03*
X0061666Y0035508D03*
X0059697Y0033539D03*
X0060367Y0023933D03*
X0070367Y0023933D03*
X0075445Y0035508D03*
X0075445Y0044366D03*
X0071508Y0044366D03*
X0066587Y0044366D03*
X0068556Y0054209D03*
X0068556Y0064051D03*
X0076430Y0064051D03*
X0076430Y0054209D03*
X0081351Y0050272D03*
X0084304Y0054209D03*
X0088241Y0044366D03*
X0092178Y0054209D03*
X0092178Y0064051D03*
X0092178Y0069894D03*
X0100052Y0069894D03*
X0100052Y0064051D03*
X0100052Y0054209D03*
X0107926Y0054209D03*
X0107926Y0064051D03*
X0115367Y0068933D03*
X0115367Y0058933D03*
X0115367Y0048933D03*
X0115367Y0078933D03*
X0115367Y0088933D03*
X0114117Y0115183D03*
X0114117Y0127683D03*
X0105957Y0135902D03*
X0102020Y0135902D03*
X0096115Y0126059D03*
X0094146Y0122122D03*
X0096115Y0118185D03*
X0094146Y0114248D03*
X0090367Y0119169D03*
X0094146Y0129996D03*
X0094146Y0135902D03*
X0094146Y0141807D03*
X0090284Y0138854D03*
X0090284Y0132949D03*
X0090284Y0144760D03*
X0090284Y0150665D03*
X0094146Y0147713D03*
X0094146Y0153618D03*
X0102020Y0149681D03*
X0105957Y0149681D03*
X0114117Y0152683D03*
X0114117Y0140183D03*
X0080367Y0106433D03*
X0080367Y0103933D03*
X0080367Y0101433D03*
X0076430Y0114248D03*
X0070524Y0105390D03*
X0070524Y0097516D03*
X0068556Y0084720D03*
X0076430Y0084720D03*
X0084304Y0084720D03*
X0084304Y0068972D03*
X0060682Y0085705D03*
X0055760Y0091610D03*
X0052808Y0085705D03*
X0046902Y0091610D03*
X0048871Y0098500D03*
X0047886Y0106374D03*
X0047886Y0114248D03*
X0054776Y0110311D03*
X0055957Y0114248D03*
X0059697Y0105390D03*
X0059697Y0101453D03*
X0067768Y0114248D03*
X0072689Y0128028D03*
X0074855Y0131571D03*
X0076823Y0129996D03*
X0074855Y0134327D03*
X0076823Y0135902D03*
X0078792Y0137476D03*
X0078792Y0140232D03*
X0076823Y0141807D03*
X0074855Y0143382D03*
X0074855Y0146138D03*
X0076823Y0147713D03*
X0078792Y0149287D03*
X0078792Y0152043D03*
X0076823Y0153618D03*
X0052808Y0182161D03*
X0056745Y0198894D03*
X0036075Y0200862D03*
X0036075Y0192988D03*
X0036075Y0208736D03*
X0036075Y0216610D03*
X0036075Y0224484D03*
X0036075Y0232358D03*
X0036075Y0114248D03*
X0036075Y0106374D03*
X0056745Y0068972D03*
X0050367Y0023933D03*
X0080367Y0023933D03*
X0090367Y0023933D03*
D24*
X0084304Y0068972D02*
X0080367Y0072909D01*
X0080367Y0085705D01*
X0075445Y0090626D01*
X0066587Y0090626D01*
X0054776Y0102437D01*
X0054776Y0110311D01*
X0059697Y0105390D02*
X0060682Y0105390D01*
X0062650Y0103421D01*
X0062650Y0097516D01*
X0067571Y0092595D01*
X0076430Y0092595D01*
X0084304Y0084720D01*
X0085741Y0090626D02*
X0091390Y0090626D01*
X0091390Y0087280D01*
X0092375Y0086295D01*
X0095130Y0086295D01*
X0098083Y0086295D02*
X0098083Y0090626D01*
X0094934Y0090626D01*
X0098083Y0090626D02*
X0101233Y0090626D01*
X0101036Y0079209D02*
X0103201Y0079209D01*
X0104186Y0078224D01*
X0104186Y0074878D01*
X0104186Y0070878D01*
X0103201Y0069894D01*
X0100052Y0069894D01*
X0097886Y0074878D02*
X0098083Y0075075D01*
X0098083Y0079209D01*
X0095130Y0079209D02*
X0094934Y0079012D01*
X0091193Y0079012D01*
X0094343Y0074878D02*
X0094343Y0070878D01*
X0093359Y0069894D01*
X0092178Y0069894D01*
X0085741Y0090626D02*
X0076430Y0099937D01*
X0076430Y0114248D01*
X0078398Y0117201D02*
X0076430Y0119169D01*
X0069540Y0119169D01*
X0065997Y0119169D02*
X0060878Y0119169D01*
X0055957Y0124091D01*
X0054776Y0126059D02*
X0052808Y0124091D01*
X0052808Y0101453D01*
X0065603Y0088658D01*
X0072493Y0088658D01*
X0076430Y0084720D01*
X0068556Y0084720D02*
X0066587Y0086689D01*
X0064619Y0086689D01*
X0050839Y0100469D01*
X0050839Y0125075D01*
X0053792Y0128028D01*
X0055957Y0128028D01*
X0054776Y0126059D02*
X0064194Y0126059D01*
X0065255Y0126498D02*
X0066784Y0128028D01*
X0065255Y0126498D02*
X0065201Y0126448D01*
X0065146Y0126399D01*
X0065088Y0126354D01*
X0065027Y0126312D01*
X0064965Y0126272D01*
X0064901Y0126236D01*
X0064835Y0126203D01*
X0064768Y0126173D01*
X0064699Y0126147D01*
X0064629Y0126124D01*
X0064558Y0126104D01*
X0064487Y0126088D01*
X0064414Y0126075D01*
X0064341Y0126066D01*
X0064268Y0126061D01*
X0064194Y0126059D01*
X0063831Y0124091D02*
X0075642Y0124091D01*
X0076627Y0125075D01*
X0084402Y0125075D01*
X0084402Y0127043D02*
X0094315Y0127043D01*
X0095707Y0126467D02*
X0096115Y0126059D01*
X0098491Y0123683D01*
X0099883Y0123106D02*
X0100221Y0123106D01*
X0101205Y0121137D02*
X0101291Y0121139D01*
X0101377Y0121144D01*
X0101462Y0121154D01*
X0101547Y0121167D01*
X0101631Y0121184D01*
X0101715Y0121204D01*
X0101797Y0121228D01*
X0101878Y0121256D01*
X0101959Y0121287D01*
X0102037Y0121321D01*
X0102114Y0121359D01*
X0102190Y0121401D01*
X0102263Y0121445D01*
X0102334Y0121493D01*
X0102404Y0121544D01*
X0102471Y0121598D01*
X0102535Y0121654D01*
X0102597Y0121714D01*
X0104396Y0123514D01*
X0104973Y0124906D02*
X0104973Y0134102D01*
X0105550Y0135494D02*
X0105957Y0135902D01*
X0105549Y0135494D02*
X0105489Y0135432D01*
X0105433Y0135368D01*
X0105379Y0135301D01*
X0105328Y0135231D01*
X0105280Y0135160D01*
X0105236Y0135087D01*
X0105194Y0135011D01*
X0105156Y0134934D01*
X0105122Y0134856D01*
X0105091Y0134775D01*
X0105063Y0134694D01*
X0105039Y0134612D01*
X0105019Y0134528D01*
X0105002Y0134444D01*
X0104989Y0134359D01*
X0104979Y0134274D01*
X0104974Y0134188D01*
X0104972Y0134102D01*
X0103004Y0134102D02*
X0103004Y0125890D01*
X0104973Y0124906D02*
X0104971Y0124820D01*
X0104966Y0124734D01*
X0104956Y0124649D01*
X0104943Y0124564D01*
X0104926Y0124480D01*
X0104906Y0124396D01*
X0104882Y0124314D01*
X0104854Y0124233D01*
X0104823Y0124152D01*
X0104789Y0124074D01*
X0104751Y0123997D01*
X0104709Y0123921D01*
X0104665Y0123848D01*
X0104617Y0123777D01*
X0104566Y0123707D01*
X0104512Y0123640D01*
X0104456Y0123576D01*
X0104396Y0123514D01*
X0102428Y0124498D02*
X0101613Y0123683D01*
X0101551Y0123623D01*
X0101487Y0123567D01*
X0101420Y0123513D01*
X0101350Y0123462D01*
X0101279Y0123414D01*
X0101206Y0123370D01*
X0101130Y0123328D01*
X0101053Y0123290D01*
X0100975Y0123256D01*
X0100894Y0123225D01*
X0100813Y0123197D01*
X0100731Y0123173D01*
X0100647Y0123153D01*
X0100563Y0123136D01*
X0100478Y0123123D01*
X0100393Y0123113D01*
X0100307Y0123108D01*
X0100221Y0123106D01*
X0099883Y0121138D02*
X0101205Y0121138D01*
X0099883Y0121138D02*
X0099797Y0121136D01*
X0099711Y0121131D01*
X0099626Y0121121D01*
X0099541Y0121108D01*
X0099457Y0121091D01*
X0099373Y0121071D01*
X0099291Y0121047D01*
X0099210Y0121019D01*
X0099129Y0120988D01*
X0099051Y0120954D01*
X0098974Y0120916D01*
X0098898Y0120874D01*
X0098825Y0120830D01*
X0098754Y0120782D01*
X0098684Y0120731D01*
X0098617Y0120677D01*
X0098553Y0120621D01*
X0098491Y0120561D01*
X0096115Y0118185D01*
X0095707Y0117777D01*
X0094315Y0117201D02*
X0084402Y0117201D01*
X0078398Y0117201D01*
X0076627Y0122122D02*
X0061863Y0122122D01*
X0059894Y0124091D01*
X0067571Y0105390D02*
X0070524Y0105390D01*
X0067571Y0105390D02*
X0067571Y0103224D01*
X0067571Y0099681D02*
X0067571Y0097516D01*
X0070524Y0097516D01*
X0084402Y0119169D02*
X0090367Y0119169D01*
X0094315Y0117200D02*
X0094401Y0117202D01*
X0094487Y0117207D01*
X0094572Y0117217D01*
X0094657Y0117230D01*
X0094741Y0117247D01*
X0094825Y0117267D01*
X0094907Y0117291D01*
X0094988Y0117319D01*
X0095069Y0117350D01*
X0095147Y0117384D01*
X0095224Y0117422D01*
X0095300Y0117464D01*
X0095373Y0117508D01*
X0095444Y0117556D01*
X0095514Y0117607D01*
X0095581Y0117661D01*
X0095645Y0117717D01*
X0095707Y0117777D01*
X0095707Y0126467D02*
X0095645Y0126527D01*
X0095581Y0126583D01*
X0095514Y0126637D01*
X0095444Y0126688D01*
X0095373Y0126736D01*
X0095300Y0126780D01*
X0095224Y0126822D01*
X0095147Y0126860D01*
X0095069Y0126894D01*
X0094988Y0126925D01*
X0094907Y0126953D01*
X0094825Y0126977D01*
X0094741Y0126997D01*
X0094657Y0127014D01*
X0094572Y0127027D01*
X0094487Y0127037D01*
X0094401Y0127042D01*
X0094315Y0127044D01*
X0090284Y0132949D02*
X0084402Y0132949D01*
X0084402Y0129012D02*
X0079087Y0129012D01*
X0078103Y0128028D01*
X0072689Y0128028D01*
X0077611Y0123106D02*
X0076627Y0122122D01*
X0077611Y0123106D02*
X0084402Y0123106D01*
X0084402Y0138854D02*
X0090284Y0138854D01*
X0090284Y0144760D02*
X0084402Y0144760D01*
X0084402Y0150665D02*
X0090284Y0150665D01*
X0097676Y0155994D02*
X0101444Y0152226D01*
X0102020Y0150834D02*
X0102020Y0149681D01*
X0105381Y0151242D02*
X0105441Y0151180D01*
X0105497Y0151116D01*
X0105551Y0151049D01*
X0105602Y0150979D01*
X0105650Y0150908D01*
X0105694Y0150835D01*
X0105736Y0150759D01*
X0105774Y0150682D01*
X0105808Y0150604D01*
X0105839Y0150523D01*
X0105867Y0150442D01*
X0105891Y0150360D01*
X0105911Y0150276D01*
X0105928Y0150192D01*
X0105941Y0150107D01*
X0105951Y0150022D01*
X0105956Y0149936D01*
X0105958Y0149850D01*
X0105957Y0149850D02*
X0105957Y0149681D01*
X0105381Y0151242D02*
X0099356Y0157267D01*
X0097675Y0155994D02*
X0097615Y0156056D01*
X0097559Y0156120D01*
X0097505Y0156187D01*
X0097454Y0156257D01*
X0097406Y0156328D01*
X0097362Y0156401D01*
X0097320Y0156477D01*
X0097282Y0156554D01*
X0097248Y0156632D01*
X0097217Y0156713D01*
X0097189Y0156794D01*
X0097165Y0156876D01*
X0097145Y0156960D01*
X0097128Y0157044D01*
X0097115Y0157129D01*
X0097105Y0157214D01*
X0097100Y0157300D01*
X0097098Y0157386D01*
X0097099Y0157386D02*
X0097099Y0195126D01*
X0097676Y0196518D02*
X0100052Y0198894D01*
X0097675Y0196518D02*
X0097615Y0196456D01*
X0097559Y0196392D01*
X0097505Y0196325D01*
X0097454Y0196255D01*
X0097406Y0196184D01*
X0097362Y0196111D01*
X0097320Y0196035D01*
X0097282Y0195958D01*
X0097248Y0195880D01*
X0097217Y0195799D01*
X0097189Y0195718D01*
X0097165Y0195636D01*
X0097145Y0195552D01*
X0097128Y0195468D01*
X0097115Y0195383D01*
X0097105Y0195298D01*
X0097100Y0195212D01*
X0097098Y0195126D01*
X0092178Y0198894D02*
X0088241Y0194957D01*
X0088241Y0182161D01*
X0079382Y0173303D01*
X0068556Y0173303D01*
X0063634Y0168382D01*
X0063634Y0159524D01*
X0067571Y0159524D02*
X0067571Y0169366D01*
X0069540Y0171335D01*
X0080367Y0171335D01*
X0092178Y0183146D01*
X0099067Y0181346D02*
X0099067Y0157963D01*
X0099068Y0157963D02*
X0099070Y0157904D01*
X0099075Y0157844D01*
X0099084Y0157786D01*
X0099097Y0157728D01*
X0099113Y0157670D01*
X0099132Y0157614D01*
X0099155Y0157559D01*
X0099181Y0157506D01*
X0099210Y0157454D01*
X0099242Y0157404D01*
X0099277Y0157356D01*
X0099315Y0157310D01*
X0099356Y0157267D01*
X0101444Y0152226D02*
X0101504Y0152164D01*
X0101560Y0152100D01*
X0101614Y0152033D01*
X0101665Y0151963D01*
X0101713Y0151892D01*
X0101757Y0151819D01*
X0101799Y0151743D01*
X0101837Y0151666D01*
X0101871Y0151588D01*
X0101902Y0151507D01*
X0101930Y0151426D01*
X0101954Y0151344D01*
X0101974Y0151260D01*
X0101991Y0151176D01*
X0102004Y0151091D01*
X0102014Y0151006D01*
X0102019Y0150920D01*
X0102021Y0150834D01*
X0102020Y0135902D02*
X0102428Y0135494D01*
X0102488Y0135432D01*
X0102544Y0135368D01*
X0102598Y0135301D01*
X0102649Y0135231D01*
X0102697Y0135160D01*
X0102741Y0135087D01*
X0102783Y0135011D01*
X0102821Y0134934D01*
X0102855Y0134856D01*
X0102886Y0134775D01*
X0102914Y0134694D01*
X0102938Y0134612D01*
X0102958Y0134528D01*
X0102975Y0134444D01*
X0102988Y0134359D01*
X0102998Y0134274D01*
X0103003Y0134188D01*
X0103005Y0134102D01*
X0103005Y0125890D02*
X0103003Y0125804D01*
X0102998Y0125718D01*
X0102988Y0125633D01*
X0102975Y0125548D01*
X0102958Y0125464D01*
X0102938Y0125380D01*
X0102914Y0125298D01*
X0102886Y0125217D01*
X0102855Y0125136D01*
X0102821Y0125058D01*
X0102783Y0124981D01*
X0102741Y0124905D01*
X0102697Y0124832D01*
X0102649Y0124761D01*
X0102598Y0124691D01*
X0102544Y0124624D01*
X0102488Y0124560D01*
X0102428Y0124498D01*
X0099883Y0123106D02*
X0099797Y0123108D01*
X0099711Y0123113D01*
X0099626Y0123123D01*
X0099541Y0123136D01*
X0099457Y0123153D01*
X0099373Y0123173D01*
X0099291Y0123197D01*
X0099210Y0123225D01*
X0099129Y0123256D01*
X0099051Y0123290D01*
X0098974Y0123328D01*
X0098898Y0123370D01*
X0098825Y0123414D01*
X0098754Y0123462D01*
X0098684Y0123513D01*
X0098617Y0123567D01*
X0098553Y0123623D01*
X0098491Y0123683D01*
X0107926Y0075075D02*
X0107729Y0074878D01*
X0055957Y0159524D02*
X0055957Y0168579D01*
X0064619Y0177240D01*
X0078398Y0177240D01*
X0084304Y0183146D01*
X0080367Y0182161D02*
X0080367Y0194957D01*
X0084304Y0198894D01*
X0080367Y0182161D02*
X0077414Y0179209D01*
X0063634Y0179209D01*
X0053989Y0169563D01*
X0053989Y0157555D01*
X0099644Y0182738D02*
X0100052Y0183146D01*
X0099644Y0182738D02*
X0099584Y0182676D01*
X0099528Y0182612D01*
X0099474Y0182545D01*
X0099423Y0182475D01*
X0099375Y0182404D01*
X0099331Y0182331D01*
X0099289Y0182255D01*
X0099251Y0182178D01*
X0099217Y0182100D01*
X0099186Y0182019D01*
X0099158Y0181938D01*
X0099134Y0181856D01*
X0099114Y0181772D01*
X0099097Y0181688D01*
X0099084Y0181603D01*
X0099074Y0181518D01*
X0099069Y0181432D01*
X0099067Y0181346D01*
D25*
X0068556Y0132161D02*
X0065800Y0132161D01*
X0065800Y0130617D01*
X0065360Y0129557D02*
X0063831Y0128028D01*
X0065361Y0129556D02*
X0065411Y0129610D01*
X0065460Y0129665D01*
X0065505Y0129723D01*
X0065547Y0129784D01*
X0065587Y0129846D01*
X0065623Y0129910D01*
X0065656Y0129976D01*
X0065686Y0130043D01*
X0065712Y0130112D01*
X0065735Y0130182D01*
X0065755Y0130253D01*
X0065771Y0130324D01*
X0065784Y0130397D01*
X0065793Y0130470D01*
X0065798Y0130543D01*
X0065800Y0130617D01*
X0068556Y0132161D02*
X0068752Y0131965D01*
X0052020Y0151453D02*
X0052020Y0155587D01*
X0052020Y0151453D02*
X0049264Y0151453D01*
X0049067Y0151650D01*
X0107926Y0064051D02*
X0107926Y0060902D01*
X0107926Y0057358D02*
X0107926Y0054209D01*
D26*
X0067768Y0110449D02*
X0065012Y0110449D01*
D27*
X0067768Y0110449D03*
X0063831Y0128028D03*
X0068752Y0131965D03*
X0052020Y0155587D03*
X0049067Y0151650D03*
X0107926Y0084720D03*
D28*
X0087867Y0095183D03*
X0070524Y0101453D03*
D29*
X0067571Y0066020D02*
X0074461Y0066020D01*
X0080367Y0066020D01*
X0082335Y0064051D01*
X0084304Y0064051D01*
X0084304Y0060902D01*
X0084304Y0064051D02*
X0086272Y0064051D01*
X0088241Y0066020D01*
X0094146Y0066020D01*
X0102020Y0066020D01*
X0104973Y0066020D01*
X0107926Y0068972D01*
X0107926Y0075075D01*
X0107926Y0084720D01*
D30*
X0110367Y0087161D01*
X0110367Y0092683D01*
X0107867Y0095183D01*
X0087867Y0095183D01*
M02*
