G75*
%MOIN*%
%OFA0B0*%
%FSLAX25Y25*%
%IPPOS*%
%LPD*%
%AMOC8*
5,1,8,0,0,1.08239X$1,22.5*
%
%ADD10C,0.04000*%
%ADD11C,0.09849*%
%ADD12R,0.07880X0.01581*%
%ADD13R,0.04140X0.04337*%
%ADD14R,0.02841X0.02841*%
%ADD15R,0.02762X0.02762*%
%ADD16R,0.01975X0.02762*%
%ADD17R,0.02447X0.01502*%
%ADD18R,0.03943X0.06699*%
%ADD19R,0.11030X0.12211*%
%ADD20R,0.01581X0.05124*%
%ADD21C,0.18117*%
D10*
X0037867Y0026433D03*
X0112867Y0026433D03*
X0112867Y0241433D03*
X0037867Y0241433D03*
D11*
X0088339Y0162476D03*
X0107630Y0164839D03*
X0088339Y0105390D03*
X0107630Y0103028D03*
D12*
X0084402Y0117201D03*
X0084402Y0119169D03*
X0084402Y0121138D03*
X0084402Y0123106D03*
X0084402Y0125075D03*
X0084402Y0127043D03*
X0084402Y0129012D03*
X0084402Y0130980D03*
X0084402Y0132949D03*
X0084402Y0134917D03*
X0084402Y0136886D03*
X0084402Y0138854D03*
X0084402Y0140823D03*
X0084402Y0142791D03*
X0084402Y0144760D03*
X0084402Y0146728D03*
X0084402Y0148697D03*
X0084402Y0150665D03*
X0084402Y0152634D03*
D13*
X0065012Y0110449D03*
X0058713Y0110449D03*
D14*
X0065997Y0119169D03*
X0069540Y0119169D03*
X0065800Y0132161D03*
X0065800Y0135705D03*
X0052020Y0147909D03*
X0052020Y0151453D03*
X0067571Y0103224D03*
X0067571Y0099681D03*
X0091390Y0090626D03*
X0094934Y0090626D03*
X0091193Y0082555D03*
X0091193Y0079012D03*
X0094343Y0074878D03*
X0097886Y0074878D03*
X0104186Y0074878D03*
X0107729Y0074878D03*
X0107926Y0060902D03*
X0107926Y0057358D03*
X0102020Y0057358D03*
X0102020Y0060902D03*
X0098083Y0060902D03*
X0098083Y0057358D03*
X0094146Y0057358D03*
X0094146Y0060902D03*
X0090209Y0060902D03*
X0090209Y0057358D03*
X0084304Y0057358D03*
X0084304Y0060902D03*
X0078398Y0060902D03*
X0078398Y0057358D03*
X0074461Y0057358D03*
X0074461Y0060902D03*
X0070524Y0060902D03*
X0070524Y0057358D03*
X0066587Y0057358D03*
X0066587Y0060902D03*
X0101233Y0090626D03*
X0104776Y0090626D03*
D15*
X0101036Y0086295D03*
X0101036Y0079209D03*
X0095130Y0079209D03*
X0095130Y0086295D03*
D16*
X0098083Y0086295D03*
X0098083Y0079209D03*
D17*
X0078910Y0221374D03*
X0078910Y0223933D03*
X0078910Y0226492D03*
X0071823Y0226492D03*
X0071823Y0223933D03*
X0071823Y0221374D03*
D18*
X0075367Y0223933D03*
D19*
X0083044Y0032043D03*
X0050130Y0032043D03*
D20*
X0057729Y0039839D03*
X0059697Y0039839D03*
X0061666Y0039839D03*
X0063634Y0039839D03*
X0065603Y0039839D03*
X0067571Y0039839D03*
X0069540Y0039839D03*
X0071508Y0039839D03*
X0073477Y0039839D03*
X0075445Y0039839D03*
D21*
X0102867Y0036433D03*
X0102867Y0231433D03*
M02*
