G75*
%MOIN*%
%OFA0B0*%
%FSLAX25Y25*%
%IPPOS*%
%LPD*%
%AMOC8*
5,1,8,0,0,1.08239X$1,22.5*
%
%ADD10C,0.01300*%
%ADD11C,0.01600*%
%ADD12C,0.01200*%
D10*
X0126010Y0037019D02*
X0128446Y0039454D01*
X0133317Y0039454D01*
X0133317Y0042502D02*
X0126010Y0047373D01*
X0126010Y0050421D02*
X0126010Y0052856D01*
X0126010Y0051638D02*
X0133317Y0051638D01*
X0133317Y0050421D02*
X0133317Y0052856D01*
X0132099Y0055700D02*
X0133317Y0056917D01*
X0133317Y0059353D01*
X0132099Y0060571D01*
X0127228Y0060571D01*
X0126010Y0059353D01*
X0126010Y0056917D01*
X0127228Y0055700D01*
X0132099Y0055700D01*
X0133317Y0063619D02*
X0126010Y0063619D01*
X0128446Y0066054D01*
X0126010Y0068489D01*
X0133317Y0068489D01*
X0138910Y0067476D02*
X0140128Y0066258D01*
X0141346Y0066258D01*
X0142564Y0067476D01*
X0142564Y0069911D01*
X0143781Y0071129D01*
X0144999Y0071129D01*
X0146217Y0069911D01*
X0146217Y0067476D01*
X0144999Y0066258D01*
X0146217Y0074177D02*
X0146217Y0076612D01*
X0146217Y0075395D02*
X0138910Y0075395D01*
X0138910Y0076612D02*
X0138910Y0074177D01*
X0140128Y0071129D02*
X0138910Y0069911D01*
X0138910Y0067476D01*
X0138910Y0079456D02*
X0138910Y0083109D01*
X0140128Y0084327D01*
X0144999Y0084327D01*
X0146217Y0083109D01*
X0146217Y0079456D01*
X0138910Y0079456D01*
X0133317Y0079456D02*
X0133317Y0083109D01*
X0132099Y0084327D01*
X0130881Y0084327D01*
X0129664Y0083109D01*
X0129664Y0079456D01*
X0133317Y0079456D02*
X0126010Y0079456D01*
X0126010Y0083109D01*
X0127228Y0084327D01*
X0128446Y0084327D01*
X0129664Y0083109D01*
X0129664Y0087375D02*
X0129664Y0089810D01*
X0133317Y0087375D02*
X0133317Y0092246D01*
X0133317Y0087375D02*
X0126010Y0087375D01*
X0126010Y0092246D01*
X0126010Y0095294D02*
X0126010Y0100164D01*
X0126010Y0097729D02*
X0133317Y0097729D01*
X0133317Y0103212D02*
X0128446Y0103212D01*
X0126010Y0105648D01*
X0128446Y0108083D01*
X0133317Y0108083D01*
X0129664Y0108083D02*
X0129664Y0103212D01*
X0138910Y0092246D02*
X0138910Y0087375D01*
X0146217Y0087375D01*
X0146217Y0092246D01*
X0142564Y0089810D02*
X0142564Y0087375D01*
X0133317Y0119050D02*
X0126010Y0119050D01*
X0126010Y0123921D02*
X0133317Y0123921D01*
X0133317Y0126969D02*
X0133317Y0130622D01*
X0132099Y0131839D01*
X0127228Y0131839D01*
X0126010Y0130622D01*
X0126010Y0126969D01*
X0133317Y0126969D01*
X0129664Y0123921D02*
X0129664Y0119050D01*
X0133317Y0134887D02*
X0126010Y0134887D01*
X0128446Y0137323D01*
X0126010Y0139758D01*
X0133317Y0139758D01*
X0133317Y0142806D02*
X0133317Y0145242D01*
X0133317Y0144024D02*
X0126010Y0144024D01*
X0126010Y0142806D02*
X0126010Y0145242D01*
X0127228Y0156004D02*
X0128446Y0156004D01*
X0129664Y0157222D01*
X0129664Y0159657D01*
X0130881Y0160875D01*
X0132099Y0160875D01*
X0133317Y0159657D01*
X0133317Y0157222D01*
X0132099Y0156004D01*
X0127228Y0156004D02*
X0126010Y0157222D01*
X0126010Y0159657D01*
X0127228Y0160875D01*
X0126010Y0163923D02*
X0133317Y0163923D01*
X0129664Y0163923D02*
X0129664Y0168794D01*
X0133317Y0168794D02*
X0126010Y0168794D01*
X0126010Y0171842D02*
X0126010Y0174277D01*
X0126010Y0173059D02*
X0133317Y0173059D01*
X0133317Y0171842D02*
X0133317Y0174277D01*
X0133317Y0177121D02*
X0133317Y0181992D01*
X0133317Y0185040D02*
X0133317Y0189910D01*
X0133317Y0192958D02*
X0133317Y0196611D01*
X0132099Y0197829D01*
X0127228Y0197829D01*
X0126010Y0196611D01*
X0126010Y0192958D01*
X0133317Y0192958D01*
X0133317Y0185040D02*
X0126010Y0185040D01*
X0126010Y0181992D02*
X0126010Y0177121D01*
X0133317Y0177121D01*
X0129664Y0177121D02*
X0129664Y0179556D01*
X0138910Y0180876D02*
X0146217Y0180876D01*
X0146217Y0178441D02*
X0146217Y0183311D01*
X0146217Y0186359D02*
X0144999Y0186359D01*
X0144999Y0187577D01*
X0146217Y0187577D01*
X0146217Y0186359D01*
X0144999Y0190319D02*
X0140128Y0195190D01*
X0144999Y0195190D01*
X0146217Y0193972D01*
X0146217Y0191536D01*
X0144999Y0190319D01*
X0140128Y0190319D01*
X0138910Y0191536D01*
X0138910Y0193972D01*
X0140128Y0195190D01*
X0138910Y0180876D02*
X0141346Y0178441D01*
X0140128Y0175393D02*
X0142564Y0175393D01*
X0143781Y0174175D01*
X0143781Y0170522D01*
X0143781Y0172957D02*
X0146217Y0175393D01*
X0146217Y0170522D02*
X0138910Y0170522D01*
X0138910Y0174175D01*
X0140128Y0175393D01*
X0140128Y0159555D02*
X0138910Y0158337D01*
X0138910Y0155902D01*
X0140128Y0154684D01*
X0140128Y0159555D02*
X0141346Y0159555D01*
X0146217Y0154684D01*
X0146217Y0159555D01*
X0146217Y0151943D02*
X0144999Y0151943D01*
X0144999Y0150725D01*
X0146217Y0150725D01*
X0146217Y0151943D01*
X0144999Y0147677D02*
X0146217Y0146459D01*
X0146217Y0144024D01*
X0144999Y0142806D01*
X0140128Y0147677D01*
X0144999Y0147677D01*
X0144999Y0142806D02*
X0140128Y0142806D01*
X0138910Y0144024D01*
X0138910Y0146459D01*
X0140128Y0147677D01*
X0138910Y0139758D02*
X0143781Y0139758D01*
X0146217Y0137323D01*
X0143781Y0134887D01*
X0138910Y0134887D01*
X0133317Y0209583D02*
X0126010Y0209583D01*
X0126010Y0213236D01*
X0127228Y0214454D01*
X0128446Y0214454D01*
X0129664Y0213236D01*
X0129664Y0209583D01*
X0129664Y0213236D02*
X0130881Y0214454D01*
X0132099Y0214454D01*
X0133317Y0213236D01*
X0133317Y0209583D01*
X0132099Y0217502D02*
X0129664Y0217502D01*
X0128446Y0218720D01*
X0128446Y0221155D01*
X0129664Y0222373D01*
X0130881Y0222373D01*
X0130881Y0217502D01*
X0132099Y0217502D02*
X0133317Y0218720D01*
X0133317Y0221155D01*
X0132099Y0226638D02*
X0133317Y0227856D01*
X0132099Y0226638D02*
X0127228Y0226638D01*
X0128446Y0225421D02*
X0128446Y0227856D01*
X0128446Y0231917D02*
X0128446Y0234353D01*
X0129664Y0235571D01*
X0133317Y0235571D01*
X0133317Y0231917D01*
X0132099Y0230700D01*
X0130881Y0231917D01*
X0130881Y0235571D01*
X0140128Y0055291D02*
X0142564Y0055291D01*
X0143781Y0054074D01*
X0143781Y0050421D01*
X0144999Y0047373D02*
X0140128Y0047373D01*
X0138910Y0046155D01*
X0138910Y0043720D01*
X0140128Y0042502D01*
X0144999Y0042502D01*
X0146217Y0043720D01*
X0146217Y0046155D01*
X0144999Y0047373D01*
X0146217Y0050421D02*
X0138910Y0050421D01*
X0138910Y0054074D01*
X0140128Y0055291D01*
X0133317Y0047373D02*
X0126010Y0042502D01*
X0129664Y0039454D02*
X0129664Y0034583D01*
X0128446Y0034583D02*
X0126010Y0037019D01*
X0128446Y0034583D02*
X0133317Y0034583D01*
X0138910Y0034583D02*
X0138910Y0039454D01*
X0138910Y0037019D02*
X0146217Y0037019D01*
D11*
X0145867Y0203933D02*
X0125867Y0203933D01*
D12*
X0117867Y0021433D02*
X0032867Y0021433D01*
X0032867Y0246433D01*
X0117867Y0246433D01*
X0117867Y0021433D01*
M02*
