G75*
%MOIN*%
%OFA0B0*%
%FSLAX25Y25*%
%IPPOS*%
%LPD*%
%AMOC8*
5,1,8,0,0,1.08239X$1,22.5*
%
%ADD10C,0.04000*%
%ADD11R,0.03550X0.11424*%
%ADD12C,0.09849*%
%ADD13R,0.04337X0.02565*%
%ADD14R,0.04337X0.04140*%
%ADD15R,0.02841X0.02841*%
%ADD16R,0.02369X0.03156*%
%ADD17R,0.03943X0.01542*%
%ADD18R,0.01542X0.03943*%
%ADD19C,0.00394*%
%ADD20R,0.02447X0.02447*%
%ADD21R,0.01975X0.03353*%
%ADD22R,0.01581X0.03353*%
%ADD23C,0.18117*%
D10*
X0037867Y0026433D03*
X0112867Y0026433D03*
X0112867Y0241433D03*
X0037867Y0241433D03*
D11*
X0052808Y0206307D03*
X0060682Y0206307D03*
X0068556Y0206307D03*
X0076430Y0206307D03*
X0084304Y0206307D03*
X0092178Y0206307D03*
X0100052Y0206307D03*
X0107926Y0206307D03*
X0107926Y0190559D03*
X0100052Y0190559D03*
X0092178Y0190559D03*
X0084304Y0190559D03*
X0076430Y0190559D03*
X0068556Y0190559D03*
X0060682Y0190559D03*
X0052808Y0190559D03*
X0052808Y0077307D03*
X0060682Y0077307D03*
X0068556Y0077307D03*
X0076430Y0077307D03*
X0084304Y0077307D03*
X0092178Y0077307D03*
X0100052Y0077307D03*
X0107926Y0077307D03*
X0107926Y0061559D03*
X0100052Y0061559D03*
X0092178Y0061559D03*
X0084304Y0061559D03*
X0076430Y0061559D03*
X0068556Y0061559D03*
X0060682Y0061559D03*
X0052808Y0061559D03*
D12*
X0088339Y0105390D03*
X0107630Y0103028D03*
X0088339Y0162476D03*
X0107630Y0164839D03*
D13*
X0066981Y0105193D03*
X0066981Y0101453D03*
X0066981Y0097713D03*
X0056351Y0097713D03*
X0056351Y0101453D03*
X0056351Y0105193D03*
D14*
X0076351Y0104602D03*
X0076351Y0098303D03*
X0099117Y0098333D03*
X0099117Y0092033D03*
X0099117Y0169533D03*
X0099117Y0175833D03*
D15*
X0093867Y0175955D03*
X0093867Y0172411D03*
X0098083Y0146532D03*
X0098083Y0142988D03*
X0102020Y0142595D03*
X0102217Y0146728D03*
X0105760Y0146728D03*
X0105957Y0142595D03*
X0105957Y0139051D03*
X0109894Y0142988D03*
X0109894Y0146532D03*
X0102020Y0139051D03*
X0102217Y0126059D03*
X0102217Y0122122D03*
X0102217Y0118185D03*
X0102217Y0114248D03*
X0105760Y0114248D03*
X0105760Y0118185D03*
X0105760Y0122122D03*
X0105760Y0126059D03*
X0109894Y0125862D03*
X0109894Y0122319D03*
X0109894Y0117988D03*
X0109894Y0114445D03*
X0093867Y0095455D03*
X0093867Y0091911D03*
X0067768Y0117398D03*
X0067768Y0120941D03*
X0063831Y0120941D03*
X0063831Y0117398D03*
X0059894Y0117398D03*
X0059894Y0120941D03*
X0055957Y0120941D03*
X0055957Y0117398D03*
X0057926Y0162673D03*
X0057926Y0166217D03*
X0063634Y0166217D03*
X0063634Y0162673D03*
X0067571Y0162673D03*
X0067571Y0166217D03*
X0072867Y0222161D03*
X0072867Y0225705D03*
X0073595Y0231374D03*
X0073595Y0235311D03*
X0077138Y0235311D03*
X0077138Y0231374D03*
X0077867Y0225705D03*
X0077867Y0222161D03*
X0072296Y0041413D03*
X0072296Y0037476D03*
X0068752Y0037476D03*
X0068752Y0041413D03*
X0068752Y0033539D03*
X0072296Y0033539D03*
X0072296Y0029602D03*
X0068752Y0029602D03*
X0048674Y0029602D03*
X0048674Y0033539D03*
X0048674Y0037476D03*
X0048674Y0041413D03*
X0045130Y0041413D03*
X0045130Y0037476D03*
X0045130Y0033539D03*
X0045130Y0029602D03*
D16*
X0072689Y0116413D03*
X0072689Y0121532D03*
D17*
X0068949Y0134917D03*
X0068949Y0136886D03*
X0068949Y0138854D03*
X0068949Y0140823D03*
X0068949Y0142791D03*
X0068949Y0144760D03*
X0068949Y0146728D03*
X0068949Y0148697D03*
X0048871Y0148697D03*
X0048871Y0146728D03*
X0048871Y0144760D03*
X0048871Y0142791D03*
X0048871Y0140823D03*
X0048871Y0138854D03*
X0048871Y0136886D03*
X0048871Y0134917D03*
D18*
X0052020Y0131768D03*
X0053989Y0131768D03*
X0055957Y0131768D03*
X0057926Y0131768D03*
X0059894Y0131768D03*
X0061863Y0131768D03*
X0063831Y0131768D03*
X0065800Y0131768D03*
X0065800Y0151846D03*
X0063831Y0151846D03*
X0061863Y0151846D03*
X0059894Y0151846D03*
X0057926Y0151846D03*
X0055957Y0151846D03*
X0053989Y0151846D03*
X0052020Y0151846D03*
D19*
X0052020Y0148697D02*
X0056941Y0148697D01*
X0056941Y0148598D01*
X0056692Y0148563D01*
X0056463Y0148458D01*
X0056272Y0148293D01*
X0056136Y0148081D01*
X0056065Y0147839D01*
X0056065Y0147587D01*
X0056136Y0147345D01*
X0056272Y0147133D01*
X0056463Y0146967D01*
X0056692Y0146863D01*
X0056941Y0146827D01*
X0056941Y0144661D01*
X0056692Y0144626D01*
X0056463Y0144521D01*
X0056272Y0144356D01*
X0056136Y0144144D01*
X0056065Y0143902D01*
X0056065Y0143650D01*
X0056136Y0143408D01*
X0056272Y0143196D01*
X0056463Y0143030D01*
X0056692Y0142926D01*
X0056941Y0142890D01*
X0057191Y0142926D01*
X0057420Y0143030D01*
X0057611Y0143196D01*
X0057747Y0143408D01*
X0057818Y0143650D01*
X0057818Y0143902D01*
X0057747Y0144144D01*
X0057611Y0144356D01*
X0057420Y0144521D01*
X0057191Y0144626D01*
X0056941Y0144661D01*
X0056941Y0146827D01*
X0057191Y0146863D01*
X0057420Y0146967D01*
X0057611Y0147133D01*
X0057747Y0147345D01*
X0057818Y0147587D01*
X0057818Y0147839D01*
X0057747Y0148081D01*
X0057611Y0148293D01*
X0057420Y0148458D01*
X0057191Y0148563D01*
X0056941Y0148598D01*
X0056941Y0148697D01*
X0060878Y0148697D01*
X0060878Y0148598D01*
X0060629Y0148563D01*
X0060400Y0148458D01*
X0060209Y0148293D01*
X0060073Y0148081D01*
X0060002Y0147839D01*
X0060002Y0147587D01*
X0060073Y0147345D01*
X0060209Y0147133D01*
X0060400Y0146967D01*
X0060629Y0146863D01*
X0060878Y0146827D01*
X0060878Y0144661D01*
X0060629Y0144626D01*
X0060400Y0144521D01*
X0060209Y0144356D01*
X0060073Y0144144D01*
X0060002Y0143902D01*
X0060002Y0143650D01*
X0060073Y0143408D01*
X0060209Y0143196D01*
X0060400Y0143030D01*
X0060629Y0142926D01*
X0060878Y0142890D01*
X0061128Y0142926D01*
X0061357Y0143030D01*
X0061548Y0143196D01*
X0061684Y0143408D01*
X0061755Y0143650D01*
X0061755Y0143902D01*
X0061684Y0144144D01*
X0061548Y0144356D01*
X0061357Y0144521D01*
X0061128Y0144626D01*
X0060878Y0144661D01*
X0060878Y0146827D01*
X0061128Y0146863D01*
X0061357Y0146967D01*
X0061548Y0147133D01*
X0061684Y0147345D01*
X0061755Y0147587D01*
X0061755Y0147839D01*
X0061684Y0148081D01*
X0061548Y0148293D01*
X0061357Y0148458D01*
X0061128Y0148563D01*
X0060878Y0148598D01*
X0060878Y0148697D01*
X0065800Y0148697D01*
X0065445Y0148343D01*
X0065242Y0148495D01*
X0065005Y0148583D01*
X0064752Y0148601D01*
X0064504Y0148547D01*
X0064282Y0148426D01*
X0064102Y0148246D01*
X0063981Y0148024D01*
X0063927Y0147776D01*
X0063945Y0147523D01*
X0064034Y0147286D01*
X0064186Y0147083D01*
X0064389Y0146931D01*
X0064626Y0146842D01*
X0064879Y0146824D01*
X0065127Y0146878D01*
X0065349Y0146999D01*
X0065529Y0147179D01*
X0065650Y0147401D01*
X0065704Y0147649D01*
X0065686Y0147902D01*
X0065597Y0148140D01*
X0065445Y0148343D01*
X0065800Y0148697D01*
X0065800Y0143776D01*
X0065701Y0143776D01*
X0065665Y0144025D01*
X0065561Y0144255D01*
X0065396Y0144445D01*
X0065183Y0144581D01*
X0064942Y0144652D01*
X0064689Y0144652D01*
X0064447Y0144581D01*
X0064235Y0144445D01*
X0064070Y0144255D01*
X0063966Y0144025D01*
X0063930Y0143776D01*
X0063966Y0143526D01*
X0064070Y0143297D01*
X0064235Y0143106D01*
X0064447Y0142970D01*
X0064689Y0142899D01*
X0064942Y0142899D01*
X0065183Y0142970D01*
X0065396Y0143106D01*
X0065561Y0143297D01*
X0065665Y0143526D01*
X0065701Y0143776D01*
X0065800Y0143776D01*
X0065800Y0139839D01*
X0065701Y0139839D01*
X0065665Y0140088D01*
X0065561Y0140318D01*
X0065396Y0140508D01*
X0065183Y0140644D01*
X0064942Y0140715D01*
X0064689Y0140715D01*
X0064447Y0140644D01*
X0064235Y0140508D01*
X0064070Y0140318D01*
X0063966Y0140088D01*
X0063930Y0139839D01*
X0063966Y0139589D01*
X0064070Y0139360D01*
X0064235Y0139169D01*
X0064447Y0139033D01*
X0064689Y0138962D01*
X0064942Y0138962D01*
X0065183Y0139033D01*
X0065396Y0139169D01*
X0065561Y0139360D01*
X0065665Y0139589D01*
X0065701Y0139839D01*
X0065800Y0139839D01*
X0065800Y0134917D01*
X0060878Y0134917D01*
X0060878Y0135016D01*
X0061128Y0135052D01*
X0061357Y0135156D01*
X0061548Y0135322D01*
X0061684Y0135534D01*
X0061755Y0135776D01*
X0061755Y0136028D01*
X0061684Y0136270D01*
X0061548Y0136482D01*
X0061357Y0136647D01*
X0061128Y0136752D01*
X0060878Y0136787D01*
X0060878Y0138953D01*
X0061128Y0138989D01*
X0061357Y0139093D01*
X0061548Y0139259D01*
X0061684Y0139471D01*
X0061755Y0139713D01*
X0061755Y0139965D01*
X0061684Y0140207D01*
X0061548Y0140419D01*
X0061357Y0140584D01*
X0061128Y0140689D01*
X0060878Y0140724D01*
X0060629Y0140689D01*
X0060400Y0140584D01*
X0060209Y0140419D01*
X0060073Y0140207D01*
X0060002Y0139965D01*
X0060002Y0139713D01*
X0060073Y0139471D01*
X0060209Y0139259D01*
X0060400Y0139093D01*
X0060629Y0138989D01*
X0060878Y0138953D01*
X0060878Y0136787D01*
X0060629Y0136752D01*
X0060400Y0136647D01*
X0060209Y0136482D01*
X0060073Y0136270D01*
X0060002Y0136028D01*
X0060002Y0135776D01*
X0060073Y0135534D01*
X0060209Y0135322D01*
X0060400Y0135156D01*
X0060629Y0135052D01*
X0060878Y0135016D01*
X0060878Y0134917D01*
X0056941Y0134917D01*
X0056941Y0135035D01*
X0057188Y0135071D01*
X0057415Y0135175D01*
X0057603Y0135338D01*
X0057738Y0135548D01*
X0057809Y0135787D01*
X0057809Y0136036D01*
X0057738Y0136275D01*
X0057603Y0136485D01*
X0057415Y0136648D01*
X0057188Y0136752D01*
X0056941Y0136787D01*
X0056941Y0138953D01*
X0057191Y0138989D01*
X0057420Y0139093D01*
X0057611Y0139259D01*
X0057747Y0139471D01*
X0057818Y0139713D01*
X0057818Y0139965D01*
X0057747Y0140207D01*
X0057611Y0140419D01*
X0057420Y0140584D01*
X0057191Y0140689D01*
X0056941Y0140724D01*
X0056692Y0140689D01*
X0056463Y0140584D01*
X0056272Y0140419D01*
X0056136Y0140207D01*
X0056065Y0139965D01*
X0056065Y0139713D01*
X0056136Y0139471D01*
X0056272Y0139259D01*
X0056463Y0139093D01*
X0056692Y0138989D01*
X0056941Y0138953D01*
X0056941Y0136787D01*
X0056692Y0136752D01*
X0056463Y0136647D01*
X0056272Y0136482D01*
X0056136Y0136270D01*
X0056065Y0136028D01*
X0056065Y0135776D01*
X0056136Y0135534D01*
X0056272Y0135322D01*
X0056463Y0135156D01*
X0056692Y0135052D01*
X0056941Y0135016D01*
X0056941Y0134917D01*
X0052020Y0134917D01*
X0052375Y0135272D01*
X0052578Y0135120D01*
X0052815Y0135031D01*
X0053068Y0135013D01*
X0053316Y0135067D01*
X0053538Y0135188D01*
X0053718Y0135368D01*
X0053839Y0135590D01*
X0053893Y0135838D01*
X0053875Y0136091D01*
X0053786Y0136329D01*
X0053634Y0136532D01*
X0053431Y0136683D01*
X0053194Y0136772D01*
X0052941Y0136790D01*
X0052693Y0136736D01*
X0052471Y0136615D01*
X0052291Y0136435D01*
X0052170Y0136213D01*
X0052116Y0135965D01*
X0052134Y0135712D01*
X0052223Y0135475D01*
X0052375Y0135272D01*
X0052020Y0134917D01*
X0052020Y0139839D01*
X0052119Y0139839D01*
X0052155Y0139589D01*
X0052259Y0139360D01*
X0052424Y0139169D01*
X0052636Y0139033D01*
X0052878Y0138962D01*
X0053131Y0138962D01*
X0053372Y0139033D01*
X0053585Y0139169D01*
X0053750Y0139360D01*
X0053854Y0139589D01*
X0053890Y0139839D01*
X0053854Y0140088D01*
X0053750Y0140318D01*
X0053585Y0140508D01*
X0053372Y0140644D01*
X0053131Y0140715D01*
X0052878Y0140715D01*
X0052636Y0140644D01*
X0052424Y0140508D01*
X0052259Y0140318D01*
X0052155Y0140088D01*
X0052119Y0139839D01*
X0052020Y0139839D01*
X0052020Y0143776D01*
X0052119Y0143776D01*
X0052155Y0143526D01*
X0052259Y0143297D01*
X0052424Y0143106D01*
X0052636Y0142970D01*
X0052878Y0142899D01*
X0053131Y0142899D01*
X0053372Y0142970D01*
X0053585Y0143106D01*
X0053750Y0143297D01*
X0053854Y0143526D01*
X0053890Y0143776D01*
X0053854Y0144025D01*
X0053750Y0144255D01*
X0053585Y0144445D01*
X0053372Y0144581D01*
X0053131Y0144652D01*
X0052878Y0144652D01*
X0052636Y0144581D01*
X0052424Y0144445D01*
X0052259Y0144255D01*
X0052155Y0144025D01*
X0052119Y0143776D01*
X0052020Y0143776D01*
X0052020Y0148697D01*
X0052020Y0148445D02*
X0056448Y0148445D01*
X0056127Y0148053D02*
X0052020Y0148053D01*
X0052020Y0147661D02*
X0056065Y0147661D01*
X0056185Y0147268D02*
X0052020Y0147268D01*
X0052020Y0146876D02*
X0056663Y0146876D01*
X0056941Y0146484D02*
X0060878Y0146484D01*
X0065800Y0146484D01*
X0065800Y0146876D02*
X0065118Y0146876D01*
X0064535Y0146876D02*
X0061157Y0146876D01*
X0060600Y0146876D02*
X0057220Y0146876D01*
X0056941Y0146484D02*
X0052020Y0146484D01*
X0052020Y0146092D02*
X0056941Y0146092D01*
X0060878Y0146092D01*
X0065800Y0146092D01*
X0065800Y0145699D02*
X0060878Y0145699D01*
X0056941Y0145699D01*
X0052020Y0145699D01*
X0052020Y0145307D02*
X0056941Y0145307D01*
X0060878Y0145307D01*
X0065800Y0145307D01*
X0065800Y0144915D02*
X0060878Y0144915D01*
X0056941Y0144915D01*
X0052020Y0144915D01*
X0052020Y0144523D02*
X0052545Y0144523D01*
X0052203Y0144131D02*
X0052020Y0144131D01*
X0052020Y0143738D02*
X0052124Y0143738D01*
X0052020Y0143346D02*
X0052237Y0143346D01*
X0052020Y0142954D02*
X0052690Y0142954D01*
X0053318Y0142954D02*
X0056630Y0142954D01*
X0056175Y0143346D02*
X0053772Y0143346D01*
X0053885Y0143738D02*
X0056065Y0143738D01*
X0056132Y0144131D02*
X0053806Y0144131D01*
X0053464Y0144523D02*
X0056467Y0144523D01*
X0057416Y0144523D02*
X0060404Y0144523D01*
X0060069Y0144131D02*
X0057751Y0144131D01*
X0057818Y0143738D02*
X0060002Y0143738D01*
X0060112Y0143346D02*
X0057708Y0143346D01*
X0057253Y0142954D02*
X0060567Y0142954D01*
X0061190Y0142954D02*
X0064502Y0142954D01*
X0064048Y0143346D02*
X0061645Y0143346D01*
X0061755Y0143738D02*
X0063935Y0143738D01*
X0064014Y0144131D02*
X0061688Y0144131D01*
X0061353Y0144523D02*
X0064356Y0144523D01*
X0065275Y0144523D02*
X0065800Y0144523D01*
X0065800Y0144131D02*
X0065617Y0144131D01*
X0065696Y0143738D02*
X0065800Y0143738D01*
X0065800Y0143346D02*
X0065583Y0143346D01*
X0065800Y0142954D02*
X0065129Y0142954D01*
X0065800Y0142562D02*
X0052020Y0142562D01*
X0052020Y0142170D02*
X0065800Y0142170D01*
X0065800Y0141777D02*
X0052020Y0141777D01*
X0052020Y0141385D02*
X0065800Y0141385D01*
X0065800Y0140993D02*
X0052020Y0140993D01*
X0052020Y0140601D02*
X0052568Y0140601D01*
X0052209Y0140208D02*
X0052020Y0140208D01*
X0052020Y0139816D02*
X0052122Y0139816D01*
X0052020Y0139424D02*
X0052230Y0139424D01*
X0052020Y0139032D02*
X0052640Y0139032D01*
X0053369Y0139032D02*
X0056597Y0139032D01*
X0056941Y0138640D02*
X0060878Y0138640D01*
X0065800Y0138640D01*
X0065800Y0139032D02*
X0065180Y0139032D01*
X0065590Y0139424D02*
X0065800Y0139424D01*
X0065800Y0139816D02*
X0065698Y0139816D01*
X0065610Y0140208D02*
X0065800Y0140208D01*
X0065800Y0140601D02*
X0065251Y0140601D01*
X0064380Y0140601D02*
X0061320Y0140601D01*
X0061683Y0140208D02*
X0064020Y0140208D01*
X0063933Y0139816D02*
X0061755Y0139816D01*
X0061654Y0139424D02*
X0064041Y0139424D01*
X0064451Y0139032D02*
X0061223Y0139032D01*
X0060534Y0139032D02*
X0057286Y0139032D01*
X0056941Y0138640D02*
X0052020Y0138640D01*
X0052020Y0138247D02*
X0056941Y0138247D01*
X0060878Y0138247D01*
X0065800Y0138247D01*
X0065800Y0137855D02*
X0060878Y0137855D01*
X0056941Y0137855D01*
X0052020Y0137855D01*
X0052020Y0137463D02*
X0056941Y0137463D01*
X0060878Y0137463D01*
X0065800Y0137463D01*
X0065800Y0137071D02*
X0060878Y0137071D01*
X0056941Y0137071D01*
X0052020Y0137071D01*
X0052020Y0136679D02*
X0052587Y0136679D01*
X0052210Y0136286D02*
X0052020Y0136286D01*
X0052020Y0135894D02*
X0052121Y0135894D01*
X0052212Y0135502D02*
X0052020Y0135502D01*
X0052020Y0135110D02*
X0052213Y0135110D01*
X0052604Y0135110D01*
X0053394Y0135110D02*
X0056565Y0135110D01*
X0056156Y0135502D02*
X0053791Y0135502D01*
X0053889Y0135894D02*
X0056065Y0135894D01*
X0056146Y0136286D02*
X0053802Y0136286D01*
X0053438Y0136679D02*
X0056532Y0136679D01*
X0057349Y0136679D02*
X0060469Y0136679D01*
X0060083Y0136286D02*
X0057731Y0136286D01*
X0057809Y0135894D02*
X0060002Y0135894D01*
X0060093Y0135502D02*
X0057709Y0135502D01*
X0057273Y0135110D02*
X0060502Y0135110D01*
X0061255Y0135110D02*
X0065800Y0135110D01*
X0065800Y0135502D02*
X0061664Y0135502D01*
X0061755Y0135894D02*
X0065800Y0135894D01*
X0065800Y0136286D02*
X0061673Y0136286D01*
X0061288Y0136679D02*
X0065800Y0136679D01*
X0060437Y0140601D02*
X0057383Y0140601D01*
X0057746Y0140208D02*
X0060074Y0140208D01*
X0060002Y0139816D02*
X0057818Y0139816D01*
X0057717Y0139424D02*
X0060103Y0139424D01*
X0056500Y0140601D02*
X0053440Y0140601D01*
X0053799Y0140208D02*
X0056137Y0140208D01*
X0056065Y0139816D02*
X0053887Y0139816D01*
X0053779Y0139424D02*
X0056166Y0139424D01*
X0057698Y0147268D02*
X0060122Y0147268D01*
X0060002Y0147661D02*
X0057818Y0147661D01*
X0057755Y0148053D02*
X0060064Y0148053D01*
X0060385Y0148445D02*
X0057435Y0148445D01*
X0061372Y0148445D02*
X0064317Y0148445D01*
X0063997Y0148053D02*
X0061692Y0148053D01*
X0061755Y0147661D02*
X0063935Y0147661D01*
X0064047Y0147268D02*
X0061635Y0147268D01*
X0065309Y0148445D02*
X0065548Y0148445D01*
X0065800Y0148445D01*
X0065800Y0148053D02*
X0065630Y0148053D01*
X0065703Y0147661D02*
X0065800Y0147661D01*
X0065800Y0147268D02*
X0065578Y0147268D01*
D20*
X0046508Y0162870D03*
X0046508Y0166020D03*
X0043359Y0166020D03*
X0043359Y0162870D03*
X0040603Y0156177D03*
X0040603Y0153028D03*
X0037453Y0153028D03*
X0037453Y0156177D03*
X0037453Y0130587D03*
X0037453Y0127437D03*
X0040603Y0127437D03*
X0040603Y0130587D03*
X0043359Y0120744D03*
X0043359Y0117595D03*
X0046508Y0117595D03*
X0046508Y0120744D03*
D21*
X0055564Y0040921D03*
X0055564Y0030095D03*
X0061863Y0030095D03*
X0061863Y0040921D03*
X0079186Y0040921D03*
X0085485Y0040921D03*
X0085485Y0030095D03*
X0079186Y0030095D03*
D22*
X0081351Y0030095D03*
X0083319Y0030095D03*
X0083319Y0040921D03*
X0081351Y0040921D03*
X0059697Y0040921D03*
X0057729Y0040921D03*
X0057729Y0030095D03*
X0059697Y0030095D03*
D23*
X0102867Y0036433D03*
X0102867Y0231433D03*
M02*
